G04 #@! TF.GenerationSoftware,KiCad,Pcbnew,(5.1.10)-1*
G04 #@! TF.CreationDate,2021-07-16T09:38:31+09:00*
G04 #@! TF.ProjectId,Key_checker,4b65795f-6368-4656-936b-65722e6b6963,rev?*
G04 #@! TF.SameCoordinates,Original*
G04 #@! TF.FileFunction,Copper,L1,Top*
G04 #@! TF.FilePolarity,Positive*
%FSLAX46Y46*%
G04 Gerber Fmt 4.6, Leading zero omitted, Abs format (unit mm)*
G04 Created by KiCad (PCBNEW (5.1.10)-1) date 2021-07-16 09:38:31*
%MOMM*%
%LPD*%
G01*
G04 APERTURE LIST*
G04 #@! TA.AperFunction,ComponentPad*
%ADD10O,1.700000X1.700000*%
G04 #@! TD*
G04 #@! TA.AperFunction,ComponentPad*
%ADD11R,1.700000X1.700000*%
G04 #@! TD*
G04 #@! TA.AperFunction,ComponentPad*
%ADD12O,1.500000X2.000000*%
G04 #@! TD*
G04 #@! TA.AperFunction,ComponentPad*
%ADD13R,1.500000X4.100000*%
G04 #@! TD*
G04 #@! TA.AperFunction,ComponentPad*
%ADD14O,1.500000X4.100000*%
G04 #@! TD*
G04 #@! TA.AperFunction,ComponentPad*
%ADD15C,1.620000*%
G04 #@! TD*
G04 #@! TA.AperFunction,ComponentPad*
%ADD16C,1.800000*%
G04 #@! TD*
G04 #@! TA.AperFunction,ComponentPad*
%ADD17R,1.800000X1.800000*%
G04 #@! TD*
G04 #@! TA.AperFunction,ComponentPad*
%ADD18O,1.070000X1.800000*%
G04 #@! TD*
G04 #@! TA.AperFunction,ComponentPad*
%ADD19R,1.070000X1.800000*%
G04 #@! TD*
G04 #@! TA.AperFunction,Conductor*
%ADD20C,0.250000*%
G04 #@! TD*
G04 #@! TA.AperFunction,NonConductor*
%ADD21C,0.254000*%
G04 #@! TD*
G04 #@! TA.AperFunction,NonConductor*
%ADD22C,0.100000*%
G04 #@! TD*
G04 #@! TA.AperFunction,Conductor*
%ADD23C,0.254000*%
G04 #@! TD*
G04 #@! TA.AperFunction,Conductor*
%ADD24C,0.100000*%
G04 #@! TD*
G04 APERTURE END LIST*
D10*
X200025000Y-45085000D03*
X202565000Y-45085000D03*
X205105000Y-45085000D03*
D11*
X207645000Y-45085000D03*
D12*
X195580000Y-44450000D03*
X195580000Y-69850000D03*
X193040000Y-44450000D03*
X193040000Y-69850000D03*
X190500000Y-44450000D03*
X190500000Y-69850000D03*
X187960000Y-44450000D03*
X187960000Y-69850000D03*
X185420000Y-44450000D03*
X185420000Y-69850000D03*
X182880000Y-44450000D03*
X182880000Y-69850000D03*
X180340000Y-44450000D03*
X180340000Y-69850000D03*
X177800000Y-44450000D03*
X177800000Y-69850000D03*
X175260000Y-44450000D03*
X175260000Y-69850000D03*
X172720000Y-44450000D03*
X172720000Y-69850000D03*
X170180000Y-44450000D03*
X170180000Y-69850000D03*
X167640000Y-44450000D03*
X167640000Y-69850000D03*
X165100000Y-44450000D03*
X165100000Y-69850000D03*
X162560000Y-44450000D03*
X162560000Y-69850000D03*
X160020000Y-44450000D03*
X160020000Y-69850000D03*
X157480000Y-44450000D03*
X157480000Y-69850000D03*
X154940000Y-44450000D03*
X154940000Y-69850000D03*
X152400000Y-44450000D03*
X152400000Y-69850000D03*
X149860000Y-44450000D03*
X149860000Y-69850000D03*
D13*
X181970000Y-80550000D03*
D14*
X198070000Y-80550000D03*
X190770000Y-80550000D03*
D15*
X193040000Y-49530000D03*
X195540000Y-52030000D03*
X193040000Y-54530000D03*
G04 #@! TA.AperFunction,SMDPad,CuDef*
G36*
G01*
X162985000Y-48497500D02*
X162985000Y-48022500D01*
G75*
G02*
X163222500Y-47785000I237500J0D01*
G01*
X163722500Y-47785000D01*
G75*
G02*
X163960000Y-48022500I0J-237500D01*
G01*
X163960000Y-48497500D01*
G75*
G02*
X163722500Y-48735000I-237500J0D01*
G01*
X163222500Y-48735000D01*
G75*
G02*
X162985000Y-48497500I0J237500D01*
G01*
G37*
G04 #@! TD.AperFunction*
G04 #@! TA.AperFunction,SMDPad,CuDef*
G36*
G01*
X161160000Y-48497500D02*
X161160000Y-48022500D01*
G75*
G02*
X161397500Y-47785000I237500J0D01*
G01*
X161897500Y-47785000D01*
G75*
G02*
X162135000Y-48022500I0J-237500D01*
G01*
X162135000Y-48497500D01*
G75*
G02*
X161897500Y-48735000I-237500J0D01*
G01*
X161397500Y-48735000D01*
G75*
G02*
X161160000Y-48497500I0J237500D01*
G01*
G37*
G04 #@! TD.AperFunction*
G04 #@! TA.AperFunction,SMDPad,CuDef*
G36*
G01*
X162985000Y-51037500D02*
X162985000Y-50562500D01*
G75*
G02*
X163222500Y-50325000I237500J0D01*
G01*
X163722500Y-50325000D01*
G75*
G02*
X163960000Y-50562500I0J-237500D01*
G01*
X163960000Y-51037500D01*
G75*
G02*
X163722500Y-51275000I-237500J0D01*
G01*
X163222500Y-51275000D01*
G75*
G02*
X162985000Y-51037500I0J237500D01*
G01*
G37*
G04 #@! TD.AperFunction*
G04 #@! TA.AperFunction,SMDPad,CuDef*
G36*
G01*
X161160000Y-51037500D02*
X161160000Y-50562500D01*
G75*
G02*
X161397500Y-50325000I237500J0D01*
G01*
X161897500Y-50325000D01*
G75*
G02*
X162135000Y-50562500I0J-237500D01*
G01*
X162135000Y-51037500D01*
G75*
G02*
X161897500Y-51275000I-237500J0D01*
G01*
X161397500Y-51275000D01*
G75*
G02*
X161160000Y-51037500I0J237500D01*
G01*
G37*
G04 #@! TD.AperFunction*
G04 #@! TA.AperFunction,SMDPad,CuDef*
G36*
G01*
X189467500Y-50375000D02*
X188992500Y-50375000D01*
G75*
G02*
X188755000Y-50137500I0J237500D01*
G01*
X188755000Y-49637500D01*
G75*
G02*
X188992500Y-49400000I237500J0D01*
G01*
X189467500Y-49400000D01*
G75*
G02*
X189705000Y-49637500I0J-237500D01*
G01*
X189705000Y-50137500D01*
G75*
G02*
X189467500Y-50375000I-237500J0D01*
G01*
G37*
G04 #@! TD.AperFunction*
G04 #@! TA.AperFunction,SMDPad,CuDef*
G36*
G01*
X189467500Y-52200000D02*
X188992500Y-52200000D01*
G75*
G02*
X188755000Y-51962500I0J237500D01*
G01*
X188755000Y-51462500D01*
G75*
G02*
X188992500Y-51225000I237500J0D01*
G01*
X189467500Y-51225000D01*
G75*
G02*
X189705000Y-51462500I0J-237500D01*
G01*
X189705000Y-51962500D01*
G75*
G02*
X189467500Y-52200000I-237500J0D01*
G01*
G37*
G04 #@! TD.AperFunction*
G04 #@! TA.AperFunction,SMDPad,CuDef*
G36*
G01*
X178645000Y-63262500D02*
X178645000Y-63737500D01*
G75*
G02*
X178407500Y-63975000I-237500J0D01*
G01*
X177907500Y-63975000D01*
G75*
G02*
X177670000Y-63737500I0J237500D01*
G01*
X177670000Y-63262500D01*
G75*
G02*
X177907500Y-63025000I237500J0D01*
G01*
X178407500Y-63025000D01*
G75*
G02*
X178645000Y-63262500I0J-237500D01*
G01*
G37*
G04 #@! TD.AperFunction*
G04 #@! TA.AperFunction,SMDPad,CuDef*
G36*
G01*
X180470000Y-63262500D02*
X180470000Y-63737500D01*
G75*
G02*
X180232500Y-63975000I-237500J0D01*
G01*
X179732500Y-63975000D01*
G75*
G02*
X179495000Y-63737500I0J237500D01*
G01*
X179495000Y-63262500D01*
G75*
G02*
X179732500Y-63025000I237500J0D01*
G01*
X180232500Y-63025000D01*
G75*
G02*
X180470000Y-63262500I0J-237500D01*
G01*
G37*
G04 #@! TD.AperFunction*
G04 #@! TA.AperFunction,SMDPad,CuDef*
G36*
G01*
X180470000Y-60722500D02*
X180470000Y-61197500D01*
G75*
G02*
X180232500Y-61435000I-237500J0D01*
G01*
X179732500Y-61435000D01*
G75*
G02*
X179495000Y-61197500I0J237500D01*
G01*
X179495000Y-60722500D01*
G75*
G02*
X179732500Y-60485000I237500J0D01*
G01*
X180232500Y-60485000D01*
G75*
G02*
X180470000Y-60722500I0J-237500D01*
G01*
G37*
G04 #@! TD.AperFunction*
G04 #@! TA.AperFunction,SMDPad,CuDef*
G36*
G01*
X178645000Y-60722500D02*
X178645000Y-61197500D01*
G75*
G02*
X178407500Y-61435000I-237500J0D01*
G01*
X177907500Y-61435000D01*
G75*
G02*
X177670000Y-61197500I0J237500D01*
G01*
X177670000Y-60722500D01*
G75*
G02*
X177907500Y-60485000I237500J0D01*
G01*
X178407500Y-60485000D01*
G75*
G02*
X178645000Y-60722500I0J-237500D01*
G01*
G37*
G04 #@! TD.AperFunction*
G04 #@! TA.AperFunction,SMDPad,CuDef*
G36*
G01*
X180470000Y-65802500D02*
X180470000Y-66277500D01*
G75*
G02*
X180232500Y-66515000I-237500J0D01*
G01*
X179732500Y-66515000D01*
G75*
G02*
X179495000Y-66277500I0J237500D01*
G01*
X179495000Y-65802500D01*
G75*
G02*
X179732500Y-65565000I237500J0D01*
G01*
X180232500Y-65565000D01*
G75*
G02*
X180470000Y-65802500I0J-237500D01*
G01*
G37*
G04 #@! TD.AperFunction*
G04 #@! TA.AperFunction,SMDPad,CuDef*
G36*
G01*
X178645000Y-65802500D02*
X178645000Y-66277500D01*
G75*
G02*
X178407500Y-66515000I-237500J0D01*
G01*
X177907500Y-66515000D01*
G75*
G02*
X177670000Y-66277500I0J237500D01*
G01*
X177670000Y-65802500D01*
G75*
G02*
X177907500Y-65565000I237500J0D01*
G01*
X178407500Y-65565000D01*
G75*
G02*
X178645000Y-65802500I0J-237500D01*
G01*
G37*
G04 #@! TD.AperFunction*
G04 #@! TA.AperFunction,SMDPad,CuDef*
G36*
G01*
X158245000Y-58182500D02*
X158245000Y-58657500D01*
G75*
G02*
X158007500Y-58895000I-237500J0D01*
G01*
X157507500Y-58895000D01*
G75*
G02*
X157270000Y-58657500I0J237500D01*
G01*
X157270000Y-58182500D01*
G75*
G02*
X157507500Y-57945000I237500J0D01*
G01*
X158007500Y-57945000D01*
G75*
G02*
X158245000Y-58182500I0J-237500D01*
G01*
G37*
G04 #@! TD.AperFunction*
G04 #@! TA.AperFunction,SMDPad,CuDef*
G36*
G01*
X156420000Y-58182500D02*
X156420000Y-58657500D01*
G75*
G02*
X156182500Y-58895000I-237500J0D01*
G01*
X155682500Y-58895000D01*
G75*
G02*
X155445000Y-58657500I0J237500D01*
G01*
X155445000Y-58182500D01*
G75*
G02*
X155682500Y-57945000I237500J0D01*
G01*
X156182500Y-57945000D01*
G75*
G02*
X156420000Y-58182500I0J-237500D01*
G01*
G37*
G04 #@! TD.AperFunction*
D16*
X165370000Y-83090000D03*
D17*
X165370000Y-80550000D03*
D10*
X159655000Y-78010000D03*
X159655000Y-80550000D03*
D11*
X159655000Y-83090000D03*
D10*
X204080000Y-63500000D03*
X201540000Y-63500000D03*
D11*
X199000000Y-63500000D03*
D18*
X154940000Y-63500000D03*
X156210000Y-63500000D03*
X157480000Y-63500000D03*
D19*
X158750000Y-63500000D03*
D17*
X158115000Y-54610000D03*
D16*
X155575000Y-54610000D03*
D20*
X157757500Y-54967500D02*
X158115000Y-54610000D01*
X157757500Y-58420000D02*
X157757500Y-54967500D01*
X178640500Y-66840010D02*
X157968773Y-66840010D01*
X154940000Y-63811237D02*
X154940000Y-63500000D01*
X178970010Y-66510500D02*
X178640500Y-66840010D01*
X178970010Y-64312510D02*
X178970010Y-66510500D01*
X157968773Y-66840010D02*
X154940000Y-63811237D01*
X178157500Y-63500000D02*
X178970010Y-64312510D01*
X156210000Y-58697500D02*
X155932500Y-58420000D01*
X156210000Y-63500000D02*
X156210000Y-58697500D01*
X157480000Y-62350000D02*
X157480000Y-63500000D01*
X158870000Y-60960000D02*
X157480000Y-62350000D01*
X178157500Y-60960000D02*
X158870000Y-60960000D01*
X175617500Y-63500000D02*
X178157500Y-66040000D01*
X158750000Y-63500000D02*
X175617500Y-63500000D01*
X179982500Y-69492500D02*
X180340000Y-69850000D01*
X179982500Y-66040000D02*
X179982500Y-69492500D01*
X187960000Y-68937500D02*
X179982500Y-60960000D01*
X187960000Y-69850000D02*
X187960000Y-68937500D01*
X185420000Y-68937500D02*
X179982500Y-63500000D01*
X185420000Y-69850000D02*
X185420000Y-68937500D01*
X167620000Y-50800000D02*
X172720000Y-45700000D01*
X172720000Y-45700000D02*
X172720000Y-44450000D01*
X163492500Y-50800000D02*
X167640000Y-50800000D01*
X172720000Y-44450000D02*
X178970010Y-50700010D01*
X178970010Y-50700010D02*
X198700010Y-50700010D01*
X206844002Y-45085000D02*
X207645000Y-45085000D01*
X201228992Y-50700010D02*
X206844002Y-45085000D01*
X198700010Y-50700010D02*
X201228992Y-50700010D01*
X172274717Y-43124990D02*
X173934990Y-43124990D01*
X171644990Y-43754717D02*
X172274717Y-43124990D01*
X173934990Y-43124990D02*
X175260000Y-44450000D01*
X171644990Y-45145283D02*
X171644990Y-43754717D01*
X168530273Y-48260000D02*
X171644990Y-45145283D01*
X163472500Y-48260000D02*
X168530273Y-48260000D01*
X203144990Y-43124990D02*
X205105000Y-45085000D01*
X176585010Y-43124990D02*
X203144990Y-43124990D01*
X175260000Y-44450000D02*
X176585010Y-43124990D01*
X189230000Y-52070000D02*
X187960000Y-53340000D01*
X189230000Y-51712500D02*
X189230000Y-52070000D01*
X162560000Y-51170510D02*
X162560000Y-48260000D01*
X164729490Y-53340000D02*
X162560000Y-51170510D01*
X187960000Y-53340000D02*
X164729490Y-53340000D01*
X162560000Y-48260000D02*
X162560000Y-44450000D01*
X162560000Y-48630510D02*
X162560000Y-48260000D01*
X204080000Y-63500000D02*
X204080000Y-59300000D01*
X198120000Y-53340000D02*
X193040000Y-53340000D01*
X204080000Y-59300000D02*
X198120000Y-53340000D01*
X187960000Y-53340000D02*
X193040000Y-53340000D01*
X202715001Y-64675001D02*
X201540000Y-63500000D01*
X204644001Y-64675001D02*
X202715001Y-64675001D01*
X205255001Y-64064001D02*
X204644001Y-64675001D01*
X205255001Y-59205001D02*
X205255001Y-64064001D01*
X198080000Y-52030000D02*
X205255001Y-59205001D01*
X195540000Y-52030000D02*
X198080000Y-52030000D01*
X160018769Y-77646231D02*
X159655000Y-78010000D01*
X187866231Y-77646231D02*
X160018769Y-77646231D01*
X190770000Y-80550000D02*
X187866231Y-77646231D01*
X165370000Y-80550000D02*
X159655000Y-80550000D01*
X159655000Y-83090000D02*
X165370000Y-83090000D01*
X179430000Y-83090000D02*
X181970000Y-80550000D01*
X178166232Y-84353768D02*
X181970000Y-80550000D01*
X166633768Y-84353768D02*
X178166232Y-84353768D01*
X165370000Y-83090000D02*
X166633768Y-84353768D01*
X193040000Y-46990000D02*
X195580000Y-44450000D01*
X193040000Y-49530000D02*
X193040000Y-46990000D01*
X189587500Y-49530000D02*
X189230000Y-49887500D01*
X193040000Y-49530000D02*
X189587500Y-49530000D01*
X153670000Y-48260000D02*
X149860000Y-44450000D01*
X161647500Y-48260000D02*
X153670000Y-48260000D01*
X161647500Y-50800000D02*
X161647500Y-48260000D01*
D21*
X209279545Y-41338909D02*
X209630208Y-41444780D01*
X209953625Y-41616744D01*
X210237484Y-41848254D01*
X210470965Y-42130486D01*
X210645183Y-42452695D01*
X210753502Y-42802614D01*
X210795001Y-43197452D01*
X210795000Y-71087721D01*
X210756091Y-71484545D01*
X210650220Y-71835206D01*
X210478257Y-72158623D01*
X210246748Y-72442482D01*
X209964514Y-72675965D01*
X209642304Y-72850184D01*
X209292385Y-72958502D01*
X208897557Y-73000000D01*
X200627581Y-73000000D01*
X200594977Y-73003211D01*
X200586731Y-73003211D01*
X200577566Y-73004175D01*
X200454409Y-73017989D01*
X200395942Y-73030416D01*
X200337213Y-73042045D01*
X200328410Y-73044771D01*
X200210282Y-73082244D01*
X200155310Y-73105805D01*
X200099995Y-73128604D01*
X200091889Y-73132987D01*
X200045024Y-73158751D01*
X200009887Y-73135274D01*
X199771724Y-73036623D01*
X199518893Y-72986332D01*
X199261107Y-72986332D01*
X199008276Y-73036623D01*
X198770113Y-73135274D01*
X198755000Y-73145372D01*
X198739887Y-73135274D01*
X198501724Y-73036623D01*
X198248893Y-72986332D01*
X197991107Y-72986332D01*
X197738276Y-73036623D01*
X197500113Y-73135274D01*
X197485000Y-73145372D01*
X197469887Y-73135274D01*
X197231724Y-73036623D01*
X196978893Y-72986332D01*
X196721107Y-72986332D01*
X196468276Y-73036623D01*
X196230113Y-73135274D01*
X196194984Y-73158747D01*
X196131832Y-73125168D01*
X196076554Y-73102384D01*
X196021545Y-73078807D01*
X196012741Y-73076082D01*
X195894101Y-73040262D01*
X195835372Y-73028633D01*
X195776905Y-73016206D01*
X195767747Y-73015244D01*
X195767744Y-73015243D01*
X195767741Y-73015243D01*
X195644402Y-73003150D01*
X195612419Y-73000000D01*
X168242581Y-73000000D01*
X168209977Y-73003211D01*
X168201731Y-73003211D01*
X168192566Y-73004175D01*
X168069409Y-73017989D01*
X168010942Y-73030416D01*
X167952213Y-73042045D01*
X167943410Y-73044771D01*
X167825282Y-73082244D01*
X167770310Y-73105805D01*
X167714995Y-73128604D01*
X167706889Y-73132987D01*
X167660024Y-73158751D01*
X167624887Y-73135274D01*
X167386724Y-73036623D01*
X167133893Y-72986332D01*
X166876107Y-72986332D01*
X166623276Y-73036623D01*
X166385113Y-73135274D01*
X166370000Y-73145372D01*
X166354887Y-73135274D01*
X166116724Y-73036623D01*
X165863893Y-72986332D01*
X165606107Y-72986332D01*
X165353276Y-73036623D01*
X165115113Y-73135274D01*
X165100000Y-73145372D01*
X165084887Y-73135274D01*
X164846724Y-73036623D01*
X164593893Y-72986332D01*
X164336107Y-72986332D01*
X164083276Y-73036623D01*
X163845113Y-73135274D01*
X163809984Y-73158747D01*
X163746832Y-73125168D01*
X163691554Y-73102384D01*
X163636545Y-73078807D01*
X163627741Y-73076082D01*
X163509101Y-73040262D01*
X163450372Y-73028633D01*
X163391905Y-73016206D01*
X163382747Y-73015244D01*
X163382744Y-73015243D01*
X163382741Y-73015243D01*
X163259402Y-73003150D01*
X163227419Y-73000000D01*
X149257279Y-73000000D01*
X148860455Y-72961091D01*
X148509794Y-72855220D01*
X148186377Y-72683257D01*
X147902518Y-72451748D01*
X147669035Y-72169514D01*
X147494816Y-71847304D01*
X147386498Y-71497385D01*
X147345000Y-71102557D01*
X147345000Y-69531964D01*
X148475000Y-69531964D01*
X148475000Y-70168037D01*
X148495040Y-70371507D01*
X148574236Y-70632581D01*
X148702843Y-70873188D01*
X148875920Y-71084081D01*
X149086813Y-71257157D01*
X149327420Y-71385764D01*
X149588494Y-71464960D01*
X149860000Y-71491701D01*
X150131507Y-71464960D01*
X150392581Y-71385764D01*
X150633188Y-71257157D01*
X150844081Y-71084081D01*
X151017157Y-70873188D01*
X151130000Y-70662073D01*
X151242843Y-70873188D01*
X151415920Y-71084081D01*
X151626813Y-71257157D01*
X151867420Y-71385764D01*
X152128494Y-71464960D01*
X152400000Y-71491701D01*
X152671507Y-71464960D01*
X152932581Y-71385764D01*
X153173188Y-71257157D01*
X153384081Y-71084081D01*
X153557157Y-70873188D01*
X153670000Y-70662073D01*
X153782843Y-70873188D01*
X153955920Y-71084081D01*
X154166813Y-71257157D01*
X154407420Y-71385764D01*
X154668494Y-71464960D01*
X154940000Y-71491701D01*
X155211507Y-71464960D01*
X155472581Y-71385764D01*
X155713188Y-71257157D01*
X155924081Y-71084081D01*
X156097157Y-70873188D01*
X156210000Y-70662073D01*
X156322843Y-70873188D01*
X156495920Y-71084081D01*
X156706813Y-71257157D01*
X156947420Y-71385764D01*
X157208494Y-71464960D01*
X157480000Y-71491701D01*
X157751507Y-71464960D01*
X158012581Y-71385764D01*
X158253188Y-71257157D01*
X158464081Y-71084081D01*
X158637157Y-70873188D01*
X158750000Y-70662073D01*
X158862843Y-70873188D01*
X159035920Y-71084081D01*
X159246813Y-71257157D01*
X159487420Y-71385764D01*
X159748494Y-71464960D01*
X160020000Y-71491701D01*
X160291507Y-71464960D01*
X160552581Y-71385764D01*
X160793188Y-71257157D01*
X161004081Y-71084081D01*
X161177157Y-70873188D01*
X161290000Y-70662073D01*
X161402843Y-70873188D01*
X161575920Y-71084081D01*
X161786813Y-71257157D01*
X162027420Y-71385764D01*
X162288494Y-71464960D01*
X162560000Y-71491701D01*
X162831507Y-71464960D01*
X163092581Y-71385764D01*
X163333188Y-71257157D01*
X163544081Y-71084081D01*
X163717157Y-70873188D01*
X163830000Y-70662073D01*
X163942843Y-70873188D01*
X164115920Y-71084081D01*
X164326813Y-71257157D01*
X164567420Y-71385764D01*
X164828494Y-71464960D01*
X165100000Y-71491701D01*
X165371507Y-71464960D01*
X165632581Y-71385764D01*
X165873188Y-71257157D01*
X166084081Y-71084081D01*
X166257157Y-70873188D01*
X166370000Y-70662073D01*
X166482843Y-70873188D01*
X166655920Y-71084081D01*
X166866813Y-71257157D01*
X167107420Y-71385764D01*
X167368494Y-71464960D01*
X167640000Y-71491701D01*
X167911507Y-71464960D01*
X168172581Y-71385764D01*
X168413188Y-71257157D01*
X168624081Y-71084081D01*
X168797157Y-70873188D01*
X168910000Y-70662073D01*
X169022843Y-70873188D01*
X169195920Y-71084081D01*
X169406813Y-71257157D01*
X169647420Y-71385764D01*
X169908494Y-71464960D01*
X170180000Y-71491701D01*
X170451507Y-71464960D01*
X170712581Y-71385764D01*
X170953188Y-71257157D01*
X171164081Y-71084081D01*
X171337157Y-70873188D01*
X171450000Y-70662073D01*
X171562843Y-70873188D01*
X171735920Y-71084081D01*
X171946813Y-71257157D01*
X172187420Y-71385764D01*
X172448494Y-71464960D01*
X172720000Y-71491701D01*
X172991507Y-71464960D01*
X173252581Y-71385764D01*
X173493188Y-71257157D01*
X173704081Y-71084081D01*
X173877157Y-70873188D01*
X173990000Y-70662073D01*
X174102843Y-70873188D01*
X174275920Y-71084081D01*
X174486813Y-71257157D01*
X174727420Y-71385764D01*
X174988494Y-71464960D01*
X175260000Y-71491701D01*
X175531507Y-71464960D01*
X175792581Y-71385764D01*
X176033188Y-71257157D01*
X176244081Y-71084081D01*
X176417157Y-70873188D01*
X176530000Y-70662073D01*
X176642843Y-70873188D01*
X176815920Y-71084081D01*
X177026813Y-71257157D01*
X177267420Y-71385764D01*
X177528494Y-71464960D01*
X177800000Y-71491701D01*
X178071507Y-71464960D01*
X178332581Y-71385764D01*
X178573188Y-71257157D01*
X178784081Y-71084081D01*
X178957157Y-70873188D01*
X179070000Y-70662073D01*
X179182843Y-70873188D01*
X179355920Y-71084081D01*
X179566813Y-71257157D01*
X179807420Y-71385764D01*
X180068494Y-71464960D01*
X180340000Y-71491701D01*
X180611507Y-71464960D01*
X180872581Y-71385764D01*
X181113188Y-71257157D01*
X181324081Y-71084081D01*
X181497157Y-70873188D01*
X181610000Y-70662073D01*
X181722843Y-70873188D01*
X181895920Y-71084081D01*
X182106813Y-71257157D01*
X182347420Y-71385764D01*
X182608494Y-71464960D01*
X182880000Y-71491701D01*
X183151507Y-71464960D01*
X183412581Y-71385764D01*
X183653188Y-71257157D01*
X183864081Y-71084081D01*
X184037157Y-70873188D01*
X184150000Y-70662073D01*
X184262843Y-70873188D01*
X184435920Y-71084081D01*
X184646813Y-71257157D01*
X184887420Y-71385764D01*
X185148494Y-71464960D01*
X185420000Y-71491701D01*
X185691507Y-71464960D01*
X185952581Y-71385764D01*
X186193188Y-71257157D01*
X186404081Y-71084081D01*
X186577157Y-70873188D01*
X186690000Y-70662073D01*
X186802843Y-70873188D01*
X186975920Y-71084081D01*
X187186813Y-71257157D01*
X187427420Y-71385764D01*
X187688494Y-71464960D01*
X187960000Y-71491701D01*
X188231507Y-71464960D01*
X188492581Y-71385764D01*
X188733188Y-71257157D01*
X188944081Y-71084081D01*
X189117157Y-70873188D01*
X189230000Y-70662073D01*
X189342843Y-70873188D01*
X189515920Y-71084081D01*
X189726813Y-71257157D01*
X189967420Y-71385764D01*
X190228494Y-71464960D01*
X190500000Y-71491701D01*
X190771507Y-71464960D01*
X191032581Y-71385764D01*
X191273188Y-71257157D01*
X191484081Y-71084081D01*
X191657157Y-70873188D01*
X191770000Y-70662073D01*
X191882843Y-70873188D01*
X192055920Y-71084081D01*
X192266813Y-71257157D01*
X192507420Y-71385764D01*
X192768494Y-71464960D01*
X193040000Y-71491701D01*
X193311507Y-71464960D01*
X193572581Y-71385764D01*
X193813188Y-71257157D01*
X194024081Y-71084081D01*
X194197157Y-70873188D01*
X194310000Y-70662073D01*
X194422843Y-70873188D01*
X194595920Y-71084081D01*
X194806813Y-71257157D01*
X195047420Y-71385764D01*
X195308494Y-71464960D01*
X195580000Y-71491701D01*
X195851507Y-71464960D01*
X196112581Y-71385764D01*
X196353188Y-71257157D01*
X196564081Y-71084081D01*
X196737157Y-70873188D01*
X196865764Y-70632580D01*
X196944960Y-70371506D01*
X196965000Y-70168036D01*
X196965000Y-69531963D01*
X196944960Y-69328493D01*
X196865764Y-69067419D01*
X196737157Y-68826812D01*
X196564080Y-68615919D01*
X196353187Y-68442843D01*
X196112580Y-68314236D01*
X195851506Y-68235040D01*
X195580000Y-68208299D01*
X195308493Y-68235040D01*
X195047419Y-68314236D01*
X194806812Y-68442843D01*
X194595919Y-68615920D01*
X194422843Y-68826813D01*
X194310000Y-69037927D01*
X194197157Y-68826812D01*
X194024080Y-68615919D01*
X193813187Y-68442843D01*
X193572580Y-68314236D01*
X193311506Y-68235040D01*
X193040000Y-68208299D01*
X192768493Y-68235040D01*
X192507419Y-68314236D01*
X192266812Y-68442843D01*
X192055919Y-68615920D01*
X191882843Y-68826813D01*
X191770000Y-69037927D01*
X191657157Y-68826812D01*
X191484080Y-68615919D01*
X191273187Y-68442843D01*
X191032580Y-68314236D01*
X190771506Y-68235040D01*
X190500000Y-68208299D01*
X190228493Y-68235040D01*
X189967419Y-68314236D01*
X189726812Y-68442843D01*
X189515919Y-68615920D01*
X189342843Y-68826813D01*
X189230000Y-69037927D01*
X189117157Y-68826812D01*
X188944080Y-68615919D01*
X188733187Y-68442843D01*
X188492580Y-68314236D01*
X188376249Y-68278947D01*
X181108072Y-61010771D01*
X181108072Y-60722500D01*
X181091248Y-60551684D01*
X181041423Y-60387433D01*
X180960512Y-60236058D01*
X180851623Y-60103377D01*
X180718942Y-59994488D01*
X180567567Y-59913577D01*
X180403316Y-59863752D01*
X180232500Y-59846928D01*
X179732500Y-59846928D01*
X179561684Y-59863752D01*
X179397433Y-59913577D01*
X179246058Y-59994488D01*
X179113377Y-60103377D01*
X179070000Y-60156232D01*
X179026623Y-60103377D01*
X178893942Y-59994488D01*
X178742567Y-59913577D01*
X178578316Y-59863752D01*
X178407500Y-59846928D01*
X177907500Y-59846928D01*
X177736684Y-59863752D01*
X177572433Y-59913577D01*
X177421058Y-59994488D01*
X177288377Y-60103377D01*
X177209080Y-60200000D01*
X158907323Y-60200000D01*
X158870000Y-60196324D01*
X158832677Y-60200000D01*
X158832667Y-60200000D01*
X158721014Y-60210997D01*
X158577753Y-60254454D01*
X158445724Y-60325026D01*
X158329999Y-60419999D01*
X158306201Y-60448997D01*
X156970000Y-61785199D01*
X156970000Y-59343610D01*
X157021058Y-59385512D01*
X157172433Y-59466423D01*
X157336684Y-59516248D01*
X157507500Y-59533072D01*
X158007500Y-59533072D01*
X158178316Y-59516248D01*
X158342567Y-59466423D01*
X158493942Y-59385512D01*
X158626623Y-59276623D01*
X158735512Y-59143942D01*
X158816423Y-58992567D01*
X158866248Y-58828316D01*
X158883072Y-58657500D01*
X158883072Y-58182500D01*
X158866248Y-58011684D01*
X158816423Y-57847433D01*
X158735512Y-57696058D01*
X158626623Y-57563377D01*
X158517500Y-57473822D01*
X158517500Y-56148072D01*
X159015000Y-56148072D01*
X159139482Y-56135812D01*
X159259180Y-56099502D01*
X159369494Y-56040537D01*
X159466185Y-55961185D01*
X159545537Y-55864494D01*
X159604502Y-55754180D01*
X159640812Y-55634482D01*
X159653072Y-55510000D01*
X159653072Y-53710000D01*
X159640812Y-53585518D01*
X159604502Y-53465820D01*
X159545537Y-53355506D01*
X159466185Y-53258815D01*
X159369494Y-53179463D01*
X159259180Y-53120498D01*
X159139482Y-53084188D01*
X159015000Y-53071928D01*
X157215000Y-53071928D01*
X157090518Y-53084188D01*
X156970820Y-53120498D01*
X156860506Y-53179463D01*
X156763815Y-53258815D01*
X156684463Y-53355506D01*
X156625498Y-53465820D01*
X156619944Y-53484127D01*
X156553505Y-53417688D01*
X156302095Y-53249701D01*
X156022743Y-53133989D01*
X155726184Y-53075000D01*
X155423816Y-53075000D01*
X155127257Y-53133989D01*
X154847905Y-53249701D01*
X154596495Y-53417688D01*
X154382688Y-53631495D01*
X154214701Y-53882905D01*
X154098989Y-54162257D01*
X154040000Y-54458816D01*
X154040000Y-54761184D01*
X154098989Y-55057743D01*
X154214701Y-55337095D01*
X154382688Y-55588505D01*
X154596495Y-55802312D01*
X154847905Y-55970299D01*
X155127257Y-56086011D01*
X155423816Y-56145000D01*
X155726184Y-56145000D01*
X156022743Y-56086011D01*
X156302095Y-55970299D01*
X156553505Y-55802312D01*
X156619944Y-55735873D01*
X156625498Y-55754180D01*
X156684463Y-55864494D01*
X156763815Y-55961185D01*
X156860506Y-56040537D01*
X156970820Y-56099502D01*
X156997501Y-56107595D01*
X156997500Y-57473821D01*
X156888377Y-57563377D01*
X156845000Y-57616232D01*
X156801623Y-57563377D01*
X156668942Y-57454488D01*
X156517567Y-57373577D01*
X156353316Y-57323752D01*
X156182500Y-57306928D01*
X155682500Y-57306928D01*
X155511684Y-57323752D01*
X155347433Y-57373577D01*
X155196058Y-57454488D01*
X155063377Y-57563377D01*
X154954488Y-57696058D01*
X154873577Y-57847433D01*
X154823752Y-58011684D01*
X154806928Y-58182500D01*
X154806928Y-58657500D01*
X154823752Y-58828316D01*
X154873577Y-58992567D01*
X154954488Y-59143942D01*
X155063377Y-59276623D01*
X155196058Y-59385512D01*
X155347433Y-59466423D01*
X155450001Y-59497537D01*
X155450000Y-62080952D01*
X155389906Y-62048831D01*
X155169360Y-61981929D01*
X154940000Y-61959339D01*
X154710641Y-61981929D01*
X154490095Y-62048831D01*
X154286839Y-62157474D01*
X154108683Y-62303682D01*
X153962475Y-62481838D01*
X153853831Y-62685094D01*
X153786929Y-62905640D01*
X153770000Y-63077523D01*
X153770000Y-63922476D01*
X153786929Y-64094359D01*
X153853831Y-64314905D01*
X153962474Y-64518161D01*
X154108682Y-64696318D01*
X154286838Y-64842526D01*
X154490094Y-64951169D01*
X154710640Y-65018071D01*
X154940000Y-65040661D01*
X155080759Y-65026797D01*
X157404974Y-67351013D01*
X157428772Y-67380011D01*
X157544497Y-67474984D01*
X157676526Y-67545556D01*
X157819787Y-67589013D01*
X157931440Y-67600010D01*
X157931450Y-67600010D01*
X157968773Y-67603686D01*
X158006096Y-67600010D01*
X178603178Y-67600010D01*
X178640500Y-67603686D01*
X178677822Y-67600010D01*
X178677833Y-67600010D01*
X178789486Y-67589013D01*
X178932747Y-67545556D01*
X179064776Y-67474984D01*
X179180501Y-67380011D01*
X179204304Y-67351007D01*
X179222500Y-67332811D01*
X179222501Y-68778490D01*
X179182843Y-68826813D01*
X179070000Y-69037927D01*
X178957157Y-68826812D01*
X178784080Y-68615919D01*
X178573187Y-68442843D01*
X178332580Y-68314236D01*
X178071506Y-68235040D01*
X177800000Y-68208299D01*
X177528493Y-68235040D01*
X177267419Y-68314236D01*
X177026812Y-68442843D01*
X176815919Y-68615920D01*
X176642843Y-68826813D01*
X176530000Y-69037927D01*
X176417157Y-68826812D01*
X176244080Y-68615919D01*
X176033187Y-68442843D01*
X175792580Y-68314236D01*
X175531506Y-68235040D01*
X175260000Y-68208299D01*
X174988493Y-68235040D01*
X174727419Y-68314236D01*
X174486812Y-68442843D01*
X174275919Y-68615920D01*
X174102843Y-68826813D01*
X173990000Y-69037927D01*
X173877157Y-68826812D01*
X173704080Y-68615919D01*
X173493187Y-68442843D01*
X173252580Y-68314236D01*
X172991506Y-68235040D01*
X172720000Y-68208299D01*
X172448493Y-68235040D01*
X172187419Y-68314236D01*
X171946812Y-68442843D01*
X171735919Y-68615920D01*
X171562843Y-68826813D01*
X171450000Y-69037927D01*
X171337157Y-68826812D01*
X171164080Y-68615919D01*
X170953187Y-68442843D01*
X170712580Y-68314236D01*
X170451506Y-68235040D01*
X170180000Y-68208299D01*
X169908493Y-68235040D01*
X169647419Y-68314236D01*
X169406812Y-68442843D01*
X169195919Y-68615920D01*
X169022843Y-68826813D01*
X168910000Y-69037927D01*
X168797157Y-68826812D01*
X168624080Y-68615919D01*
X168413187Y-68442843D01*
X168172580Y-68314236D01*
X167911506Y-68235040D01*
X167640000Y-68208299D01*
X167368493Y-68235040D01*
X167107419Y-68314236D01*
X166866812Y-68442843D01*
X166655919Y-68615920D01*
X166482843Y-68826813D01*
X166370000Y-69037927D01*
X166257157Y-68826812D01*
X166084080Y-68615919D01*
X165873187Y-68442843D01*
X165632580Y-68314236D01*
X165371506Y-68235040D01*
X165100000Y-68208299D01*
X164828493Y-68235040D01*
X164567419Y-68314236D01*
X164326812Y-68442843D01*
X164115919Y-68615920D01*
X163942843Y-68826813D01*
X163830000Y-69037927D01*
X163717157Y-68826812D01*
X163544080Y-68615919D01*
X163333187Y-68442843D01*
X163092580Y-68314236D01*
X162831506Y-68235040D01*
X162560000Y-68208299D01*
X162288493Y-68235040D01*
X162027419Y-68314236D01*
X161786812Y-68442843D01*
X161575919Y-68615920D01*
X161402843Y-68826813D01*
X161290000Y-69037927D01*
X161177157Y-68826812D01*
X161004080Y-68615919D01*
X160793187Y-68442843D01*
X160552580Y-68314236D01*
X160291506Y-68235040D01*
X160020000Y-68208299D01*
X159748493Y-68235040D01*
X159487419Y-68314236D01*
X159246812Y-68442843D01*
X159035919Y-68615920D01*
X158862843Y-68826813D01*
X158750000Y-69037927D01*
X158637157Y-68826812D01*
X158464080Y-68615919D01*
X158253187Y-68442843D01*
X158012580Y-68314236D01*
X157751506Y-68235040D01*
X157480000Y-68208299D01*
X157208493Y-68235040D01*
X156947419Y-68314236D01*
X156706812Y-68442843D01*
X156495919Y-68615920D01*
X156322843Y-68826813D01*
X156210000Y-69037927D01*
X156097157Y-68826812D01*
X155924080Y-68615919D01*
X155713187Y-68442843D01*
X155472580Y-68314236D01*
X155211506Y-68235040D01*
X154940000Y-68208299D01*
X154668493Y-68235040D01*
X154407419Y-68314236D01*
X154166812Y-68442843D01*
X153955919Y-68615920D01*
X153782843Y-68826813D01*
X153670000Y-69037927D01*
X153557157Y-68826812D01*
X153384080Y-68615919D01*
X153173187Y-68442843D01*
X152932580Y-68314236D01*
X152671506Y-68235040D01*
X152400000Y-68208299D01*
X152128493Y-68235040D01*
X151867419Y-68314236D01*
X151626812Y-68442843D01*
X151415919Y-68615920D01*
X151242843Y-68826813D01*
X151130000Y-69037927D01*
X151017157Y-68826812D01*
X150844080Y-68615919D01*
X150633187Y-68442843D01*
X150392580Y-68314236D01*
X150131506Y-68235040D01*
X149860000Y-68208299D01*
X149588493Y-68235040D01*
X149327419Y-68314236D01*
X149086812Y-68442843D01*
X148875919Y-68615920D01*
X148702843Y-68826813D01*
X148574236Y-69067420D01*
X148495040Y-69328494D01*
X148475000Y-69531964D01*
X147345000Y-69531964D01*
X147345000Y-44131964D01*
X148475000Y-44131964D01*
X148475000Y-44768037D01*
X148495040Y-44971507D01*
X148574236Y-45232581D01*
X148702843Y-45473188D01*
X148875920Y-45684081D01*
X149086813Y-45857157D01*
X149327420Y-45985764D01*
X149588494Y-46064960D01*
X149860000Y-46091701D01*
X150131507Y-46064960D01*
X150337631Y-46002433D01*
X153106201Y-48771003D01*
X153129999Y-48800001D01*
X153245724Y-48894974D01*
X153377753Y-48965546D01*
X153521014Y-49009003D01*
X153632667Y-49020000D01*
X153632675Y-49020000D01*
X153670000Y-49023676D01*
X153707325Y-49020000D01*
X160699080Y-49020000D01*
X160778377Y-49116623D01*
X160887501Y-49206179D01*
X160887500Y-49853821D01*
X160778377Y-49943377D01*
X160669488Y-50076058D01*
X160588577Y-50227433D01*
X160538752Y-50391684D01*
X160521928Y-50562500D01*
X160521928Y-51037500D01*
X160538752Y-51208316D01*
X160588577Y-51372567D01*
X160669488Y-51523942D01*
X160778377Y-51656623D01*
X160911058Y-51765512D01*
X161062433Y-51846423D01*
X161226684Y-51896248D01*
X161397500Y-51913072D01*
X161897500Y-51913072D01*
X162068316Y-51896248D01*
X162177743Y-51863054D01*
X164165690Y-53851002D01*
X164189489Y-53880001D01*
X164305214Y-53974974D01*
X164437243Y-54045546D01*
X164580504Y-54089003D01*
X164692157Y-54100000D01*
X164692166Y-54100000D01*
X164729489Y-54103676D01*
X164766812Y-54100000D01*
X187922678Y-54100000D01*
X187960000Y-54103676D01*
X187997322Y-54100000D01*
X191654055Y-54100000D01*
X191650530Y-54108509D01*
X191595000Y-54387680D01*
X191595000Y-54672320D01*
X191650530Y-54951491D01*
X191759457Y-55214464D01*
X191917595Y-55451134D01*
X192118866Y-55652405D01*
X192355536Y-55810543D01*
X192618509Y-55919470D01*
X192897680Y-55975000D01*
X193182320Y-55975000D01*
X193461491Y-55919470D01*
X193724464Y-55810543D01*
X193961134Y-55652405D01*
X194162405Y-55451134D01*
X194320543Y-55214464D01*
X194429470Y-54951491D01*
X194485000Y-54672320D01*
X194485000Y-54387680D01*
X194429470Y-54108509D01*
X194425945Y-54100000D01*
X197805199Y-54100000D01*
X203320001Y-59614803D01*
X203320000Y-62221821D01*
X203133368Y-62346525D01*
X202926525Y-62553368D01*
X202810000Y-62727760D01*
X202693475Y-62553368D01*
X202486632Y-62346525D01*
X202243411Y-62184010D01*
X201973158Y-62072068D01*
X201686260Y-62015000D01*
X201393740Y-62015000D01*
X201106842Y-62072068D01*
X200836589Y-62184010D01*
X200593368Y-62346525D01*
X200461513Y-62478380D01*
X200439502Y-62405820D01*
X200380537Y-62295506D01*
X200301185Y-62198815D01*
X200204494Y-62119463D01*
X200094180Y-62060498D01*
X199974482Y-62024188D01*
X199850000Y-62011928D01*
X198150000Y-62011928D01*
X198025518Y-62024188D01*
X197905820Y-62060498D01*
X197795506Y-62119463D01*
X197698815Y-62198815D01*
X197619463Y-62295506D01*
X197560498Y-62405820D01*
X197524188Y-62525518D01*
X197511928Y-62650000D01*
X197511928Y-64350000D01*
X197524188Y-64474482D01*
X197560498Y-64594180D01*
X197619463Y-64704494D01*
X197698815Y-64801185D01*
X197795506Y-64880537D01*
X197905820Y-64939502D01*
X198025518Y-64975812D01*
X198150000Y-64988072D01*
X199850000Y-64988072D01*
X199974482Y-64975812D01*
X200094180Y-64939502D01*
X200204494Y-64880537D01*
X200301185Y-64801185D01*
X200380537Y-64704494D01*
X200439502Y-64594180D01*
X200461513Y-64521620D01*
X200593368Y-64653475D01*
X200836589Y-64815990D01*
X201106842Y-64927932D01*
X201393740Y-64985000D01*
X201686260Y-64985000D01*
X201906408Y-64941210D01*
X202151202Y-65186004D01*
X202175000Y-65215002D01*
X202290725Y-65309975D01*
X202422754Y-65380547D01*
X202566015Y-65424004D01*
X202677668Y-65435001D01*
X202677677Y-65435001D01*
X202715000Y-65438677D01*
X202752323Y-65435001D01*
X204606679Y-65435001D01*
X204644001Y-65438677D01*
X204681323Y-65435001D01*
X204681334Y-65435001D01*
X204792987Y-65424004D01*
X204936248Y-65380547D01*
X205068277Y-65309975D01*
X205184002Y-65215002D01*
X205207804Y-65185999D01*
X205766009Y-64627796D01*
X205795002Y-64604002D01*
X205818796Y-64575009D01*
X205818800Y-64575005D01*
X205889974Y-64488278D01*
X205889975Y-64488277D01*
X205960547Y-64356248D01*
X206004004Y-64212987D01*
X206015001Y-64101334D01*
X206015001Y-64101325D01*
X206018677Y-64064002D01*
X206015001Y-64026679D01*
X206015001Y-59242326D01*
X206018677Y-59205001D01*
X206015001Y-59167676D01*
X206015001Y-59167668D01*
X206004004Y-59056015D01*
X205960547Y-58912754D01*
X205889975Y-58780725D01*
X205795002Y-58665000D01*
X205766005Y-58641203D01*
X198643804Y-51519003D01*
X198620001Y-51489999D01*
X198583459Y-51460010D01*
X201191670Y-51460010D01*
X201228992Y-51463686D01*
X201266314Y-51460010D01*
X201266325Y-51460010D01*
X201377978Y-51449013D01*
X201521239Y-51405556D01*
X201653268Y-51334984D01*
X201768993Y-51240011D01*
X201792796Y-51211007D01*
X202455221Y-50548582D01*
X202337720Y-51139297D01*
X202337720Y-51860703D01*
X202478460Y-52568248D01*
X202754530Y-53234740D01*
X203155322Y-53834567D01*
X203665433Y-54344678D01*
X204265260Y-54745470D01*
X204931752Y-55021540D01*
X205639297Y-55162280D01*
X206360703Y-55162280D01*
X207068248Y-55021540D01*
X207734740Y-54745470D01*
X208334567Y-54344678D01*
X208844678Y-53834567D01*
X209245470Y-53234740D01*
X209521540Y-52568248D01*
X209662280Y-51860703D01*
X209662280Y-51139297D01*
X209521540Y-50431752D01*
X209245470Y-49765260D01*
X208844678Y-49165433D01*
X208334567Y-48655322D01*
X207734740Y-48254530D01*
X207068248Y-47978460D01*
X206360703Y-47837720D01*
X205639297Y-47837720D01*
X205048583Y-47955221D01*
X206504214Y-46499590D01*
X206550820Y-46524502D01*
X206670518Y-46560812D01*
X206795000Y-46573072D01*
X208495000Y-46573072D01*
X208619482Y-46560812D01*
X208739180Y-46524502D01*
X208849494Y-46465537D01*
X208946185Y-46386185D01*
X209025537Y-46289494D01*
X209084502Y-46179180D01*
X209120812Y-46059482D01*
X209133072Y-45935000D01*
X209133072Y-44235000D01*
X209120812Y-44110518D01*
X209084502Y-43990820D01*
X209025537Y-43880506D01*
X208946185Y-43783815D01*
X208849494Y-43704463D01*
X208739180Y-43645498D01*
X208619482Y-43609188D01*
X208495000Y-43596928D01*
X206795000Y-43596928D01*
X206670518Y-43609188D01*
X206550820Y-43645498D01*
X206440506Y-43704463D01*
X206343815Y-43783815D01*
X206264463Y-43880506D01*
X206205498Y-43990820D01*
X206183487Y-44063380D01*
X206051632Y-43931525D01*
X205808411Y-43769010D01*
X205538158Y-43657068D01*
X205251260Y-43600000D01*
X204958740Y-43600000D01*
X204738592Y-43643790D01*
X203708794Y-42613993D01*
X203684991Y-42584989D01*
X203569266Y-42490016D01*
X203437237Y-42419444D01*
X203293976Y-42375987D01*
X203182323Y-42364990D01*
X203182312Y-42364990D01*
X203144990Y-42361314D01*
X203107668Y-42364990D01*
X176622332Y-42364990D01*
X176585009Y-42361314D01*
X176547686Y-42364990D01*
X176547677Y-42364990D01*
X176436024Y-42375987D01*
X176302468Y-42416500D01*
X176292763Y-42419444D01*
X176160733Y-42490016D01*
X176111967Y-42530038D01*
X176045009Y-42584989D01*
X176021211Y-42613987D01*
X175737631Y-42897567D01*
X175531506Y-42835040D01*
X175260000Y-42808299D01*
X174988493Y-42835040D01*
X174782368Y-42897567D01*
X174498794Y-42613993D01*
X174474991Y-42584989D01*
X174359266Y-42490016D01*
X174227237Y-42419444D01*
X174083976Y-42375987D01*
X173972323Y-42364990D01*
X173972312Y-42364990D01*
X173934990Y-42361314D01*
X173897668Y-42364990D01*
X172312039Y-42364990D01*
X172274716Y-42361314D01*
X172237393Y-42364990D01*
X172237384Y-42364990D01*
X172125731Y-42375987D01*
X171982470Y-42419444D01*
X171850441Y-42490016D01*
X171850439Y-42490017D01*
X171850440Y-42490017D01*
X171763713Y-42561191D01*
X171763709Y-42561195D01*
X171734716Y-42584989D01*
X171710922Y-42613982D01*
X171133987Y-43190919D01*
X171133802Y-43191071D01*
X170953187Y-43042843D01*
X170712580Y-42914236D01*
X170451506Y-42835040D01*
X170180000Y-42808299D01*
X169908493Y-42835040D01*
X169647419Y-42914236D01*
X169406812Y-43042843D01*
X169195919Y-43215920D01*
X169022843Y-43426813D01*
X168910000Y-43637927D01*
X168797157Y-43426812D01*
X168624080Y-43215919D01*
X168413187Y-43042843D01*
X168172580Y-42914236D01*
X167911506Y-42835040D01*
X167640000Y-42808299D01*
X167368493Y-42835040D01*
X167107419Y-42914236D01*
X166866812Y-43042843D01*
X166655919Y-43215920D01*
X166482843Y-43426813D01*
X166370000Y-43637927D01*
X166257157Y-43426812D01*
X166084080Y-43215919D01*
X165873187Y-43042843D01*
X165632580Y-42914236D01*
X165371506Y-42835040D01*
X165100000Y-42808299D01*
X164828493Y-42835040D01*
X164567419Y-42914236D01*
X164326812Y-43042843D01*
X164115919Y-43215920D01*
X163942843Y-43426813D01*
X163830000Y-43637927D01*
X163717157Y-43426812D01*
X163544080Y-43215919D01*
X163333187Y-43042843D01*
X163092580Y-42914236D01*
X162831506Y-42835040D01*
X162560000Y-42808299D01*
X162288493Y-42835040D01*
X162027419Y-42914236D01*
X161786812Y-43042843D01*
X161575919Y-43215920D01*
X161402843Y-43426813D01*
X161290000Y-43637927D01*
X161177157Y-43426812D01*
X161004080Y-43215919D01*
X160793187Y-43042843D01*
X160552580Y-42914236D01*
X160291506Y-42835040D01*
X160020000Y-42808299D01*
X159748493Y-42835040D01*
X159487419Y-42914236D01*
X159246812Y-43042843D01*
X159035919Y-43215920D01*
X158862843Y-43426813D01*
X158750000Y-43637927D01*
X158637157Y-43426812D01*
X158464080Y-43215919D01*
X158253187Y-43042843D01*
X158012580Y-42914236D01*
X157751506Y-42835040D01*
X157480000Y-42808299D01*
X157208493Y-42835040D01*
X156947419Y-42914236D01*
X156706812Y-43042843D01*
X156495919Y-43215920D01*
X156322843Y-43426813D01*
X156210000Y-43637927D01*
X156097157Y-43426812D01*
X155924080Y-43215919D01*
X155713187Y-43042843D01*
X155472580Y-42914236D01*
X155211506Y-42835040D01*
X154940000Y-42808299D01*
X154668493Y-42835040D01*
X154407419Y-42914236D01*
X154166812Y-43042843D01*
X153955919Y-43215920D01*
X153782843Y-43426813D01*
X153670000Y-43637927D01*
X153557157Y-43426812D01*
X153384080Y-43215919D01*
X153173187Y-43042843D01*
X152932580Y-42914236D01*
X152671506Y-42835040D01*
X152400000Y-42808299D01*
X152128493Y-42835040D01*
X151867419Y-42914236D01*
X151626812Y-43042843D01*
X151415919Y-43215920D01*
X151242843Y-43426813D01*
X151130000Y-43637927D01*
X151017157Y-43426812D01*
X150844080Y-43215919D01*
X150633187Y-43042843D01*
X150392580Y-42914236D01*
X150131506Y-42835040D01*
X149860000Y-42808299D01*
X149588493Y-42835040D01*
X149327419Y-42914236D01*
X149086812Y-43042843D01*
X148875919Y-43215920D01*
X148702843Y-43426813D01*
X148574236Y-43667420D01*
X148495040Y-43928494D01*
X148475000Y-44131964D01*
X147345000Y-44131964D01*
X147345000Y-43212279D01*
X147383909Y-42815455D01*
X147489780Y-42464792D01*
X147661744Y-42141375D01*
X147893254Y-41857516D01*
X148175486Y-41624035D01*
X148497695Y-41449817D01*
X148847614Y-41341498D01*
X149242443Y-41300000D01*
X208882721Y-41300000D01*
X209279545Y-41338909D01*
G04 #@! TA.AperFunction,NonConductor*
D22*
G36*
X209279545Y-41338909D02*
G01*
X209630208Y-41444780D01*
X209953625Y-41616744D01*
X210237484Y-41848254D01*
X210470965Y-42130486D01*
X210645183Y-42452695D01*
X210753502Y-42802614D01*
X210795001Y-43197452D01*
X210795000Y-71087721D01*
X210756091Y-71484545D01*
X210650220Y-71835206D01*
X210478257Y-72158623D01*
X210246748Y-72442482D01*
X209964514Y-72675965D01*
X209642304Y-72850184D01*
X209292385Y-72958502D01*
X208897557Y-73000000D01*
X200627581Y-73000000D01*
X200594977Y-73003211D01*
X200586731Y-73003211D01*
X200577566Y-73004175D01*
X200454409Y-73017989D01*
X200395942Y-73030416D01*
X200337213Y-73042045D01*
X200328410Y-73044771D01*
X200210282Y-73082244D01*
X200155310Y-73105805D01*
X200099995Y-73128604D01*
X200091889Y-73132987D01*
X200045024Y-73158751D01*
X200009887Y-73135274D01*
X199771724Y-73036623D01*
X199518893Y-72986332D01*
X199261107Y-72986332D01*
X199008276Y-73036623D01*
X198770113Y-73135274D01*
X198755000Y-73145372D01*
X198739887Y-73135274D01*
X198501724Y-73036623D01*
X198248893Y-72986332D01*
X197991107Y-72986332D01*
X197738276Y-73036623D01*
X197500113Y-73135274D01*
X197485000Y-73145372D01*
X197469887Y-73135274D01*
X197231724Y-73036623D01*
X196978893Y-72986332D01*
X196721107Y-72986332D01*
X196468276Y-73036623D01*
X196230113Y-73135274D01*
X196194984Y-73158747D01*
X196131832Y-73125168D01*
X196076554Y-73102384D01*
X196021545Y-73078807D01*
X196012741Y-73076082D01*
X195894101Y-73040262D01*
X195835372Y-73028633D01*
X195776905Y-73016206D01*
X195767747Y-73015244D01*
X195767744Y-73015243D01*
X195767741Y-73015243D01*
X195644402Y-73003150D01*
X195612419Y-73000000D01*
X168242581Y-73000000D01*
X168209977Y-73003211D01*
X168201731Y-73003211D01*
X168192566Y-73004175D01*
X168069409Y-73017989D01*
X168010942Y-73030416D01*
X167952213Y-73042045D01*
X167943410Y-73044771D01*
X167825282Y-73082244D01*
X167770310Y-73105805D01*
X167714995Y-73128604D01*
X167706889Y-73132987D01*
X167660024Y-73158751D01*
X167624887Y-73135274D01*
X167386724Y-73036623D01*
X167133893Y-72986332D01*
X166876107Y-72986332D01*
X166623276Y-73036623D01*
X166385113Y-73135274D01*
X166370000Y-73145372D01*
X166354887Y-73135274D01*
X166116724Y-73036623D01*
X165863893Y-72986332D01*
X165606107Y-72986332D01*
X165353276Y-73036623D01*
X165115113Y-73135274D01*
X165100000Y-73145372D01*
X165084887Y-73135274D01*
X164846724Y-73036623D01*
X164593893Y-72986332D01*
X164336107Y-72986332D01*
X164083276Y-73036623D01*
X163845113Y-73135274D01*
X163809984Y-73158747D01*
X163746832Y-73125168D01*
X163691554Y-73102384D01*
X163636545Y-73078807D01*
X163627741Y-73076082D01*
X163509101Y-73040262D01*
X163450372Y-73028633D01*
X163391905Y-73016206D01*
X163382747Y-73015244D01*
X163382744Y-73015243D01*
X163382741Y-73015243D01*
X163259402Y-73003150D01*
X163227419Y-73000000D01*
X149257279Y-73000000D01*
X148860455Y-72961091D01*
X148509794Y-72855220D01*
X148186377Y-72683257D01*
X147902518Y-72451748D01*
X147669035Y-72169514D01*
X147494816Y-71847304D01*
X147386498Y-71497385D01*
X147345000Y-71102557D01*
X147345000Y-69531964D01*
X148475000Y-69531964D01*
X148475000Y-70168037D01*
X148495040Y-70371507D01*
X148574236Y-70632581D01*
X148702843Y-70873188D01*
X148875920Y-71084081D01*
X149086813Y-71257157D01*
X149327420Y-71385764D01*
X149588494Y-71464960D01*
X149860000Y-71491701D01*
X150131507Y-71464960D01*
X150392581Y-71385764D01*
X150633188Y-71257157D01*
X150844081Y-71084081D01*
X151017157Y-70873188D01*
X151130000Y-70662073D01*
X151242843Y-70873188D01*
X151415920Y-71084081D01*
X151626813Y-71257157D01*
X151867420Y-71385764D01*
X152128494Y-71464960D01*
X152400000Y-71491701D01*
X152671507Y-71464960D01*
X152932581Y-71385764D01*
X153173188Y-71257157D01*
X153384081Y-71084081D01*
X153557157Y-70873188D01*
X153670000Y-70662073D01*
X153782843Y-70873188D01*
X153955920Y-71084081D01*
X154166813Y-71257157D01*
X154407420Y-71385764D01*
X154668494Y-71464960D01*
X154940000Y-71491701D01*
X155211507Y-71464960D01*
X155472581Y-71385764D01*
X155713188Y-71257157D01*
X155924081Y-71084081D01*
X156097157Y-70873188D01*
X156210000Y-70662073D01*
X156322843Y-70873188D01*
X156495920Y-71084081D01*
X156706813Y-71257157D01*
X156947420Y-71385764D01*
X157208494Y-71464960D01*
X157480000Y-71491701D01*
X157751507Y-71464960D01*
X158012581Y-71385764D01*
X158253188Y-71257157D01*
X158464081Y-71084081D01*
X158637157Y-70873188D01*
X158750000Y-70662073D01*
X158862843Y-70873188D01*
X159035920Y-71084081D01*
X159246813Y-71257157D01*
X159487420Y-71385764D01*
X159748494Y-71464960D01*
X160020000Y-71491701D01*
X160291507Y-71464960D01*
X160552581Y-71385764D01*
X160793188Y-71257157D01*
X161004081Y-71084081D01*
X161177157Y-70873188D01*
X161290000Y-70662073D01*
X161402843Y-70873188D01*
X161575920Y-71084081D01*
X161786813Y-71257157D01*
X162027420Y-71385764D01*
X162288494Y-71464960D01*
X162560000Y-71491701D01*
X162831507Y-71464960D01*
X163092581Y-71385764D01*
X163333188Y-71257157D01*
X163544081Y-71084081D01*
X163717157Y-70873188D01*
X163830000Y-70662073D01*
X163942843Y-70873188D01*
X164115920Y-71084081D01*
X164326813Y-71257157D01*
X164567420Y-71385764D01*
X164828494Y-71464960D01*
X165100000Y-71491701D01*
X165371507Y-71464960D01*
X165632581Y-71385764D01*
X165873188Y-71257157D01*
X166084081Y-71084081D01*
X166257157Y-70873188D01*
X166370000Y-70662073D01*
X166482843Y-70873188D01*
X166655920Y-71084081D01*
X166866813Y-71257157D01*
X167107420Y-71385764D01*
X167368494Y-71464960D01*
X167640000Y-71491701D01*
X167911507Y-71464960D01*
X168172581Y-71385764D01*
X168413188Y-71257157D01*
X168624081Y-71084081D01*
X168797157Y-70873188D01*
X168910000Y-70662073D01*
X169022843Y-70873188D01*
X169195920Y-71084081D01*
X169406813Y-71257157D01*
X169647420Y-71385764D01*
X169908494Y-71464960D01*
X170180000Y-71491701D01*
X170451507Y-71464960D01*
X170712581Y-71385764D01*
X170953188Y-71257157D01*
X171164081Y-71084081D01*
X171337157Y-70873188D01*
X171450000Y-70662073D01*
X171562843Y-70873188D01*
X171735920Y-71084081D01*
X171946813Y-71257157D01*
X172187420Y-71385764D01*
X172448494Y-71464960D01*
X172720000Y-71491701D01*
X172991507Y-71464960D01*
X173252581Y-71385764D01*
X173493188Y-71257157D01*
X173704081Y-71084081D01*
X173877157Y-70873188D01*
X173990000Y-70662073D01*
X174102843Y-70873188D01*
X174275920Y-71084081D01*
X174486813Y-71257157D01*
X174727420Y-71385764D01*
X174988494Y-71464960D01*
X175260000Y-71491701D01*
X175531507Y-71464960D01*
X175792581Y-71385764D01*
X176033188Y-71257157D01*
X176244081Y-71084081D01*
X176417157Y-70873188D01*
X176530000Y-70662073D01*
X176642843Y-70873188D01*
X176815920Y-71084081D01*
X177026813Y-71257157D01*
X177267420Y-71385764D01*
X177528494Y-71464960D01*
X177800000Y-71491701D01*
X178071507Y-71464960D01*
X178332581Y-71385764D01*
X178573188Y-71257157D01*
X178784081Y-71084081D01*
X178957157Y-70873188D01*
X179070000Y-70662073D01*
X179182843Y-70873188D01*
X179355920Y-71084081D01*
X179566813Y-71257157D01*
X179807420Y-71385764D01*
X180068494Y-71464960D01*
X180340000Y-71491701D01*
X180611507Y-71464960D01*
X180872581Y-71385764D01*
X181113188Y-71257157D01*
X181324081Y-71084081D01*
X181497157Y-70873188D01*
X181610000Y-70662073D01*
X181722843Y-70873188D01*
X181895920Y-71084081D01*
X182106813Y-71257157D01*
X182347420Y-71385764D01*
X182608494Y-71464960D01*
X182880000Y-71491701D01*
X183151507Y-71464960D01*
X183412581Y-71385764D01*
X183653188Y-71257157D01*
X183864081Y-71084081D01*
X184037157Y-70873188D01*
X184150000Y-70662073D01*
X184262843Y-70873188D01*
X184435920Y-71084081D01*
X184646813Y-71257157D01*
X184887420Y-71385764D01*
X185148494Y-71464960D01*
X185420000Y-71491701D01*
X185691507Y-71464960D01*
X185952581Y-71385764D01*
X186193188Y-71257157D01*
X186404081Y-71084081D01*
X186577157Y-70873188D01*
X186690000Y-70662073D01*
X186802843Y-70873188D01*
X186975920Y-71084081D01*
X187186813Y-71257157D01*
X187427420Y-71385764D01*
X187688494Y-71464960D01*
X187960000Y-71491701D01*
X188231507Y-71464960D01*
X188492581Y-71385764D01*
X188733188Y-71257157D01*
X188944081Y-71084081D01*
X189117157Y-70873188D01*
X189230000Y-70662073D01*
X189342843Y-70873188D01*
X189515920Y-71084081D01*
X189726813Y-71257157D01*
X189967420Y-71385764D01*
X190228494Y-71464960D01*
X190500000Y-71491701D01*
X190771507Y-71464960D01*
X191032581Y-71385764D01*
X191273188Y-71257157D01*
X191484081Y-71084081D01*
X191657157Y-70873188D01*
X191770000Y-70662073D01*
X191882843Y-70873188D01*
X192055920Y-71084081D01*
X192266813Y-71257157D01*
X192507420Y-71385764D01*
X192768494Y-71464960D01*
X193040000Y-71491701D01*
X193311507Y-71464960D01*
X193572581Y-71385764D01*
X193813188Y-71257157D01*
X194024081Y-71084081D01*
X194197157Y-70873188D01*
X194310000Y-70662073D01*
X194422843Y-70873188D01*
X194595920Y-71084081D01*
X194806813Y-71257157D01*
X195047420Y-71385764D01*
X195308494Y-71464960D01*
X195580000Y-71491701D01*
X195851507Y-71464960D01*
X196112581Y-71385764D01*
X196353188Y-71257157D01*
X196564081Y-71084081D01*
X196737157Y-70873188D01*
X196865764Y-70632580D01*
X196944960Y-70371506D01*
X196965000Y-70168036D01*
X196965000Y-69531963D01*
X196944960Y-69328493D01*
X196865764Y-69067419D01*
X196737157Y-68826812D01*
X196564080Y-68615919D01*
X196353187Y-68442843D01*
X196112580Y-68314236D01*
X195851506Y-68235040D01*
X195580000Y-68208299D01*
X195308493Y-68235040D01*
X195047419Y-68314236D01*
X194806812Y-68442843D01*
X194595919Y-68615920D01*
X194422843Y-68826813D01*
X194310000Y-69037927D01*
X194197157Y-68826812D01*
X194024080Y-68615919D01*
X193813187Y-68442843D01*
X193572580Y-68314236D01*
X193311506Y-68235040D01*
X193040000Y-68208299D01*
X192768493Y-68235040D01*
X192507419Y-68314236D01*
X192266812Y-68442843D01*
X192055919Y-68615920D01*
X191882843Y-68826813D01*
X191770000Y-69037927D01*
X191657157Y-68826812D01*
X191484080Y-68615919D01*
X191273187Y-68442843D01*
X191032580Y-68314236D01*
X190771506Y-68235040D01*
X190500000Y-68208299D01*
X190228493Y-68235040D01*
X189967419Y-68314236D01*
X189726812Y-68442843D01*
X189515919Y-68615920D01*
X189342843Y-68826813D01*
X189230000Y-69037927D01*
X189117157Y-68826812D01*
X188944080Y-68615919D01*
X188733187Y-68442843D01*
X188492580Y-68314236D01*
X188376249Y-68278947D01*
X181108072Y-61010771D01*
X181108072Y-60722500D01*
X181091248Y-60551684D01*
X181041423Y-60387433D01*
X180960512Y-60236058D01*
X180851623Y-60103377D01*
X180718942Y-59994488D01*
X180567567Y-59913577D01*
X180403316Y-59863752D01*
X180232500Y-59846928D01*
X179732500Y-59846928D01*
X179561684Y-59863752D01*
X179397433Y-59913577D01*
X179246058Y-59994488D01*
X179113377Y-60103377D01*
X179070000Y-60156232D01*
X179026623Y-60103377D01*
X178893942Y-59994488D01*
X178742567Y-59913577D01*
X178578316Y-59863752D01*
X178407500Y-59846928D01*
X177907500Y-59846928D01*
X177736684Y-59863752D01*
X177572433Y-59913577D01*
X177421058Y-59994488D01*
X177288377Y-60103377D01*
X177209080Y-60200000D01*
X158907323Y-60200000D01*
X158870000Y-60196324D01*
X158832677Y-60200000D01*
X158832667Y-60200000D01*
X158721014Y-60210997D01*
X158577753Y-60254454D01*
X158445724Y-60325026D01*
X158329999Y-60419999D01*
X158306201Y-60448997D01*
X156970000Y-61785199D01*
X156970000Y-59343610D01*
X157021058Y-59385512D01*
X157172433Y-59466423D01*
X157336684Y-59516248D01*
X157507500Y-59533072D01*
X158007500Y-59533072D01*
X158178316Y-59516248D01*
X158342567Y-59466423D01*
X158493942Y-59385512D01*
X158626623Y-59276623D01*
X158735512Y-59143942D01*
X158816423Y-58992567D01*
X158866248Y-58828316D01*
X158883072Y-58657500D01*
X158883072Y-58182500D01*
X158866248Y-58011684D01*
X158816423Y-57847433D01*
X158735512Y-57696058D01*
X158626623Y-57563377D01*
X158517500Y-57473822D01*
X158517500Y-56148072D01*
X159015000Y-56148072D01*
X159139482Y-56135812D01*
X159259180Y-56099502D01*
X159369494Y-56040537D01*
X159466185Y-55961185D01*
X159545537Y-55864494D01*
X159604502Y-55754180D01*
X159640812Y-55634482D01*
X159653072Y-55510000D01*
X159653072Y-53710000D01*
X159640812Y-53585518D01*
X159604502Y-53465820D01*
X159545537Y-53355506D01*
X159466185Y-53258815D01*
X159369494Y-53179463D01*
X159259180Y-53120498D01*
X159139482Y-53084188D01*
X159015000Y-53071928D01*
X157215000Y-53071928D01*
X157090518Y-53084188D01*
X156970820Y-53120498D01*
X156860506Y-53179463D01*
X156763815Y-53258815D01*
X156684463Y-53355506D01*
X156625498Y-53465820D01*
X156619944Y-53484127D01*
X156553505Y-53417688D01*
X156302095Y-53249701D01*
X156022743Y-53133989D01*
X155726184Y-53075000D01*
X155423816Y-53075000D01*
X155127257Y-53133989D01*
X154847905Y-53249701D01*
X154596495Y-53417688D01*
X154382688Y-53631495D01*
X154214701Y-53882905D01*
X154098989Y-54162257D01*
X154040000Y-54458816D01*
X154040000Y-54761184D01*
X154098989Y-55057743D01*
X154214701Y-55337095D01*
X154382688Y-55588505D01*
X154596495Y-55802312D01*
X154847905Y-55970299D01*
X155127257Y-56086011D01*
X155423816Y-56145000D01*
X155726184Y-56145000D01*
X156022743Y-56086011D01*
X156302095Y-55970299D01*
X156553505Y-55802312D01*
X156619944Y-55735873D01*
X156625498Y-55754180D01*
X156684463Y-55864494D01*
X156763815Y-55961185D01*
X156860506Y-56040537D01*
X156970820Y-56099502D01*
X156997501Y-56107595D01*
X156997500Y-57473821D01*
X156888377Y-57563377D01*
X156845000Y-57616232D01*
X156801623Y-57563377D01*
X156668942Y-57454488D01*
X156517567Y-57373577D01*
X156353316Y-57323752D01*
X156182500Y-57306928D01*
X155682500Y-57306928D01*
X155511684Y-57323752D01*
X155347433Y-57373577D01*
X155196058Y-57454488D01*
X155063377Y-57563377D01*
X154954488Y-57696058D01*
X154873577Y-57847433D01*
X154823752Y-58011684D01*
X154806928Y-58182500D01*
X154806928Y-58657500D01*
X154823752Y-58828316D01*
X154873577Y-58992567D01*
X154954488Y-59143942D01*
X155063377Y-59276623D01*
X155196058Y-59385512D01*
X155347433Y-59466423D01*
X155450001Y-59497537D01*
X155450000Y-62080952D01*
X155389906Y-62048831D01*
X155169360Y-61981929D01*
X154940000Y-61959339D01*
X154710641Y-61981929D01*
X154490095Y-62048831D01*
X154286839Y-62157474D01*
X154108683Y-62303682D01*
X153962475Y-62481838D01*
X153853831Y-62685094D01*
X153786929Y-62905640D01*
X153770000Y-63077523D01*
X153770000Y-63922476D01*
X153786929Y-64094359D01*
X153853831Y-64314905D01*
X153962474Y-64518161D01*
X154108682Y-64696318D01*
X154286838Y-64842526D01*
X154490094Y-64951169D01*
X154710640Y-65018071D01*
X154940000Y-65040661D01*
X155080759Y-65026797D01*
X157404974Y-67351013D01*
X157428772Y-67380011D01*
X157544497Y-67474984D01*
X157676526Y-67545556D01*
X157819787Y-67589013D01*
X157931440Y-67600010D01*
X157931450Y-67600010D01*
X157968773Y-67603686D01*
X158006096Y-67600010D01*
X178603178Y-67600010D01*
X178640500Y-67603686D01*
X178677822Y-67600010D01*
X178677833Y-67600010D01*
X178789486Y-67589013D01*
X178932747Y-67545556D01*
X179064776Y-67474984D01*
X179180501Y-67380011D01*
X179204304Y-67351007D01*
X179222500Y-67332811D01*
X179222501Y-68778490D01*
X179182843Y-68826813D01*
X179070000Y-69037927D01*
X178957157Y-68826812D01*
X178784080Y-68615919D01*
X178573187Y-68442843D01*
X178332580Y-68314236D01*
X178071506Y-68235040D01*
X177800000Y-68208299D01*
X177528493Y-68235040D01*
X177267419Y-68314236D01*
X177026812Y-68442843D01*
X176815919Y-68615920D01*
X176642843Y-68826813D01*
X176530000Y-69037927D01*
X176417157Y-68826812D01*
X176244080Y-68615919D01*
X176033187Y-68442843D01*
X175792580Y-68314236D01*
X175531506Y-68235040D01*
X175260000Y-68208299D01*
X174988493Y-68235040D01*
X174727419Y-68314236D01*
X174486812Y-68442843D01*
X174275919Y-68615920D01*
X174102843Y-68826813D01*
X173990000Y-69037927D01*
X173877157Y-68826812D01*
X173704080Y-68615919D01*
X173493187Y-68442843D01*
X173252580Y-68314236D01*
X172991506Y-68235040D01*
X172720000Y-68208299D01*
X172448493Y-68235040D01*
X172187419Y-68314236D01*
X171946812Y-68442843D01*
X171735919Y-68615920D01*
X171562843Y-68826813D01*
X171450000Y-69037927D01*
X171337157Y-68826812D01*
X171164080Y-68615919D01*
X170953187Y-68442843D01*
X170712580Y-68314236D01*
X170451506Y-68235040D01*
X170180000Y-68208299D01*
X169908493Y-68235040D01*
X169647419Y-68314236D01*
X169406812Y-68442843D01*
X169195919Y-68615920D01*
X169022843Y-68826813D01*
X168910000Y-69037927D01*
X168797157Y-68826812D01*
X168624080Y-68615919D01*
X168413187Y-68442843D01*
X168172580Y-68314236D01*
X167911506Y-68235040D01*
X167640000Y-68208299D01*
X167368493Y-68235040D01*
X167107419Y-68314236D01*
X166866812Y-68442843D01*
X166655919Y-68615920D01*
X166482843Y-68826813D01*
X166370000Y-69037927D01*
X166257157Y-68826812D01*
X166084080Y-68615919D01*
X165873187Y-68442843D01*
X165632580Y-68314236D01*
X165371506Y-68235040D01*
X165100000Y-68208299D01*
X164828493Y-68235040D01*
X164567419Y-68314236D01*
X164326812Y-68442843D01*
X164115919Y-68615920D01*
X163942843Y-68826813D01*
X163830000Y-69037927D01*
X163717157Y-68826812D01*
X163544080Y-68615919D01*
X163333187Y-68442843D01*
X163092580Y-68314236D01*
X162831506Y-68235040D01*
X162560000Y-68208299D01*
X162288493Y-68235040D01*
X162027419Y-68314236D01*
X161786812Y-68442843D01*
X161575919Y-68615920D01*
X161402843Y-68826813D01*
X161290000Y-69037927D01*
X161177157Y-68826812D01*
X161004080Y-68615919D01*
X160793187Y-68442843D01*
X160552580Y-68314236D01*
X160291506Y-68235040D01*
X160020000Y-68208299D01*
X159748493Y-68235040D01*
X159487419Y-68314236D01*
X159246812Y-68442843D01*
X159035919Y-68615920D01*
X158862843Y-68826813D01*
X158750000Y-69037927D01*
X158637157Y-68826812D01*
X158464080Y-68615919D01*
X158253187Y-68442843D01*
X158012580Y-68314236D01*
X157751506Y-68235040D01*
X157480000Y-68208299D01*
X157208493Y-68235040D01*
X156947419Y-68314236D01*
X156706812Y-68442843D01*
X156495919Y-68615920D01*
X156322843Y-68826813D01*
X156210000Y-69037927D01*
X156097157Y-68826812D01*
X155924080Y-68615919D01*
X155713187Y-68442843D01*
X155472580Y-68314236D01*
X155211506Y-68235040D01*
X154940000Y-68208299D01*
X154668493Y-68235040D01*
X154407419Y-68314236D01*
X154166812Y-68442843D01*
X153955919Y-68615920D01*
X153782843Y-68826813D01*
X153670000Y-69037927D01*
X153557157Y-68826812D01*
X153384080Y-68615919D01*
X153173187Y-68442843D01*
X152932580Y-68314236D01*
X152671506Y-68235040D01*
X152400000Y-68208299D01*
X152128493Y-68235040D01*
X151867419Y-68314236D01*
X151626812Y-68442843D01*
X151415919Y-68615920D01*
X151242843Y-68826813D01*
X151130000Y-69037927D01*
X151017157Y-68826812D01*
X150844080Y-68615919D01*
X150633187Y-68442843D01*
X150392580Y-68314236D01*
X150131506Y-68235040D01*
X149860000Y-68208299D01*
X149588493Y-68235040D01*
X149327419Y-68314236D01*
X149086812Y-68442843D01*
X148875919Y-68615920D01*
X148702843Y-68826813D01*
X148574236Y-69067420D01*
X148495040Y-69328494D01*
X148475000Y-69531964D01*
X147345000Y-69531964D01*
X147345000Y-44131964D01*
X148475000Y-44131964D01*
X148475000Y-44768037D01*
X148495040Y-44971507D01*
X148574236Y-45232581D01*
X148702843Y-45473188D01*
X148875920Y-45684081D01*
X149086813Y-45857157D01*
X149327420Y-45985764D01*
X149588494Y-46064960D01*
X149860000Y-46091701D01*
X150131507Y-46064960D01*
X150337631Y-46002433D01*
X153106201Y-48771003D01*
X153129999Y-48800001D01*
X153245724Y-48894974D01*
X153377753Y-48965546D01*
X153521014Y-49009003D01*
X153632667Y-49020000D01*
X153632675Y-49020000D01*
X153670000Y-49023676D01*
X153707325Y-49020000D01*
X160699080Y-49020000D01*
X160778377Y-49116623D01*
X160887501Y-49206179D01*
X160887500Y-49853821D01*
X160778377Y-49943377D01*
X160669488Y-50076058D01*
X160588577Y-50227433D01*
X160538752Y-50391684D01*
X160521928Y-50562500D01*
X160521928Y-51037500D01*
X160538752Y-51208316D01*
X160588577Y-51372567D01*
X160669488Y-51523942D01*
X160778377Y-51656623D01*
X160911058Y-51765512D01*
X161062433Y-51846423D01*
X161226684Y-51896248D01*
X161397500Y-51913072D01*
X161897500Y-51913072D01*
X162068316Y-51896248D01*
X162177743Y-51863054D01*
X164165690Y-53851002D01*
X164189489Y-53880001D01*
X164305214Y-53974974D01*
X164437243Y-54045546D01*
X164580504Y-54089003D01*
X164692157Y-54100000D01*
X164692166Y-54100000D01*
X164729489Y-54103676D01*
X164766812Y-54100000D01*
X187922678Y-54100000D01*
X187960000Y-54103676D01*
X187997322Y-54100000D01*
X191654055Y-54100000D01*
X191650530Y-54108509D01*
X191595000Y-54387680D01*
X191595000Y-54672320D01*
X191650530Y-54951491D01*
X191759457Y-55214464D01*
X191917595Y-55451134D01*
X192118866Y-55652405D01*
X192355536Y-55810543D01*
X192618509Y-55919470D01*
X192897680Y-55975000D01*
X193182320Y-55975000D01*
X193461491Y-55919470D01*
X193724464Y-55810543D01*
X193961134Y-55652405D01*
X194162405Y-55451134D01*
X194320543Y-55214464D01*
X194429470Y-54951491D01*
X194485000Y-54672320D01*
X194485000Y-54387680D01*
X194429470Y-54108509D01*
X194425945Y-54100000D01*
X197805199Y-54100000D01*
X203320001Y-59614803D01*
X203320000Y-62221821D01*
X203133368Y-62346525D01*
X202926525Y-62553368D01*
X202810000Y-62727760D01*
X202693475Y-62553368D01*
X202486632Y-62346525D01*
X202243411Y-62184010D01*
X201973158Y-62072068D01*
X201686260Y-62015000D01*
X201393740Y-62015000D01*
X201106842Y-62072068D01*
X200836589Y-62184010D01*
X200593368Y-62346525D01*
X200461513Y-62478380D01*
X200439502Y-62405820D01*
X200380537Y-62295506D01*
X200301185Y-62198815D01*
X200204494Y-62119463D01*
X200094180Y-62060498D01*
X199974482Y-62024188D01*
X199850000Y-62011928D01*
X198150000Y-62011928D01*
X198025518Y-62024188D01*
X197905820Y-62060498D01*
X197795506Y-62119463D01*
X197698815Y-62198815D01*
X197619463Y-62295506D01*
X197560498Y-62405820D01*
X197524188Y-62525518D01*
X197511928Y-62650000D01*
X197511928Y-64350000D01*
X197524188Y-64474482D01*
X197560498Y-64594180D01*
X197619463Y-64704494D01*
X197698815Y-64801185D01*
X197795506Y-64880537D01*
X197905820Y-64939502D01*
X198025518Y-64975812D01*
X198150000Y-64988072D01*
X199850000Y-64988072D01*
X199974482Y-64975812D01*
X200094180Y-64939502D01*
X200204494Y-64880537D01*
X200301185Y-64801185D01*
X200380537Y-64704494D01*
X200439502Y-64594180D01*
X200461513Y-64521620D01*
X200593368Y-64653475D01*
X200836589Y-64815990D01*
X201106842Y-64927932D01*
X201393740Y-64985000D01*
X201686260Y-64985000D01*
X201906408Y-64941210D01*
X202151202Y-65186004D01*
X202175000Y-65215002D01*
X202290725Y-65309975D01*
X202422754Y-65380547D01*
X202566015Y-65424004D01*
X202677668Y-65435001D01*
X202677677Y-65435001D01*
X202715000Y-65438677D01*
X202752323Y-65435001D01*
X204606679Y-65435001D01*
X204644001Y-65438677D01*
X204681323Y-65435001D01*
X204681334Y-65435001D01*
X204792987Y-65424004D01*
X204936248Y-65380547D01*
X205068277Y-65309975D01*
X205184002Y-65215002D01*
X205207804Y-65185999D01*
X205766009Y-64627796D01*
X205795002Y-64604002D01*
X205818796Y-64575009D01*
X205818800Y-64575005D01*
X205889974Y-64488278D01*
X205889975Y-64488277D01*
X205960547Y-64356248D01*
X206004004Y-64212987D01*
X206015001Y-64101334D01*
X206015001Y-64101325D01*
X206018677Y-64064002D01*
X206015001Y-64026679D01*
X206015001Y-59242326D01*
X206018677Y-59205001D01*
X206015001Y-59167676D01*
X206015001Y-59167668D01*
X206004004Y-59056015D01*
X205960547Y-58912754D01*
X205889975Y-58780725D01*
X205795002Y-58665000D01*
X205766005Y-58641203D01*
X198643804Y-51519003D01*
X198620001Y-51489999D01*
X198583459Y-51460010D01*
X201191670Y-51460010D01*
X201228992Y-51463686D01*
X201266314Y-51460010D01*
X201266325Y-51460010D01*
X201377978Y-51449013D01*
X201521239Y-51405556D01*
X201653268Y-51334984D01*
X201768993Y-51240011D01*
X201792796Y-51211007D01*
X202455221Y-50548582D01*
X202337720Y-51139297D01*
X202337720Y-51860703D01*
X202478460Y-52568248D01*
X202754530Y-53234740D01*
X203155322Y-53834567D01*
X203665433Y-54344678D01*
X204265260Y-54745470D01*
X204931752Y-55021540D01*
X205639297Y-55162280D01*
X206360703Y-55162280D01*
X207068248Y-55021540D01*
X207734740Y-54745470D01*
X208334567Y-54344678D01*
X208844678Y-53834567D01*
X209245470Y-53234740D01*
X209521540Y-52568248D01*
X209662280Y-51860703D01*
X209662280Y-51139297D01*
X209521540Y-50431752D01*
X209245470Y-49765260D01*
X208844678Y-49165433D01*
X208334567Y-48655322D01*
X207734740Y-48254530D01*
X207068248Y-47978460D01*
X206360703Y-47837720D01*
X205639297Y-47837720D01*
X205048583Y-47955221D01*
X206504214Y-46499590D01*
X206550820Y-46524502D01*
X206670518Y-46560812D01*
X206795000Y-46573072D01*
X208495000Y-46573072D01*
X208619482Y-46560812D01*
X208739180Y-46524502D01*
X208849494Y-46465537D01*
X208946185Y-46386185D01*
X209025537Y-46289494D01*
X209084502Y-46179180D01*
X209120812Y-46059482D01*
X209133072Y-45935000D01*
X209133072Y-44235000D01*
X209120812Y-44110518D01*
X209084502Y-43990820D01*
X209025537Y-43880506D01*
X208946185Y-43783815D01*
X208849494Y-43704463D01*
X208739180Y-43645498D01*
X208619482Y-43609188D01*
X208495000Y-43596928D01*
X206795000Y-43596928D01*
X206670518Y-43609188D01*
X206550820Y-43645498D01*
X206440506Y-43704463D01*
X206343815Y-43783815D01*
X206264463Y-43880506D01*
X206205498Y-43990820D01*
X206183487Y-44063380D01*
X206051632Y-43931525D01*
X205808411Y-43769010D01*
X205538158Y-43657068D01*
X205251260Y-43600000D01*
X204958740Y-43600000D01*
X204738592Y-43643790D01*
X203708794Y-42613993D01*
X203684991Y-42584989D01*
X203569266Y-42490016D01*
X203437237Y-42419444D01*
X203293976Y-42375987D01*
X203182323Y-42364990D01*
X203182312Y-42364990D01*
X203144990Y-42361314D01*
X203107668Y-42364990D01*
X176622332Y-42364990D01*
X176585009Y-42361314D01*
X176547686Y-42364990D01*
X176547677Y-42364990D01*
X176436024Y-42375987D01*
X176302468Y-42416500D01*
X176292763Y-42419444D01*
X176160733Y-42490016D01*
X176111967Y-42530038D01*
X176045009Y-42584989D01*
X176021211Y-42613987D01*
X175737631Y-42897567D01*
X175531506Y-42835040D01*
X175260000Y-42808299D01*
X174988493Y-42835040D01*
X174782368Y-42897567D01*
X174498794Y-42613993D01*
X174474991Y-42584989D01*
X174359266Y-42490016D01*
X174227237Y-42419444D01*
X174083976Y-42375987D01*
X173972323Y-42364990D01*
X173972312Y-42364990D01*
X173934990Y-42361314D01*
X173897668Y-42364990D01*
X172312039Y-42364990D01*
X172274716Y-42361314D01*
X172237393Y-42364990D01*
X172237384Y-42364990D01*
X172125731Y-42375987D01*
X171982470Y-42419444D01*
X171850441Y-42490016D01*
X171850439Y-42490017D01*
X171850440Y-42490017D01*
X171763713Y-42561191D01*
X171763709Y-42561195D01*
X171734716Y-42584989D01*
X171710922Y-42613982D01*
X171133987Y-43190919D01*
X171133802Y-43191071D01*
X170953187Y-43042843D01*
X170712580Y-42914236D01*
X170451506Y-42835040D01*
X170180000Y-42808299D01*
X169908493Y-42835040D01*
X169647419Y-42914236D01*
X169406812Y-43042843D01*
X169195919Y-43215920D01*
X169022843Y-43426813D01*
X168910000Y-43637927D01*
X168797157Y-43426812D01*
X168624080Y-43215919D01*
X168413187Y-43042843D01*
X168172580Y-42914236D01*
X167911506Y-42835040D01*
X167640000Y-42808299D01*
X167368493Y-42835040D01*
X167107419Y-42914236D01*
X166866812Y-43042843D01*
X166655919Y-43215920D01*
X166482843Y-43426813D01*
X166370000Y-43637927D01*
X166257157Y-43426812D01*
X166084080Y-43215919D01*
X165873187Y-43042843D01*
X165632580Y-42914236D01*
X165371506Y-42835040D01*
X165100000Y-42808299D01*
X164828493Y-42835040D01*
X164567419Y-42914236D01*
X164326812Y-43042843D01*
X164115919Y-43215920D01*
X163942843Y-43426813D01*
X163830000Y-43637927D01*
X163717157Y-43426812D01*
X163544080Y-43215919D01*
X163333187Y-43042843D01*
X163092580Y-42914236D01*
X162831506Y-42835040D01*
X162560000Y-42808299D01*
X162288493Y-42835040D01*
X162027419Y-42914236D01*
X161786812Y-43042843D01*
X161575919Y-43215920D01*
X161402843Y-43426813D01*
X161290000Y-43637927D01*
X161177157Y-43426812D01*
X161004080Y-43215919D01*
X160793187Y-43042843D01*
X160552580Y-42914236D01*
X160291506Y-42835040D01*
X160020000Y-42808299D01*
X159748493Y-42835040D01*
X159487419Y-42914236D01*
X159246812Y-43042843D01*
X159035919Y-43215920D01*
X158862843Y-43426813D01*
X158750000Y-43637927D01*
X158637157Y-43426812D01*
X158464080Y-43215919D01*
X158253187Y-43042843D01*
X158012580Y-42914236D01*
X157751506Y-42835040D01*
X157480000Y-42808299D01*
X157208493Y-42835040D01*
X156947419Y-42914236D01*
X156706812Y-43042843D01*
X156495919Y-43215920D01*
X156322843Y-43426813D01*
X156210000Y-43637927D01*
X156097157Y-43426812D01*
X155924080Y-43215919D01*
X155713187Y-43042843D01*
X155472580Y-42914236D01*
X155211506Y-42835040D01*
X154940000Y-42808299D01*
X154668493Y-42835040D01*
X154407419Y-42914236D01*
X154166812Y-43042843D01*
X153955919Y-43215920D01*
X153782843Y-43426813D01*
X153670000Y-43637927D01*
X153557157Y-43426812D01*
X153384080Y-43215919D01*
X153173187Y-43042843D01*
X152932580Y-42914236D01*
X152671506Y-42835040D01*
X152400000Y-42808299D01*
X152128493Y-42835040D01*
X151867419Y-42914236D01*
X151626812Y-43042843D01*
X151415919Y-43215920D01*
X151242843Y-43426813D01*
X151130000Y-43637927D01*
X151017157Y-43426812D01*
X150844080Y-43215919D01*
X150633187Y-43042843D01*
X150392580Y-42914236D01*
X150131506Y-42835040D01*
X149860000Y-42808299D01*
X149588493Y-42835040D01*
X149327419Y-42914236D01*
X149086812Y-43042843D01*
X148875919Y-43215920D01*
X148702843Y-43426813D01*
X148574236Y-43667420D01*
X148495040Y-43928494D01*
X148475000Y-44131964D01*
X147345000Y-44131964D01*
X147345000Y-43212279D01*
X147383909Y-42815455D01*
X147489780Y-42464792D01*
X147661744Y-42141375D01*
X147893254Y-41857516D01*
X148175486Y-41624035D01*
X148497695Y-41449817D01*
X148847614Y-41341498D01*
X149242443Y-41300000D01*
X208882721Y-41300000D01*
X209279545Y-41338909D01*
G37*
G04 #@! TD.AperFunction*
D21*
X186792974Y-68845276D02*
X186690000Y-69037927D01*
X186577157Y-68826812D01*
X186404080Y-68615919D01*
X186193187Y-68442843D01*
X185952580Y-68314236D01*
X185836249Y-68278947D01*
X181108072Y-63550771D01*
X181108072Y-63262500D01*
X181096914Y-63149216D01*
X186792974Y-68845276D01*
G04 #@! TA.AperFunction,NonConductor*
D22*
G36*
X186792974Y-68845276D02*
G01*
X186690000Y-69037927D01*
X186577157Y-68826812D01*
X186404080Y-68615919D01*
X186193187Y-68442843D01*
X185952580Y-68314236D01*
X185836249Y-68278947D01*
X181108072Y-63550771D01*
X181108072Y-63262500D01*
X181096914Y-63149216D01*
X186792974Y-68845276D01*
G37*
G04 #@! TD.AperFunction*
D21*
X184252974Y-68845276D02*
X184150000Y-69037927D01*
X184037157Y-68826812D01*
X183864080Y-68615919D01*
X183653187Y-68442843D01*
X183412580Y-68314236D01*
X183151506Y-68235040D01*
X182880000Y-68208299D01*
X182608493Y-68235040D01*
X182347419Y-68314236D01*
X182106812Y-68442843D01*
X181895919Y-68615920D01*
X181722843Y-68826813D01*
X181610000Y-69037927D01*
X181497157Y-68826812D01*
X181324080Y-68615919D01*
X181113187Y-68442843D01*
X180872580Y-68314236D01*
X180742500Y-68274777D01*
X180742500Y-66986178D01*
X180851623Y-66896623D01*
X180960512Y-66763942D01*
X181041423Y-66612567D01*
X181091248Y-66448316D01*
X181108072Y-66277500D01*
X181108072Y-65802500D01*
X181096914Y-65689216D01*
X184252974Y-68845276D01*
G04 #@! TA.AperFunction,NonConductor*
D22*
G36*
X184252974Y-68845276D02*
G01*
X184150000Y-69037927D01*
X184037157Y-68826812D01*
X183864080Y-68615919D01*
X183653187Y-68442843D01*
X183412580Y-68314236D01*
X183151506Y-68235040D01*
X182880000Y-68208299D01*
X182608493Y-68235040D01*
X182347419Y-68314236D01*
X182106812Y-68442843D01*
X181895919Y-68615920D01*
X181722843Y-68826813D01*
X181610000Y-69037927D01*
X181497157Y-68826812D01*
X181324080Y-68615919D01*
X181113187Y-68442843D01*
X180872580Y-68314236D01*
X180742500Y-68274777D01*
X180742500Y-66986178D01*
X180851623Y-66896623D01*
X180960512Y-66763942D01*
X181041423Y-66612567D01*
X181091248Y-66448316D01*
X181108072Y-66277500D01*
X181108072Y-65802500D01*
X181096914Y-65689216D01*
X184252974Y-68845276D01*
G37*
G04 #@! TD.AperFunction*
D21*
X177031928Y-65989231D02*
X177031928Y-66080010D01*
X158283575Y-66080010D01*
X157209006Y-65005441D01*
X157250640Y-65018071D01*
X157480000Y-65040661D01*
X157709359Y-65018071D01*
X157910256Y-64957129D01*
X157970820Y-64989502D01*
X158090518Y-65025812D01*
X158215000Y-65038072D01*
X159285000Y-65038072D01*
X159409482Y-65025812D01*
X159529180Y-64989502D01*
X159639494Y-64930537D01*
X159736185Y-64851185D01*
X159815537Y-64754494D01*
X159874502Y-64644180D01*
X159910812Y-64524482D01*
X159923072Y-64400000D01*
X159923072Y-64260000D01*
X175302699Y-64260000D01*
X177031928Y-65989231D01*
G04 #@! TA.AperFunction,NonConductor*
D22*
G36*
X177031928Y-65989231D02*
G01*
X177031928Y-66080010D01*
X158283575Y-66080010D01*
X157209006Y-65005441D01*
X157250640Y-65018071D01*
X157480000Y-65040661D01*
X157709359Y-65018071D01*
X157910256Y-64957129D01*
X157970820Y-64989502D01*
X158090518Y-65025812D01*
X158215000Y-65038072D01*
X159285000Y-65038072D01*
X159409482Y-65025812D01*
X159529180Y-64989502D01*
X159639494Y-64930537D01*
X159736185Y-64851185D01*
X159815537Y-64754494D01*
X159874502Y-64644180D01*
X159910812Y-64524482D01*
X159923072Y-64400000D01*
X159923072Y-64260000D01*
X175302699Y-64260000D01*
X177031928Y-65989231D01*
G37*
G04 #@! TD.AperFunction*
D21*
X179732500Y-64613072D02*
X180020771Y-64613072D01*
X180345784Y-64938086D01*
X180232500Y-64926928D01*
X179732500Y-64926928D01*
X179730010Y-64927173D01*
X179730010Y-64612827D01*
X179732500Y-64613072D01*
G04 #@! TA.AperFunction,NonConductor*
D22*
G36*
X179732500Y-64613072D02*
G01*
X180020771Y-64613072D01*
X180345784Y-64938086D01*
X180232500Y-64926928D01*
X179732500Y-64926928D01*
X179730010Y-64927173D01*
X179730010Y-64612827D01*
X179732500Y-64613072D01*
G37*
G04 #@! TD.AperFunction*
D21*
X177907500Y-64613072D02*
X178195770Y-64613072D01*
X178210010Y-64627312D01*
X178210010Y-64926928D01*
X178119231Y-64926928D01*
X177794217Y-64601915D01*
X177907500Y-64613072D01*
G04 #@! TA.AperFunction,NonConductor*
D22*
G36*
X177907500Y-64613072D02*
G01*
X178195770Y-64613072D01*
X178210010Y-64627312D01*
X178210010Y-64926928D01*
X178119231Y-64926928D01*
X177794217Y-64601915D01*
X177907500Y-64613072D01*
G37*
G04 #@! TD.AperFunction*
D21*
X177288377Y-61816623D02*
X177421058Y-61925512D01*
X177572433Y-62006423D01*
X177736684Y-62056248D01*
X177907500Y-62073072D01*
X178407500Y-62073072D01*
X178578316Y-62056248D01*
X178742567Y-62006423D01*
X178893942Y-61925512D01*
X179026623Y-61816623D01*
X179070000Y-61763768D01*
X179113377Y-61816623D01*
X179246058Y-61925512D01*
X179397433Y-62006423D01*
X179561684Y-62056248D01*
X179732500Y-62073072D01*
X180020771Y-62073072D01*
X180345784Y-62398086D01*
X180232500Y-62386928D01*
X179732500Y-62386928D01*
X179561684Y-62403752D01*
X179397433Y-62453577D01*
X179246058Y-62534488D01*
X179113377Y-62643377D01*
X179070000Y-62696232D01*
X179026623Y-62643377D01*
X178893942Y-62534488D01*
X178742567Y-62453577D01*
X178578316Y-62403752D01*
X178407500Y-62386928D01*
X177907500Y-62386928D01*
X177736684Y-62403752D01*
X177572433Y-62453577D01*
X177421058Y-62534488D01*
X177288377Y-62643377D01*
X177179488Y-62776058D01*
X177098577Y-62927433D01*
X177048752Y-63091684D01*
X177031928Y-63262500D01*
X177031928Y-63737500D01*
X177043086Y-63850784D01*
X176181304Y-62989003D01*
X176157501Y-62959999D01*
X176041776Y-62865026D01*
X175909747Y-62794454D01*
X175766486Y-62750997D01*
X175654833Y-62740000D01*
X175654822Y-62740000D01*
X175617500Y-62736324D01*
X175580178Y-62740000D01*
X159923072Y-62740000D01*
X159923072Y-62600000D01*
X159910812Y-62475518D01*
X159874502Y-62355820D01*
X159815537Y-62245506D01*
X159736185Y-62148815D01*
X159639494Y-62069463D01*
X159529180Y-62010498D01*
X159409482Y-61974188D01*
X159285000Y-61961928D01*
X158942874Y-61961928D01*
X159184802Y-61720000D01*
X177209080Y-61720000D01*
X177288377Y-61816623D01*
G04 #@! TA.AperFunction,NonConductor*
D22*
G36*
X177288377Y-61816623D02*
G01*
X177421058Y-61925512D01*
X177572433Y-62006423D01*
X177736684Y-62056248D01*
X177907500Y-62073072D01*
X178407500Y-62073072D01*
X178578316Y-62056248D01*
X178742567Y-62006423D01*
X178893942Y-61925512D01*
X179026623Y-61816623D01*
X179070000Y-61763768D01*
X179113377Y-61816623D01*
X179246058Y-61925512D01*
X179397433Y-62006423D01*
X179561684Y-62056248D01*
X179732500Y-62073072D01*
X180020771Y-62073072D01*
X180345784Y-62398086D01*
X180232500Y-62386928D01*
X179732500Y-62386928D01*
X179561684Y-62403752D01*
X179397433Y-62453577D01*
X179246058Y-62534488D01*
X179113377Y-62643377D01*
X179070000Y-62696232D01*
X179026623Y-62643377D01*
X178893942Y-62534488D01*
X178742567Y-62453577D01*
X178578316Y-62403752D01*
X178407500Y-62386928D01*
X177907500Y-62386928D01*
X177736684Y-62403752D01*
X177572433Y-62453577D01*
X177421058Y-62534488D01*
X177288377Y-62643377D01*
X177179488Y-62776058D01*
X177098577Y-62927433D01*
X177048752Y-63091684D01*
X177031928Y-63262500D01*
X177031928Y-63737500D01*
X177043086Y-63850784D01*
X176181304Y-62989003D01*
X176157501Y-62959999D01*
X176041776Y-62865026D01*
X175909747Y-62794454D01*
X175766486Y-62750997D01*
X175654833Y-62740000D01*
X175654822Y-62740000D01*
X175617500Y-62736324D01*
X175580178Y-62740000D01*
X159923072Y-62740000D01*
X159923072Y-62600000D01*
X159910812Y-62475518D01*
X159874502Y-62355820D01*
X159815537Y-62245506D01*
X159736185Y-62148815D01*
X159639494Y-62069463D01*
X159529180Y-62010498D01*
X159409482Y-61974188D01*
X159285000Y-61961928D01*
X158942874Y-61961928D01*
X159184802Y-61720000D01*
X177209080Y-61720000D01*
X177288377Y-61816623D01*
G37*
G04 #@! TD.AperFunction*
D21*
X178406211Y-51211013D02*
X178430009Y-51240011D01*
X178459007Y-51263809D01*
X178545733Y-51334984D01*
X178658063Y-51395026D01*
X178677763Y-51405556D01*
X178821024Y-51449013D01*
X178932677Y-51460010D01*
X178932687Y-51460010D01*
X178970010Y-51463686D01*
X179007333Y-51460010D01*
X188117173Y-51460010D01*
X188116928Y-51462500D01*
X188116928Y-51962500D01*
X188129998Y-52095201D01*
X187645199Y-52580000D01*
X165044292Y-52580000D01*
X164220400Y-51756109D01*
X164341623Y-51656623D01*
X164420920Y-51560000D01*
X167582678Y-51560000D01*
X167620000Y-51563676D01*
X167657322Y-51560000D01*
X167677333Y-51560000D01*
X167788986Y-51549003D01*
X167932247Y-51505546D01*
X168064276Y-51434974D01*
X168180001Y-51340001D01*
X168274974Y-51224276D01*
X168280083Y-51214718D01*
X173231004Y-46263798D01*
X173260001Y-46240001D01*
X173338973Y-46143774D01*
X178406211Y-51211013D01*
G04 #@! TA.AperFunction,NonConductor*
D22*
G36*
X178406211Y-51211013D02*
G01*
X178430009Y-51240011D01*
X178459007Y-51263809D01*
X178545733Y-51334984D01*
X178658063Y-51395026D01*
X178677763Y-51405556D01*
X178821024Y-51449013D01*
X178932677Y-51460010D01*
X178932687Y-51460010D01*
X178970010Y-51463686D01*
X179007333Y-51460010D01*
X188117173Y-51460010D01*
X188116928Y-51462500D01*
X188116928Y-51962500D01*
X188129998Y-52095201D01*
X187645199Y-52580000D01*
X165044292Y-52580000D01*
X164220400Y-51756109D01*
X164341623Y-51656623D01*
X164420920Y-51560000D01*
X167582678Y-51560000D01*
X167620000Y-51563676D01*
X167657322Y-51560000D01*
X167677333Y-51560000D01*
X167788986Y-51549003D01*
X167932247Y-51505546D01*
X168064276Y-51434974D01*
X168180001Y-51340001D01*
X168274974Y-51224276D01*
X168280083Y-51214718D01*
X173231004Y-46263798D01*
X173260001Y-46240001D01*
X173338973Y-46143774D01*
X178406211Y-51211013D01*
G37*
G04 #@! TD.AperFunction*
D21*
X194150530Y-51608509D02*
X194095000Y-51887680D01*
X194095000Y-52172320D01*
X194150530Y-52451491D01*
X194203760Y-52580000D01*
X190087955Y-52580000D01*
X190195512Y-52448942D01*
X190276423Y-52297567D01*
X190326248Y-52133316D01*
X190343072Y-51962500D01*
X190343072Y-51462500D01*
X190342827Y-51460010D01*
X194212040Y-51460010D01*
X194150530Y-51608509D01*
G04 #@! TA.AperFunction,NonConductor*
D22*
G36*
X194150530Y-51608509D02*
G01*
X194095000Y-51887680D01*
X194095000Y-52172320D01*
X194150530Y-52451491D01*
X194203760Y-52580000D01*
X190087955Y-52580000D01*
X190195512Y-52448942D01*
X190276423Y-52297567D01*
X190326248Y-52133316D01*
X190343072Y-51962500D01*
X190343072Y-51462500D01*
X190342827Y-51460010D01*
X194212040Y-51460010D01*
X194150530Y-51608509D01*
G37*
G04 #@! TD.AperFunction*
D21*
X167305199Y-50040000D02*
X164420920Y-50040000D01*
X164341623Y-49943377D01*
X164208942Y-49834488D01*
X164057567Y-49753577D01*
X163893316Y-49703752D01*
X163722500Y-49686928D01*
X163320000Y-49686928D01*
X163320000Y-49373072D01*
X163722500Y-49373072D01*
X163893316Y-49356248D01*
X164057567Y-49306423D01*
X164208942Y-49225512D01*
X164341623Y-49116623D01*
X164420920Y-49020000D01*
X168325199Y-49020000D01*
X167305199Y-50040000D01*
G04 #@! TA.AperFunction,NonConductor*
D22*
G36*
X167305199Y-50040000D02*
G01*
X164420920Y-50040000D01*
X164341623Y-49943377D01*
X164208942Y-49834488D01*
X164057567Y-49753577D01*
X163893316Y-49703752D01*
X163722500Y-49686928D01*
X163320000Y-49686928D01*
X163320000Y-49373072D01*
X163722500Y-49373072D01*
X163893316Y-49356248D01*
X164057567Y-49306423D01*
X164208942Y-49225512D01*
X164341623Y-49116623D01*
X164420920Y-49020000D01*
X168325199Y-49020000D01*
X167305199Y-50040000D01*
G37*
G04 #@! TD.AperFunction*
D21*
X199078368Y-43931525D02*
X198871525Y-44138368D01*
X198709010Y-44381589D01*
X198597068Y-44651842D01*
X198540000Y-44938740D01*
X198540000Y-45231260D01*
X198597068Y-45518158D01*
X198709010Y-45788411D01*
X198871525Y-46031632D01*
X199078368Y-46238475D01*
X199321589Y-46400990D01*
X199591842Y-46512932D01*
X199878740Y-46570000D01*
X200171260Y-46570000D01*
X200458158Y-46512932D01*
X200728411Y-46400990D01*
X200971632Y-46238475D01*
X201178475Y-46031632D01*
X201295000Y-45857240D01*
X201411525Y-46031632D01*
X201618368Y-46238475D01*
X201861589Y-46400990D01*
X202131842Y-46512932D01*
X202418740Y-46570000D01*
X202711260Y-46570000D01*
X202998158Y-46512932D01*
X203268411Y-46400990D01*
X203511632Y-46238475D01*
X203718475Y-46031632D01*
X203835000Y-45857240D01*
X203951525Y-46031632D01*
X204158368Y-46238475D01*
X204401589Y-46400990D01*
X204438091Y-46416109D01*
X200914191Y-49940010D01*
X194431754Y-49940010D01*
X194485000Y-49672320D01*
X194485000Y-49387680D01*
X194429470Y-49108509D01*
X194320543Y-48845536D01*
X194162405Y-48608866D01*
X193961134Y-48407595D01*
X193800000Y-48299929D01*
X193800000Y-47304801D01*
X195102369Y-46002433D01*
X195308494Y-46064960D01*
X195580000Y-46091701D01*
X195851507Y-46064960D01*
X196112581Y-45985764D01*
X196353188Y-45857157D01*
X196564081Y-45684081D01*
X196737157Y-45473188D01*
X196865764Y-45232580D01*
X196944960Y-44971506D01*
X196965000Y-44768036D01*
X196965000Y-44131963D01*
X196944960Y-43928493D01*
X196931763Y-43884990D01*
X199148013Y-43884990D01*
X199078368Y-43931525D01*
G04 #@! TA.AperFunction,NonConductor*
D22*
G36*
X199078368Y-43931525D02*
G01*
X198871525Y-44138368D01*
X198709010Y-44381589D01*
X198597068Y-44651842D01*
X198540000Y-44938740D01*
X198540000Y-45231260D01*
X198597068Y-45518158D01*
X198709010Y-45788411D01*
X198871525Y-46031632D01*
X199078368Y-46238475D01*
X199321589Y-46400990D01*
X199591842Y-46512932D01*
X199878740Y-46570000D01*
X200171260Y-46570000D01*
X200458158Y-46512932D01*
X200728411Y-46400990D01*
X200971632Y-46238475D01*
X201178475Y-46031632D01*
X201295000Y-45857240D01*
X201411525Y-46031632D01*
X201618368Y-46238475D01*
X201861589Y-46400990D01*
X202131842Y-46512932D01*
X202418740Y-46570000D01*
X202711260Y-46570000D01*
X202998158Y-46512932D01*
X203268411Y-46400990D01*
X203511632Y-46238475D01*
X203718475Y-46031632D01*
X203835000Y-45857240D01*
X203951525Y-46031632D01*
X204158368Y-46238475D01*
X204401589Y-46400990D01*
X204438091Y-46416109D01*
X200914191Y-49940010D01*
X194431754Y-49940010D01*
X194485000Y-49672320D01*
X194485000Y-49387680D01*
X194429470Y-49108509D01*
X194320543Y-48845536D01*
X194162405Y-48608866D01*
X193961134Y-48407595D01*
X193800000Y-48299929D01*
X193800000Y-47304801D01*
X195102369Y-46002433D01*
X195308494Y-46064960D01*
X195580000Y-46091701D01*
X195851507Y-46064960D01*
X196112581Y-45985764D01*
X196353188Y-45857157D01*
X196564081Y-45684081D01*
X196737157Y-45473188D01*
X196865764Y-45232580D01*
X196944960Y-44971506D01*
X196965000Y-44768036D01*
X196965000Y-44131963D01*
X196944960Y-43928493D01*
X196931763Y-43884990D01*
X199148013Y-43884990D01*
X199078368Y-43931525D01*
G37*
G04 #@! TD.AperFunction*
D21*
X191882843Y-45473188D02*
X192055920Y-45684081D01*
X192266813Y-45857157D01*
X192507420Y-45985764D01*
X192768494Y-46064960D01*
X192879323Y-46075876D01*
X192528998Y-46426201D01*
X192500000Y-46449999D01*
X192476202Y-46478997D01*
X192476201Y-46478998D01*
X192405026Y-46565724D01*
X192334454Y-46697754D01*
X192290998Y-46841015D01*
X192276324Y-46990000D01*
X192280001Y-47027332D01*
X192280000Y-48299928D01*
X192118866Y-48407595D01*
X191917595Y-48608866D01*
X191809929Y-48770000D01*
X189624822Y-48770000D01*
X189587499Y-48766324D01*
X189550176Y-48770000D01*
X189550167Y-48770000D01*
X189549811Y-48770035D01*
X189467500Y-48761928D01*
X188992500Y-48761928D01*
X188821684Y-48778752D01*
X188657433Y-48828577D01*
X188506058Y-48909488D01*
X188373377Y-49018377D01*
X188264488Y-49151058D01*
X188183577Y-49302433D01*
X188133752Y-49466684D01*
X188116928Y-49637500D01*
X188116928Y-49940010D01*
X179284812Y-49940010D01*
X175420677Y-46075876D01*
X175531507Y-46064960D01*
X175792581Y-45985764D01*
X176033188Y-45857157D01*
X176244081Y-45684081D01*
X176417157Y-45473188D01*
X176530000Y-45262073D01*
X176642843Y-45473188D01*
X176815920Y-45684081D01*
X177026813Y-45857157D01*
X177267420Y-45985764D01*
X177528494Y-46064960D01*
X177800000Y-46091701D01*
X178071507Y-46064960D01*
X178332581Y-45985764D01*
X178573188Y-45857157D01*
X178784081Y-45684081D01*
X178957157Y-45473188D01*
X179070000Y-45262073D01*
X179182843Y-45473188D01*
X179355920Y-45684081D01*
X179566813Y-45857157D01*
X179807420Y-45985764D01*
X180068494Y-46064960D01*
X180340000Y-46091701D01*
X180611507Y-46064960D01*
X180872581Y-45985764D01*
X181113188Y-45857157D01*
X181324081Y-45684081D01*
X181497157Y-45473188D01*
X181610000Y-45262073D01*
X181722843Y-45473188D01*
X181895920Y-45684081D01*
X182106813Y-45857157D01*
X182347420Y-45985764D01*
X182608494Y-46064960D01*
X182880000Y-46091701D01*
X183151507Y-46064960D01*
X183412581Y-45985764D01*
X183653188Y-45857157D01*
X183864081Y-45684081D01*
X184037157Y-45473188D01*
X184150000Y-45262073D01*
X184262843Y-45473188D01*
X184435920Y-45684081D01*
X184646813Y-45857157D01*
X184887420Y-45985764D01*
X185148494Y-46064960D01*
X185420000Y-46091701D01*
X185691507Y-46064960D01*
X185952581Y-45985764D01*
X186193188Y-45857157D01*
X186404081Y-45684081D01*
X186577157Y-45473188D01*
X186690000Y-45262073D01*
X186802843Y-45473188D01*
X186975920Y-45684081D01*
X187186813Y-45857157D01*
X187427420Y-45985764D01*
X187688494Y-46064960D01*
X187960000Y-46091701D01*
X188231507Y-46064960D01*
X188492581Y-45985764D01*
X188733188Y-45857157D01*
X188944081Y-45684081D01*
X189117157Y-45473188D01*
X189230000Y-45262073D01*
X189342843Y-45473188D01*
X189515920Y-45684081D01*
X189726813Y-45857157D01*
X189967420Y-45985764D01*
X190228494Y-46064960D01*
X190500000Y-46091701D01*
X190771507Y-46064960D01*
X191032581Y-45985764D01*
X191273188Y-45857157D01*
X191484081Y-45684081D01*
X191657157Y-45473188D01*
X191770000Y-45262073D01*
X191882843Y-45473188D01*
G04 #@! TA.AperFunction,NonConductor*
D22*
G36*
X191882843Y-45473188D02*
G01*
X192055920Y-45684081D01*
X192266813Y-45857157D01*
X192507420Y-45985764D01*
X192768494Y-46064960D01*
X192879323Y-46075876D01*
X192528998Y-46426201D01*
X192500000Y-46449999D01*
X192476202Y-46478997D01*
X192476201Y-46478998D01*
X192405026Y-46565724D01*
X192334454Y-46697754D01*
X192290998Y-46841015D01*
X192276324Y-46990000D01*
X192280001Y-47027332D01*
X192280000Y-48299928D01*
X192118866Y-48407595D01*
X191917595Y-48608866D01*
X191809929Y-48770000D01*
X189624822Y-48770000D01*
X189587499Y-48766324D01*
X189550176Y-48770000D01*
X189550167Y-48770000D01*
X189549811Y-48770035D01*
X189467500Y-48761928D01*
X188992500Y-48761928D01*
X188821684Y-48778752D01*
X188657433Y-48828577D01*
X188506058Y-48909488D01*
X188373377Y-49018377D01*
X188264488Y-49151058D01*
X188183577Y-49302433D01*
X188133752Y-49466684D01*
X188116928Y-49637500D01*
X188116928Y-49940010D01*
X179284812Y-49940010D01*
X175420677Y-46075876D01*
X175531507Y-46064960D01*
X175792581Y-45985764D01*
X176033188Y-45857157D01*
X176244081Y-45684081D01*
X176417157Y-45473188D01*
X176530000Y-45262073D01*
X176642843Y-45473188D01*
X176815920Y-45684081D01*
X177026813Y-45857157D01*
X177267420Y-45985764D01*
X177528494Y-46064960D01*
X177800000Y-46091701D01*
X178071507Y-46064960D01*
X178332581Y-45985764D01*
X178573188Y-45857157D01*
X178784081Y-45684081D01*
X178957157Y-45473188D01*
X179070000Y-45262073D01*
X179182843Y-45473188D01*
X179355920Y-45684081D01*
X179566813Y-45857157D01*
X179807420Y-45985764D01*
X180068494Y-46064960D01*
X180340000Y-46091701D01*
X180611507Y-46064960D01*
X180872581Y-45985764D01*
X181113188Y-45857157D01*
X181324081Y-45684081D01*
X181497157Y-45473188D01*
X181610000Y-45262073D01*
X181722843Y-45473188D01*
X181895920Y-45684081D01*
X182106813Y-45857157D01*
X182347420Y-45985764D01*
X182608494Y-46064960D01*
X182880000Y-46091701D01*
X183151507Y-46064960D01*
X183412581Y-45985764D01*
X183653188Y-45857157D01*
X183864081Y-45684081D01*
X184037157Y-45473188D01*
X184150000Y-45262073D01*
X184262843Y-45473188D01*
X184435920Y-45684081D01*
X184646813Y-45857157D01*
X184887420Y-45985764D01*
X185148494Y-46064960D01*
X185420000Y-46091701D01*
X185691507Y-46064960D01*
X185952581Y-45985764D01*
X186193188Y-45857157D01*
X186404081Y-45684081D01*
X186577157Y-45473188D01*
X186690000Y-45262073D01*
X186802843Y-45473188D01*
X186975920Y-45684081D01*
X187186813Y-45857157D01*
X187427420Y-45985764D01*
X187688494Y-46064960D01*
X187960000Y-46091701D01*
X188231507Y-46064960D01*
X188492581Y-45985764D01*
X188733188Y-45857157D01*
X188944081Y-45684081D01*
X189117157Y-45473188D01*
X189230000Y-45262073D01*
X189342843Y-45473188D01*
X189515920Y-45684081D01*
X189726813Y-45857157D01*
X189967420Y-45985764D01*
X190228494Y-46064960D01*
X190500000Y-46091701D01*
X190771507Y-46064960D01*
X191032581Y-45985764D01*
X191273188Y-45857157D01*
X191484081Y-45684081D01*
X191657157Y-45473188D01*
X191770000Y-45262073D01*
X191882843Y-45473188D01*
G37*
G04 #@! TD.AperFunction*
D21*
X161402843Y-45473188D02*
X161575920Y-45684081D01*
X161786813Y-45857157D01*
X161800001Y-45864206D01*
X161800000Y-47146928D01*
X161397500Y-47146928D01*
X161226684Y-47163752D01*
X161062433Y-47213577D01*
X160911058Y-47294488D01*
X160778377Y-47403377D01*
X160699080Y-47500000D01*
X153984802Y-47500000D01*
X152560677Y-46075876D01*
X152671507Y-46064960D01*
X152932581Y-45985764D01*
X153173188Y-45857157D01*
X153384081Y-45684081D01*
X153557157Y-45473188D01*
X153670000Y-45262073D01*
X153782843Y-45473188D01*
X153955920Y-45684081D01*
X154166813Y-45857157D01*
X154407420Y-45985764D01*
X154668494Y-46064960D01*
X154940000Y-46091701D01*
X155211507Y-46064960D01*
X155472581Y-45985764D01*
X155713188Y-45857157D01*
X155924081Y-45684081D01*
X156097157Y-45473188D01*
X156210000Y-45262073D01*
X156322843Y-45473188D01*
X156495920Y-45684081D01*
X156706813Y-45857157D01*
X156947420Y-45985764D01*
X157208494Y-46064960D01*
X157480000Y-46091701D01*
X157751507Y-46064960D01*
X158012581Y-45985764D01*
X158253188Y-45857157D01*
X158464081Y-45684081D01*
X158637157Y-45473188D01*
X158750000Y-45262073D01*
X158862843Y-45473188D01*
X159035920Y-45684081D01*
X159246813Y-45857157D01*
X159487420Y-45985764D01*
X159748494Y-46064960D01*
X160020000Y-46091701D01*
X160291507Y-46064960D01*
X160552581Y-45985764D01*
X160793188Y-45857157D01*
X161004081Y-45684081D01*
X161177157Y-45473188D01*
X161290000Y-45262073D01*
X161402843Y-45473188D01*
G04 #@! TA.AperFunction,NonConductor*
D22*
G36*
X161402843Y-45473188D02*
G01*
X161575920Y-45684081D01*
X161786813Y-45857157D01*
X161800001Y-45864206D01*
X161800000Y-47146928D01*
X161397500Y-47146928D01*
X161226684Y-47163752D01*
X161062433Y-47213577D01*
X160911058Y-47294488D01*
X160778377Y-47403377D01*
X160699080Y-47500000D01*
X153984802Y-47500000D01*
X152560677Y-46075876D01*
X152671507Y-46064960D01*
X152932581Y-45985764D01*
X153173188Y-45857157D01*
X153384081Y-45684081D01*
X153557157Y-45473188D01*
X153670000Y-45262073D01*
X153782843Y-45473188D01*
X153955920Y-45684081D01*
X154166813Y-45857157D01*
X154407420Y-45985764D01*
X154668494Y-46064960D01*
X154940000Y-46091701D01*
X155211507Y-46064960D01*
X155472581Y-45985764D01*
X155713188Y-45857157D01*
X155924081Y-45684081D01*
X156097157Y-45473188D01*
X156210000Y-45262073D01*
X156322843Y-45473188D01*
X156495920Y-45684081D01*
X156706813Y-45857157D01*
X156947420Y-45985764D01*
X157208494Y-46064960D01*
X157480000Y-46091701D01*
X157751507Y-46064960D01*
X158012581Y-45985764D01*
X158253188Y-45857157D01*
X158464081Y-45684081D01*
X158637157Y-45473188D01*
X158750000Y-45262073D01*
X158862843Y-45473188D01*
X159035920Y-45684081D01*
X159246813Y-45857157D01*
X159487420Y-45985764D01*
X159748494Y-46064960D01*
X160020000Y-46091701D01*
X160291507Y-46064960D01*
X160552581Y-45985764D01*
X160793188Y-45857157D01*
X161004081Y-45684081D01*
X161177157Y-45473188D01*
X161290000Y-45262073D01*
X161402843Y-45473188D01*
G37*
G04 #@! TD.AperFunction*
D21*
X169022843Y-45473188D02*
X169195920Y-45684081D01*
X169406813Y-45857157D01*
X169647420Y-45985764D01*
X169710555Y-46004916D01*
X168215472Y-47500000D01*
X164420920Y-47500000D01*
X164341623Y-47403377D01*
X164208942Y-47294488D01*
X164057567Y-47213577D01*
X163893316Y-47163752D01*
X163722500Y-47146928D01*
X163320000Y-47146928D01*
X163320000Y-45864206D01*
X163333188Y-45857157D01*
X163544081Y-45684081D01*
X163717157Y-45473188D01*
X163830000Y-45262073D01*
X163942843Y-45473188D01*
X164115920Y-45684081D01*
X164326813Y-45857157D01*
X164567420Y-45985764D01*
X164828494Y-46064960D01*
X165100000Y-46091701D01*
X165371507Y-46064960D01*
X165632581Y-45985764D01*
X165873188Y-45857157D01*
X166084081Y-45684081D01*
X166257157Y-45473188D01*
X166370000Y-45262073D01*
X166482843Y-45473188D01*
X166655920Y-45684081D01*
X166866813Y-45857157D01*
X167107420Y-45985764D01*
X167368494Y-46064960D01*
X167640000Y-46091701D01*
X167911507Y-46064960D01*
X168172581Y-45985764D01*
X168413188Y-45857157D01*
X168624081Y-45684081D01*
X168797157Y-45473188D01*
X168910000Y-45262073D01*
X169022843Y-45473188D01*
G04 #@! TA.AperFunction,NonConductor*
D22*
G36*
X169022843Y-45473188D02*
G01*
X169195920Y-45684081D01*
X169406813Y-45857157D01*
X169647420Y-45985764D01*
X169710555Y-46004916D01*
X168215472Y-47500000D01*
X164420920Y-47500000D01*
X164341623Y-47403377D01*
X164208942Y-47294488D01*
X164057567Y-47213577D01*
X163893316Y-47163752D01*
X163722500Y-47146928D01*
X163320000Y-47146928D01*
X163320000Y-45864206D01*
X163333188Y-45857157D01*
X163544081Y-45684081D01*
X163717157Y-45473188D01*
X163830000Y-45262073D01*
X163942843Y-45473188D01*
X164115920Y-45684081D01*
X164326813Y-45857157D01*
X164567420Y-45985764D01*
X164828494Y-46064960D01*
X165100000Y-46091701D01*
X165371507Y-46064960D01*
X165632581Y-45985764D01*
X165873188Y-45857157D01*
X166084081Y-45684081D01*
X166257157Y-45473188D01*
X166370000Y-45262073D01*
X166482843Y-45473188D01*
X166655920Y-45684081D01*
X166866813Y-45857157D01*
X167107420Y-45985764D01*
X167368494Y-46064960D01*
X167640000Y-46091701D01*
X167911507Y-46064960D01*
X168172581Y-45985764D01*
X168413188Y-45857157D01*
X168624081Y-45684081D01*
X168797157Y-45473188D01*
X168910000Y-45262073D01*
X169022843Y-45473188D01*
G37*
G04 #@! TD.AperFunction*
D21*
X201618368Y-43931525D02*
X201411525Y-44138368D01*
X201295000Y-44312760D01*
X201178475Y-44138368D01*
X200971632Y-43931525D01*
X200901987Y-43884990D01*
X201688013Y-43884990D01*
X201618368Y-43931525D01*
G04 #@! TA.AperFunction,NonConductor*
D22*
G36*
X201618368Y-43931525D02*
G01*
X201411525Y-44138368D01*
X201295000Y-44312760D01*
X201178475Y-44138368D01*
X200971632Y-43931525D01*
X200901987Y-43884990D01*
X201688013Y-43884990D01*
X201618368Y-43931525D01*
G37*
G04 #@! TD.AperFunction*
D23*
X196230113Y-75454726D02*
X196468276Y-75553377D01*
X196721107Y-75603668D01*
X196978893Y-75603668D01*
X197231724Y-75553377D01*
X197469887Y-75454726D01*
X197485000Y-75444628D01*
X197500113Y-75454726D01*
X197738276Y-75553377D01*
X197991107Y-75603668D01*
X198248893Y-75603668D01*
X198501724Y-75553377D01*
X198739887Y-75454726D01*
X198755000Y-75444628D01*
X198770113Y-75454726D01*
X199008276Y-75553377D01*
X199261107Y-75603668D01*
X199518893Y-75603668D01*
X199771724Y-75553377D01*
X200009887Y-75454726D01*
X200045016Y-75431254D01*
X200108167Y-75464832D01*
X200163459Y-75487621D01*
X200218455Y-75511193D01*
X200227258Y-75513918D01*
X200345899Y-75549737D01*
X200404583Y-75561357D01*
X200463094Y-75573794D01*
X200472250Y-75574756D01*
X200472255Y-75574757D01*
X200472259Y-75574757D01*
X200595597Y-75586850D01*
X200595598Y-75586850D01*
X200627581Y-75590000D01*
X210430000Y-75590000D01*
X210430001Y-84970000D01*
X178613345Y-84970000D01*
X178706233Y-84893769D01*
X178730036Y-84864765D01*
X180672341Y-82922461D01*
X180689463Y-82954494D01*
X180768815Y-83051185D01*
X180865506Y-83130537D01*
X180975820Y-83189502D01*
X181095518Y-83225812D01*
X181220000Y-83238072D01*
X182720000Y-83238072D01*
X182844482Y-83225812D01*
X182964180Y-83189502D01*
X183074494Y-83130537D01*
X183171185Y-83051185D01*
X183250537Y-82954494D01*
X183309502Y-82844180D01*
X183345812Y-82724482D01*
X183358072Y-82600000D01*
X183358072Y-78500000D01*
X183348837Y-78406231D01*
X187551430Y-78406231D01*
X189385000Y-80239802D01*
X189385001Y-81918037D01*
X189405041Y-82121507D01*
X189484237Y-82382581D01*
X189612844Y-82623188D01*
X189785920Y-82834081D01*
X189996813Y-83007157D01*
X190237420Y-83135764D01*
X190498494Y-83214960D01*
X190770000Y-83241701D01*
X191041507Y-83214960D01*
X191302581Y-83135764D01*
X191543188Y-83007157D01*
X191754081Y-82834081D01*
X191927157Y-82623188D01*
X192055764Y-82382581D01*
X192134960Y-82121507D01*
X192155000Y-81918037D01*
X192155000Y-79181964D01*
X196685000Y-79181964D01*
X196685001Y-81918037D01*
X196705041Y-82121507D01*
X196784237Y-82382581D01*
X196912844Y-82623188D01*
X197085920Y-82834081D01*
X197296813Y-83007157D01*
X197537420Y-83135764D01*
X197798494Y-83214960D01*
X198070000Y-83241701D01*
X198341507Y-83214960D01*
X198602581Y-83135764D01*
X198843188Y-83007157D01*
X199054081Y-82834081D01*
X199227157Y-82623188D01*
X199355764Y-82382581D01*
X199434960Y-82121507D01*
X199455000Y-81918037D01*
X199455000Y-80639297D01*
X202337720Y-80639297D01*
X202337720Y-81360703D01*
X202478460Y-82068248D01*
X202754530Y-82734740D01*
X203155322Y-83334567D01*
X203665433Y-83844678D01*
X204265260Y-84245470D01*
X204931752Y-84521540D01*
X205639297Y-84662280D01*
X206360703Y-84662280D01*
X207068248Y-84521540D01*
X207734740Y-84245470D01*
X208334567Y-83844678D01*
X208844678Y-83334567D01*
X209245470Y-82734740D01*
X209521540Y-82068248D01*
X209662280Y-81360703D01*
X209662280Y-80639297D01*
X209521540Y-79931752D01*
X209245470Y-79265260D01*
X208844678Y-78665433D01*
X208334567Y-78155322D01*
X207734740Y-77754530D01*
X207068248Y-77478460D01*
X206360703Y-77337720D01*
X205639297Y-77337720D01*
X204931752Y-77478460D01*
X204265260Y-77754530D01*
X203665433Y-78155322D01*
X203155322Y-78665433D01*
X202754530Y-79265260D01*
X202478460Y-79931752D01*
X202337720Y-80639297D01*
X199455000Y-80639297D01*
X199455000Y-79181963D01*
X199434960Y-78978493D01*
X199355764Y-78717419D01*
X199227157Y-78476812D01*
X199054080Y-78265919D01*
X198843187Y-78092843D01*
X198602580Y-77964236D01*
X198341506Y-77885040D01*
X198070000Y-77858299D01*
X197798493Y-77885040D01*
X197537419Y-77964236D01*
X197296812Y-78092843D01*
X197085919Y-78265920D01*
X196912843Y-78476813D01*
X196784236Y-78717420D01*
X196705040Y-78978494D01*
X196685000Y-79181964D01*
X192155000Y-79181964D01*
X192155000Y-79181963D01*
X192134960Y-78978493D01*
X192055764Y-78717419D01*
X191927157Y-78476812D01*
X191754080Y-78265919D01*
X191543187Y-78092843D01*
X191302580Y-77964236D01*
X191041506Y-77885040D01*
X190770000Y-77858299D01*
X190498493Y-77885040D01*
X190237419Y-77964236D01*
X189996812Y-78092843D01*
X189785919Y-78265920D01*
X189684410Y-78389609D01*
X188430035Y-77135234D01*
X188406232Y-77106230D01*
X188290507Y-77011257D01*
X188158478Y-76940685D01*
X188015217Y-76897228D01*
X187903564Y-76886231D01*
X187903553Y-76886231D01*
X187866231Y-76882555D01*
X187828909Y-76886231D01*
X160631338Y-76886231D01*
X160601632Y-76856525D01*
X160358411Y-76694010D01*
X160088158Y-76582068D01*
X159801260Y-76525000D01*
X159508740Y-76525000D01*
X159221842Y-76582068D01*
X158951589Y-76694010D01*
X158708368Y-76856525D01*
X158501525Y-77063368D01*
X158339010Y-77306589D01*
X158227068Y-77576842D01*
X158170000Y-77863740D01*
X158170000Y-78156260D01*
X158227068Y-78443158D01*
X158339010Y-78713411D01*
X158501525Y-78956632D01*
X158708368Y-79163475D01*
X158890534Y-79285195D01*
X158773645Y-79354822D01*
X158557412Y-79549731D01*
X158383359Y-79783080D01*
X158258175Y-80045901D01*
X158213524Y-80193110D01*
X158334845Y-80423000D01*
X159528000Y-80423000D01*
X159528000Y-80403000D01*
X159782000Y-80403000D01*
X159782000Y-80423000D01*
X160975155Y-80423000D01*
X161096476Y-80193110D01*
X161051825Y-80045901D01*
X160926641Y-79783080D01*
X160827378Y-79650000D01*
X163831928Y-79650000D01*
X163835000Y-80264250D01*
X163993750Y-80423000D01*
X165243000Y-80423000D01*
X165243000Y-79173750D01*
X165497000Y-79173750D01*
X165497000Y-80423000D01*
X166746250Y-80423000D01*
X166905000Y-80264250D01*
X166908072Y-79650000D01*
X166895812Y-79525518D01*
X166859502Y-79405820D01*
X166800537Y-79295506D01*
X166721185Y-79198815D01*
X166624494Y-79119463D01*
X166514180Y-79060498D01*
X166394482Y-79024188D01*
X166270000Y-79011928D01*
X165655750Y-79015000D01*
X165497000Y-79173750D01*
X165243000Y-79173750D01*
X165084250Y-79015000D01*
X164470000Y-79011928D01*
X164345518Y-79024188D01*
X164225820Y-79060498D01*
X164115506Y-79119463D01*
X164018815Y-79198815D01*
X163939463Y-79295506D01*
X163880498Y-79405820D01*
X163844188Y-79525518D01*
X163831928Y-79650000D01*
X160827378Y-79650000D01*
X160752588Y-79549731D01*
X160536355Y-79354822D01*
X160419466Y-79285195D01*
X160601632Y-79163475D01*
X160808475Y-78956632D01*
X160970990Y-78713411D01*
X161082932Y-78443158D01*
X161090277Y-78406231D01*
X171414524Y-78406231D01*
X171155322Y-78665433D01*
X170754530Y-79265260D01*
X170478460Y-79931752D01*
X170337720Y-80639297D01*
X170337720Y-81360703D01*
X170478460Y-82068248D01*
X170754530Y-82734740D01*
X171155322Y-83334567D01*
X171414523Y-83593768D01*
X166948570Y-83593768D01*
X166853731Y-83498930D01*
X166905000Y-83241184D01*
X166905000Y-82938816D01*
X166846011Y-82642257D01*
X166730299Y-82362905D01*
X166562312Y-82111495D01*
X166495873Y-82045056D01*
X166514180Y-82039502D01*
X166624494Y-81980537D01*
X166721185Y-81901185D01*
X166800537Y-81804494D01*
X166859502Y-81694180D01*
X166895812Y-81574482D01*
X166908072Y-81450000D01*
X166905000Y-80835750D01*
X166746250Y-80677000D01*
X165497000Y-80677000D01*
X165497000Y-80697000D01*
X165243000Y-80697000D01*
X165243000Y-80677000D01*
X163993750Y-80677000D01*
X163835000Y-80835750D01*
X163831928Y-81450000D01*
X163844188Y-81574482D01*
X163880498Y-81694180D01*
X163939463Y-81804494D01*
X164018815Y-81901185D01*
X164115506Y-81980537D01*
X164225820Y-82039502D01*
X164244127Y-82045056D01*
X164177688Y-82111495D01*
X164031687Y-82330000D01*
X161143072Y-82330000D01*
X161143072Y-82240000D01*
X161130812Y-82115518D01*
X161094502Y-81995820D01*
X161035537Y-81885506D01*
X160956185Y-81788815D01*
X160859494Y-81709463D01*
X160749180Y-81650498D01*
X160668534Y-81626034D01*
X160752588Y-81550269D01*
X160926641Y-81316920D01*
X161051825Y-81054099D01*
X161096476Y-80906890D01*
X160975155Y-80677000D01*
X159782000Y-80677000D01*
X159782000Y-80697000D01*
X159528000Y-80697000D01*
X159528000Y-80677000D01*
X158334845Y-80677000D01*
X158213524Y-80906890D01*
X158258175Y-81054099D01*
X158383359Y-81316920D01*
X158557412Y-81550269D01*
X158641466Y-81626034D01*
X158560820Y-81650498D01*
X158450506Y-81709463D01*
X158353815Y-81788815D01*
X158274463Y-81885506D01*
X158215498Y-81995820D01*
X158179188Y-82115518D01*
X158166928Y-82240000D01*
X158166928Y-83940000D01*
X158179188Y-84064482D01*
X158215498Y-84184180D01*
X158274463Y-84294494D01*
X158353815Y-84391185D01*
X158450506Y-84470537D01*
X158560820Y-84529502D01*
X158680518Y-84565812D01*
X158805000Y-84578072D01*
X160505000Y-84578072D01*
X160629482Y-84565812D01*
X160749180Y-84529502D01*
X160859494Y-84470537D01*
X160956185Y-84391185D01*
X161035537Y-84294494D01*
X161094502Y-84184180D01*
X161130812Y-84064482D01*
X161143072Y-83940000D01*
X161143072Y-83850000D01*
X164031687Y-83850000D01*
X164177688Y-84068505D01*
X164391495Y-84282312D01*
X164642905Y-84450299D01*
X164922257Y-84566011D01*
X165218816Y-84625000D01*
X165521184Y-84625000D01*
X165778930Y-84573731D01*
X166069969Y-84864771D01*
X166093767Y-84893769D01*
X166186655Y-84970000D01*
X148250000Y-84970000D01*
X148250000Y-75590000D01*
X163227419Y-75590000D01*
X163260022Y-75586789D01*
X163268269Y-75586789D01*
X163277433Y-75585825D01*
X163400591Y-75572011D01*
X163459065Y-75559582D01*
X163517786Y-75547955D01*
X163526589Y-75545229D01*
X163644718Y-75507756D01*
X163699662Y-75484207D01*
X163755005Y-75461396D01*
X163763111Y-75457013D01*
X163809976Y-75431248D01*
X163845113Y-75454726D01*
X164083276Y-75553377D01*
X164336107Y-75603668D01*
X164593893Y-75603668D01*
X164846724Y-75553377D01*
X165084887Y-75454726D01*
X165100000Y-75444628D01*
X165115113Y-75454726D01*
X165353276Y-75553377D01*
X165606107Y-75603668D01*
X165863893Y-75603668D01*
X166116724Y-75553377D01*
X166354887Y-75454726D01*
X166370000Y-75444628D01*
X166385113Y-75454726D01*
X166623276Y-75553377D01*
X166876107Y-75603668D01*
X167133893Y-75603668D01*
X167386724Y-75553377D01*
X167624887Y-75454726D01*
X167660016Y-75431254D01*
X167723167Y-75464832D01*
X167778459Y-75487621D01*
X167833455Y-75511193D01*
X167842258Y-75513918D01*
X167960899Y-75549737D01*
X168019583Y-75561357D01*
X168078094Y-75573794D01*
X168087250Y-75574756D01*
X168087255Y-75574757D01*
X168087259Y-75574757D01*
X168210597Y-75586850D01*
X168210598Y-75586850D01*
X168242581Y-75590000D01*
X195612419Y-75590000D01*
X195645022Y-75586789D01*
X195653269Y-75586789D01*
X195662433Y-75585825D01*
X195785591Y-75572011D01*
X195844065Y-75559582D01*
X195902786Y-75547955D01*
X195911589Y-75545229D01*
X196029718Y-75507756D01*
X196084662Y-75484207D01*
X196140005Y-75461396D01*
X196148111Y-75457013D01*
X196194976Y-75431248D01*
X196230113Y-75454726D01*
G04 #@! TA.AperFunction,Conductor*
D24*
G36*
X196230113Y-75454726D02*
G01*
X196468276Y-75553377D01*
X196721107Y-75603668D01*
X196978893Y-75603668D01*
X197231724Y-75553377D01*
X197469887Y-75454726D01*
X197485000Y-75444628D01*
X197500113Y-75454726D01*
X197738276Y-75553377D01*
X197991107Y-75603668D01*
X198248893Y-75603668D01*
X198501724Y-75553377D01*
X198739887Y-75454726D01*
X198755000Y-75444628D01*
X198770113Y-75454726D01*
X199008276Y-75553377D01*
X199261107Y-75603668D01*
X199518893Y-75603668D01*
X199771724Y-75553377D01*
X200009887Y-75454726D01*
X200045016Y-75431254D01*
X200108167Y-75464832D01*
X200163459Y-75487621D01*
X200218455Y-75511193D01*
X200227258Y-75513918D01*
X200345899Y-75549737D01*
X200404583Y-75561357D01*
X200463094Y-75573794D01*
X200472250Y-75574756D01*
X200472255Y-75574757D01*
X200472259Y-75574757D01*
X200595597Y-75586850D01*
X200595598Y-75586850D01*
X200627581Y-75590000D01*
X210430000Y-75590000D01*
X210430001Y-84970000D01*
X178613345Y-84970000D01*
X178706233Y-84893769D01*
X178730036Y-84864765D01*
X180672341Y-82922461D01*
X180689463Y-82954494D01*
X180768815Y-83051185D01*
X180865506Y-83130537D01*
X180975820Y-83189502D01*
X181095518Y-83225812D01*
X181220000Y-83238072D01*
X182720000Y-83238072D01*
X182844482Y-83225812D01*
X182964180Y-83189502D01*
X183074494Y-83130537D01*
X183171185Y-83051185D01*
X183250537Y-82954494D01*
X183309502Y-82844180D01*
X183345812Y-82724482D01*
X183358072Y-82600000D01*
X183358072Y-78500000D01*
X183348837Y-78406231D01*
X187551430Y-78406231D01*
X189385000Y-80239802D01*
X189385001Y-81918037D01*
X189405041Y-82121507D01*
X189484237Y-82382581D01*
X189612844Y-82623188D01*
X189785920Y-82834081D01*
X189996813Y-83007157D01*
X190237420Y-83135764D01*
X190498494Y-83214960D01*
X190770000Y-83241701D01*
X191041507Y-83214960D01*
X191302581Y-83135764D01*
X191543188Y-83007157D01*
X191754081Y-82834081D01*
X191927157Y-82623188D01*
X192055764Y-82382581D01*
X192134960Y-82121507D01*
X192155000Y-81918037D01*
X192155000Y-79181964D01*
X196685000Y-79181964D01*
X196685001Y-81918037D01*
X196705041Y-82121507D01*
X196784237Y-82382581D01*
X196912844Y-82623188D01*
X197085920Y-82834081D01*
X197296813Y-83007157D01*
X197537420Y-83135764D01*
X197798494Y-83214960D01*
X198070000Y-83241701D01*
X198341507Y-83214960D01*
X198602581Y-83135764D01*
X198843188Y-83007157D01*
X199054081Y-82834081D01*
X199227157Y-82623188D01*
X199355764Y-82382581D01*
X199434960Y-82121507D01*
X199455000Y-81918037D01*
X199455000Y-80639297D01*
X202337720Y-80639297D01*
X202337720Y-81360703D01*
X202478460Y-82068248D01*
X202754530Y-82734740D01*
X203155322Y-83334567D01*
X203665433Y-83844678D01*
X204265260Y-84245470D01*
X204931752Y-84521540D01*
X205639297Y-84662280D01*
X206360703Y-84662280D01*
X207068248Y-84521540D01*
X207734740Y-84245470D01*
X208334567Y-83844678D01*
X208844678Y-83334567D01*
X209245470Y-82734740D01*
X209521540Y-82068248D01*
X209662280Y-81360703D01*
X209662280Y-80639297D01*
X209521540Y-79931752D01*
X209245470Y-79265260D01*
X208844678Y-78665433D01*
X208334567Y-78155322D01*
X207734740Y-77754530D01*
X207068248Y-77478460D01*
X206360703Y-77337720D01*
X205639297Y-77337720D01*
X204931752Y-77478460D01*
X204265260Y-77754530D01*
X203665433Y-78155322D01*
X203155322Y-78665433D01*
X202754530Y-79265260D01*
X202478460Y-79931752D01*
X202337720Y-80639297D01*
X199455000Y-80639297D01*
X199455000Y-79181963D01*
X199434960Y-78978493D01*
X199355764Y-78717419D01*
X199227157Y-78476812D01*
X199054080Y-78265919D01*
X198843187Y-78092843D01*
X198602580Y-77964236D01*
X198341506Y-77885040D01*
X198070000Y-77858299D01*
X197798493Y-77885040D01*
X197537419Y-77964236D01*
X197296812Y-78092843D01*
X197085919Y-78265920D01*
X196912843Y-78476813D01*
X196784236Y-78717420D01*
X196705040Y-78978494D01*
X196685000Y-79181964D01*
X192155000Y-79181964D01*
X192155000Y-79181963D01*
X192134960Y-78978493D01*
X192055764Y-78717419D01*
X191927157Y-78476812D01*
X191754080Y-78265919D01*
X191543187Y-78092843D01*
X191302580Y-77964236D01*
X191041506Y-77885040D01*
X190770000Y-77858299D01*
X190498493Y-77885040D01*
X190237419Y-77964236D01*
X189996812Y-78092843D01*
X189785919Y-78265920D01*
X189684410Y-78389609D01*
X188430035Y-77135234D01*
X188406232Y-77106230D01*
X188290507Y-77011257D01*
X188158478Y-76940685D01*
X188015217Y-76897228D01*
X187903564Y-76886231D01*
X187903553Y-76886231D01*
X187866231Y-76882555D01*
X187828909Y-76886231D01*
X160631338Y-76886231D01*
X160601632Y-76856525D01*
X160358411Y-76694010D01*
X160088158Y-76582068D01*
X159801260Y-76525000D01*
X159508740Y-76525000D01*
X159221842Y-76582068D01*
X158951589Y-76694010D01*
X158708368Y-76856525D01*
X158501525Y-77063368D01*
X158339010Y-77306589D01*
X158227068Y-77576842D01*
X158170000Y-77863740D01*
X158170000Y-78156260D01*
X158227068Y-78443158D01*
X158339010Y-78713411D01*
X158501525Y-78956632D01*
X158708368Y-79163475D01*
X158890534Y-79285195D01*
X158773645Y-79354822D01*
X158557412Y-79549731D01*
X158383359Y-79783080D01*
X158258175Y-80045901D01*
X158213524Y-80193110D01*
X158334845Y-80423000D01*
X159528000Y-80423000D01*
X159528000Y-80403000D01*
X159782000Y-80403000D01*
X159782000Y-80423000D01*
X160975155Y-80423000D01*
X161096476Y-80193110D01*
X161051825Y-80045901D01*
X160926641Y-79783080D01*
X160827378Y-79650000D01*
X163831928Y-79650000D01*
X163835000Y-80264250D01*
X163993750Y-80423000D01*
X165243000Y-80423000D01*
X165243000Y-79173750D01*
X165497000Y-79173750D01*
X165497000Y-80423000D01*
X166746250Y-80423000D01*
X166905000Y-80264250D01*
X166908072Y-79650000D01*
X166895812Y-79525518D01*
X166859502Y-79405820D01*
X166800537Y-79295506D01*
X166721185Y-79198815D01*
X166624494Y-79119463D01*
X166514180Y-79060498D01*
X166394482Y-79024188D01*
X166270000Y-79011928D01*
X165655750Y-79015000D01*
X165497000Y-79173750D01*
X165243000Y-79173750D01*
X165084250Y-79015000D01*
X164470000Y-79011928D01*
X164345518Y-79024188D01*
X164225820Y-79060498D01*
X164115506Y-79119463D01*
X164018815Y-79198815D01*
X163939463Y-79295506D01*
X163880498Y-79405820D01*
X163844188Y-79525518D01*
X163831928Y-79650000D01*
X160827378Y-79650000D01*
X160752588Y-79549731D01*
X160536355Y-79354822D01*
X160419466Y-79285195D01*
X160601632Y-79163475D01*
X160808475Y-78956632D01*
X160970990Y-78713411D01*
X161082932Y-78443158D01*
X161090277Y-78406231D01*
X171414524Y-78406231D01*
X171155322Y-78665433D01*
X170754530Y-79265260D01*
X170478460Y-79931752D01*
X170337720Y-80639297D01*
X170337720Y-81360703D01*
X170478460Y-82068248D01*
X170754530Y-82734740D01*
X171155322Y-83334567D01*
X171414523Y-83593768D01*
X166948570Y-83593768D01*
X166853731Y-83498930D01*
X166905000Y-83241184D01*
X166905000Y-82938816D01*
X166846011Y-82642257D01*
X166730299Y-82362905D01*
X166562312Y-82111495D01*
X166495873Y-82045056D01*
X166514180Y-82039502D01*
X166624494Y-81980537D01*
X166721185Y-81901185D01*
X166800537Y-81804494D01*
X166859502Y-81694180D01*
X166895812Y-81574482D01*
X166908072Y-81450000D01*
X166905000Y-80835750D01*
X166746250Y-80677000D01*
X165497000Y-80677000D01*
X165497000Y-80697000D01*
X165243000Y-80697000D01*
X165243000Y-80677000D01*
X163993750Y-80677000D01*
X163835000Y-80835750D01*
X163831928Y-81450000D01*
X163844188Y-81574482D01*
X163880498Y-81694180D01*
X163939463Y-81804494D01*
X164018815Y-81901185D01*
X164115506Y-81980537D01*
X164225820Y-82039502D01*
X164244127Y-82045056D01*
X164177688Y-82111495D01*
X164031687Y-82330000D01*
X161143072Y-82330000D01*
X161143072Y-82240000D01*
X161130812Y-82115518D01*
X161094502Y-81995820D01*
X161035537Y-81885506D01*
X160956185Y-81788815D01*
X160859494Y-81709463D01*
X160749180Y-81650498D01*
X160668534Y-81626034D01*
X160752588Y-81550269D01*
X160926641Y-81316920D01*
X161051825Y-81054099D01*
X161096476Y-80906890D01*
X160975155Y-80677000D01*
X159782000Y-80677000D01*
X159782000Y-80697000D01*
X159528000Y-80697000D01*
X159528000Y-80677000D01*
X158334845Y-80677000D01*
X158213524Y-80906890D01*
X158258175Y-81054099D01*
X158383359Y-81316920D01*
X158557412Y-81550269D01*
X158641466Y-81626034D01*
X158560820Y-81650498D01*
X158450506Y-81709463D01*
X158353815Y-81788815D01*
X158274463Y-81885506D01*
X158215498Y-81995820D01*
X158179188Y-82115518D01*
X158166928Y-82240000D01*
X158166928Y-83940000D01*
X158179188Y-84064482D01*
X158215498Y-84184180D01*
X158274463Y-84294494D01*
X158353815Y-84391185D01*
X158450506Y-84470537D01*
X158560820Y-84529502D01*
X158680518Y-84565812D01*
X158805000Y-84578072D01*
X160505000Y-84578072D01*
X160629482Y-84565812D01*
X160749180Y-84529502D01*
X160859494Y-84470537D01*
X160956185Y-84391185D01*
X161035537Y-84294494D01*
X161094502Y-84184180D01*
X161130812Y-84064482D01*
X161143072Y-83940000D01*
X161143072Y-83850000D01*
X164031687Y-83850000D01*
X164177688Y-84068505D01*
X164391495Y-84282312D01*
X164642905Y-84450299D01*
X164922257Y-84566011D01*
X165218816Y-84625000D01*
X165521184Y-84625000D01*
X165778930Y-84573731D01*
X166069969Y-84864771D01*
X166093767Y-84893769D01*
X166186655Y-84970000D01*
X148250000Y-84970000D01*
X148250000Y-75590000D01*
X163227419Y-75590000D01*
X163260022Y-75586789D01*
X163268269Y-75586789D01*
X163277433Y-75585825D01*
X163400591Y-75572011D01*
X163459065Y-75559582D01*
X163517786Y-75547955D01*
X163526589Y-75545229D01*
X163644718Y-75507756D01*
X163699662Y-75484207D01*
X163755005Y-75461396D01*
X163763111Y-75457013D01*
X163809976Y-75431248D01*
X163845113Y-75454726D01*
X164083276Y-75553377D01*
X164336107Y-75603668D01*
X164593893Y-75603668D01*
X164846724Y-75553377D01*
X165084887Y-75454726D01*
X165100000Y-75444628D01*
X165115113Y-75454726D01*
X165353276Y-75553377D01*
X165606107Y-75603668D01*
X165863893Y-75603668D01*
X166116724Y-75553377D01*
X166354887Y-75454726D01*
X166370000Y-75444628D01*
X166385113Y-75454726D01*
X166623276Y-75553377D01*
X166876107Y-75603668D01*
X167133893Y-75603668D01*
X167386724Y-75553377D01*
X167624887Y-75454726D01*
X167660016Y-75431254D01*
X167723167Y-75464832D01*
X167778459Y-75487621D01*
X167833455Y-75511193D01*
X167842258Y-75513918D01*
X167960899Y-75549737D01*
X168019583Y-75561357D01*
X168078094Y-75573794D01*
X168087250Y-75574756D01*
X168087255Y-75574757D01*
X168087259Y-75574757D01*
X168210597Y-75586850D01*
X168210598Y-75586850D01*
X168242581Y-75590000D01*
X195612419Y-75590000D01*
X195645022Y-75586789D01*
X195653269Y-75586789D01*
X195662433Y-75585825D01*
X195785591Y-75572011D01*
X195844065Y-75559582D01*
X195902786Y-75547955D01*
X195911589Y-75545229D01*
X196029718Y-75507756D01*
X196084662Y-75484207D01*
X196140005Y-75461396D01*
X196148111Y-75457013D01*
X196194976Y-75431248D01*
X196230113Y-75454726D01*
G37*
G04 #@! TD.AperFunction*
M02*
