G04 #@! TF.GenerationSoftware,KiCad,Pcbnew,5.1.12-84ad8e8a86~92~ubuntu20.04.1*
G04 #@! TF.CreationDate,2021-12-03T11:46:18+09:00*
G04 #@! TF.ProjectId,Key_checker,4b65795f-6368-4656-936b-65722e6b6963,rev?*
G04 #@! TF.SameCoordinates,Original*
G04 #@! TF.FileFunction,Copper,L1,Top*
G04 #@! TF.FilePolarity,Positive*
%FSLAX46Y46*%
G04 Gerber Fmt 4.6, Leading zero omitted, Abs format (unit mm)*
G04 Created by KiCad (PCBNEW 5.1.12-84ad8e8a86~92~ubuntu20.04.1) date 2021-12-03 11:46:18*
%MOMM*%
%LPD*%
G01*
G04 APERTURE LIST*
G04 #@! TA.AperFunction,ComponentPad*
%ADD10O,1.700000X1.700000*%
G04 #@! TD*
G04 #@! TA.AperFunction,ComponentPad*
%ADD11R,1.700000X1.700000*%
G04 #@! TD*
G04 #@! TA.AperFunction,ComponentPad*
%ADD12C,1.620000*%
G04 #@! TD*
G04 #@! TA.AperFunction,ComponentPad*
%ADD13O,4.100000X1.500000*%
G04 #@! TD*
G04 #@! TA.AperFunction,ComponentPad*
%ADD14R,4.100000X1.500000*%
G04 #@! TD*
G04 #@! TA.AperFunction,ComponentPad*
%ADD15O,2.000000X1.500000*%
G04 #@! TD*
G04 #@! TA.AperFunction,ComponentPad*
%ADD16R,1.800000X1.800000*%
G04 #@! TD*
G04 #@! TA.AperFunction,ComponentPad*
%ADD17C,1.800000*%
G04 #@! TD*
G04 #@! TA.AperFunction,ComponentPad*
%ADD18O,1.800000X1.070000*%
G04 #@! TD*
G04 #@! TA.AperFunction,ComponentPad*
%ADD19R,1.800000X1.070000*%
G04 #@! TD*
G04 #@! TA.AperFunction,ViaPad*
%ADD20C,1.000000*%
G04 #@! TD*
G04 #@! TA.AperFunction,Conductor*
%ADD21C,0.250000*%
G04 #@! TD*
G04 #@! TA.AperFunction,Conductor*
%ADD22C,0.500000*%
G04 #@! TD*
G04 #@! TA.AperFunction,Conductor*
%ADD23C,0.254000*%
G04 #@! TD*
G04 #@! TA.AperFunction,Conductor*
%ADD24C,0.100000*%
G04 #@! TD*
G04 APERTURE END LIST*
D10*
X221615000Y-61595000D03*
D11*
X221615000Y-59055000D03*
G04 #@! TA.AperFunction,SMDPad,CuDef*
G36*
G01*
X210582500Y-27095000D02*
X211057500Y-27095000D01*
G75*
G02*
X211295000Y-27332500I0J-237500D01*
G01*
X211295000Y-27832500D01*
G75*
G02*
X211057500Y-28070000I-237500J0D01*
G01*
X210582500Y-28070000D01*
G75*
G02*
X210345000Y-27832500I0J237500D01*
G01*
X210345000Y-27332500D01*
G75*
G02*
X210582500Y-27095000I237500J0D01*
G01*
G37*
G04 #@! TD.AperFunction*
G04 #@! TA.AperFunction,SMDPad,CuDef*
G36*
G01*
X210582500Y-25270000D02*
X211057500Y-25270000D01*
G75*
G02*
X211295000Y-25507500I0J-237500D01*
G01*
X211295000Y-26007500D01*
G75*
G02*
X211057500Y-26245000I-237500J0D01*
G01*
X210582500Y-26245000D01*
G75*
G02*
X210345000Y-26007500I0J237500D01*
G01*
X210345000Y-25507500D01*
G75*
G02*
X210582500Y-25270000I237500J0D01*
G01*
G37*
G04 #@! TD.AperFunction*
G04 #@! TA.AperFunction,SMDPad,CuDef*
G36*
G01*
X213122500Y-27095000D02*
X213597500Y-27095000D01*
G75*
G02*
X213835000Y-27332500I0J-237500D01*
G01*
X213835000Y-27832500D01*
G75*
G02*
X213597500Y-28070000I-237500J0D01*
G01*
X213122500Y-28070000D01*
G75*
G02*
X212885000Y-27832500I0J237500D01*
G01*
X212885000Y-27332500D01*
G75*
G02*
X213122500Y-27095000I237500J0D01*
G01*
G37*
G04 #@! TD.AperFunction*
G04 #@! TA.AperFunction,SMDPad,CuDef*
G36*
G01*
X213122500Y-25270000D02*
X213597500Y-25270000D01*
G75*
G02*
X213835000Y-25507500I0J-237500D01*
G01*
X213835000Y-26007500D01*
G75*
G02*
X213597500Y-26245000I-237500J0D01*
G01*
X213122500Y-26245000D01*
G75*
G02*
X212885000Y-26007500I0J237500D01*
G01*
X212885000Y-25507500D01*
G75*
G02*
X213122500Y-25270000I237500J0D01*
G01*
G37*
G04 #@! TD.AperFunction*
D12*
X210820000Y-69000000D03*
X208320000Y-71500000D03*
X205820000Y-69000000D03*
D13*
X164830000Y-45020000D03*
X164830000Y-52320000D03*
D14*
X164830000Y-36220000D03*
D10*
X204470000Y-64770000D03*
X207010000Y-64770000D03*
X209550000Y-64770000D03*
D11*
X212090000Y-64770000D03*
D10*
X199390000Y-64770000D03*
X196850000Y-64770000D03*
D11*
X194310000Y-64770000D03*
G04 #@! TA.AperFunction,SMDPad,CuDef*
G36*
G01*
X203437500Y-22355000D02*
X202962500Y-22355000D01*
G75*
G02*
X202725000Y-22117500I0J237500D01*
G01*
X202725000Y-21617500D01*
G75*
G02*
X202962500Y-21380000I237500J0D01*
G01*
X203437500Y-21380000D01*
G75*
G02*
X203675000Y-21617500I0J-237500D01*
G01*
X203675000Y-22117500D01*
G75*
G02*
X203437500Y-22355000I-237500J0D01*
G01*
G37*
G04 #@! TD.AperFunction*
G04 #@! TA.AperFunction,SMDPad,CuDef*
G36*
G01*
X203437500Y-20530000D02*
X202962500Y-20530000D01*
G75*
G02*
X202725000Y-20292500I0J237500D01*
G01*
X202725000Y-19792500D01*
G75*
G02*
X202962500Y-19555000I237500J0D01*
G01*
X203437500Y-19555000D01*
G75*
G02*
X203675000Y-19792500I0J-237500D01*
G01*
X203675000Y-20292500D01*
G75*
G02*
X203437500Y-20530000I-237500J0D01*
G01*
G37*
G04 #@! TD.AperFunction*
G04 #@! TA.AperFunction,SMDPad,CuDef*
G36*
G01*
X195817500Y-44580000D02*
X195342500Y-44580000D01*
G75*
G02*
X195105000Y-44342500I0J237500D01*
G01*
X195105000Y-43842500D01*
G75*
G02*
X195342500Y-43605000I237500J0D01*
G01*
X195817500Y-43605000D01*
G75*
G02*
X196055000Y-43842500I0J-237500D01*
G01*
X196055000Y-44342500D01*
G75*
G02*
X195817500Y-44580000I-237500J0D01*
G01*
G37*
G04 #@! TD.AperFunction*
G04 #@! TA.AperFunction,SMDPad,CuDef*
G36*
G01*
X195817500Y-42755000D02*
X195342500Y-42755000D01*
G75*
G02*
X195105000Y-42517500I0J237500D01*
G01*
X195105000Y-42017500D01*
G75*
G02*
X195342500Y-41780000I237500J0D01*
G01*
X195817500Y-41780000D01*
G75*
G02*
X196055000Y-42017500I0J-237500D01*
G01*
X196055000Y-42517500D01*
G75*
G02*
X195817500Y-42755000I-237500J0D01*
G01*
G37*
G04 #@! TD.AperFunction*
X171910000Y-44655000D03*
D10*
X174450000Y-44655000D03*
X176990000Y-44655000D03*
G04 #@! TA.AperFunction,SMDPad,CuDef*
G36*
G01*
X198357500Y-42755000D02*
X197882500Y-42755000D01*
G75*
G02*
X197645000Y-42517500I0J237500D01*
G01*
X197645000Y-42017500D01*
G75*
G02*
X197882500Y-41780000I237500J0D01*
G01*
X198357500Y-41780000D01*
G75*
G02*
X198595000Y-42017500I0J-237500D01*
G01*
X198595000Y-42517500D01*
G75*
G02*
X198357500Y-42755000I-237500J0D01*
G01*
G37*
G04 #@! TD.AperFunction*
G04 #@! TA.AperFunction,SMDPad,CuDef*
G36*
G01*
X198357500Y-44580000D02*
X197882500Y-44580000D01*
G75*
G02*
X197645000Y-44342500I0J237500D01*
G01*
X197645000Y-43842500D01*
G75*
G02*
X197882500Y-43605000I237500J0D01*
G01*
X198357500Y-43605000D01*
G75*
G02*
X198595000Y-43842500I0J-237500D01*
G01*
X198595000Y-44342500D01*
G75*
G02*
X198357500Y-44580000I-237500J0D01*
G01*
G37*
G04 #@! TD.AperFunction*
D15*
X217170000Y-59690000D03*
X191770000Y-59690000D03*
X217170000Y-57150000D03*
X191770000Y-57150000D03*
X217170000Y-54610000D03*
X191770000Y-54610000D03*
X217170000Y-52070000D03*
X191770000Y-52070000D03*
X217170000Y-49530000D03*
X191770000Y-49530000D03*
X217170000Y-46990000D03*
X191770000Y-46990000D03*
X217170000Y-44450000D03*
X191770000Y-44450000D03*
X217170000Y-41910000D03*
X191770000Y-41910000D03*
X217170000Y-39370000D03*
X191770000Y-39370000D03*
X217170000Y-36830000D03*
X191770000Y-36830000D03*
X217170000Y-34290000D03*
X191770000Y-34290000D03*
X217170000Y-31750000D03*
X191770000Y-31750000D03*
X217170000Y-29210000D03*
X191770000Y-29210000D03*
X217170000Y-26670000D03*
X191770000Y-26670000D03*
X217170000Y-24130000D03*
X191770000Y-24130000D03*
X217170000Y-21590000D03*
X191770000Y-21590000D03*
X217170000Y-19050000D03*
X191770000Y-19050000D03*
X217170000Y-16510000D03*
X191770000Y-16510000D03*
X217170000Y-13970000D03*
X191770000Y-13970000D03*
D16*
X207010000Y-22225000D03*
D17*
X207010000Y-19685000D03*
G04 #@! TA.AperFunction,SMDPad,CuDef*
G36*
G01*
X200897500Y-44580000D02*
X200422500Y-44580000D01*
G75*
G02*
X200185000Y-44342500I0J237500D01*
G01*
X200185000Y-43842500D01*
G75*
G02*
X200422500Y-43605000I237500J0D01*
G01*
X200897500Y-43605000D01*
G75*
G02*
X201135000Y-43842500I0J-237500D01*
G01*
X201135000Y-44342500D01*
G75*
G02*
X200897500Y-44580000I-237500J0D01*
G01*
G37*
G04 #@! TD.AperFunction*
G04 #@! TA.AperFunction,SMDPad,CuDef*
G36*
G01*
X200897500Y-42755000D02*
X200422500Y-42755000D01*
G75*
G02*
X200185000Y-42517500I0J237500D01*
G01*
X200185000Y-42017500D01*
G75*
G02*
X200422500Y-41780000I237500J0D01*
G01*
X200897500Y-41780000D01*
G75*
G02*
X201135000Y-42017500I0J-237500D01*
G01*
X201135000Y-42517500D01*
G75*
G02*
X200897500Y-42755000I-237500J0D01*
G01*
G37*
G04 #@! TD.AperFunction*
G04 #@! TA.AperFunction,SMDPad,CuDef*
G36*
G01*
X211245000Y-53577500D02*
X211245000Y-53102500D01*
G75*
G02*
X211482500Y-52865000I237500J0D01*
G01*
X211982500Y-52865000D01*
G75*
G02*
X212220000Y-53102500I0J-237500D01*
G01*
X212220000Y-53577500D01*
G75*
G02*
X211982500Y-53815000I-237500J0D01*
G01*
X211482500Y-53815000D01*
G75*
G02*
X211245000Y-53577500I0J237500D01*
G01*
G37*
G04 #@! TD.AperFunction*
G04 #@! TA.AperFunction,SMDPad,CuDef*
G36*
G01*
X209420000Y-53577500D02*
X209420000Y-53102500D01*
G75*
G02*
X209657500Y-52865000I237500J0D01*
G01*
X210157500Y-52865000D01*
G75*
G02*
X210395000Y-53102500I0J-237500D01*
G01*
X210395000Y-53577500D01*
G75*
G02*
X210157500Y-53815000I-237500J0D01*
G01*
X209657500Y-53815000D01*
G75*
G02*
X209420000Y-53577500I0J237500D01*
G01*
G37*
G04 #@! TD.AperFunction*
D16*
X173950000Y-64870000D03*
D17*
X171410000Y-64870000D03*
D18*
X198120000Y-19050000D03*
X198120000Y-20320000D03*
X198120000Y-21590000D03*
D19*
X198120000Y-22860000D03*
D20*
X213995000Y-71755000D03*
D21*
X190444990Y-48315010D02*
X191770000Y-46990000D01*
X190444990Y-52515283D02*
X190444990Y-48315010D01*
X191074717Y-53145010D02*
X190444990Y-52515283D01*
X192890500Y-53145010D02*
X191074717Y-53145010D01*
X208235001Y-37800509D02*
X192890500Y-53145010D01*
X208235001Y-20910001D02*
X208235001Y-37800509D01*
X207010000Y-19685000D02*
X208235001Y-20910001D01*
X203557500Y-22225000D02*
X203200000Y-21867500D01*
X207010000Y-22225000D02*
X203557500Y-22225000D01*
X196970000Y-19050000D02*
X198120000Y-19050000D01*
X196725010Y-43080010D02*
X195109500Y-43080010D01*
X196215000Y-19805000D02*
X196970000Y-19050000D01*
X197319990Y-43067510D02*
X196737510Y-43067510D01*
X197485000Y-40638590D02*
X197485000Y-24765000D01*
X196737510Y-43067510D02*
X196725010Y-43080010D01*
X195109500Y-43080010D02*
X194779991Y-42750500D01*
X197485000Y-24765000D02*
X196215000Y-23495000D01*
X194779991Y-41744991D02*
X195249982Y-41275000D01*
X195249982Y-41275000D02*
X196848590Y-41275000D01*
X194779991Y-42750500D02*
X194779991Y-41744991D01*
X196848590Y-41275000D02*
X197485000Y-40638590D01*
X198120000Y-42267500D02*
X197319990Y-43067510D01*
X196215000Y-23495000D02*
X196215000Y-19805000D01*
X195110998Y-64770000D02*
X194310000Y-64770000D01*
X200382500Y-42267500D02*
X200660000Y-42267500D01*
X198755000Y-40640000D02*
X200382500Y-42267500D01*
X198755000Y-24765000D02*
X198755000Y-40640000D01*
X199647500Y-23872500D02*
X198755000Y-24765000D01*
X199647500Y-21967500D02*
X199647500Y-23872500D01*
X199270000Y-21590000D02*
X199647500Y-21967500D01*
X198120000Y-21590000D02*
X199270000Y-21590000D01*
X195580000Y-42267500D02*
X196492500Y-42267500D01*
X198120000Y-40640000D02*
X198120000Y-22860000D01*
X196492500Y-42267500D02*
X198120000Y-40640000D01*
X192127500Y-44092500D02*
X191770000Y-44450000D01*
X195580000Y-44092500D02*
X192127500Y-44092500D01*
X199747500Y-44092500D02*
X191770000Y-52070000D01*
X200660000Y-44092500D02*
X199747500Y-44092500D01*
X192207500Y-49530000D02*
X191770000Y-49530000D01*
X197645000Y-44092500D02*
X192207500Y-49530000D01*
X198120000Y-44092500D02*
X197645000Y-44092500D01*
X218495010Y-38155010D02*
X217170000Y-36830000D01*
X218495010Y-39815283D02*
X218495010Y-38155010D01*
X217865283Y-40445010D02*
X218495010Y-39815283D01*
X211260010Y-40445010D02*
X217865283Y-40445010D01*
X209550000Y-38735000D02*
X211260010Y-40445010D01*
X209550000Y-27940000D02*
X209550000Y-38735000D01*
X209907500Y-27582500D02*
X209550000Y-27940000D01*
X210820000Y-27582500D02*
X209907500Y-27582500D01*
X210820000Y-28575000D02*
X212367500Y-28575000D01*
X210185000Y-29210000D02*
X210820000Y-28575000D01*
X210185000Y-38100000D02*
X210185000Y-29210000D01*
X211455000Y-39370000D02*
X210185000Y-38100000D01*
X212367500Y-28575000D02*
X213360000Y-27582500D01*
X217170000Y-39370000D02*
X211455000Y-39370000D01*
X208915000Y-52347500D02*
X209907500Y-53340000D01*
X208915000Y-27305000D02*
X208915000Y-52347500D01*
X209550000Y-26670000D02*
X208915000Y-27305000D01*
X217170000Y-26670000D02*
X209550000Y-26670000D01*
X209907500Y-53340000D02*
X209907500Y-61237500D01*
X209907500Y-61237500D02*
X208915000Y-62230000D01*
X201930000Y-62230000D02*
X199390000Y-64770000D01*
X208915000Y-62230000D02*
X201930000Y-62230000D01*
X166370001Y-43479999D02*
X175814999Y-43479999D01*
X164830000Y-45020000D02*
X166370001Y-43479999D01*
X175814999Y-43479999D02*
X176990000Y-44655000D01*
X173950000Y-45155000D02*
X174450000Y-44655000D01*
X173950000Y-64870000D02*
X173950000Y-45155000D01*
X170469990Y-46095010D02*
X171910000Y-44655000D01*
X162454990Y-45465283D02*
X163084717Y-46095010D01*
X163084717Y-46095010D02*
X170469990Y-46095010D01*
X162454990Y-38595010D02*
X162454990Y-45465283D01*
X164830000Y-36220000D02*
X162454990Y-38595010D01*
X171410000Y-45155000D02*
X171910000Y-44655000D01*
X171410000Y-59410000D02*
X171410000Y-45155000D01*
X171410000Y-59155000D02*
X171410000Y-59410000D01*
X171410000Y-59410000D02*
X171410000Y-64870000D01*
D22*
X211732500Y-54252500D02*
X211732500Y-53340000D01*
X217170000Y-59690000D02*
X211732500Y-54252500D01*
X214210000Y-69000000D02*
X210820000Y-69000000D01*
X221615000Y-61595000D02*
X214210000Y-69000000D01*
X204450998Y-62865000D02*
X215466816Y-62865000D01*
X203169999Y-64145999D02*
X204450998Y-62865000D01*
X217170000Y-61161816D02*
X217170000Y-59690000D01*
X203169999Y-65394001D02*
X203169999Y-64145999D01*
X203845999Y-66070001D02*
X203169999Y-65394001D01*
X207890001Y-66070001D02*
X203845999Y-66070001D01*
X215466816Y-62865000D02*
X217170000Y-61161816D01*
X210820000Y-69000000D02*
X207890001Y-66070001D01*
D21*
X213360000Y-17780000D02*
X213360000Y-25757500D01*
X217170000Y-13970000D02*
X213360000Y-17780000D01*
X213360000Y-25757500D02*
X210820000Y-25757500D01*
X208185001Y-63594999D02*
X207010000Y-64770000D01*
X215550003Y-63594999D02*
X208185001Y-63594999D01*
X218945020Y-60199982D02*
X215550003Y-63594999D01*
X218945020Y-26674727D02*
X218945020Y-60199982D01*
X217865283Y-25594990D02*
X218945020Y-26674727D01*
X213522510Y-25594990D02*
X217865283Y-25594990D01*
X213360000Y-25757500D02*
X213522510Y-25594990D01*
D23*
X190968846Y-7990866D02*
X190863549Y-7736657D01*
X190571668Y-7299826D01*
X190200174Y-6928332D01*
X189763343Y-6636451D01*
X189277963Y-6435400D01*
X188762686Y-6332905D01*
X188237314Y-6332905D01*
X187722037Y-6435400D01*
X187236657Y-6636451D01*
X186799826Y-6928332D01*
X186428332Y-7299826D01*
X186136451Y-7736657D01*
X185935400Y-8222037D01*
X185832905Y-8737314D01*
X185832905Y-9262686D01*
X185935400Y-9777963D01*
X186136451Y-10263343D01*
X186428332Y-10700174D01*
X186799826Y-11071668D01*
X187236657Y-11363549D01*
X187722037Y-11564600D01*
X188237314Y-11667095D01*
X188762686Y-11667095D01*
X189277963Y-11564600D01*
X189763343Y-11363549D01*
X190200174Y-11071668D01*
X190571668Y-10700174D01*
X190863549Y-10263343D01*
X190968846Y-10009134D01*
X190968846Y-12693196D01*
X190898276Y-12720032D01*
X190666366Y-12865342D01*
X190467260Y-13053103D01*
X190308610Y-13276100D01*
X190196513Y-13525764D01*
X190177682Y-13628815D01*
X190300344Y-13843000D01*
X191643000Y-13843000D01*
X191643000Y-13823000D01*
X191897000Y-13823000D01*
X191897000Y-13843000D01*
X193239656Y-13843000D01*
X193362318Y-13628815D01*
X193343487Y-13525764D01*
X193231390Y-13276100D01*
X193072740Y-13053103D01*
X192873634Y-12865342D01*
X192812441Y-12827000D01*
X216129562Y-12827000D01*
X215935919Y-12985919D01*
X215762843Y-13196812D01*
X215634236Y-13437419D01*
X215555040Y-13698493D01*
X215528299Y-13970000D01*
X215555040Y-14241507D01*
X215617567Y-14447631D01*
X212849003Y-17216196D01*
X212819999Y-17239999D01*
X212784555Y-17283188D01*
X212725026Y-17355724D01*
X212654455Y-17487753D01*
X212654454Y-17487754D01*
X212610997Y-17631015D01*
X212600000Y-17742668D01*
X212600000Y-17742678D01*
X212596324Y-17780000D01*
X212600000Y-17817322D01*
X212600001Y-24809079D01*
X212503377Y-24888377D01*
X212413822Y-24997500D01*
X211766178Y-24997500D01*
X211676623Y-24888377D01*
X211543942Y-24779488D01*
X211392567Y-24698577D01*
X211228316Y-24648752D01*
X211057500Y-24631928D01*
X210582500Y-24631928D01*
X210411684Y-24648752D01*
X210247433Y-24698577D01*
X210096058Y-24779488D01*
X209963377Y-24888377D01*
X209854488Y-25021058D01*
X209773577Y-25172433D01*
X209723752Y-25336684D01*
X209706928Y-25507500D01*
X209706928Y-25910000D01*
X209587333Y-25910000D01*
X209550000Y-25906323D01*
X209512667Y-25910000D01*
X209401014Y-25920997D01*
X209257753Y-25964454D01*
X209125724Y-26035026D01*
X209009999Y-26129999D01*
X208995001Y-26148274D01*
X208995001Y-20947323D01*
X208998677Y-20910000D01*
X208995001Y-20872677D01*
X208995001Y-20872668D01*
X208984004Y-20761015D01*
X208940547Y-20617754D01*
X208914314Y-20568676D01*
X208869975Y-20485724D01*
X208798800Y-20398998D01*
X208775002Y-20370000D01*
X208746005Y-20346203D01*
X208493731Y-20093930D01*
X208545000Y-19836184D01*
X208545000Y-19533816D01*
X208486011Y-19237257D01*
X208370299Y-18957905D01*
X208202312Y-18706495D01*
X207988505Y-18492688D01*
X207737095Y-18324701D01*
X207457743Y-18208989D01*
X207161184Y-18150000D01*
X206858816Y-18150000D01*
X206562257Y-18208989D01*
X206282905Y-18324701D01*
X206031495Y-18492688D01*
X205817688Y-18706495D01*
X205649701Y-18957905D01*
X205533989Y-19237257D01*
X205475000Y-19533816D01*
X205475000Y-19836184D01*
X205533989Y-20132743D01*
X205649701Y-20412095D01*
X205817688Y-20663505D01*
X205884127Y-20729944D01*
X205865820Y-20735498D01*
X205755506Y-20794463D01*
X205658815Y-20873815D01*
X205579463Y-20970506D01*
X205520498Y-21080820D01*
X205484188Y-21200518D01*
X205471928Y-21325000D01*
X205471928Y-21465000D01*
X204298052Y-21465000D01*
X204296248Y-21446684D01*
X204246423Y-21282433D01*
X204165512Y-21131058D01*
X204076188Y-21022217D01*
X204126185Y-20981185D01*
X204205537Y-20884494D01*
X204264502Y-20774180D01*
X204300812Y-20654482D01*
X204313072Y-20530000D01*
X204310000Y-20328250D01*
X204151250Y-20169500D01*
X203327000Y-20169500D01*
X203327000Y-20189500D01*
X203073000Y-20189500D01*
X203073000Y-20169500D01*
X202248750Y-20169500D01*
X202090000Y-20328250D01*
X202086928Y-20530000D01*
X202099188Y-20654482D01*
X202135498Y-20774180D01*
X202194463Y-20884494D01*
X202273815Y-20981185D01*
X202323812Y-21022217D01*
X202234488Y-21131058D01*
X202153577Y-21282433D01*
X202103752Y-21446684D01*
X202086928Y-21617500D01*
X202086928Y-22117500D01*
X202103752Y-22288316D01*
X202153577Y-22452567D01*
X202234488Y-22603942D01*
X202343377Y-22736623D01*
X202476058Y-22845512D01*
X202627433Y-22926423D01*
X202791684Y-22976248D01*
X202962500Y-22993072D01*
X203437500Y-22993072D01*
X203519811Y-22984965D01*
X203520167Y-22985000D01*
X203520176Y-22985000D01*
X203557499Y-22988676D01*
X203594822Y-22985000D01*
X205471928Y-22985000D01*
X205471928Y-23125000D01*
X205484188Y-23249482D01*
X205520498Y-23369180D01*
X205579463Y-23479494D01*
X205658815Y-23576185D01*
X205755506Y-23655537D01*
X205865820Y-23714502D01*
X205985518Y-23750812D01*
X206110000Y-23763072D01*
X207475001Y-23763072D01*
X207475002Y-37485705D01*
X201616108Y-43344600D01*
X201516623Y-43223377D01*
X201463768Y-43180000D01*
X201516623Y-43136623D01*
X201625512Y-43003942D01*
X201706423Y-42852567D01*
X201756248Y-42688316D01*
X201773072Y-42517500D01*
X201773072Y-42017500D01*
X201756248Y-41846684D01*
X201706423Y-41682433D01*
X201625512Y-41531058D01*
X201516623Y-41398377D01*
X201383942Y-41289488D01*
X201232567Y-41208577D01*
X201068316Y-41158752D01*
X200897500Y-41141928D01*
X200422500Y-41141928D01*
X200339868Y-41150067D01*
X199515000Y-40325199D01*
X199515000Y-25079801D01*
X200158503Y-24436299D01*
X200187501Y-24412501D01*
X200282474Y-24296776D01*
X200353046Y-24164747D01*
X200396503Y-24021486D01*
X200407500Y-23909833D01*
X200411177Y-23872500D01*
X200407500Y-23835167D01*
X200407500Y-22004833D01*
X200411177Y-21967500D01*
X200396503Y-21818514D01*
X200353046Y-21675253D01*
X200321132Y-21615547D01*
X200282474Y-21543224D01*
X200187501Y-21427499D01*
X200158498Y-21403697D01*
X199833804Y-21079003D01*
X199810001Y-21049999D01*
X199694276Y-20955026D01*
X199562247Y-20884454D01*
X199523052Y-20872565D01*
X199528377Y-20864421D01*
X199613900Y-20627383D01*
X199488244Y-20447000D01*
X198747560Y-20447000D01*
X198714360Y-20436929D01*
X198542477Y-20420000D01*
X197973000Y-20420000D01*
X197973000Y-20220000D01*
X198542477Y-20220000D01*
X198714360Y-20203071D01*
X198747560Y-20193000D01*
X199488244Y-20193000D01*
X199613900Y-20012617D01*
X199528377Y-19775579D01*
X199470846Y-19687596D01*
X199541720Y-19555000D01*
X202086928Y-19555000D01*
X202090000Y-19756750D01*
X202248750Y-19915500D01*
X203073000Y-19915500D01*
X203073000Y-19078750D01*
X203327000Y-19078750D01*
X203327000Y-19915500D01*
X204151250Y-19915500D01*
X204310000Y-19756750D01*
X204313072Y-19555000D01*
X204300812Y-19430518D01*
X204264502Y-19310820D01*
X204205537Y-19200506D01*
X204126185Y-19103815D01*
X204029494Y-19024463D01*
X203919180Y-18965498D01*
X203799482Y-18929188D01*
X203675000Y-18916928D01*
X203485750Y-18920000D01*
X203327000Y-19078750D01*
X203073000Y-19078750D01*
X202914250Y-18920000D01*
X202725000Y-18916928D01*
X202600518Y-18929188D01*
X202480820Y-18965498D01*
X202370506Y-19024463D01*
X202273815Y-19103815D01*
X202194463Y-19200506D01*
X202135498Y-19310820D01*
X202099188Y-19430518D01*
X202086928Y-19555000D01*
X199541720Y-19555000D01*
X199571169Y-19499906D01*
X199638071Y-19279360D01*
X199660661Y-19050000D01*
X199638071Y-18820640D01*
X199571169Y-18600094D01*
X199462526Y-18396838D01*
X199316318Y-18218682D01*
X199138162Y-18072474D01*
X198934906Y-17963831D01*
X198714360Y-17896929D01*
X198542477Y-17880000D01*
X197697523Y-17880000D01*
X197525640Y-17896929D01*
X197305094Y-17963831D01*
X197101838Y-18072474D01*
X196923682Y-18218682D01*
X196859216Y-18297234D01*
X196821014Y-18300997D01*
X196677753Y-18344454D01*
X196545724Y-18415026D01*
X196429999Y-18509999D01*
X196406201Y-18538998D01*
X195703998Y-19241201D01*
X195675000Y-19264999D01*
X195651202Y-19293997D01*
X195651201Y-19293998D01*
X195580026Y-19380724D01*
X195509454Y-19512754D01*
X195465998Y-19656015D01*
X195451324Y-19805000D01*
X195455001Y-19842332D01*
X195455000Y-23457677D01*
X195451324Y-23495000D01*
X195455000Y-23532322D01*
X195455000Y-23532332D01*
X195465997Y-23643985D01*
X195498402Y-23750812D01*
X195509454Y-23787246D01*
X195580026Y-23919276D01*
X195611484Y-23957607D01*
X195674999Y-24035001D01*
X195704003Y-24058804D01*
X196725001Y-25079803D01*
X196725000Y-40323788D01*
X196533789Y-40515000D01*
X195287307Y-40515000D01*
X195249982Y-40511324D01*
X195212657Y-40515000D01*
X195212649Y-40515000D01*
X195100996Y-40525997D01*
X194957735Y-40569454D01*
X194825706Y-40640026D01*
X194709981Y-40734999D01*
X194686178Y-40764003D01*
X194268989Y-41181192D01*
X194239991Y-41204990D01*
X194216193Y-41233988D01*
X194216192Y-41233989D01*
X194145017Y-41320715D01*
X194074445Y-41452745D01*
X194058951Y-41503824D01*
X194030989Y-41596005D01*
X194020818Y-41699276D01*
X194016315Y-41744991D01*
X194019992Y-41782323D01*
X194019991Y-42713176D01*
X194016315Y-42750499D01*
X194019991Y-42787824D01*
X194019991Y-42787832D01*
X194030988Y-42899485D01*
X194074445Y-43042746D01*
X194145017Y-43174775D01*
X194239990Y-43290501D01*
X194268993Y-43314303D01*
X194287190Y-43332500D01*
X192841510Y-43332500D01*
X192793188Y-43292843D01*
X192582073Y-43180000D01*
X192793188Y-43067157D01*
X193004081Y-42894081D01*
X193177157Y-42683188D01*
X193305764Y-42442581D01*
X193384960Y-42181507D01*
X193411701Y-41910000D01*
X193384960Y-41638493D01*
X193305764Y-41377419D01*
X193177157Y-41136812D01*
X193004081Y-40925919D01*
X192793188Y-40752843D01*
X192582073Y-40640000D01*
X192793188Y-40527157D01*
X193004081Y-40354081D01*
X193177157Y-40143188D01*
X193305764Y-39902581D01*
X193384960Y-39641507D01*
X193411701Y-39370000D01*
X193384960Y-39098493D01*
X193305764Y-38837419D01*
X193177157Y-38596812D01*
X193004081Y-38385919D01*
X192793188Y-38212843D01*
X192582073Y-38100000D01*
X192793188Y-37987157D01*
X193004081Y-37814081D01*
X193177157Y-37603188D01*
X193305764Y-37362581D01*
X193384960Y-37101507D01*
X193411701Y-36830000D01*
X193384960Y-36558493D01*
X193305764Y-36297419D01*
X193177157Y-36056812D01*
X193004081Y-35845919D01*
X192793188Y-35672843D01*
X192582073Y-35560000D01*
X192793188Y-35447157D01*
X193004081Y-35274081D01*
X193177157Y-35063188D01*
X193305764Y-34822581D01*
X193384960Y-34561507D01*
X193411701Y-34290000D01*
X193384960Y-34018493D01*
X193305764Y-33757419D01*
X193177157Y-33516812D01*
X193004081Y-33305919D01*
X192793188Y-33132843D01*
X192582073Y-33020000D01*
X192793188Y-32907157D01*
X193004081Y-32734081D01*
X193177157Y-32523188D01*
X193305764Y-32282581D01*
X193384960Y-32021507D01*
X193411701Y-31750000D01*
X193384960Y-31478493D01*
X193305764Y-31217419D01*
X193177157Y-30976812D01*
X193004081Y-30765919D01*
X192793188Y-30592843D01*
X192584972Y-30481549D01*
X192641724Y-30459968D01*
X192873634Y-30314658D01*
X193072740Y-30126897D01*
X193231390Y-29903900D01*
X193343487Y-29654236D01*
X193362318Y-29551185D01*
X193239656Y-29337000D01*
X191897000Y-29337000D01*
X191897000Y-29357000D01*
X191643000Y-29357000D01*
X191643000Y-29337000D01*
X190300344Y-29337000D01*
X190177682Y-29551185D01*
X190196513Y-29654236D01*
X190308610Y-29903900D01*
X190467260Y-30126897D01*
X190666366Y-30314658D01*
X190898276Y-30459968D01*
X190955028Y-30481549D01*
X190746812Y-30592843D01*
X190535919Y-30765919D01*
X190362843Y-30976812D01*
X190234236Y-31217419D01*
X190155040Y-31478493D01*
X190128299Y-31750000D01*
X190155040Y-32021507D01*
X190234236Y-32282581D01*
X190362843Y-32523188D01*
X190535919Y-32734081D01*
X190746812Y-32907157D01*
X190957927Y-33020000D01*
X190746812Y-33132843D01*
X190535919Y-33305919D01*
X190362843Y-33516812D01*
X190234236Y-33757419D01*
X190155040Y-34018493D01*
X190128299Y-34290000D01*
X190155040Y-34561507D01*
X190234236Y-34822581D01*
X190362843Y-35063188D01*
X190535919Y-35274081D01*
X190746812Y-35447157D01*
X190957927Y-35560000D01*
X190746812Y-35672843D01*
X190535919Y-35845919D01*
X190362843Y-36056812D01*
X190234236Y-36297419D01*
X190155040Y-36558493D01*
X190128299Y-36830000D01*
X190155040Y-37101507D01*
X190234236Y-37362581D01*
X190362843Y-37603188D01*
X190535919Y-37814081D01*
X190746812Y-37987157D01*
X190957927Y-38100000D01*
X190746812Y-38212843D01*
X190535919Y-38385919D01*
X190362843Y-38596812D01*
X190234236Y-38837419D01*
X190155040Y-39098493D01*
X190128299Y-39370000D01*
X190155040Y-39641507D01*
X190234236Y-39902581D01*
X190362843Y-40143188D01*
X190535919Y-40354081D01*
X190746812Y-40527157D01*
X190957927Y-40640000D01*
X190746812Y-40752843D01*
X190535919Y-40925919D01*
X190362843Y-41136812D01*
X190234236Y-41377419D01*
X190155040Y-41638493D01*
X190128299Y-41910000D01*
X190155040Y-42181507D01*
X190234236Y-42442581D01*
X190362843Y-42683188D01*
X190535919Y-42894081D01*
X190746812Y-43067157D01*
X190957927Y-43180000D01*
X190746812Y-43292843D01*
X190535919Y-43465919D01*
X190362843Y-43676812D01*
X190234236Y-43917419D01*
X190155040Y-44178493D01*
X190128299Y-44450000D01*
X190155040Y-44721507D01*
X190234236Y-44982581D01*
X190362843Y-45223188D01*
X190535919Y-45434081D01*
X190746812Y-45607157D01*
X190957927Y-45720000D01*
X190746812Y-45832843D01*
X190535919Y-46005919D01*
X190362843Y-46216812D01*
X190234236Y-46457419D01*
X190155040Y-46718493D01*
X190128299Y-46990000D01*
X190155040Y-47261507D01*
X190217567Y-47467632D01*
X189933988Y-47751211D01*
X189904990Y-47775009D01*
X189881192Y-47804007D01*
X189881191Y-47804008D01*
X189810016Y-47890734D01*
X189739444Y-48022764D01*
X189717636Y-48094658D01*
X189696287Y-48165040D01*
X189695988Y-48166025D01*
X189681314Y-48315010D01*
X189684991Y-48352342D01*
X189684990Y-52477960D01*
X189681314Y-52515283D01*
X189684990Y-52552605D01*
X189684990Y-52552615D01*
X189695987Y-52664268D01*
X189728599Y-52771776D01*
X189739444Y-52807529D01*
X189810016Y-52939559D01*
X189845236Y-52982474D01*
X189904989Y-53055284D01*
X189933992Y-53079086D01*
X190510922Y-53656018D01*
X190511070Y-53656198D01*
X190362843Y-53836812D01*
X190234236Y-54077419D01*
X190155040Y-54338493D01*
X190128299Y-54610000D01*
X190155040Y-54881507D01*
X190234236Y-55142581D01*
X190362843Y-55383188D01*
X190535919Y-55594081D01*
X190746812Y-55767157D01*
X190957927Y-55880000D01*
X190746812Y-55992843D01*
X190535919Y-56165919D01*
X190362843Y-56376812D01*
X190234236Y-56617419D01*
X190155040Y-56878493D01*
X190128299Y-57150000D01*
X190155040Y-57421507D01*
X190234236Y-57682581D01*
X190362843Y-57923188D01*
X190535919Y-58134081D01*
X190746812Y-58307157D01*
X190957927Y-58420000D01*
X190746812Y-58532843D01*
X190535919Y-58705919D01*
X190362843Y-58916812D01*
X190234236Y-59157419D01*
X190155040Y-59418493D01*
X190128299Y-59690000D01*
X190155040Y-59961507D01*
X190234236Y-60222581D01*
X190362843Y-60463188D01*
X190535919Y-60674081D01*
X190746812Y-60847157D01*
X190987419Y-60975764D01*
X191248493Y-61054960D01*
X191451963Y-61075000D01*
X192088037Y-61075000D01*
X192291507Y-61054960D01*
X192552581Y-60975764D01*
X192793188Y-60847157D01*
X193004081Y-60674081D01*
X193177157Y-60463188D01*
X193305764Y-60222581D01*
X193384960Y-59961507D01*
X193411701Y-59690000D01*
X193384960Y-59418493D01*
X193305764Y-59157419D01*
X193177157Y-58916812D01*
X193004081Y-58705919D01*
X192793188Y-58532843D01*
X192582073Y-58420000D01*
X192793188Y-58307157D01*
X193004081Y-58134081D01*
X193177157Y-57923188D01*
X193305764Y-57682581D01*
X193384960Y-57421507D01*
X193411701Y-57150000D01*
X193384960Y-56878493D01*
X193305764Y-56617419D01*
X193177157Y-56376812D01*
X193004081Y-56165919D01*
X192793188Y-55992843D01*
X192582073Y-55880000D01*
X192793188Y-55767157D01*
X193004081Y-55594081D01*
X193177157Y-55383188D01*
X193305764Y-55142581D01*
X193384960Y-54881507D01*
X193411701Y-54610000D01*
X193384960Y-54338493D01*
X193305764Y-54077419D01*
X193184113Y-53849826D01*
X193314776Y-53779984D01*
X193430501Y-53685011D01*
X193454304Y-53656007D01*
X208155000Y-38955312D01*
X208155001Y-52310167D01*
X208151324Y-52347500D01*
X208165998Y-52496485D01*
X208209454Y-52639746D01*
X208280026Y-52771776D01*
X208346491Y-52852763D01*
X208375000Y-52887501D01*
X208403998Y-52911299D01*
X208781928Y-53289229D01*
X208781928Y-53577500D01*
X208798752Y-53748316D01*
X208848577Y-53912567D01*
X208929488Y-54063942D01*
X209038377Y-54196623D01*
X209147500Y-54286178D01*
X209147501Y-60922697D01*
X208600199Y-61470000D01*
X201967322Y-61470000D01*
X201929999Y-61466324D01*
X201892676Y-61470000D01*
X201892667Y-61470000D01*
X201781014Y-61480997D01*
X201637753Y-61524454D01*
X201505724Y-61595026D01*
X201505722Y-61595027D01*
X201505723Y-61595027D01*
X201418996Y-61666201D01*
X201418992Y-61666205D01*
X201389999Y-61689999D01*
X201366205Y-61718992D01*
X199756408Y-63328790D01*
X199536260Y-63285000D01*
X199243740Y-63285000D01*
X198956842Y-63342068D01*
X198686589Y-63454010D01*
X198443368Y-63616525D01*
X198236525Y-63823368D01*
X198120000Y-63997760D01*
X198003475Y-63823368D01*
X197796632Y-63616525D01*
X197553411Y-63454010D01*
X197283158Y-63342068D01*
X196996260Y-63285000D01*
X196703740Y-63285000D01*
X196416842Y-63342068D01*
X196146589Y-63454010D01*
X195903368Y-63616525D01*
X195771513Y-63748380D01*
X195749502Y-63675820D01*
X195690537Y-63565506D01*
X195611185Y-63468815D01*
X195514494Y-63389463D01*
X195404180Y-63330498D01*
X195284482Y-63294188D01*
X195160000Y-63281928D01*
X194595750Y-63285000D01*
X194437000Y-63443750D01*
X194437000Y-64643000D01*
X194457000Y-64643000D01*
X194457000Y-64897000D01*
X194437000Y-64897000D01*
X194437000Y-66096250D01*
X194595750Y-66255000D01*
X195160000Y-66258072D01*
X195284482Y-66245812D01*
X195404180Y-66209502D01*
X195514494Y-66150537D01*
X195611185Y-66071185D01*
X195690537Y-65974494D01*
X195749502Y-65864180D01*
X195771513Y-65791620D01*
X195903368Y-65923475D01*
X196146589Y-66085990D01*
X196416842Y-66197932D01*
X196703740Y-66255000D01*
X196996260Y-66255000D01*
X197283158Y-66197932D01*
X197553411Y-66085990D01*
X197796632Y-65923475D01*
X198003475Y-65716632D01*
X198120000Y-65542240D01*
X198236525Y-65716632D01*
X198443368Y-65923475D01*
X198686589Y-66085990D01*
X198956842Y-66197932D01*
X199243740Y-66255000D01*
X199536260Y-66255000D01*
X199823158Y-66197932D01*
X200093411Y-66085990D01*
X200336632Y-65923475D01*
X200543475Y-65716632D01*
X200705990Y-65473411D01*
X200817932Y-65203158D01*
X200875000Y-64916260D01*
X200875000Y-64623740D01*
X200831210Y-64403592D01*
X202244803Y-62990000D01*
X203074420Y-62990000D01*
X202574950Y-63489470D01*
X202541183Y-63517182D01*
X202513470Y-63550950D01*
X202513467Y-63550953D01*
X202430589Y-63651940D01*
X202348411Y-63805686D01*
X202297804Y-63972509D01*
X202280718Y-64145999D01*
X202285000Y-64189477D01*
X202284999Y-65350531D01*
X202280718Y-65394001D01*
X202284999Y-65437470D01*
X202284999Y-65437477D01*
X202294474Y-65533676D01*
X202297804Y-65567491D01*
X202300368Y-65575942D01*
X202348410Y-65734313D01*
X202430588Y-65888059D01*
X202541182Y-66022818D01*
X202574955Y-66050535D01*
X203189469Y-66665050D01*
X203217182Y-66698818D01*
X203250950Y-66726531D01*
X203250952Y-66726533D01*
X203280626Y-66750886D01*
X203351940Y-66809412D01*
X203505686Y-66891590D01*
X203672509Y-66942196D01*
X203802522Y-66955001D01*
X203802532Y-66955001D01*
X203845998Y-66959282D01*
X203889464Y-66955001D01*
X207523423Y-66955001D01*
X209383478Y-68815057D01*
X209375000Y-68857680D01*
X209375000Y-69142320D01*
X209430530Y-69421491D01*
X209539457Y-69684464D01*
X209697595Y-69921134D01*
X209898866Y-70122405D01*
X210135536Y-70280543D01*
X210398509Y-70389470D01*
X210677680Y-70445000D01*
X210962320Y-70445000D01*
X211241491Y-70389470D01*
X211504464Y-70280543D01*
X211741134Y-70122405D01*
X211942405Y-69921134D01*
X211966549Y-69885000D01*
X214166531Y-69885000D01*
X214210000Y-69889281D01*
X214253469Y-69885000D01*
X214253477Y-69885000D01*
X214383490Y-69872195D01*
X214550313Y-69821589D01*
X214704059Y-69739411D01*
X214706614Y-69737314D01*
X217332905Y-69737314D01*
X217332905Y-70262686D01*
X217435400Y-70777963D01*
X217636451Y-71263343D01*
X217928332Y-71700174D01*
X218299826Y-72071668D01*
X218736657Y-72363549D01*
X219222037Y-72564600D01*
X219737314Y-72667095D01*
X220262686Y-72667095D01*
X220777963Y-72564600D01*
X221263343Y-72363549D01*
X221700174Y-72071668D01*
X222071668Y-71700174D01*
X222363549Y-71263343D01*
X222564600Y-70777963D01*
X222667095Y-70262686D01*
X222667095Y-69737314D01*
X222564600Y-69222037D01*
X222363549Y-68736657D01*
X222071668Y-68299826D01*
X221700174Y-67928332D01*
X221263343Y-67636451D01*
X220777963Y-67435400D01*
X220262686Y-67332905D01*
X219737314Y-67332905D01*
X219222037Y-67435400D01*
X218736657Y-67636451D01*
X218299826Y-67928332D01*
X217928332Y-68299826D01*
X217636451Y-68736657D01*
X217435400Y-69222037D01*
X217332905Y-69737314D01*
X214706614Y-69737314D01*
X214838817Y-69628817D01*
X214866534Y-69595044D01*
X221396040Y-63065539D01*
X221468740Y-63080000D01*
X221761260Y-63080000D01*
X222048158Y-63022932D01*
X222318411Y-62910990D01*
X222561632Y-62748475D01*
X222768475Y-62541632D01*
X222840000Y-62434587D01*
X222840000Y-69967721D01*
X222782808Y-70551010D01*
X222622783Y-71081036D01*
X222362860Y-71569880D01*
X222012935Y-71998931D01*
X221586335Y-72351845D01*
X221099320Y-72615173D01*
X220570422Y-72778894D01*
X219989040Y-72840000D01*
X208860922Y-72840000D01*
X209004464Y-72780543D01*
X209241134Y-72622405D01*
X209442405Y-72421134D01*
X209600543Y-72184464D01*
X209709470Y-71921491D01*
X209765000Y-71642320D01*
X209765000Y-71357680D01*
X209709470Y-71078509D01*
X209600543Y-70815536D01*
X209442405Y-70578866D01*
X209241134Y-70377595D01*
X209004464Y-70219457D01*
X208741491Y-70110530D01*
X208462320Y-70055000D01*
X208177680Y-70055000D01*
X207898509Y-70110530D01*
X207635536Y-70219457D01*
X207398866Y-70377595D01*
X207197595Y-70578866D01*
X207039457Y-70815536D01*
X206930530Y-71078509D01*
X206875000Y-71357680D01*
X206875000Y-71642320D01*
X206930530Y-71921491D01*
X207039457Y-72184464D01*
X207197595Y-72421134D01*
X207398866Y-72622405D01*
X207635536Y-72780543D01*
X207779078Y-72840000D01*
X188532279Y-72840000D01*
X187948990Y-72782808D01*
X187418964Y-72622783D01*
X186930120Y-72362860D01*
X186501069Y-72012935D01*
X186148155Y-71586335D01*
X185884827Y-71099320D01*
X185721106Y-70570422D01*
X185660000Y-69989040D01*
X185660000Y-69737314D01*
X185832905Y-69737314D01*
X185832905Y-70262686D01*
X185935400Y-70777963D01*
X186136451Y-71263343D01*
X186428332Y-71700174D01*
X186799826Y-72071668D01*
X187236657Y-72363549D01*
X187722037Y-72564600D01*
X188237314Y-72667095D01*
X188762686Y-72667095D01*
X189277963Y-72564600D01*
X189763343Y-72363549D01*
X190200174Y-72071668D01*
X190571668Y-71700174D01*
X190863549Y-71263343D01*
X191064600Y-70777963D01*
X191167095Y-70262686D01*
X191167095Y-69737314D01*
X191064600Y-69222037D01*
X190913679Y-68857680D01*
X204375000Y-68857680D01*
X204375000Y-69142320D01*
X204430530Y-69421491D01*
X204539457Y-69684464D01*
X204697595Y-69921134D01*
X204898866Y-70122405D01*
X205135536Y-70280543D01*
X205398509Y-70389470D01*
X205677680Y-70445000D01*
X205962320Y-70445000D01*
X206241491Y-70389470D01*
X206504464Y-70280543D01*
X206741134Y-70122405D01*
X206942405Y-69921134D01*
X207100543Y-69684464D01*
X207209470Y-69421491D01*
X207265000Y-69142320D01*
X207265000Y-68857680D01*
X207209470Y-68578509D01*
X207100543Y-68315536D01*
X206942405Y-68078866D01*
X206741134Y-67877595D01*
X206504464Y-67719457D01*
X206241491Y-67610530D01*
X205962320Y-67555000D01*
X205677680Y-67555000D01*
X205398509Y-67610530D01*
X205135536Y-67719457D01*
X204898866Y-67877595D01*
X204697595Y-68078866D01*
X204539457Y-68315536D01*
X204430530Y-68578509D01*
X204375000Y-68857680D01*
X190913679Y-68857680D01*
X190863549Y-68736657D01*
X190571668Y-68299826D01*
X190200174Y-67928332D01*
X189763343Y-67636451D01*
X189277963Y-67435400D01*
X188762686Y-67332905D01*
X188237314Y-67332905D01*
X187722037Y-67435400D01*
X187236657Y-67636451D01*
X186799826Y-67928332D01*
X186428332Y-68299826D01*
X186136451Y-68736657D01*
X185935400Y-69222037D01*
X185832905Y-69737314D01*
X185660000Y-69737314D01*
X185660000Y-65620000D01*
X192821928Y-65620000D01*
X192834188Y-65744482D01*
X192870498Y-65864180D01*
X192929463Y-65974494D01*
X193008815Y-66071185D01*
X193105506Y-66150537D01*
X193215820Y-66209502D01*
X193335518Y-66245812D01*
X193460000Y-66258072D01*
X194024250Y-66255000D01*
X194183000Y-66096250D01*
X194183000Y-64897000D01*
X192983750Y-64897000D01*
X192825000Y-65055750D01*
X192821928Y-65620000D01*
X185660000Y-65620000D01*
X185660000Y-63920000D01*
X192821928Y-63920000D01*
X192825000Y-64484250D01*
X192983750Y-64643000D01*
X194183000Y-64643000D01*
X194183000Y-63443750D01*
X194024250Y-63285000D01*
X193460000Y-63281928D01*
X193335518Y-63294188D01*
X193215820Y-63330498D01*
X193105506Y-63389463D01*
X193008815Y-63468815D01*
X192929463Y-63565506D01*
X192870498Y-63675820D01*
X192834188Y-63795518D01*
X192821928Y-63920000D01*
X185660000Y-63920000D01*
X185660000Y-30967581D01*
X185656777Y-30934857D01*
X185656777Y-30925124D01*
X185655814Y-30915959D01*
X185639498Y-30770497D01*
X185627059Y-30711976D01*
X185615442Y-30653305D01*
X185612717Y-30644502D01*
X185568458Y-30504980D01*
X185544892Y-30449997D01*
X185522097Y-30394691D01*
X185517714Y-30386585D01*
X185447196Y-30258316D01*
X185413453Y-30209036D01*
X185380302Y-30159139D01*
X185374427Y-30152039D01*
X185280340Y-30039908D01*
X185237606Y-29998060D01*
X185195444Y-29955603D01*
X185188303Y-29949779D01*
X185127000Y-29900491D01*
X185127000Y-27099786D01*
X185202877Y-27037015D01*
X185245018Y-26994579D01*
X185287767Y-26952716D01*
X185293641Y-26945616D01*
X185386154Y-26832184D01*
X185419246Y-26782375D01*
X185453053Y-26733003D01*
X185457436Y-26724896D01*
X185526155Y-26595655D01*
X185548940Y-26540374D01*
X185572517Y-26485364D01*
X185575242Y-26476561D01*
X185617548Y-26336434D01*
X185629164Y-26277768D01*
X185641603Y-26219247D01*
X185642566Y-26210082D01*
X185656850Y-26064406D01*
X185656850Y-26064402D01*
X185660000Y-26032419D01*
X185660000Y-16510000D01*
X190128299Y-16510000D01*
X190155040Y-16781507D01*
X190234236Y-17042581D01*
X190362843Y-17283188D01*
X190535919Y-17494081D01*
X190746812Y-17667157D01*
X190957927Y-17780000D01*
X190746812Y-17892843D01*
X190535919Y-18065919D01*
X190362843Y-18276812D01*
X190234236Y-18517419D01*
X190155040Y-18778493D01*
X190128299Y-19050000D01*
X190155040Y-19321507D01*
X190234236Y-19582581D01*
X190362843Y-19823188D01*
X190535919Y-20034081D01*
X190746812Y-20207157D01*
X190957927Y-20320000D01*
X190746812Y-20432843D01*
X190535919Y-20605919D01*
X190362843Y-20816812D01*
X190234236Y-21057419D01*
X190155040Y-21318493D01*
X190128299Y-21590000D01*
X190155040Y-21861507D01*
X190234236Y-22122581D01*
X190362843Y-22363188D01*
X190535919Y-22574081D01*
X190746812Y-22747157D01*
X190957927Y-22860000D01*
X190746812Y-22972843D01*
X190535919Y-23145919D01*
X190362843Y-23356812D01*
X190234236Y-23597419D01*
X190155040Y-23858493D01*
X190128299Y-24130000D01*
X190155040Y-24401507D01*
X190234236Y-24662581D01*
X190362843Y-24903188D01*
X190535919Y-25114081D01*
X190746812Y-25287157D01*
X190957927Y-25400000D01*
X190746812Y-25512843D01*
X190535919Y-25685919D01*
X190362843Y-25896812D01*
X190234236Y-26137419D01*
X190155040Y-26398493D01*
X190128299Y-26670000D01*
X190155040Y-26941507D01*
X190234236Y-27202581D01*
X190362843Y-27443188D01*
X190535919Y-27654081D01*
X190746812Y-27827157D01*
X190955028Y-27938451D01*
X190898276Y-27960032D01*
X190666366Y-28105342D01*
X190467260Y-28293103D01*
X190308610Y-28516100D01*
X190196513Y-28765764D01*
X190177682Y-28868815D01*
X190300344Y-29083000D01*
X191643000Y-29083000D01*
X191643000Y-29063000D01*
X191897000Y-29063000D01*
X191897000Y-29083000D01*
X193239656Y-29083000D01*
X193362318Y-28868815D01*
X193343487Y-28765764D01*
X193231390Y-28516100D01*
X193072740Y-28293103D01*
X192873634Y-28105342D01*
X192641724Y-27960032D01*
X192584972Y-27938451D01*
X192793188Y-27827157D01*
X193004081Y-27654081D01*
X193177157Y-27443188D01*
X193305764Y-27202581D01*
X193384960Y-26941507D01*
X193411701Y-26670000D01*
X193384960Y-26398493D01*
X193305764Y-26137419D01*
X193177157Y-25896812D01*
X193004081Y-25685919D01*
X192793188Y-25512843D01*
X192582073Y-25400000D01*
X192793188Y-25287157D01*
X193004081Y-25114081D01*
X193177157Y-24903188D01*
X193305764Y-24662581D01*
X193384960Y-24401507D01*
X193411701Y-24130000D01*
X193384960Y-23858493D01*
X193305764Y-23597419D01*
X193177157Y-23356812D01*
X193004081Y-23145919D01*
X192793188Y-22972843D01*
X192582073Y-22860000D01*
X192793188Y-22747157D01*
X193004081Y-22574081D01*
X193177157Y-22363188D01*
X193305764Y-22122581D01*
X193384960Y-21861507D01*
X193411701Y-21590000D01*
X193384960Y-21318493D01*
X193305764Y-21057419D01*
X193177157Y-20816812D01*
X193004081Y-20605919D01*
X192793188Y-20432843D01*
X192582073Y-20320000D01*
X192793188Y-20207157D01*
X193004081Y-20034081D01*
X193177157Y-19823188D01*
X193305764Y-19582581D01*
X193384960Y-19321507D01*
X193411701Y-19050000D01*
X193384960Y-18778493D01*
X193305764Y-18517419D01*
X193177157Y-18276812D01*
X193004081Y-18065919D01*
X192793188Y-17892843D01*
X192582073Y-17780000D01*
X192793188Y-17667157D01*
X193004081Y-17494081D01*
X193177157Y-17283188D01*
X193305764Y-17042581D01*
X193384960Y-16781507D01*
X193411701Y-16510000D01*
X193384960Y-16238493D01*
X193305764Y-15977419D01*
X193177157Y-15736812D01*
X193004081Y-15525919D01*
X192793188Y-15352843D01*
X192584972Y-15241549D01*
X192641724Y-15219968D01*
X192873634Y-15074658D01*
X193072740Y-14886897D01*
X193231390Y-14663900D01*
X193343487Y-14414236D01*
X193362318Y-14311185D01*
X193239656Y-14097000D01*
X191897000Y-14097000D01*
X191897000Y-14117000D01*
X191643000Y-14117000D01*
X191643000Y-14097000D01*
X190300344Y-14097000D01*
X190177682Y-14311185D01*
X190196513Y-14414236D01*
X190308610Y-14663900D01*
X190467260Y-14886897D01*
X190666366Y-15074658D01*
X190898276Y-15219968D01*
X190955028Y-15241549D01*
X190746812Y-15352843D01*
X190535919Y-15525919D01*
X190362843Y-15736812D01*
X190234236Y-15977419D01*
X190155040Y-16238493D01*
X190128299Y-16510000D01*
X185660000Y-16510000D01*
X185660000Y-9032279D01*
X185717192Y-8448990D01*
X185877216Y-7918964D01*
X186137140Y-7430121D01*
X186487065Y-7001069D01*
X186913664Y-6648156D01*
X187400681Y-6384827D01*
X187929578Y-6221106D01*
X188510960Y-6160000D01*
X190968846Y-6160000D01*
X190968846Y-7990866D01*
G04 #@! TA.AperFunction,Conductor*
D24*
G36*
X190968846Y-7990866D02*
G01*
X190863549Y-7736657D01*
X190571668Y-7299826D01*
X190200174Y-6928332D01*
X189763343Y-6636451D01*
X189277963Y-6435400D01*
X188762686Y-6332905D01*
X188237314Y-6332905D01*
X187722037Y-6435400D01*
X187236657Y-6636451D01*
X186799826Y-6928332D01*
X186428332Y-7299826D01*
X186136451Y-7736657D01*
X185935400Y-8222037D01*
X185832905Y-8737314D01*
X185832905Y-9262686D01*
X185935400Y-9777963D01*
X186136451Y-10263343D01*
X186428332Y-10700174D01*
X186799826Y-11071668D01*
X187236657Y-11363549D01*
X187722037Y-11564600D01*
X188237314Y-11667095D01*
X188762686Y-11667095D01*
X189277963Y-11564600D01*
X189763343Y-11363549D01*
X190200174Y-11071668D01*
X190571668Y-10700174D01*
X190863549Y-10263343D01*
X190968846Y-10009134D01*
X190968846Y-12693196D01*
X190898276Y-12720032D01*
X190666366Y-12865342D01*
X190467260Y-13053103D01*
X190308610Y-13276100D01*
X190196513Y-13525764D01*
X190177682Y-13628815D01*
X190300344Y-13843000D01*
X191643000Y-13843000D01*
X191643000Y-13823000D01*
X191897000Y-13823000D01*
X191897000Y-13843000D01*
X193239656Y-13843000D01*
X193362318Y-13628815D01*
X193343487Y-13525764D01*
X193231390Y-13276100D01*
X193072740Y-13053103D01*
X192873634Y-12865342D01*
X192812441Y-12827000D01*
X216129562Y-12827000D01*
X215935919Y-12985919D01*
X215762843Y-13196812D01*
X215634236Y-13437419D01*
X215555040Y-13698493D01*
X215528299Y-13970000D01*
X215555040Y-14241507D01*
X215617567Y-14447631D01*
X212849003Y-17216196D01*
X212819999Y-17239999D01*
X212784555Y-17283188D01*
X212725026Y-17355724D01*
X212654455Y-17487753D01*
X212654454Y-17487754D01*
X212610997Y-17631015D01*
X212600000Y-17742668D01*
X212600000Y-17742678D01*
X212596324Y-17780000D01*
X212600000Y-17817322D01*
X212600001Y-24809079D01*
X212503377Y-24888377D01*
X212413822Y-24997500D01*
X211766178Y-24997500D01*
X211676623Y-24888377D01*
X211543942Y-24779488D01*
X211392567Y-24698577D01*
X211228316Y-24648752D01*
X211057500Y-24631928D01*
X210582500Y-24631928D01*
X210411684Y-24648752D01*
X210247433Y-24698577D01*
X210096058Y-24779488D01*
X209963377Y-24888377D01*
X209854488Y-25021058D01*
X209773577Y-25172433D01*
X209723752Y-25336684D01*
X209706928Y-25507500D01*
X209706928Y-25910000D01*
X209587333Y-25910000D01*
X209550000Y-25906323D01*
X209512667Y-25910000D01*
X209401014Y-25920997D01*
X209257753Y-25964454D01*
X209125724Y-26035026D01*
X209009999Y-26129999D01*
X208995001Y-26148274D01*
X208995001Y-20947323D01*
X208998677Y-20910000D01*
X208995001Y-20872677D01*
X208995001Y-20872668D01*
X208984004Y-20761015D01*
X208940547Y-20617754D01*
X208914314Y-20568676D01*
X208869975Y-20485724D01*
X208798800Y-20398998D01*
X208775002Y-20370000D01*
X208746005Y-20346203D01*
X208493731Y-20093930D01*
X208545000Y-19836184D01*
X208545000Y-19533816D01*
X208486011Y-19237257D01*
X208370299Y-18957905D01*
X208202312Y-18706495D01*
X207988505Y-18492688D01*
X207737095Y-18324701D01*
X207457743Y-18208989D01*
X207161184Y-18150000D01*
X206858816Y-18150000D01*
X206562257Y-18208989D01*
X206282905Y-18324701D01*
X206031495Y-18492688D01*
X205817688Y-18706495D01*
X205649701Y-18957905D01*
X205533989Y-19237257D01*
X205475000Y-19533816D01*
X205475000Y-19836184D01*
X205533989Y-20132743D01*
X205649701Y-20412095D01*
X205817688Y-20663505D01*
X205884127Y-20729944D01*
X205865820Y-20735498D01*
X205755506Y-20794463D01*
X205658815Y-20873815D01*
X205579463Y-20970506D01*
X205520498Y-21080820D01*
X205484188Y-21200518D01*
X205471928Y-21325000D01*
X205471928Y-21465000D01*
X204298052Y-21465000D01*
X204296248Y-21446684D01*
X204246423Y-21282433D01*
X204165512Y-21131058D01*
X204076188Y-21022217D01*
X204126185Y-20981185D01*
X204205537Y-20884494D01*
X204264502Y-20774180D01*
X204300812Y-20654482D01*
X204313072Y-20530000D01*
X204310000Y-20328250D01*
X204151250Y-20169500D01*
X203327000Y-20169500D01*
X203327000Y-20189500D01*
X203073000Y-20189500D01*
X203073000Y-20169500D01*
X202248750Y-20169500D01*
X202090000Y-20328250D01*
X202086928Y-20530000D01*
X202099188Y-20654482D01*
X202135498Y-20774180D01*
X202194463Y-20884494D01*
X202273815Y-20981185D01*
X202323812Y-21022217D01*
X202234488Y-21131058D01*
X202153577Y-21282433D01*
X202103752Y-21446684D01*
X202086928Y-21617500D01*
X202086928Y-22117500D01*
X202103752Y-22288316D01*
X202153577Y-22452567D01*
X202234488Y-22603942D01*
X202343377Y-22736623D01*
X202476058Y-22845512D01*
X202627433Y-22926423D01*
X202791684Y-22976248D01*
X202962500Y-22993072D01*
X203437500Y-22993072D01*
X203519811Y-22984965D01*
X203520167Y-22985000D01*
X203520176Y-22985000D01*
X203557499Y-22988676D01*
X203594822Y-22985000D01*
X205471928Y-22985000D01*
X205471928Y-23125000D01*
X205484188Y-23249482D01*
X205520498Y-23369180D01*
X205579463Y-23479494D01*
X205658815Y-23576185D01*
X205755506Y-23655537D01*
X205865820Y-23714502D01*
X205985518Y-23750812D01*
X206110000Y-23763072D01*
X207475001Y-23763072D01*
X207475002Y-37485705D01*
X201616108Y-43344600D01*
X201516623Y-43223377D01*
X201463768Y-43180000D01*
X201516623Y-43136623D01*
X201625512Y-43003942D01*
X201706423Y-42852567D01*
X201756248Y-42688316D01*
X201773072Y-42517500D01*
X201773072Y-42017500D01*
X201756248Y-41846684D01*
X201706423Y-41682433D01*
X201625512Y-41531058D01*
X201516623Y-41398377D01*
X201383942Y-41289488D01*
X201232567Y-41208577D01*
X201068316Y-41158752D01*
X200897500Y-41141928D01*
X200422500Y-41141928D01*
X200339868Y-41150067D01*
X199515000Y-40325199D01*
X199515000Y-25079801D01*
X200158503Y-24436299D01*
X200187501Y-24412501D01*
X200282474Y-24296776D01*
X200353046Y-24164747D01*
X200396503Y-24021486D01*
X200407500Y-23909833D01*
X200411177Y-23872500D01*
X200407500Y-23835167D01*
X200407500Y-22004833D01*
X200411177Y-21967500D01*
X200396503Y-21818514D01*
X200353046Y-21675253D01*
X200321132Y-21615547D01*
X200282474Y-21543224D01*
X200187501Y-21427499D01*
X200158498Y-21403697D01*
X199833804Y-21079003D01*
X199810001Y-21049999D01*
X199694276Y-20955026D01*
X199562247Y-20884454D01*
X199523052Y-20872565D01*
X199528377Y-20864421D01*
X199613900Y-20627383D01*
X199488244Y-20447000D01*
X198747560Y-20447000D01*
X198714360Y-20436929D01*
X198542477Y-20420000D01*
X197973000Y-20420000D01*
X197973000Y-20220000D01*
X198542477Y-20220000D01*
X198714360Y-20203071D01*
X198747560Y-20193000D01*
X199488244Y-20193000D01*
X199613900Y-20012617D01*
X199528377Y-19775579D01*
X199470846Y-19687596D01*
X199541720Y-19555000D01*
X202086928Y-19555000D01*
X202090000Y-19756750D01*
X202248750Y-19915500D01*
X203073000Y-19915500D01*
X203073000Y-19078750D01*
X203327000Y-19078750D01*
X203327000Y-19915500D01*
X204151250Y-19915500D01*
X204310000Y-19756750D01*
X204313072Y-19555000D01*
X204300812Y-19430518D01*
X204264502Y-19310820D01*
X204205537Y-19200506D01*
X204126185Y-19103815D01*
X204029494Y-19024463D01*
X203919180Y-18965498D01*
X203799482Y-18929188D01*
X203675000Y-18916928D01*
X203485750Y-18920000D01*
X203327000Y-19078750D01*
X203073000Y-19078750D01*
X202914250Y-18920000D01*
X202725000Y-18916928D01*
X202600518Y-18929188D01*
X202480820Y-18965498D01*
X202370506Y-19024463D01*
X202273815Y-19103815D01*
X202194463Y-19200506D01*
X202135498Y-19310820D01*
X202099188Y-19430518D01*
X202086928Y-19555000D01*
X199541720Y-19555000D01*
X199571169Y-19499906D01*
X199638071Y-19279360D01*
X199660661Y-19050000D01*
X199638071Y-18820640D01*
X199571169Y-18600094D01*
X199462526Y-18396838D01*
X199316318Y-18218682D01*
X199138162Y-18072474D01*
X198934906Y-17963831D01*
X198714360Y-17896929D01*
X198542477Y-17880000D01*
X197697523Y-17880000D01*
X197525640Y-17896929D01*
X197305094Y-17963831D01*
X197101838Y-18072474D01*
X196923682Y-18218682D01*
X196859216Y-18297234D01*
X196821014Y-18300997D01*
X196677753Y-18344454D01*
X196545724Y-18415026D01*
X196429999Y-18509999D01*
X196406201Y-18538998D01*
X195703998Y-19241201D01*
X195675000Y-19264999D01*
X195651202Y-19293997D01*
X195651201Y-19293998D01*
X195580026Y-19380724D01*
X195509454Y-19512754D01*
X195465998Y-19656015D01*
X195451324Y-19805000D01*
X195455001Y-19842332D01*
X195455000Y-23457677D01*
X195451324Y-23495000D01*
X195455000Y-23532322D01*
X195455000Y-23532332D01*
X195465997Y-23643985D01*
X195498402Y-23750812D01*
X195509454Y-23787246D01*
X195580026Y-23919276D01*
X195611484Y-23957607D01*
X195674999Y-24035001D01*
X195704003Y-24058804D01*
X196725001Y-25079803D01*
X196725000Y-40323788D01*
X196533789Y-40515000D01*
X195287307Y-40515000D01*
X195249982Y-40511324D01*
X195212657Y-40515000D01*
X195212649Y-40515000D01*
X195100996Y-40525997D01*
X194957735Y-40569454D01*
X194825706Y-40640026D01*
X194709981Y-40734999D01*
X194686178Y-40764003D01*
X194268989Y-41181192D01*
X194239991Y-41204990D01*
X194216193Y-41233988D01*
X194216192Y-41233989D01*
X194145017Y-41320715D01*
X194074445Y-41452745D01*
X194058951Y-41503824D01*
X194030989Y-41596005D01*
X194020818Y-41699276D01*
X194016315Y-41744991D01*
X194019992Y-41782323D01*
X194019991Y-42713176D01*
X194016315Y-42750499D01*
X194019991Y-42787824D01*
X194019991Y-42787832D01*
X194030988Y-42899485D01*
X194074445Y-43042746D01*
X194145017Y-43174775D01*
X194239990Y-43290501D01*
X194268993Y-43314303D01*
X194287190Y-43332500D01*
X192841510Y-43332500D01*
X192793188Y-43292843D01*
X192582073Y-43180000D01*
X192793188Y-43067157D01*
X193004081Y-42894081D01*
X193177157Y-42683188D01*
X193305764Y-42442581D01*
X193384960Y-42181507D01*
X193411701Y-41910000D01*
X193384960Y-41638493D01*
X193305764Y-41377419D01*
X193177157Y-41136812D01*
X193004081Y-40925919D01*
X192793188Y-40752843D01*
X192582073Y-40640000D01*
X192793188Y-40527157D01*
X193004081Y-40354081D01*
X193177157Y-40143188D01*
X193305764Y-39902581D01*
X193384960Y-39641507D01*
X193411701Y-39370000D01*
X193384960Y-39098493D01*
X193305764Y-38837419D01*
X193177157Y-38596812D01*
X193004081Y-38385919D01*
X192793188Y-38212843D01*
X192582073Y-38100000D01*
X192793188Y-37987157D01*
X193004081Y-37814081D01*
X193177157Y-37603188D01*
X193305764Y-37362581D01*
X193384960Y-37101507D01*
X193411701Y-36830000D01*
X193384960Y-36558493D01*
X193305764Y-36297419D01*
X193177157Y-36056812D01*
X193004081Y-35845919D01*
X192793188Y-35672843D01*
X192582073Y-35560000D01*
X192793188Y-35447157D01*
X193004081Y-35274081D01*
X193177157Y-35063188D01*
X193305764Y-34822581D01*
X193384960Y-34561507D01*
X193411701Y-34290000D01*
X193384960Y-34018493D01*
X193305764Y-33757419D01*
X193177157Y-33516812D01*
X193004081Y-33305919D01*
X192793188Y-33132843D01*
X192582073Y-33020000D01*
X192793188Y-32907157D01*
X193004081Y-32734081D01*
X193177157Y-32523188D01*
X193305764Y-32282581D01*
X193384960Y-32021507D01*
X193411701Y-31750000D01*
X193384960Y-31478493D01*
X193305764Y-31217419D01*
X193177157Y-30976812D01*
X193004081Y-30765919D01*
X192793188Y-30592843D01*
X192584972Y-30481549D01*
X192641724Y-30459968D01*
X192873634Y-30314658D01*
X193072740Y-30126897D01*
X193231390Y-29903900D01*
X193343487Y-29654236D01*
X193362318Y-29551185D01*
X193239656Y-29337000D01*
X191897000Y-29337000D01*
X191897000Y-29357000D01*
X191643000Y-29357000D01*
X191643000Y-29337000D01*
X190300344Y-29337000D01*
X190177682Y-29551185D01*
X190196513Y-29654236D01*
X190308610Y-29903900D01*
X190467260Y-30126897D01*
X190666366Y-30314658D01*
X190898276Y-30459968D01*
X190955028Y-30481549D01*
X190746812Y-30592843D01*
X190535919Y-30765919D01*
X190362843Y-30976812D01*
X190234236Y-31217419D01*
X190155040Y-31478493D01*
X190128299Y-31750000D01*
X190155040Y-32021507D01*
X190234236Y-32282581D01*
X190362843Y-32523188D01*
X190535919Y-32734081D01*
X190746812Y-32907157D01*
X190957927Y-33020000D01*
X190746812Y-33132843D01*
X190535919Y-33305919D01*
X190362843Y-33516812D01*
X190234236Y-33757419D01*
X190155040Y-34018493D01*
X190128299Y-34290000D01*
X190155040Y-34561507D01*
X190234236Y-34822581D01*
X190362843Y-35063188D01*
X190535919Y-35274081D01*
X190746812Y-35447157D01*
X190957927Y-35560000D01*
X190746812Y-35672843D01*
X190535919Y-35845919D01*
X190362843Y-36056812D01*
X190234236Y-36297419D01*
X190155040Y-36558493D01*
X190128299Y-36830000D01*
X190155040Y-37101507D01*
X190234236Y-37362581D01*
X190362843Y-37603188D01*
X190535919Y-37814081D01*
X190746812Y-37987157D01*
X190957927Y-38100000D01*
X190746812Y-38212843D01*
X190535919Y-38385919D01*
X190362843Y-38596812D01*
X190234236Y-38837419D01*
X190155040Y-39098493D01*
X190128299Y-39370000D01*
X190155040Y-39641507D01*
X190234236Y-39902581D01*
X190362843Y-40143188D01*
X190535919Y-40354081D01*
X190746812Y-40527157D01*
X190957927Y-40640000D01*
X190746812Y-40752843D01*
X190535919Y-40925919D01*
X190362843Y-41136812D01*
X190234236Y-41377419D01*
X190155040Y-41638493D01*
X190128299Y-41910000D01*
X190155040Y-42181507D01*
X190234236Y-42442581D01*
X190362843Y-42683188D01*
X190535919Y-42894081D01*
X190746812Y-43067157D01*
X190957927Y-43180000D01*
X190746812Y-43292843D01*
X190535919Y-43465919D01*
X190362843Y-43676812D01*
X190234236Y-43917419D01*
X190155040Y-44178493D01*
X190128299Y-44450000D01*
X190155040Y-44721507D01*
X190234236Y-44982581D01*
X190362843Y-45223188D01*
X190535919Y-45434081D01*
X190746812Y-45607157D01*
X190957927Y-45720000D01*
X190746812Y-45832843D01*
X190535919Y-46005919D01*
X190362843Y-46216812D01*
X190234236Y-46457419D01*
X190155040Y-46718493D01*
X190128299Y-46990000D01*
X190155040Y-47261507D01*
X190217567Y-47467632D01*
X189933988Y-47751211D01*
X189904990Y-47775009D01*
X189881192Y-47804007D01*
X189881191Y-47804008D01*
X189810016Y-47890734D01*
X189739444Y-48022764D01*
X189717636Y-48094658D01*
X189696287Y-48165040D01*
X189695988Y-48166025D01*
X189681314Y-48315010D01*
X189684991Y-48352342D01*
X189684990Y-52477960D01*
X189681314Y-52515283D01*
X189684990Y-52552605D01*
X189684990Y-52552615D01*
X189695987Y-52664268D01*
X189728599Y-52771776D01*
X189739444Y-52807529D01*
X189810016Y-52939559D01*
X189845236Y-52982474D01*
X189904989Y-53055284D01*
X189933992Y-53079086D01*
X190510922Y-53656018D01*
X190511070Y-53656198D01*
X190362843Y-53836812D01*
X190234236Y-54077419D01*
X190155040Y-54338493D01*
X190128299Y-54610000D01*
X190155040Y-54881507D01*
X190234236Y-55142581D01*
X190362843Y-55383188D01*
X190535919Y-55594081D01*
X190746812Y-55767157D01*
X190957927Y-55880000D01*
X190746812Y-55992843D01*
X190535919Y-56165919D01*
X190362843Y-56376812D01*
X190234236Y-56617419D01*
X190155040Y-56878493D01*
X190128299Y-57150000D01*
X190155040Y-57421507D01*
X190234236Y-57682581D01*
X190362843Y-57923188D01*
X190535919Y-58134081D01*
X190746812Y-58307157D01*
X190957927Y-58420000D01*
X190746812Y-58532843D01*
X190535919Y-58705919D01*
X190362843Y-58916812D01*
X190234236Y-59157419D01*
X190155040Y-59418493D01*
X190128299Y-59690000D01*
X190155040Y-59961507D01*
X190234236Y-60222581D01*
X190362843Y-60463188D01*
X190535919Y-60674081D01*
X190746812Y-60847157D01*
X190987419Y-60975764D01*
X191248493Y-61054960D01*
X191451963Y-61075000D01*
X192088037Y-61075000D01*
X192291507Y-61054960D01*
X192552581Y-60975764D01*
X192793188Y-60847157D01*
X193004081Y-60674081D01*
X193177157Y-60463188D01*
X193305764Y-60222581D01*
X193384960Y-59961507D01*
X193411701Y-59690000D01*
X193384960Y-59418493D01*
X193305764Y-59157419D01*
X193177157Y-58916812D01*
X193004081Y-58705919D01*
X192793188Y-58532843D01*
X192582073Y-58420000D01*
X192793188Y-58307157D01*
X193004081Y-58134081D01*
X193177157Y-57923188D01*
X193305764Y-57682581D01*
X193384960Y-57421507D01*
X193411701Y-57150000D01*
X193384960Y-56878493D01*
X193305764Y-56617419D01*
X193177157Y-56376812D01*
X193004081Y-56165919D01*
X192793188Y-55992843D01*
X192582073Y-55880000D01*
X192793188Y-55767157D01*
X193004081Y-55594081D01*
X193177157Y-55383188D01*
X193305764Y-55142581D01*
X193384960Y-54881507D01*
X193411701Y-54610000D01*
X193384960Y-54338493D01*
X193305764Y-54077419D01*
X193184113Y-53849826D01*
X193314776Y-53779984D01*
X193430501Y-53685011D01*
X193454304Y-53656007D01*
X208155000Y-38955312D01*
X208155001Y-52310167D01*
X208151324Y-52347500D01*
X208165998Y-52496485D01*
X208209454Y-52639746D01*
X208280026Y-52771776D01*
X208346491Y-52852763D01*
X208375000Y-52887501D01*
X208403998Y-52911299D01*
X208781928Y-53289229D01*
X208781928Y-53577500D01*
X208798752Y-53748316D01*
X208848577Y-53912567D01*
X208929488Y-54063942D01*
X209038377Y-54196623D01*
X209147500Y-54286178D01*
X209147501Y-60922697D01*
X208600199Y-61470000D01*
X201967322Y-61470000D01*
X201929999Y-61466324D01*
X201892676Y-61470000D01*
X201892667Y-61470000D01*
X201781014Y-61480997D01*
X201637753Y-61524454D01*
X201505724Y-61595026D01*
X201505722Y-61595027D01*
X201505723Y-61595027D01*
X201418996Y-61666201D01*
X201418992Y-61666205D01*
X201389999Y-61689999D01*
X201366205Y-61718992D01*
X199756408Y-63328790D01*
X199536260Y-63285000D01*
X199243740Y-63285000D01*
X198956842Y-63342068D01*
X198686589Y-63454010D01*
X198443368Y-63616525D01*
X198236525Y-63823368D01*
X198120000Y-63997760D01*
X198003475Y-63823368D01*
X197796632Y-63616525D01*
X197553411Y-63454010D01*
X197283158Y-63342068D01*
X196996260Y-63285000D01*
X196703740Y-63285000D01*
X196416842Y-63342068D01*
X196146589Y-63454010D01*
X195903368Y-63616525D01*
X195771513Y-63748380D01*
X195749502Y-63675820D01*
X195690537Y-63565506D01*
X195611185Y-63468815D01*
X195514494Y-63389463D01*
X195404180Y-63330498D01*
X195284482Y-63294188D01*
X195160000Y-63281928D01*
X194595750Y-63285000D01*
X194437000Y-63443750D01*
X194437000Y-64643000D01*
X194457000Y-64643000D01*
X194457000Y-64897000D01*
X194437000Y-64897000D01*
X194437000Y-66096250D01*
X194595750Y-66255000D01*
X195160000Y-66258072D01*
X195284482Y-66245812D01*
X195404180Y-66209502D01*
X195514494Y-66150537D01*
X195611185Y-66071185D01*
X195690537Y-65974494D01*
X195749502Y-65864180D01*
X195771513Y-65791620D01*
X195903368Y-65923475D01*
X196146589Y-66085990D01*
X196416842Y-66197932D01*
X196703740Y-66255000D01*
X196996260Y-66255000D01*
X197283158Y-66197932D01*
X197553411Y-66085990D01*
X197796632Y-65923475D01*
X198003475Y-65716632D01*
X198120000Y-65542240D01*
X198236525Y-65716632D01*
X198443368Y-65923475D01*
X198686589Y-66085990D01*
X198956842Y-66197932D01*
X199243740Y-66255000D01*
X199536260Y-66255000D01*
X199823158Y-66197932D01*
X200093411Y-66085990D01*
X200336632Y-65923475D01*
X200543475Y-65716632D01*
X200705990Y-65473411D01*
X200817932Y-65203158D01*
X200875000Y-64916260D01*
X200875000Y-64623740D01*
X200831210Y-64403592D01*
X202244803Y-62990000D01*
X203074420Y-62990000D01*
X202574950Y-63489470D01*
X202541183Y-63517182D01*
X202513470Y-63550950D01*
X202513467Y-63550953D01*
X202430589Y-63651940D01*
X202348411Y-63805686D01*
X202297804Y-63972509D01*
X202280718Y-64145999D01*
X202285000Y-64189477D01*
X202284999Y-65350531D01*
X202280718Y-65394001D01*
X202284999Y-65437470D01*
X202284999Y-65437477D01*
X202294474Y-65533676D01*
X202297804Y-65567491D01*
X202300368Y-65575942D01*
X202348410Y-65734313D01*
X202430588Y-65888059D01*
X202541182Y-66022818D01*
X202574955Y-66050535D01*
X203189469Y-66665050D01*
X203217182Y-66698818D01*
X203250950Y-66726531D01*
X203250952Y-66726533D01*
X203280626Y-66750886D01*
X203351940Y-66809412D01*
X203505686Y-66891590D01*
X203672509Y-66942196D01*
X203802522Y-66955001D01*
X203802532Y-66955001D01*
X203845998Y-66959282D01*
X203889464Y-66955001D01*
X207523423Y-66955001D01*
X209383478Y-68815057D01*
X209375000Y-68857680D01*
X209375000Y-69142320D01*
X209430530Y-69421491D01*
X209539457Y-69684464D01*
X209697595Y-69921134D01*
X209898866Y-70122405D01*
X210135536Y-70280543D01*
X210398509Y-70389470D01*
X210677680Y-70445000D01*
X210962320Y-70445000D01*
X211241491Y-70389470D01*
X211504464Y-70280543D01*
X211741134Y-70122405D01*
X211942405Y-69921134D01*
X211966549Y-69885000D01*
X214166531Y-69885000D01*
X214210000Y-69889281D01*
X214253469Y-69885000D01*
X214253477Y-69885000D01*
X214383490Y-69872195D01*
X214550313Y-69821589D01*
X214704059Y-69739411D01*
X214706614Y-69737314D01*
X217332905Y-69737314D01*
X217332905Y-70262686D01*
X217435400Y-70777963D01*
X217636451Y-71263343D01*
X217928332Y-71700174D01*
X218299826Y-72071668D01*
X218736657Y-72363549D01*
X219222037Y-72564600D01*
X219737314Y-72667095D01*
X220262686Y-72667095D01*
X220777963Y-72564600D01*
X221263343Y-72363549D01*
X221700174Y-72071668D01*
X222071668Y-71700174D01*
X222363549Y-71263343D01*
X222564600Y-70777963D01*
X222667095Y-70262686D01*
X222667095Y-69737314D01*
X222564600Y-69222037D01*
X222363549Y-68736657D01*
X222071668Y-68299826D01*
X221700174Y-67928332D01*
X221263343Y-67636451D01*
X220777963Y-67435400D01*
X220262686Y-67332905D01*
X219737314Y-67332905D01*
X219222037Y-67435400D01*
X218736657Y-67636451D01*
X218299826Y-67928332D01*
X217928332Y-68299826D01*
X217636451Y-68736657D01*
X217435400Y-69222037D01*
X217332905Y-69737314D01*
X214706614Y-69737314D01*
X214838817Y-69628817D01*
X214866534Y-69595044D01*
X221396040Y-63065539D01*
X221468740Y-63080000D01*
X221761260Y-63080000D01*
X222048158Y-63022932D01*
X222318411Y-62910990D01*
X222561632Y-62748475D01*
X222768475Y-62541632D01*
X222840000Y-62434587D01*
X222840000Y-69967721D01*
X222782808Y-70551010D01*
X222622783Y-71081036D01*
X222362860Y-71569880D01*
X222012935Y-71998931D01*
X221586335Y-72351845D01*
X221099320Y-72615173D01*
X220570422Y-72778894D01*
X219989040Y-72840000D01*
X208860922Y-72840000D01*
X209004464Y-72780543D01*
X209241134Y-72622405D01*
X209442405Y-72421134D01*
X209600543Y-72184464D01*
X209709470Y-71921491D01*
X209765000Y-71642320D01*
X209765000Y-71357680D01*
X209709470Y-71078509D01*
X209600543Y-70815536D01*
X209442405Y-70578866D01*
X209241134Y-70377595D01*
X209004464Y-70219457D01*
X208741491Y-70110530D01*
X208462320Y-70055000D01*
X208177680Y-70055000D01*
X207898509Y-70110530D01*
X207635536Y-70219457D01*
X207398866Y-70377595D01*
X207197595Y-70578866D01*
X207039457Y-70815536D01*
X206930530Y-71078509D01*
X206875000Y-71357680D01*
X206875000Y-71642320D01*
X206930530Y-71921491D01*
X207039457Y-72184464D01*
X207197595Y-72421134D01*
X207398866Y-72622405D01*
X207635536Y-72780543D01*
X207779078Y-72840000D01*
X188532279Y-72840000D01*
X187948990Y-72782808D01*
X187418964Y-72622783D01*
X186930120Y-72362860D01*
X186501069Y-72012935D01*
X186148155Y-71586335D01*
X185884827Y-71099320D01*
X185721106Y-70570422D01*
X185660000Y-69989040D01*
X185660000Y-69737314D01*
X185832905Y-69737314D01*
X185832905Y-70262686D01*
X185935400Y-70777963D01*
X186136451Y-71263343D01*
X186428332Y-71700174D01*
X186799826Y-72071668D01*
X187236657Y-72363549D01*
X187722037Y-72564600D01*
X188237314Y-72667095D01*
X188762686Y-72667095D01*
X189277963Y-72564600D01*
X189763343Y-72363549D01*
X190200174Y-72071668D01*
X190571668Y-71700174D01*
X190863549Y-71263343D01*
X191064600Y-70777963D01*
X191167095Y-70262686D01*
X191167095Y-69737314D01*
X191064600Y-69222037D01*
X190913679Y-68857680D01*
X204375000Y-68857680D01*
X204375000Y-69142320D01*
X204430530Y-69421491D01*
X204539457Y-69684464D01*
X204697595Y-69921134D01*
X204898866Y-70122405D01*
X205135536Y-70280543D01*
X205398509Y-70389470D01*
X205677680Y-70445000D01*
X205962320Y-70445000D01*
X206241491Y-70389470D01*
X206504464Y-70280543D01*
X206741134Y-70122405D01*
X206942405Y-69921134D01*
X207100543Y-69684464D01*
X207209470Y-69421491D01*
X207265000Y-69142320D01*
X207265000Y-68857680D01*
X207209470Y-68578509D01*
X207100543Y-68315536D01*
X206942405Y-68078866D01*
X206741134Y-67877595D01*
X206504464Y-67719457D01*
X206241491Y-67610530D01*
X205962320Y-67555000D01*
X205677680Y-67555000D01*
X205398509Y-67610530D01*
X205135536Y-67719457D01*
X204898866Y-67877595D01*
X204697595Y-68078866D01*
X204539457Y-68315536D01*
X204430530Y-68578509D01*
X204375000Y-68857680D01*
X190913679Y-68857680D01*
X190863549Y-68736657D01*
X190571668Y-68299826D01*
X190200174Y-67928332D01*
X189763343Y-67636451D01*
X189277963Y-67435400D01*
X188762686Y-67332905D01*
X188237314Y-67332905D01*
X187722037Y-67435400D01*
X187236657Y-67636451D01*
X186799826Y-67928332D01*
X186428332Y-68299826D01*
X186136451Y-68736657D01*
X185935400Y-69222037D01*
X185832905Y-69737314D01*
X185660000Y-69737314D01*
X185660000Y-65620000D01*
X192821928Y-65620000D01*
X192834188Y-65744482D01*
X192870498Y-65864180D01*
X192929463Y-65974494D01*
X193008815Y-66071185D01*
X193105506Y-66150537D01*
X193215820Y-66209502D01*
X193335518Y-66245812D01*
X193460000Y-66258072D01*
X194024250Y-66255000D01*
X194183000Y-66096250D01*
X194183000Y-64897000D01*
X192983750Y-64897000D01*
X192825000Y-65055750D01*
X192821928Y-65620000D01*
X185660000Y-65620000D01*
X185660000Y-63920000D01*
X192821928Y-63920000D01*
X192825000Y-64484250D01*
X192983750Y-64643000D01*
X194183000Y-64643000D01*
X194183000Y-63443750D01*
X194024250Y-63285000D01*
X193460000Y-63281928D01*
X193335518Y-63294188D01*
X193215820Y-63330498D01*
X193105506Y-63389463D01*
X193008815Y-63468815D01*
X192929463Y-63565506D01*
X192870498Y-63675820D01*
X192834188Y-63795518D01*
X192821928Y-63920000D01*
X185660000Y-63920000D01*
X185660000Y-30967581D01*
X185656777Y-30934857D01*
X185656777Y-30925124D01*
X185655814Y-30915959D01*
X185639498Y-30770497D01*
X185627059Y-30711976D01*
X185615442Y-30653305D01*
X185612717Y-30644502D01*
X185568458Y-30504980D01*
X185544892Y-30449997D01*
X185522097Y-30394691D01*
X185517714Y-30386585D01*
X185447196Y-30258316D01*
X185413453Y-30209036D01*
X185380302Y-30159139D01*
X185374427Y-30152039D01*
X185280340Y-30039908D01*
X185237606Y-29998060D01*
X185195444Y-29955603D01*
X185188303Y-29949779D01*
X185127000Y-29900491D01*
X185127000Y-27099786D01*
X185202877Y-27037015D01*
X185245018Y-26994579D01*
X185287767Y-26952716D01*
X185293641Y-26945616D01*
X185386154Y-26832184D01*
X185419246Y-26782375D01*
X185453053Y-26733003D01*
X185457436Y-26724896D01*
X185526155Y-26595655D01*
X185548940Y-26540374D01*
X185572517Y-26485364D01*
X185575242Y-26476561D01*
X185617548Y-26336434D01*
X185629164Y-26277768D01*
X185641603Y-26219247D01*
X185642566Y-26210082D01*
X185656850Y-26064406D01*
X185656850Y-26064402D01*
X185660000Y-26032419D01*
X185660000Y-16510000D01*
X190128299Y-16510000D01*
X190155040Y-16781507D01*
X190234236Y-17042581D01*
X190362843Y-17283188D01*
X190535919Y-17494081D01*
X190746812Y-17667157D01*
X190957927Y-17780000D01*
X190746812Y-17892843D01*
X190535919Y-18065919D01*
X190362843Y-18276812D01*
X190234236Y-18517419D01*
X190155040Y-18778493D01*
X190128299Y-19050000D01*
X190155040Y-19321507D01*
X190234236Y-19582581D01*
X190362843Y-19823188D01*
X190535919Y-20034081D01*
X190746812Y-20207157D01*
X190957927Y-20320000D01*
X190746812Y-20432843D01*
X190535919Y-20605919D01*
X190362843Y-20816812D01*
X190234236Y-21057419D01*
X190155040Y-21318493D01*
X190128299Y-21590000D01*
X190155040Y-21861507D01*
X190234236Y-22122581D01*
X190362843Y-22363188D01*
X190535919Y-22574081D01*
X190746812Y-22747157D01*
X190957927Y-22860000D01*
X190746812Y-22972843D01*
X190535919Y-23145919D01*
X190362843Y-23356812D01*
X190234236Y-23597419D01*
X190155040Y-23858493D01*
X190128299Y-24130000D01*
X190155040Y-24401507D01*
X190234236Y-24662581D01*
X190362843Y-24903188D01*
X190535919Y-25114081D01*
X190746812Y-25287157D01*
X190957927Y-25400000D01*
X190746812Y-25512843D01*
X190535919Y-25685919D01*
X190362843Y-25896812D01*
X190234236Y-26137419D01*
X190155040Y-26398493D01*
X190128299Y-26670000D01*
X190155040Y-26941507D01*
X190234236Y-27202581D01*
X190362843Y-27443188D01*
X190535919Y-27654081D01*
X190746812Y-27827157D01*
X190955028Y-27938451D01*
X190898276Y-27960032D01*
X190666366Y-28105342D01*
X190467260Y-28293103D01*
X190308610Y-28516100D01*
X190196513Y-28765764D01*
X190177682Y-28868815D01*
X190300344Y-29083000D01*
X191643000Y-29083000D01*
X191643000Y-29063000D01*
X191897000Y-29063000D01*
X191897000Y-29083000D01*
X193239656Y-29083000D01*
X193362318Y-28868815D01*
X193343487Y-28765764D01*
X193231390Y-28516100D01*
X193072740Y-28293103D01*
X192873634Y-28105342D01*
X192641724Y-27960032D01*
X192584972Y-27938451D01*
X192793188Y-27827157D01*
X193004081Y-27654081D01*
X193177157Y-27443188D01*
X193305764Y-27202581D01*
X193384960Y-26941507D01*
X193411701Y-26670000D01*
X193384960Y-26398493D01*
X193305764Y-26137419D01*
X193177157Y-25896812D01*
X193004081Y-25685919D01*
X192793188Y-25512843D01*
X192582073Y-25400000D01*
X192793188Y-25287157D01*
X193004081Y-25114081D01*
X193177157Y-24903188D01*
X193305764Y-24662581D01*
X193384960Y-24401507D01*
X193411701Y-24130000D01*
X193384960Y-23858493D01*
X193305764Y-23597419D01*
X193177157Y-23356812D01*
X193004081Y-23145919D01*
X192793188Y-22972843D01*
X192582073Y-22860000D01*
X192793188Y-22747157D01*
X193004081Y-22574081D01*
X193177157Y-22363188D01*
X193305764Y-22122581D01*
X193384960Y-21861507D01*
X193411701Y-21590000D01*
X193384960Y-21318493D01*
X193305764Y-21057419D01*
X193177157Y-20816812D01*
X193004081Y-20605919D01*
X192793188Y-20432843D01*
X192582073Y-20320000D01*
X192793188Y-20207157D01*
X193004081Y-20034081D01*
X193177157Y-19823188D01*
X193305764Y-19582581D01*
X193384960Y-19321507D01*
X193411701Y-19050000D01*
X193384960Y-18778493D01*
X193305764Y-18517419D01*
X193177157Y-18276812D01*
X193004081Y-18065919D01*
X192793188Y-17892843D01*
X192582073Y-17780000D01*
X192793188Y-17667157D01*
X193004081Y-17494081D01*
X193177157Y-17283188D01*
X193305764Y-17042581D01*
X193384960Y-16781507D01*
X193411701Y-16510000D01*
X193384960Y-16238493D01*
X193305764Y-15977419D01*
X193177157Y-15736812D01*
X193004081Y-15525919D01*
X192793188Y-15352843D01*
X192584972Y-15241549D01*
X192641724Y-15219968D01*
X192873634Y-15074658D01*
X193072740Y-14886897D01*
X193231390Y-14663900D01*
X193343487Y-14414236D01*
X193362318Y-14311185D01*
X193239656Y-14097000D01*
X191897000Y-14097000D01*
X191897000Y-14117000D01*
X191643000Y-14117000D01*
X191643000Y-14097000D01*
X190300344Y-14097000D01*
X190177682Y-14311185D01*
X190196513Y-14414236D01*
X190308610Y-14663900D01*
X190467260Y-14886897D01*
X190666366Y-15074658D01*
X190898276Y-15219968D01*
X190955028Y-15241549D01*
X190746812Y-15352843D01*
X190535919Y-15525919D01*
X190362843Y-15736812D01*
X190234236Y-15977419D01*
X190155040Y-16238493D01*
X190128299Y-16510000D01*
X185660000Y-16510000D01*
X185660000Y-9032279D01*
X185717192Y-8448990D01*
X185877216Y-7918964D01*
X186137140Y-7430121D01*
X186487065Y-7001069D01*
X186913664Y-6648156D01*
X187400681Y-6384827D01*
X187929578Y-6221106D01*
X188510960Y-6160000D01*
X190968846Y-6160000D01*
X190968846Y-7990866D01*
G37*
G04 #@! TD.AperFunction*
D23*
X220551010Y-6217192D02*
X221081036Y-6377216D01*
X221569879Y-6637140D01*
X221998931Y-6987065D01*
X222351844Y-7413664D01*
X222615173Y-7900681D01*
X222778894Y-8429578D01*
X222840001Y-9010970D01*
X222840000Y-57691292D01*
X222819494Y-57674463D01*
X222709180Y-57615498D01*
X222589482Y-57579188D01*
X222465000Y-57566928D01*
X221900750Y-57570000D01*
X221742000Y-57728750D01*
X221742000Y-58928000D01*
X221762000Y-58928000D01*
X221762000Y-59182000D01*
X221742000Y-59182000D01*
X221742000Y-59202000D01*
X221488000Y-59202000D01*
X221488000Y-59182000D01*
X220288750Y-59182000D01*
X220130000Y-59340750D01*
X220126928Y-59905000D01*
X220139188Y-60029482D01*
X220175498Y-60149180D01*
X220234463Y-60259494D01*
X220313815Y-60356185D01*
X220410506Y-60435537D01*
X220520820Y-60494502D01*
X220593380Y-60516513D01*
X220461525Y-60648368D01*
X220299010Y-60891589D01*
X220187068Y-61161842D01*
X220130000Y-61448740D01*
X220130000Y-61741260D01*
X220144461Y-61813960D01*
X213843422Y-68115000D01*
X211966549Y-68115000D01*
X211942405Y-68078866D01*
X211741134Y-67877595D01*
X211504464Y-67719457D01*
X211241491Y-67610530D01*
X210962320Y-67555000D01*
X210677680Y-67555000D01*
X210635057Y-67563478D01*
X209307419Y-66235840D01*
X209403740Y-66255000D01*
X209696260Y-66255000D01*
X209983158Y-66197932D01*
X210253411Y-66085990D01*
X210496632Y-65923475D01*
X210628487Y-65791620D01*
X210650498Y-65864180D01*
X210709463Y-65974494D01*
X210788815Y-66071185D01*
X210885506Y-66150537D01*
X210995820Y-66209502D01*
X211115518Y-66245812D01*
X211240000Y-66258072D01*
X212940000Y-66258072D01*
X213064482Y-66245812D01*
X213184180Y-66209502D01*
X213294494Y-66150537D01*
X213391185Y-66071185D01*
X213470537Y-65974494D01*
X213529502Y-65864180D01*
X213565812Y-65744482D01*
X213578072Y-65620000D01*
X213578072Y-64354999D01*
X215512681Y-64354999D01*
X215550003Y-64358675D01*
X215587325Y-64354999D01*
X215587336Y-64354999D01*
X215698989Y-64344002D01*
X215842250Y-64300545D01*
X215974279Y-64229973D01*
X216090004Y-64135000D01*
X216113807Y-64105996D01*
X219456023Y-60763781D01*
X219485021Y-60739983D01*
X219519887Y-60697499D01*
X219579994Y-60624259D01*
X219650566Y-60492229D01*
X219659375Y-60463188D01*
X219694023Y-60348968D01*
X219705020Y-60237315D01*
X219705020Y-60237306D01*
X219708696Y-60199983D01*
X219705020Y-60162660D01*
X219705020Y-58205000D01*
X220126928Y-58205000D01*
X220130000Y-58769250D01*
X220288750Y-58928000D01*
X221488000Y-58928000D01*
X221488000Y-57728750D01*
X221329250Y-57570000D01*
X220765000Y-57566928D01*
X220640518Y-57579188D01*
X220520820Y-57615498D01*
X220410506Y-57674463D01*
X220313815Y-57753815D01*
X220234463Y-57850506D01*
X220175498Y-57960820D01*
X220139188Y-58080518D01*
X220126928Y-58205000D01*
X219705020Y-58205000D01*
X219705020Y-26712052D01*
X219708696Y-26674727D01*
X219705020Y-26637402D01*
X219705020Y-26637394D01*
X219694023Y-26525741D01*
X219650566Y-26382480D01*
X219579994Y-26250451D01*
X219485021Y-26134726D01*
X219456024Y-26110929D01*
X218429087Y-25083992D01*
X218428930Y-25083802D01*
X218577157Y-24903188D01*
X218705764Y-24662581D01*
X218784960Y-24401507D01*
X218811701Y-24130000D01*
X218784960Y-23858493D01*
X218705764Y-23597419D01*
X218577157Y-23356812D01*
X218404081Y-23145919D01*
X218193188Y-22972843D01*
X217982073Y-22860000D01*
X218193188Y-22747157D01*
X218404081Y-22574081D01*
X218577157Y-22363188D01*
X218705764Y-22122581D01*
X218784960Y-21861507D01*
X218811701Y-21590000D01*
X218784960Y-21318493D01*
X218705764Y-21057419D01*
X218577157Y-20816812D01*
X218404081Y-20605919D01*
X218193188Y-20432843D01*
X217982073Y-20320000D01*
X218193188Y-20207157D01*
X218404081Y-20034081D01*
X218577157Y-19823188D01*
X218705764Y-19582581D01*
X218784960Y-19321507D01*
X218811701Y-19050000D01*
X218784960Y-18778493D01*
X218705764Y-18517419D01*
X218577157Y-18276812D01*
X218404081Y-18065919D01*
X218193188Y-17892843D01*
X217982073Y-17780000D01*
X218193188Y-17667157D01*
X218404081Y-17494081D01*
X218577157Y-17283188D01*
X218705764Y-17042581D01*
X218784960Y-16781507D01*
X218811701Y-16510000D01*
X218784960Y-16238493D01*
X218705764Y-15977419D01*
X218577157Y-15736812D01*
X218404081Y-15525919D01*
X218193188Y-15352843D01*
X217982073Y-15240000D01*
X218193188Y-15127157D01*
X218404081Y-14954081D01*
X218577157Y-14743188D01*
X218705764Y-14502581D01*
X218784960Y-14241507D01*
X218811701Y-13970000D01*
X218784960Y-13698493D01*
X218705764Y-13437419D01*
X218577157Y-13196812D01*
X218404081Y-12985919D01*
X218193188Y-12812843D01*
X217952581Y-12684236D01*
X217892846Y-12666116D01*
X217892846Y-10647065D01*
X217928332Y-10700174D01*
X218299826Y-11071668D01*
X218736657Y-11363549D01*
X219222037Y-11564600D01*
X219737314Y-11667095D01*
X220262686Y-11667095D01*
X220777963Y-11564600D01*
X221263343Y-11363549D01*
X221700174Y-11071668D01*
X222071668Y-10700174D01*
X222363549Y-10263343D01*
X222564600Y-9777963D01*
X222667095Y-9262686D01*
X222667095Y-8737314D01*
X222564600Y-8222037D01*
X222363549Y-7736657D01*
X222071668Y-7299826D01*
X221700174Y-6928332D01*
X221263343Y-6636451D01*
X220777963Y-6435400D01*
X220262686Y-6332905D01*
X219737314Y-6332905D01*
X219222037Y-6435400D01*
X218736657Y-6636451D01*
X218299826Y-6928332D01*
X217928332Y-7299826D01*
X217892846Y-7352935D01*
X217892846Y-6160000D01*
X219967721Y-6160000D01*
X220551010Y-6217192D01*
G04 #@! TA.AperFunction,Conductor*
D24*
G36*
X220551010Y-6217192D02*
G01*
X221081036Y-6377216D01*
X221569879Y-6637140D01*
X221998931Y-6987065D01*
X222351844Y-7413664D01*
X222615173Y-7900681D01*
X222778894Y-8429578D01*
X222840001Y-9010970D01*
X222840000Y-57691292D01*
X222819494Y-57674463D01*
X222709180Y-57615498D01*
X222589482Y-57579188D01*
X222465000Y-57566928D01*
X221900750Y-57570000D01*
X221742000Y-57728750D01*
X221742000Y-58928000D01*
X221762000Y-58928000D01*
X221762000Y-59182000D01*
X221742000Y-59182000D01*
X221742000Y-59202000D01*
X221488000Y-59202000D01*
X221488000Y-59182000D01*
X220288750Y-59182000D01*
X220130000Y-59340750D01*
X220126928Y-59905000D01*
X220139188Y-60029482D01*
X220175498Y-60149180D01*
X220234463Y-60259494D01*
X220313815Y-60356185D01*
X220410506Y-60435537D01*
X220520820Y-60494502D01*
X220593380Y-60516513D01*
X220461525Y-60648368D01*
X220299010Y-60891589D01*
X220187068Y-61161842D01*
X220130000Y-61448740D01*
X220130000Y-61741260D01*
X220144461Y-61813960D01*
X213843422Y-68115000D01*
X211966549Y-68115000D01*
X211942405Y-68078866D01*
X211741134Y-67877595D01*
X211504464Y-67719457D01*
X211241491Y-67610530D01*
X210962320Y-67555000D01*
X210677680Y-67555000D01*
X210635057Y-67563478D01*
X209307419Y-66235840D01*
X209403740Y-66255000D01*
X209696260Y-66255000D01*
X209983158Y-66197932D01*
X210253411Y-66085990D01*
X210496632Y-65923475D01*
X210628487Y-65791620D01*
X210650498Y-65864180D01*
X210709463Y-65974494D01*
X210788815Y-66071185D01*
X210885506Y-66150537D01*
X210995820Y-66209502D01*
X211115518Y-66245812D01*
X211240000Y-66258072D01*
X212940000Y-66258072D01*
X213064482Y-66245812D01*
X213184180Y-66209502D01*
X213294494Y-66150537D01*
X213391185Y-66071185D01*
X213470537Y-65974494D01*
X213529502Y-65864180D01*
X213565812Y-65744482D01*
X213578072Y-65620000D01*
X213578072Y-64354999D01*
X215512681Y-64354999D01*
X215550003Y-64358675D01*
X215587325Y-64354999D01*
X215587336Y-64354999D01*
X215698989Y-64344002D01*
X215842250Y-64300545D01*
X215974279Y-64229973D01*
X216090004Y-64135000D01*
X216113807Y-64105996D01*
X219456023Y-60763781D01*
X219485021Y-60739983D01*
X219519887Y-60697499D01*
X219579994Y-60624259D01*
X219650566Y-60492229D01*
X219659375Y-60463188D01*
X219694023Y-60348968D01*
X219705020Y-60237315D01*
X219705020Y-60237306D01*
X219708696Y-60199983D01*
X219705020Y-60162660D01*
X219705020Y-58205000D01*
X220126928Y-58205000D01*
X220130000Y-58769250D01*
X220288750Y-58928000D01*
X221488000Y-58928000D01*
X221488000Y-57728750D01*
X221329250Y-57570000D01*
X220765000Y-57566928D01*
X220640518Y-57579188D01*
X220520820Y-57615498D01*
X220410506Y-57674463D01*
X220313815Y-57753815D01*
X220234463Y-57850506D01*
X220175498Y-57960820D01*
X220139188Y-58080518D01*
X220126928Y-58205000D01*
X219705020Y-58205000D01*
X219705020Y-26712052D01*
X219708696Y-26674727D01*
X219705020Y-26637402D01*
X219705020Y-26637394D01*
X219694023Y-26525741D01*
X219650566Y-26382480D01*
X219579994Y-26250451D01*
X219485021Y-26134726D01*
X219456024Y-26110929D01*
X218429087Y-25083992D01*
X218428930Y-25083802D01*
X218577157Y-24903188D01*
X218705764Y-24662581D01*
X218784960Y-24401507D01*
X218811701Y-24130000D01*
X218784960Y-23858493D01*
X218705764Y-23597419D01*
X218577157Y-23356812D01*
X218404081Y-23145919D01*
X218193188Y-22972843D01*
X217982073Y-22860000D01*
X218193188Y-22747157D01*
X218404081Y-22574081D01*
X218577157Y-22363188D01*
X218705764Y-22122581D01*
X218784960Y-21861507D01*
X218811701Y-21590000D01*
X218784960Y-21318493D01*
X218705764Y-21057419D01*
X218577157Y-20816812D01*
X218404081Y-20605919D01*
X218193188Y-20432843D01*
X217982073Y-20320000D01*
X218193188Y-20207157D01*
X218404081Y-20034081D01*
X218577157Y-19823188D01*
X218705764Y-19582581D01*
X218784960Y-19321507D01*
X218811701Y-19050000D01*
X218784960Y-18778493D01*
X218705764Y-18517419D01*
X218577157Y-18276812D01*
X218404081Y-18065919D01*
X218193188Y-17892843D01*
X217982073Y-17780000D01*
X218193188Y-17667157D01*
X218404081Y-17494081D01*
X218577157Y-17283188D01*
X218705764Y-17042581D01*
X218784960Y-16781507D01*
X218811701Y-16510000D01*
X218784960Y-16238493D01*
X218705764Y-15977419D01*
X218577157Y-15736812D01*
X218404081Y-15525919D01*
X218193188Y-15352843D01*
X217982073Y-15240000D01*
X218193188Y-15127157D01*
X218404081Y-14954081D01*
X218577157Y-14743188D01*
X218705764Y-14502581D01*
X218784960Y-14241507D01*
X218811701Y-13970000D01*
X218784960Y-13698493D01*
X218705764Y-13437419D01*
X218577157Y-13196812D01*
X218404081Y-12985919D01*
X218193188Y-12812843D01*
X217952581Y-12684236D01*
X217892846Y-12666116D01*
X217892846Y-10647065D01*
X217928332Y-10700174D01*
X218299826Y-11071668D01*
X218736657Y-11363549D01*
X219222037Y-11564600D01*
X219737314Y-11667095D01*
X220262686Y-11667095D01*
X220777963Y-11564600D01*
X221263343Y-11363549D01*
X221700174Y-11071668D01*
X222071668Y-10700174D01*
X222363549Y-10263343D01*
X222564600Y-9777963D01*
X222667095Y-9262686D01*
X222667095Y-8737314D01*
X222564600Y-8222037D01*
X222363549Y-7736657D01*
X222071668Y-7299826D01*
X221700174Y-6928332D01*
X221263343Y-6636451D01*
X220777963Y-6435400D01*
X220262686Y-6332905D01*
X219737314Y-6332905D01*
X219222037Y-6435400D01*
X218736657Y-6636451D01*
X218299826Y-6928332D01*
X217928332Y-7299826D01*
X217892846Y-7352935D01*
X217892846Y-6160000D01*
X219967721Y-6160000D01*
X220551010Y-6217192D01*
G37*
G04 #@! TD.AperFunction*
D23*
X204597000Y-64643000D02*
X204617000Y-64643000D01*
X204617000Y-64897000D01*
X204597000Y-64897000D01*
X204597000Y-64917000D01*
X204343000Y-64917000D01*
X204343000Y-64897000D01*
X204323000Y-64897000D01*
X204323000Y-64643000D01*
X204343000Y-64643000D01*
X204343000Y-64623000D01*
X204597000Y-64623000D01*
X204597000Y-64643000D01*
G04 #@! TA.AperFunction,Conductor*
D24*
G36*
X204597000Y-64643000D02*
G01*
X204617000Y-64643000D01*
X204617000Y-64897000D01*
X204597000Y-64897000D01*
X204597000Y-64917000D01*
X204343000Y-64917000D01*
X204343000Y-64897000D01*
X204323000Y-64897000D01*
X204323000Y-64643000D01*
X204343000Y-64643000D01*
X204343000Y-64623000D01*
X204597000Y-64623000D01*
X204597000Y-64643000D01*
G37*
G04 #@! TD.AperFunction*
D23*
X210696211Y-40956013D02*
X210720009Y-40985011D01*
X210835734Y-41079984D01*
X210967763Y-41150556D01*
X211111024Y-41194013D01*
X211222677Y-41205010D01*
X211222686Y-41205010D01*
X211260009Y-41208686D01*
X211297332Y-41205010D01*
X215726390Y-41205010D01*
X215634236Y-41377419D01*
X215555040Y-41638493D01*
X215528299Y-41910000D01*
X215555040Y-42181507D01*
X215634236Y-42442581D01*
X215762843Y-42683188D01*
X215935919Y-42894081D01*
X216146812Y-43067157D01*
X216357927Y-43180000D01*
X216146812Y-43292843D01*
X215935919Y-43465919D01*
X215762843Y-43676812D01*
X215634236Y-43917419D01*
X215555040Y-44178493D01*
X215528299Y-44450000D01*
X215555040Y-44721507D01*
X215634236Y-44982581D01*
X215762843Y-45223188D01*
X215935919Y-45434081D01*
X216146812Y-45607157D01*
X216355028Y-45718451D01*
X216298276Y-45740032D01*
X216066366Y-45885342D01*
X215867260Y-46073103D01*
X215708610Y-46296100D01*
X215596513Y-46545764D01*
X215577682Y-46648815D01*
X215700344Y-46863000D01*
X217043000Y-46863000D01*
X217043000Y-46843000D01*
X217297000Y-46843000D01*
X217297000Y-46863000D01*
X217317000Y-46863000D01*
X217317000Y-47117000D01*
X217297000Y-47117000D01*
X217297000Y-47137000D01*
X217043000Y-47137000D01*
X217043000Y-47117000D01*
X215700344Y-47117000D01*
X215577682Y-47331185D01*
X215596513Y-47434236D01*
X215708610Y-47683900D01*
X215867260Y-47906897D01*
X216066366Y-48094658D01*
X216298276Y-48239968D01*
X216355028Y-48261549D01*
X216146812Y-48372843D01*
X215935919Y-48545919D01*
X215762843Y-48756812D01*
X215634236Y-48997419D01*
X215555040Y-49258493D01*
X215528299Y-49530000D01*
X215555040Y-49801507D01*
X215634236Y-50062581D01*
X215762843Y-50303188D01*
X215935919Y-50514081D01*
X216146812Y-50687157D01*
X216357927Y-50800000D01*
X216146812Y-50912843D01*
X215935919Y-51085919D01*
X215762843Y-51296812D01*
X215634236Y-51537419D01*
X215555040Y-51798493D01*
X215528299Y-52070000D01*
X215555040Y-52341507D01*
X215634236Y-52602581D01*
X215762843Y-52843188D01*
X215935919Y-53054081D01*
X216146812Y-53227157D01*
X216357927Y-53340000D01*
X216146812Y-53452843D01*
X215935919Y-53625919D01*
X215762843Y-53836812D01*
X215634236Y-54077419D01*
X215555040Y-54338493D01*
X215528299Y-54610000D01*
X215555040Y-54881507D01*
X215634236Y-55142581D01*
X215762843Y-55383188D01*
X215935919Y-55594081D01*
X216146812Y-55767157D01*
X216357927Y-55880000D01*
X216146812Y-55992843D01*
X215935919Y-56165919D01*
X215762843Y-56376812D01*
X215634236Y-56617419D01*
X215567848Y-56836270D01*
X212740122Y-54008544D01*
X212791423Y-53912567D01*
X212841248Y-53748316D01*
X212858072Y-53577500D01*
X212858072Y-53102500D01*
X212841248Y-52931684D01*
X212791423Y-52767433D01*
X212710512Y-52616058D01*
X212601623Y-52483377D01*
X212468942Y-52374488D01*
X212317567Y-52293577D01*
X212153316Y-52243752D01*
X211982500Y-52226928D01*
X211482500Y-52226928D01*
X211311684Y-52243752D01*
X211147433Y-52293577D01*
X210996058Y-52374488D01*
X210863377Y-52483377D01*
X210820000Y-52536232D01*
X210776623Y-52483377D01*
X210643942Y-52374488D01*
X210492567Y-52293577D01*
X210328316Y-52243752D01*
X210157500Y-52226928D01*
X209869229Y-52226928D01*
X209675000Y-52032699D01*
X209675000Y-39934801D01*
X210696211Y-40956013D01*
G04 #@! TA.AperFunction,Conductor*
D24*
G36*
X210696211Y-40956013D02*
G01*
X210720009Y-40985011D01*
X210835734Y-41079984D01*
X210967763Y-41150556D01*
X211111024Y-41194013D01*
X211222677Y-41205010D01*
X211222686Y-41205010D01*
X211260009Y-41208686D01*
X211297332Y-41205010D01*
X215726390Y-41205010D01*
X215634236Y-41377419D01*
X215555040Y-41638493D01*
X215528299Y-41910000D01*
X215555040Y-42181507D01*
X215634236Y-42442581D01*
X215762843Y-42683188D01*
X215935919Y-42894081D01*
X216146812Y-43067157D01*
X216357927Y-43180000D01*
X216146812Y-43292843D01*
X215935919Y-43465919D01*
X215762843Y-43676812D01*
X215634236Y-43917419D01*
X215555040Y-44178493D01*
X215528299Y-44450000D01*
X215555040Y-44721507D01*
X215634236Y-44982581D01*
X215762843Y-45223188D01*
X215935919Y-45434081D01*
X216146812Y-45607157D01*
X216355028Y-45718451D01*
X216298276Y-45740032D01*
X216066366Y-45885342D01*
X215867260Y-46073103D01*
X215708610Y-46296100D01*
X215596513Y-46545764D01*
X215577682Y-46648815D01*
X215700344Y-46863000D01*
X217043000Y-46863000D01*
X217043000Y-46843000D01*
X217297000Y-46843000D01*
X217297000Y-46863000D01*
X217317000Y-46863000D01*
X217317000Y-47117000D01*
X217297000Y-47117000D01*
X217297000Y-47137000D01*
X217043000Y-47137000D01*
X217043000Y-47117000D01*
X215700344Y-47117000D01*
X215577682Y-47331185D01*
X215596513Y-47434236D01*
X215708610Y-47683900D01*
X215867260Y-47906897D01*
X216066366Y-48094658D01*
X216298276Y-48239968D01*
X216355028Y-48261549D01*
X216146812Y-48372843D01*
X215935919Y-48545919D01*
X215762843Y-48756812D01*
X215634236Y-48997419D01*
X215555040Y-49258493D01*
X215528299Y-49530000D01*
X215555040Y-49801507D01*
X215634236Y-50062581D01*
X215762843Y-50303188D01*
X215935919Y-50514081D01*
X216146812Y-50687157D01*
X216357927Y-50800000D01*
X216146812Y-50912843D01*
X215935919Y-51085919D01*
X215762843Y-51296812D01*
X215634236Y-51537419D01*
X215555040Y-51798493D01*
X215528299Y-52070000D01*
X215555040Y-52341507D01*
X215634236Y-52602581D01*
X215762843Y-52843188D01*
X215935919Y-53054081D01*
X216146812Y-53227157D01*
X216357927Y-53340000D01*
X216146812Y-53452843D01*
X215935919Y-53625919D01*
X215762843Y-53836812D01*
X215634236Y-54077419D01*
X215555040Y-54338493D01*
X215528299Y-54610000D01*
X215555040Y-54881507D01*
X215634236Y-55142581D01*
X215762843Y-55383188D01*
X215935919Y-55594081D01*
X216146812Y-55767157D01*
X216357927Y-55880000D01*
X216146812Y-55992843D01*
X215935919Y-56165919D01*
X215762843Y-56376812D01*
X215634236Y-56617419D01*
X215567848Y-56836270D01*
X212740122Y-54008544D01*
X212791423Y-53912567D01*
X212841248Y-53748316D01*
X212858072Y-53577500D01*
X212858072Y-53102500D01*
X212841248Y-52931684D01*
X212791423Y-52767433D01*
X212710512Y-52616058D01*
X212601623Y-52483377D01*
X212468942Y-52374488D01*
X212317567Y-52293577D01*
X212153316Y-52243752D01*
X211982500Y-52226928D01*
X211482500Y-52226928D01*
X211311684Y-52243752D01*
X211147433Y-52293577D01*
X210996058Y-52374488D01*
X210863377Y-52483377D01*
X210820000Y-52536232D01*
X210776623Y-52483377D01*
X210643942Y-52374488D01*
X210492567Y-52293577D01*
X210328316Y-52243752D01*
X210157500Y-52226928D01*
X209869229Y-52226928D01*
X209675000Y-52032699D01*
X209675000Y-39934801D01*
X210696211Y-40956013D01*
G37*
G04 #@! TD.AperFunction*
D23*
X180551010Y-22217192D02*
X181081036Y-22377216D01*
X181569879Y-22637140D01*
X181998931Y-22987065D01*
X182351844Y-23413664D01*
X182615173Y-23900681D01*
X182778894Y-24429578D01*
X182840001Y-25010969D01*
X182840000Y-26032418D01*
X182843223Y-26065142D01*
X182843223Y-26074876D01*
X182844186Y-26084041D01*
X182860502Y-26229503D01*
X182872940Y-26288017D01*
X182884558Y-26346695D01*
X182887283Y-26355498D01*
X182931542Y-26495021D01*
X182955109Y-26550005D01*
X182977903Y-26605309D01*
X182982287Y-26613415D01*
X183052804Y-26741684D01*
X183086591Y-26791029D01*
X183119699Y-26840861D01*
X183125573Y-26847962D01*
X183219660Y-26960092D01*
X183262411Y-27001957D01*
X183304556Y-27044397D01*
X183311697Y-27050221D01*
X183373000Y-27099509D01*
X183373000Y-29900214D01*
X183297123Y-29962985D01*
X183255001Y-30005402D01*
X183212232Y-30047284D01*
X183206359Y-30054385D01*
X183113846Y-30167816D01*
X183080754Y-30217625D01*
X183046947Y-30266997D01*
X183042564Y-30275103D01*
X182973845Y-30404345D01*
X182951055Y-30459638D01*
X182927483Y-30514636D01*
X182924758Y-30523440D01*
X182882452Y-30663566D01*
X182870836Y-30722232D01*
X182858397Y-30780753D01*
X182857434Y-30789917D01*
X182843150Y-30935594D01*
X182843150Y-30935608D01*
X182840001Y-30967581D01*
X182840000Y-64967721D01*
X182782808Y-65551010D01*
X182622783Y-66081036D01*
X182362860Y-66569880D01*
X182012935Y-66998931D01*
X181586335Y-67351845D01*
X181099320Y-67615173D01*
X180570422Y-67778894D01*
X179989040Y-67840000D01*
X160032279Y-67840000D01*
X159448990Y-67782808D01*
X158918964Y-67622783D01*
X158430120Y-67362860D01*
X158001069Y-67012935D01*
X157648155Y-66586335D01*
X157384827Y-66099320D01*
X157221106Y-65570422D01*
X157160000Y-64989040D01*
X157160000Y-64737314D01*
X157332905Y-64737314D01*
X157332905Y-65262686D01*
X157435400Y-65777963D01*
X157636451Y-66263343D01*
X157928332Y-66700174D01*
X158299826Y-67071668D01*
X158736657Y-67363549D01*
X159222037Y-67564600D01*
X159737314Y-67667095D01*
X160262686Y-67667095D01*
X160777963Y-67564600D01*
X161263343Y-67363549D01*
X161700174Y-67071668D01*
X162071668Y-66700174D01*
X162363549Y-66263343D01*
X162564600Y-65777963D01*
X162667095Y-65262686D01*
X162667095Y-64936553D01*
X169869009Y-64936553D01*
X169911603Y-65235907D01*
X170011778Y-65521199D01*
X170091739Y-65670792D01*
X170345920Y-65754475D01*
X171230395Y-64870000D01*
X170345920Y-63985525D01*
X170091739Y-64069208D01*
X169960842Y-64341775D01*
X169885635Y-64634642D01*
X169869009Y-64936553D01*
X162667095Y-64936553D01*
X162667095Y-64737314D01*
X162564600Y-64222037D01*
X162363549Y-63736657D01*
X162071668Y-63299826D01*
X161700174Y-62928332D01*
X161263343Y-62636451D01*
X160777963Y-62435400D01*
X160262686Y-62332905D01*
X159737314Y-62332905D01*
X159222037Y-62435400D01*
X158736657Y-62636451D01*
X158299826Y-62928332D01*
X157928332Y-63299826D01*
X157636451Y-63736657D01*
X157435400Y-64222037D01*
X157332905Y-64737314D01*
X157160000Y-64737314D01*
X157160000Y-52320000D01*
X162138299Y-52320000D01*
X162165040Y-52591507D01*
X162244236Y-52852581D01*
X162372843Y-53093188D01*
X162545919Y-53304081D01*
X162756812Y-53477157D01*
X162997419Y-53605764D01*
X163258493Y-53684960D01*
X163461963Y-53705000D01*
X166198037Y-53705000D01*
X166401507Y-53684960D01*
X166662581Y-53605764D01*
X166903188Y-53477157D01*
X167114081Y-53304081D01*
X167287157Y-53093188D01*
X167415764Y-52852581D01*
X167494960Y-52591507D01*
X167521701Y-52320000D01*
X167494960Y-52048493D01*
X167415764Y-51787419D01*
X167287157Y-51546812D01*
X167114081Y-51335919D01*
X166903188Y-51162843D01*
X166662581Y-51034236D01*
X166401507Y-50955040D01*
X166198037Y-50935000D01*
X163461963Y-50935000D01*
X163258493Y-50955040D01*
X162997419Y-51034236D01*
X162756812Y-51162843D01*
X162545919Y-51335919D01*
X162372843Y-51546812D01*
X162244236Y-51787419D01*
X162165040Y-52048493D01*
X162138299Y-52320000D01*
X157160000Y-52320000D01*
X157160000Y-45020000D01*
X162138299Y-45020000D01*
X162165040Y-45291507D01*
X162244236Y-45552581D01*
X162372843Y-45793188D01*
X162545919Y-46004081D01*
X162756812Y-46177157D01*
X162997419Y-46305764D01*
X163258493Y-46384960D01*
X163461963Y-46405000D01*
X166198037Y-46405000D01*
X166401507Y-46384960D01*
X166662581Y-46305764D01*
X166903188Y-46177157D01*
X167114081Y-46004081D01*
X167287157Y-45793188D01*
X167415764Y-45552581D01*
X167430197Y-45505000D01*
X170421928Y-45505000D01*
X170434188Y-45629482D01*
X170470498Y-45749180D01*
X170529463Y-45859494D01*
X170608815Y-45956185D01*
X170705506Y-46035537D01*
X170815820Y-46094502D01*
X170935518Y-46130812D01*
X171060000Y-46143072D01*
X171624250Y-46140000D01*
X171783000Y-45981250D01*
X171783000Y-44782000D01*
X170583750Y-44782000D01*
X170425000Y-44940750D01*
X170421928Y-45505000D01*
X167430197Y-45505000D01*
X167494960Y-45291507D01*
X167521701Y-45020000D01*
X167494960Y-44748493D01*
X167415764Y-44487419D01*
X167287157Y-44246812D01*
X167281566Y-44239999D01*
X170424296Y-44239999D01*
X170425000Y-44369250D01*
X170583750Y-44528000D01*
X171783000Y-44528000D01*
X171783000Y-44508000D01*
X172037000Y-44508000D01*
X172037000Y-44528000D01*
X172057000Y-44528000D01*
X172057000Y-44782000D01*
X172037000Y-44782000D01*
X172037000Y-45981250D01*
X172195750Y-46140000D01*
X172760000Y-46143072D01*
X172884482Y-46130812D01*
X173004180Y-46094502D01*
X173114494Y-46035537D01*
X173190001Y-45973570D01*
X173190000Y-63331928D01*
X173050000Y-63331928D01*
X172925518Y-63344188D01*
X172805820Y-63380498D01*
X172695506Y-63439463D01*
X172598815Y-63518815D01*
X172519463Y-63615506D01*
X172460498Y-63725820D01*
X172457187Y-63736735D01*
X172410422Y-63689970D01*
X172294474Y-63805918D01*
X172210792Y-63551739D01*
X171938225Y-63420842D01*
X171645358Y-63345635D01*
X171343447Y-63329009D01*
X171044093Y-63371603D01*
X170758801Y-63471778D01*
X170609208Y-63551739D01*
X170525525Y-63805920D01*
X171410000Y-64690395D01*
X171424143Y-64676253D01*
X171603748Y-64855858D01*
X171589605Y-64870000D01*
X171603748Y-64884143D01*
X171424143Y-65063748D01*
X171410000Y-65049605D01*
X170525525Y-65934080D01*
X170609208Y-66188261D01*
X170881775Y-66319158D01*
X171174642Y-66394365D01*
X171476553Y-66410991D01*
X171775907Y-66368397D01*
X172061199Y-66268222D01*
X172210792Y-66188261D01*
X172294474Y-65934082D01*
X172410422Y-66050030D01*
X172457187Y-66003265D01*
X172460498Y-66014180D01*
X172519463Y-66124494D01*
X172598815Y-66221185D01*
X172695506Y-66300537D01*
X172805820Y-66359502D01*
X172925518Y-66395812D01*
X173050000Y-66408072D01*
X174850000Y-66408072D01*
X174974482Y-66395812D01*
X175094180Y-66359502D01*
X175204494Y-66300537D01*
X175301185Y-66221185D01*
X175380537Y-66124494D01*
X175439502Y-66014180D01*
X175475812Y-65894482D01*
X175488072Y-65770000D01*
X175488072Y-63970000D01*
X175475812Y-63845518D01*
X175439502Y-63725820D01*
X175380537Y-63615506D01*
X175301185Y-63518815D01*
X175204494Y-63439463D01*
X175094180Y-63380498D01*
X174974482Y-63344188D01*
X174850000Y-63331928D01*
X174710000Y-63331928D01*
X174710000Y-46117376D01*
X174883158Y-46082932D01*
X175153411Y-45970990D01*
X175396632Y-45808475D01*
X175603475Y-45601632D01*
X175720000Y-45427240D01*
X175836525Y-45601632D01*
X176043368Y-45808475D01*
X176286589Y-45970990D01*
X176556842Y-46082932D01*
X176843740Y-46140000D01*
X177136260Y-46140000D01*
X177423158Y-46082932D01*
X177693411Y-45970990D01*
X177936632Y-45808475D01*
X178143475Y-45601632D01*
X178305990Y-45358411D01*
X178417932Y-45088158D01*
X178475000Y-44801260D01*
X178475000Y-44508740D01*
X178417932Y-44221842D01*
X178305990Y-43951589D01*
X178143475Y-43708368D01*
X177936632Y-43501525D01*
X177693411Y-43339010D01*
X177423158Y-43227068D01*
X177136260Y-43170000D01*
X176843740Y-43170000D01*
X176623592Y-43213791D01*
X176378803Y-42969002D01*
X176355000Y-42939998D01*
X176239275Y-42845025D01*
X176107246Y-42774453D01*
X175963985Y-42730996D01*
X175852332Y-42719999D01*
X175852321Y-42719999D01*
X175814999Y-42716323D01*
X175777677Y-42719999D01*
X166407323Y-42719999D01*
X166370000Y-42716323D01*
X166332677Y-42719999D01*
X166332668Y-42719999D01*
X166221015Y-42730996D01*
X166077754Y-42774453D01*
X165945725Y-42845025D01*
X165830000Y-42939998D01*
X165806202Y-42968996D01*
X165140198Y-43635000D01*
X163461963Y-43635000D01*
X163258493Y-43655040D01*
X162997419Y-43734236D01*
X162756812Y-43862843D01*
X162545919Y-44035919D01*
X162372843Y-44246812D01*
X162244236Y-44487419D01*
X162165040Y-44748493D01*
X162138299Y-45020000D01*
X157160000Y-45020000D01*
X157160000Y-36970000D01*
X162141928Y-36970000D01*
X162154188Y-37094482D01*
X162190498Y-37214180D01*
X162249463Y-37324494D01*
X162328815Y-37421185D01*
X162425506Y-37500537D01*
X162535820Y-37559502D01*
X162655518Y-37595812D01*
X162780000Y-37608072D01*
X164544250Y-37605000D01*
X164703000Y-37446250D01*
X164703000Y-36347000D01*
X164957000Y-36347000D01*
X164957000Y-37446250D01*
X165115750Y-37605000D01*
X166880000Y-37608072D01*
X167004482Y-37595812D01*
X167124180Y-37559502D01*
X167234494Y-37500537D01*
X167331185Y-37421185D01*
X167410537Y-37324494D01*
X167469502Y-37214180D01*
X167505812Y-37094482D01*
X167518072Y-36970000D01*
X167515000Y-36505750D01*
X167356250Y-36347000D01*
X164957000Y-36347000D01*
X164703000Y-36347000D01*
X162303750Y-36347000D01*
X162145000Y-36505750D01*
X162141928Y-36970000D01*
X157160000Y-36970000D01*
X157160000Y-35470000D01*
X162141928Y-35470000D01*
X162145000Y-35934250D01*
X162303750Y-36093000D01*
X164703000Y-36093000D01*
X164703000Y-34993750D01*
X164957000Y-34993750D01*
X164957000Y-36093000D01*
X167356250Y-36093000D01*
X167515000Y-35934250D01*
X167518072Y-35470000D01*
X167505812Y-35345518D01*
X167469502Y-35225820D01*
X167410537Y-35115506D01*
X167331185Y-35018815D01*
X167234494Y-34939463D01*
X167124180Y-34880498D01*
X167004482Y-34844188D01*
X166880000Y-34831928D01*
X165115750Y-34835000D01*
X164957000Y-34993750D01*
X164703000Y-34993750D01*
X164544250Y-34835000D01*
X162780000Y-34831928D01*
X162655518Y-34844188D01*
X162535820Y-34880498D01*
X162425506Y-34939463D01*
X162328815Y-35018815D01*
X162249463Y-35115506D01*
X162190498Y-35225820D01*
X162154188Y-35345518D01*
X162141928Y-35470000D01*
X157160000Y-35470000D01*
X157160000Y-25032279D01*
X157188921Y-24737314D01*
X157332905Y-24737314D01*
X157332905Y-25262686D01*
X157435400Y-25777963D01*
X157636451Y-26263343D01*
X157928332Y-26700174D01*
X158299826Y-27071668D01*
X158736657Y-27363549D01*
X159222037Y-27564600D01*
X159737314Y-27667095D01*
X160262686Y-27667095D01*
X160777963Y-27564600D01*
X161263343Y-27363549D01*
X161700174Y-27071668D01*
X162071668Y-26700174D01*
X162363549Y-26263343D01*
X162564600Y-25777963D01*
X162667095Y-25262686D01*
X162667095Y-24737314D01*
X162564600Y-24222037D01*
X162363549Y-23736657D01*
X162071668Y-23299826D01*
X161700174Y-22928332D01*
X161263343Y-22636451D01*
X160777963Y-22435400D01*
X160262686Y-22332905D01*
X159737314Y-22332905D01*
X159222037Y-22435400D01*
X158736657Y-22636451D01*
X158299826Y-22928332D01*
X157928332Y-23299826D01*
X157636451Y-23736657D01*
X157435400Y-24222037D01*
X157332905Y-24737314D01*
X157188921Y-24737314D01*
X157217192Y-24448990D01*
X157377216Y-23918964D01*
X157637140Y-23430121D01*
X157987065Y-23001069D01*
X158413664Y-22648156D01*
X158900681Y-22384827D01*
X159429578Y-22221106D01*
X160010960Y-22160000D01*
X179967721Y-22160000D01*
X180551010Y-22217192D01*
G04 #@! TA.AperFunction,Conductor*
D24*
G36*
X180551010Y-22217192D02*
G01*
X181081036Y-22377216D01*
X181569879Y-22637140D01*
X181998931Y-22987065D01*
X182351844Y-23413664D01*
X182615173Y-23900681D01*
X182778894Y-24429578D01*
X182840001Y-25010969D01*
X182840000Y-26032418D01*
X182843223Y-26065142D01*
X182843223Y-26074876D01*
X182844186Y-26084041D01*
X182860502Y-26229503D01*
X182872940Y-26288017D01*
X182884558Y-26346695D01*
X182887283Y-26355498D01*
X182931542Y-26495021D01*
X182955109Y-26550005D01*
X182977903Y-26605309D01*
X182982287Y-26613415D01*
X183052804Y-26741684D01*
X183086591Y-26791029D01*
X183119699Y-26840861D01*
X183125573Y-26847962D01*
X183219660Y-26960092D01*
X183262411Y-27001957D01*
X183304556Y-27044397D01*
X183311697Y-27050221D01*
X183373000Y-27099509D01*
X183373000Y-29900214D01*
X183297123Y-29962985D01*
X183255001Y-30005402D01*
X183212232Y-30047284D01*
X183206359Y-30054385D01*
X183113846Y-30167816D01*
X183080754Y-30217625D01*
X183046947Y-30266997D01*
X183042564Y-30275103D01*
X182973845Y-30404345D01*
X182951055Y-30459638D01*
X182927483Y-30514636D01*
X182924758Y-30523440D01*
X182882452Y-30663566D01*
X182870836Y-30722232D01*
X182858397Y-30780753D01*
X182857434Y-30789917D01*
X182843150Y-30935594D01*
X182843150Y-30935608D01*
X182840001Y-30967581D01*
X182840000Y-64967721D01*
X182782808Y-65551010D01*
X182622783Y-66081036D01*
X182362860Y-66569880D01*
X182012935Y-66998931D01*
X181586335Y-67351845D01*
X181099320Y-67615173D01*
X180570422Y-67778894D01*
X179989040Y-67840000D01*
X160032279Y-67840000D01*
X159448990Y-67782808D01*
X158918964Y-67622783D01*
X158430120Y-67362860D01*
X158001069Y-67012935D01*
X157648155Y-66586335D01*
X157384827Y-66099320D01*
X157221106Y-65570422D01*
X157160000Y-64989040D01*
X157160000Y-64737314D01*
X157332905Y-64737314D01*
X157332905Y-65262686D01*
X157435400Y-65777963D01*
X157636451Y-66263343D01*
X157928332Y-66700174D01*
X158299826Y-67071668D01*
X158736657Y-67363549D01*
X159222037Y-67564600D01*
X159737314Y-67667095D01*
X160262686Y-67667095D01*
X160777963Y-67564600D01*
X161263343Y-67363549D01*
X161700174Y-67071668D01*
X162071668Y-66700174D01*
X162363549Y-66263343D01*
X162564600Y-65777963D01*
X162667095Y-65262686D01*
X162667095Y-64936553D01*
X169869009Y-64936553D01*
X169911603Y-65235907D01*
X170011778Y-65521199D01*
X170091739Y-65670792D01*
X170345920Y-65754475D01*
X171230395Y-64870000D01*
X170345920Y-63985525D01*
X170091739Y-64069208D01*
X169960842Y-64341775D01*
X169885635Y-64634642D01*
X169869009Y-64936553D01*
X162667095Y-64936553D01*
X162667095Y-64737314D01*
X162564600Y-64222037D01*
X162363549Y-63736657D01*
X162071668Y-63299826D01*
X161700174Y-62928332D01*
X161263343Y-62636451D01*
X160777963Y-62435400D01*
X160262686Y-62332905D01*
X159737314Y-62332905D01*
X159222037Y-62435400D01*
X158736657Y-62636451D01*
X158299826Y-62928332D01*
X157928332Y-63299826D01*
X157636451Y-63736657D01*
X157435400Y-64222037D01*
X157332905Y-64737314D01*
X157160000Y-64737314D01*
X157160000Y-52320000D01*
X162138299Y-52320000D01*
X162165040Y-52591507D01*
X162244236Y-52852581D01*
X162372843Y-53093188D01*
X162545919Y-53304081D01*
X162756812Y-53477157D01*
X162997419Y-53605764D01*
X163258493Y-53684960D01*
X163461963Y-53705000D01*
X166198037Y-53705000D01*
X166401507Y-53684960D01*
X166662581Y-53605764D01*
X166903188Y-53477157D01*
X167114081Y-53304081D01*
X167287157Y-53093188D01*
X167415764Y-52852581D01*
X167494960Y-52591507D01*
X167521701Y-52320000D01*
X167494960Y-52048493D01*
X167415764Y-51787419D01*
X167287157Y-51546812D01*
X167114081Y-51335919D01*
X166903188Y-51162843D01*
X166662581Y-51034236D01*
X166401507Y-50955040D01*
X166198037Y-50935000D01*
X163461963Y-50935000D01*
X163258493Y-50955040D01*
X162997419Y-51034236D01*
X162756812Y-51162843D01*
X162545919Y-51335919D01*
X162372843Y-51546812D01*
X162244236Y-51787419D01*
X162165040Y-52048493D01*
X162138299Y-52320000D01*
X157160000Y-52320000D01*
X157160000Y-45020000D01*
X162138299Y-45020000D01*
X162165040Y-45291507D01*
X162244236Y-45552581D01*
X162372843Y-45793188D01*
X162545919Y-46004081D01*
X162756812Y-46177157D01*
X162997419Y-46305764D01*
X163258493Y-46384960D01*
X163461963Y-46405000D01*
X166198037Y-46405000D01*
X166401507Y-46384960D01*
X166662581Y-46305764D01*
X166903188Y-46177157D01*
X167114081Y-46004081D01*
X167287157Y-45793188D01*
X167415764Y-45552581D01*
X167430197Y-45505000D01*
X170421928Y-45505000D01*
X170434188Y-45629482D01*
X170470498Y-45749180D01*
X170529463Y-45859494D01*
X170608815Y-45956185D01*
X170705506Y-46035537D01*
X170815820Y-46094502D01*
X170935518Y-46130812D01*
X171060000Y-46143072D01*
X171624250Y-46140000D01*
X171783000Y-45981250D01*
X171783000Y-44782000D01*
X170583750Y-44782000D01*
X170425000Y-44940750D01*
X170421928Y-45505000D01*
X167430197Y-45505000D01*
X167494960Y-45291507D01*
X167521701Y-45020000D01*
X167494960Y-44748493D01*
X167415764Y-44487419D01*
X167287157Y-44246812D01*
X167281566Y-44239999D01*
X170424296Y-44239999D01*
X170425000Y-44369250D01*
X170583750Y-44528000D01*
X171783000Y-44528000D01*
X171783000Y-44508000D01*
X172037000Y-44508000D01*
X172037000Y-44528000D01*
X172057000Y-44528000D01*
X172057000Y-44782000D01*
X172037000Y-44782000D01*
X172037000Y-45981250D01*
X172195750Y-46140000D01*
X172760000Y-46143072D01*
X172884482Y-46130812D01*
X173004180Y-46094502D01*
X173114494Y-46035537D01*
X173190001Y-45973570D01*
X173190000Y-63331928D01*
X173050000Y-63331928D01*
X172925518Y-63344188D01*
X172805820Y-63380498D01*
X172695506Y-63439463D01*
X172598815Y-63518815D01*
X172519463Y-63615506D01*
X172460498Y-63725820D01*
X172457187Y-63736735D01*
X172410422Y-63689970D01*
X172294474Y-63805918D01*
X172210792Y-63551739D01*
X171938225Y-63420842D01*
X171645358Y-63345635D01*
X171343447Y-63329009D01*
X171044093Y-63371603D01*
X170758801Y-63471778D01*
X170609208Y-63551739D01*
X170525525Y-63805920D01*
X171410000Y-64690395D01*
X171424143Y-64676253D01*
X171603748Y-64855858D01*
X171589605Y-64870000D01*
X171603748Y-64884143D01*
X171424143Y-65063748D01*
X171410000Y-65049605D01*
X170525525Y-65934080D01*
X170609208Y-66188261D01*
X170881775Y-66319158D01*
X171174642Y-66394365D01*
X171476553Y-66410991D01*
X171775907Y-66368397D01*
X172061199Y-66268222D01*
X172210792Y-66188261D01*
X172294474Y-65934082D01*
X172410422Y-66050030D01*
X172457187Y-66003265D01*
X172460498Y-66014180D01*
X172519463Y-66124494D01*
X172598815Y-66221185D01*
X172695506Y-66300537D01*
X172805820Y-66359502D01*
X172925518Y-66395812D01*
X173050000Y-66408072D01*
X174850000Y-66408072D01*
X174974482Y-66395812D01*
X175094180Y-66359502D01*
X175204494Y-66300537D01*
X175301185Y-66221185D01*
X175380537Y-66124494D01*
X175439502Y-66014180D01*
X175475812Y-65894482D01*
X175488072Y-65770000D01*
X175488072Y-63970000D01*
X175475812Y-63845518D01*
X175439502Y-63725820D01*
X175380537Y-63615506D01*
X175301185Y-63518815D01*
X175204494Y-63439463D01*
X175094180Y-63380498D01*
X174974482Y-63344188D01*
X174850000Y-63331928D01*
X174710000Y-63331928D01*
X174710000Y-46117376D01*
X174883158Y-46082932D01*
X175153411Y-45970990D01*
X175396632Y-45808475D01*
X175603475Y-45601632D01*
X175720000Y-45427240D01*
X175836525Y-45601632D01*
X176043368Y-45808475D01*
X176286589Y-45970990D01*
X176556842Y-46082932D01*
X176843740Y-46140000D01*
X177136260Y-46140000D01*
X177423158Y-46082932D01*
X177693411Y-45970990D01*
X177936632Y-45808475D01*
X178143475Y-45601632D01*
X178305990Y-45358411D01*
X178417932Y-45088158D01*
X178475000Y-44801260D01*
X178475000Y-44508740D01*
X178417932Y-44221842D01*
X178305990Y-43951589D01*
X178143475Y-43708368D01*
X177936632Y-43501525D01*
X177693411Y-43339010D01*
X177423158Y-43227068D01*
X177136260Y-43170000D01*
X176843740Y-43170000D01*
X176623592Y-43213791D01*
X176378803Y-42969002D01*
X176355000Y-42939998D01*
X176239275Y-42845025D01*
X176107246Y-42774453D01*
X175963985Y-42730996D01*
X175852332Y-42719999D01*
X175852321Y-42719999D01*
X175814999Y-42716323D01*
X175777677Y-42719999D01*
X166407323Y-42719999D01*
X166370000Y-42716323D01*
X166332677Y-42719999D01*
X166332668Y-42719999D01*
X166221015Y-42730996D01*
X166077754Y-42774453D01*
X165945725Y-42845025D01*
X165830000Y-42939998D01*
X165806202Y-42968996D01*
X165140198Y-43635000D01*
X163461963Y-43635000D01*
X163258493Y-43655040D01*
X162997419Y-43734236D01*
X162756812Y-43862843D01*
X162545919Y-44035919D01*
X162372843Y-44246812D01*
X162244236Y-44487419D01*
X162165040Y-44748493D01*
X162138299Y-45020000D01*
X157160000Y-45020000D01*
X157160000Y-36970000D01*
X162141928Y-36970000D01*
X162154188Y-37094482D01*
X162190498Y-37214180D01*
X162249463Y-37324494D01*
X162328815Y-37421185D01*
X162425506Y-37500537D01*
X162535820Y-37559502D01*
X162655518Y-37595812D01*
X162780000Y-37608072D01*
X164544250Y-37605000D01*
X164703000Y-37446250D01*
X164703000Y-36347000D01*
X164957000Y-36347000D01*
X164957000Y-37446250D01*
X165115750Y-37605000D01*
X166880000Y-37608072D01*
X167004482Y-37595812D01*
X167124180Y-37559502D01*
X167234494Y-37500537D01*
X167331185Y-37421185D01*
X167410537Y-37324494D01*
X167469502Y-37214180D01*
X167505812Y-37094482D01*
X167518072Y-36970000D01*
X167515000Y-36505750D01*
X167356250Y-36347000D01*
X164957000Y-36347000D01*
X164703000Y-36347000D01*
X162303750Y-36347000D01*
X162145000Y-36505750D01*
X162141928Y-36970000D01*
X157160000Y-36970000D01*
X157160000Y-35470000D01*
X162141928Y-35470000D01*
X162145000Y-35934250D01*
X162303750Y-36093000D01*
X164703000Y-36093000D01*
X164703000Y-34993750D01*
X164957000Y-34993750D01*
X164957000Y-36093000D01*
X167356250Y-36093000D01*
X167515000Y-35934250D01*
X167518072Y-35470000D01*
X167505812Y-35345518D01*
X167469502Y-35225820D01*
X167410537Y-35115506D01*
X167331185Y-35018815D01*
X167234494Y-34939463D01*
X167124180Y-34880498D01*
X167004482Y-34844188D01*
X166880000Y-34831928D01*
X165115750Y-34835000D01*
X164957000Y-34993750D01*
X164703000Y-34993750D01*
X164544250Y-34835000D01*
X162780000Y-34831928D01*
X162655518Y-34844188D01*
X162535820Y-34880498D01*
X162425506Y-34939463D01*
X162328815Y-35018815D01*
X162249463Y-35115506D01*
X162190498Y-35225820D01*
X162154188Y-35345518D01*
X162141928Y-35470000D01*
X157160000Y-35470000D01*
X157160000Y-25032279D01*
X157188921Y-24737314D01*
X157332905Y-24737314D01*
X157332905Y-25262686D01*
X157435400Y-25777963D01*
X157636451Y-26263343D01*
X157928332Y-26700174D01*
X158299826Y-27071668D01*
X158736657Y-27363549D01*
X159222037Y-27564600D01*
X159737314Y-27667095D01*
X160262686Y-27667095D01*
X160777963Y-27564600D01*
X161263343Y-27363549D01*
X161700174Y-27071668D01*
X162071668Y-26700174D01*
X162363549Y-26263343D01*
X162564600Y-25777963D01*
X162667095Y-25262686D01*
X162667095Y-24737314D01*
X162564600Y-24222037D01*
X162363549Y-23736657D01*
X162071668Y-23299826D01*
X161700174Y-22928332D01*
X161263343Y-22636451D01*
X160777963Y-22435400D01*
X160262686Y-22332905D01*
X159737314Y-22332905D01*
X159222037Y-22435400D01*
X158736657Y-22636451D01*
X158299826Y-22928332D01*
X157928332Y-23299826D01*
X157636451Y-23736657D01*
X157435400Y-24222037D01*
X157332905Y-24737314D01*
X157188921Y-24737314D01*
X157217192Y-24448990D01*
X157377216Y-23918964D01*
X157637140Y-23430121D01*
X157987065Y-23001069D01*
X158413664Y-22648156D01*
X158900681Y-22384827D01*
X159429578Y-22221106D01*
X160010960Y-22160000D01*
X179967721Y-22160000D01*
X180551010Y-22217192D01*
G37*
G04 #@! TD.AperFunction*
M02*
