G04 #@! TF.GenerationSoftware,KiCad,Pcbnew,5.1.12-84ad8e8a86~92~ubuntu20.04.1*
G04 #@! TF.CreationDate,2021-12-17T13:54:35+09:00*
G04 #@! TF.ProjectId,Key_checker,4b65795f-6368-4656-936b-65722e6b6963,rev?*
G04 #@! TF.SameCoordinates,Original*
G04 #@! TF.FileFunction,Copper,L1,Top*
G04 #@! TF.FilePolarity,Positive*
%FSLAX46Y46*%
G04 Gerber Fmt 4.6, Leading zero omitted, Abs format (unit mm)*
G04 Created by KiCad (PCBNEW 5.1.12-84ad8e8a86~92~ubuntu20.04.1) date 2021-12-17 13:54:35*
%MOMM*%
%LPD*%
G01*
G04 APERTURE LIST*
G04 #@! TA.AperFunction,ComponentPad*
%ADD10O,1.700000X1.700000*%
G04 #@! TD*
G04 #@! TA.AperFunction,ComponentPad*
%ADD11R,1.700000X1.700000*%
G04 #@! TD*
G04 #@! TA.AperFunction,ComponentPad*
%ADD12C,1.620000*%
G04 #@! TD*
G04 #@! TA.AperFunction,ComponentPad*
%ADD13O,4.100000X1.500000*%
G04 #@! TD*
G04 #@! TA.AperFunction,ComponentPad*
%ADD14R,4.100000X1.500000*%
G04 #@! TD*
G04 #@! TA.AperFunction,ComponentPad*
%ADD15O,2.000000X1.500000*%
G04 #@! TD*
G04 #@! TA.AperFunction,ComponentPad*
%ADD16R,1.800000X1.800000*%
G04 #@! TD*
G04 #@! TA.AperFunction,ComponentPad*
%ADD17C,1.800000*%
G04 #@! TD*
G04 #@! TA.AperFunction,ComponentPad*
%ADD18O,1.800000X1.070000*%
G04 #@! TD*
G04 #@! TA.AperFunction,ComponentPad*
%ADD19R,1.800000X1.070000*%
G04 #@! TD*
G04 #@! TA.AperFunction,Conductor*
%ADD20C,0.250000*%
G04 #@! TD*
G04 #@! TA.AperFunction,Conductor*
%ADD21C,0.500000*%
G04 #@! TD*
G04 #@! TA.AperFunction,Conductor*
%ADD22C,0.254000*%
G04 #@! TD*
G04 #@! TA.AperFunction,Conductor*
%ADD23C,0.100000*%
G04 #@! TD*
G04 APERTURE END LIST*
D10*
X205740000Y-64770000D03*
D11*
X203200000Y-64770000D03*
D10*
X208280000Y-59690000D03*
X205740000Y-59690000D03*
X203200000Y-59690000D03*
D11*
X200660000Y-59690000D03*
G04 #@! TA.AperFunction,SMDPad,CuDef*
G36*
G01*
X210582500Y-27095000D02*
X211057500Y-27095000D01*
G75*
G02*
X211295000Y-27332500I0J-237500D01*
G01*
X211295000Y-27832500D01*
G75*
G02*
X211057500Y-28070000I-237500J0D01*
G01*
X210582500Y-28070000D01*
G75*
G02*
X210345000Y-27832500I0J237500D01*
G01*
X210345000Y-27332500D01*
G75*
G02*
X210582500Y-27095000I237500J0D01*
G01*
G37*
G04 #@! TD.AperFunction*
G04 #@! TA.AperFunction,SMDPad,CuDef*
G36*
G01*
X210582500Y-25270000D02*
X211057500Y-25270000D01*
G75*
G02*
X211295000Y-25507500I0J-237500D01*
G01*
X211295000Y-26007500D01*
G75*
G02*
X211057500Y-26245000I-237500J0D01*
G01*
X210582500Y-26245000D01*
G75*
G02*
X210345000Y-26007500I0J237500D01*
G01*
X210345000Y-25507500D01*
G75*
G02*
X210582500Y-25270000I237500J0D01*
G01*
G37*
G04 #@! TD.AperFunction*
G04 #@! TA.AperFunction,SMDPad,CuDef*
G36*
G01*
X213122500Y-27095000D02*
X213597500Y-27095000D01*
G75*
G02*
X213835000Y-27332500I0J-237500D01*
G01*
X213835000Y-27832500D01*
G75*
G02*
X213597500Y-28070000I-237500J0D01*
G01*
X213122500Y-28070000D01*
G75*
G02*
X212885000Y-27832500I0J237500D01*
G01*
X212885000Y-27332500D01*
G75*
G02*
X213122500Y-27095000I237500J0D01*
G01*
G37*
G04 #@! TD.AperFunction*
G04 #@! TA.AperFunction,SMDPad,CuDef*
G36*
G01*
X213122500Y-25270000D02*
X213597500Y-25270000D01*
G75*
G02*
X213835000Y-25507500I0J-237500D01*
G01*
X213835000Y-26007500D01*
G75*
G02*
X213597500Y-26245000I-237500J0D01*
G01*
X213122500Y-26245000D01*
G75*
G02*
X212885000Y-26007500I0J237500D01*
G01*
X212885000Y-25507500D01*
G75*
G02*
X213122500Y-25270000I237500J0D01*
G01*
G37*
G04 #@! TD.AperFunction*
D12*
X215900000Y-69000000D03*
X213400000Y-71500000D03*
X210900000Y-69000000D03*
D13*
X166370000Y-58420000D03*
X166370000Y-65720000D03*
D14*
X166370000Y-49620000D03*
D10*
X199390000Y-64770000D03*
X196850000Y-64770000D03*
D11*
X194310000Y-64770000D03*
G04 #@! TA.AperFunction,SMDPad,CuDef*
G36*
G01*
X203437500Y-22355000D02*
X202962500Y-22355000D01*
G75*
G02*
X202725000Y-22117500I0J237500D01*
G01*
X202725000Y-21617500D01*
G75*
G02*
X202962500Y-21380000I237500J0D01*
G01*
X203437500Y-21380000D01*
G75*
G02*
X203675000Y-21617500I0J-237500D01*
G01*
X203675000Y-22117500D01*
G75*
G02*
X203437500Y-22355000I-237500J0D01*
G01*
G37*
G04 #@! TD.AperFunction*
G04 #@! TA.AperFunction,SMDPad,CuDef*
G36*
G01*
X203437500Y-20530000D02*
X202962500Y-20530000D01*
G75*
G02*
X202725000Y-20292500I0J237500D01*
G01*
X202725000Y-19792500D01*
G75*
G02*
X202962500Y-19555000I237500J0D01*
G01*
X203437500Y-19555000D01*
G75*
G02*
X203675000Y-19792500I0J-237500D01*
G01*
X203675000Y-20292500D01*
G75*
G02*
X203437500Y-20530000I-237500J0D01*
G01*
G37*
G04 #@! TD.AperFunction*
G04 #@! TA.AperFunction,SMDPad,CuDef*
G36*
G01*
X195817500Y-44580000D02*
X195342500Y-44580000D01*
G75*
G02*
X195105000Y-44342500I0J237500D01*
G01*
X195105000Y-43842500D01*
G75*
G02*
X195342500Y-43605000I237500J0D01*
G01*
X195817500Y-43605000D01*
G75*
G02*
X196055000Y-43842500I0J-237500D01*
G01*
X196055000Y-44342500D01*
G75*
G02*
X195817500Y-44580000I-237500J0D01*
G01*
G37*
G04 #@! TD.AperFunction*
G04 #@! TA.AperFunction,SMDPad,CuDef*
G36*
G01*
X195817500Y-42755000D02*
X195342500Y-42755000D01*
G75*
G02*
X195105000Y-42517500I0J237500D01*
G01*
X195105000Y-42017500D01*
G75*
G02*
X195342500Y-41780000I237500J0D01*
G01*
X195817500Y-41780000D01*
G75*
G02*
X196055000Y-42017500I0J-237500D01*
G01*
X196055000Y-42517500D01*
G75*
G02*
X195817500Y-42755000I-237500J0D01*
G01*
G37*
G04 #@! TD.AperFunction*
X175260000Y-33020000D03*
D10*
X177800000Y-33020000D03*
X180340000Y-33020000D03*
G04 #@! TA.AperFunction,SMDPad,CuDef*
G36*
G01*
X198357500Y-42755000D02*
X197882500Y-42755000D01*
G75*
G02*
X197645000Y-42517500I0J237500D01*
G01*
X197645000Y-42017500D01*
G75*
G02*
X197882500Y-41780000I237500J0D01*
G01*
X198357500Y-41780000D01*
G75*
G02*
X198595000Y-42017500I0J-237500D01*
G01*
X198595000Y-42517500D01*
G75*
G02*
X198357500Y-42755000I-237500J0D01*
G01*
G37*
G04 #@! TD.AperFunction*
G04 #@! TA.AperFunction,SMDPad,CuDef*
G36*
G01*
X198357500Y-44580000D02*
X197882500Y-44580000D01*
G75*
G02*
X197645000Y-44342500I0J237500D01*
G01*
X197645000Y-43842500D01*
G75*
G02*
X197882500Y-43605000I237500J0D01*
G01*
X198357500Y-43605000D01*
G75*
G02*
X198595000Y-43842500I0J-237500D01*
G01*
X198595000Y-44342500D01*
G75*
G02*
X198357500Y-44580000I-237500J0D01*
G01*
G37*
G04 #@! TD.AperFunction*
D15*
X217170000Y-59690000D03*
X191770000Y-59690000D03*
X217170000Y-57150000D03*
X191770000Y-57150000D03*
X217170000Y-54610000D03*
X191770000Y-54610000D03*
X217170000Y-52070000D03*
X191770000Y-52070000D03*
X217170000Y-49530000D03*
X191770000Y-49530000D03*
X217170000Y-46990000D03*
X191770000Y-46990000D03*
X217170000Y-44450000D03*
X191770000Y-44450000D03*
X217170000Y-41910000D03*
X191770000Y-41910000D03*
X217170000Y-39370000D03*
X191770000Y-39370000D03*
X217170000Y-36830000D03*
X191770000Y-36830000D03*
X217170000Y-34290000D03*
X191770000Y-34290000D03*
X217170000Y-31750000D03*
X191770000Y-31750000D03*
X217170000Y-29210000D03*
X191770000Y-29210000D03*
X217170000Y-26670000D03*
X191770000Y-26670000D03*
X217170000Y-24130000D03*
X191770000Y-24130000D03*
X217170000Y-21590000D03*
X191770000Y-21590000D03*
X217170000Y-19050000D03*
X191770000Y-19050000D03*
X217170000Y-16510000D03*
X191770000Y-16510000D03*
X217170000Y-13970000D03*
X191770000Y-13970000D03*
D16*
X207010000Y-22225000D03*
D17*
X207010000Y-19685000D03*
G04 #@! TA.AperFunction,SMDPad,CuDef*
G36*
G01*
X200897500Y-44580000D02*
X200422500Y-44580000D01*
G75*
G02*
X200185000Y-44342500I0J237500D01*
G01*
X200185000Y-43842500D01*
G75*
G02*
X200422500Y-43605000I237500J0D01*
G01*
X200897500Y-43605000D01*
G75*
G02*
X201135000Y-43842500I0J-237500D01*
G01*
X201135000Y-44342500D01*
G75*
G02*
X200897500Y-44580000I-237500J0D01*
G01*
G37*
G04 #@! TD.AperFunction*
G04 #@! TA.AperFunction,SMDPad,CuDef*
G36*
G01*
X200897500Y-42755000D02*
X200422500Y-42755000D01*
G75*
G02*
X200185000Y-42517500I0J237500D01*
G01*
X200185000Y-42017500D01*
G75*
G02*
X200422500Y-41780000I237500J0D01*
G01*
X200897500Y-41780000D01*
G75*
G02*
X201135000Y-42017500I0J-237500D01*
G01*
X201135000Y-42517500D01*
G75*
G02*
X200897500Y-42755000I-237500J0D01*
G01*
G37*
G04 #@! TD.AperFunction*
G04 #@! TA.AperFunction,SMDPad,CuDef*
G36*
G01*
X211245000Y-53577500D02*
X211245000Y-53102500D01*
G75*
G02*
X211482500Y-52865000I237500J0D01*
G01*
X211982500Y-52865000D01*
G75*
G02*
X212220000Y-53102500I0J-237500D01*
G01*
X212220000Y-53577500D01*
G75*
G02*
X211982500Y-53815000I-237500J0D01*
G01*
X211482500Y-53815000D01*
G75*
G02*
X211245000Y-53577500I0J237500D01*
G01*
G37*
G04 #@! TD.AperFunction*
G04 #@! TA.AperFunction,SMDPad,CuDef*
G36*
G01*
X209420000Y-53577500D02*
X209420000Y-53102500D01*
G75*
G02*
X209657500Y-52865000I237500J0D01*
G01*
X210157500Y-52865000D01*
G75*
G02*
X210395000Y-53102500I0J-237500D01*
G01*
X210395000Y-53577500D01*
G75*
G02*
X210157500Y-53815000I-237500J0D01*
G01*
X209657500Y-53815000D01*
G75*
G02*
X209420000Y-53577500I0J237500D01*
G01*
G37*
G04 #@! TD.AperFunction*
D16*
X168910000Y-26670000D03*
D17*
X166370000Y-26670000D03*
D18*
X198120000Y-19050000D03*
X198120000Y-20320000D03*
X198120000Y-21590000D03*
D19*
X198120000Y-22860000D03*
D20*
X191074717Y-53145010D02*
X190444990Y-52515283D01*
X192890500Y-53145010D02*
X191074717Y-53145010D01*
X190444990Y-48315010D02*
X191770000Y-46990000D01*
X206837755Y-39197755D02*
X192890500Y-53145010D01*
X206837755Y-25572245D02*
X206837755Y-39197755D01*
X208235001Y-24174999D02*
X206837755Y-25572245D01*
X208235001Y-20910001D02*
X208235001Y-24174999D01*
X190444990Y-52515283D02*
X190444990Y-48315010D01*
X207010000Y-19685000D02*
X208235001Y-20910001D01*
X203557500Y-22225000D02*
X203200000Y-21867500D01*
X207010000Y-22225000D02*
X203557500Y-22225000D01*
X196970000Y-19050000D02*
X198120000Y-19050000D01*
X196725010Y-43080010D02*
X195109500Y-43080010D01*
X196215000Y-19805000D02*
X196970000Y-19050000D01*
X197319990Y-43067510D02*
X196737510Y-43067510D01*
X197485000Y-40638590D02*
X197485000Y-24765000D01*
X196737510Y-43067510D02*
X196725010Y-43080010D01*
X195109500Y-43080010D02*
X194779991Y-42750500D01*
X197485000Y-24765000D02*
X196215000Y-23495000D01*
X194779991Y-41744991D02*
X195249982Y-41275000D01*
X195249982Y-41275000D02*
X196848590Y-41275000D01*
X194779991Y-42750500D02*
X194779991Y-41744991D01*
X196848590Y-41275000D02*
X197485000Y-40638590D01*
X198120000Y-42267500D02*
X197319990Y-43067510D01*
X196215000Y-23495000D02*
X196215000Y-19805000D01*
X195110998Y-64770000D02*
X194310000Y-64770000D01*
X200382500Y-42267500D02*
X200660000Y-42267500D01*
X198755000Y-40640000D02*
X200382500Y-42267500D01*
X198755000Y-24765000D02*
X198755000Y-40640000D01*
X199647500Y-23872500D02*
X198755000Y-24765000D01*
X199647500Y-21967500D02*
X199647500Y-23872500D01*
X199270000Y-21590000D02*
X199647500Y-21967500D01*
X198120000Y-21590000D02*
X199270000Y-21590000D01*
X195580000Y-42267500D02*
X196492500Y-42267500D01*
X198120000Y-40640000D02*
X198120000Y-22860000D01*
X196492500Y-42267500D02*
X198120000Y-40640000D01*
X192127500Y-44092500D02*
X191770000Y-44450000D01*
X195580000Y-44092500D02*
X192127500Y-44092500D01*
X199747500Y-44092500D02*
X191770000Y-52070000D01*
X200660000Y-44092500D02*
X199747500Y-44092500D01*
X192207500Y-49530000D02*
X191770000Y-49530000D01*
X197645000Y-44092500D02*
X192207500Y-49530000D01*
X198120000Y-44092500D02*
X197645000Y-44092500D01*
X218495010Y-39815283D02*
X218495010Y-38155010D01*
X217865283Y-40445010D02*
X218495010Y-39815283D01*
X211260010Y-40445010D02*
X217865283Y-40445010D01*
X209550000Y-38735000D02*
X211260010Y-40445010D01*
X209550000Y-27940000D02*
X209550000Y-38735000D01*
X209907500Y-27582500D02*
X209550000Y-27940000D01*
X210820000Y-27582500D02*
X209907500Y-27582500D01*
X218495010Y-38155010D02*
X217170000Y-36830000D01*
X210820000Y-28575000D02*
X212367500Y-28575000D01*
X210185000Y-29210000D02*
X210820000Y-28575000D01*
X210185000Y-38100000D02*
X210185000Y-29210000D01*
X211455000Y-39370000D02*
X210185000Y-38100000D01*
X212367500Y-28575000D02*
X213360000Y-27582500D01*
X217170000Y-39370000D02*
X211455000Y-39370000D01*
X208915000Y-52347500D02*
X209907500Y-53340000D01*
X208915000Y-27305000D02*
X208915000Y-52347500D01*
X209550000Y-26670000D02*
X208915000Y-27305000D01*
X217170000Y-26670000D02*
X209550000Y-26670000D01*
X209907500Y-53340000D02*
X209907500Y-61237500D01*
X209907500Y-61237500D02*
X208915000Y-62230000D01*
X201930000Y-62230000D02*
X199390000Y-64770000D01*
X208915000Y-62230000D02*
X201930000Y-62230000D01*
X203580000Y-71500000D02*
X213400000Y-71500000D01*
X196850000Y-64770000D02*
X203580000Y-71500000D01*
X166370000Y-54610000D02*
X166370000Y-58420000D01*
X180340000Y-33020000D02*
X180340000Y-40640000D01*
X180340000Y-40640000D02*
X166370000Y-54610000D01*
X168910000Y-26670000D02*
X175260000Y-26670000D01*
X177800000Y-33020000D02*
X177800000Y-29210000D01*
X177800000Y-29210000D02*
X175260000Y-26670000D01*
D21*
X211732500Y-58062500D02*
X211732500Y-53340000D01*
X204500001Y-63469999D02*
X210850001Y-63469999D01*
X203200000Y-64770000D02*
X204500001Y-63469999D01*
X217170000Y-59690000D02*
X214630000Y-59690000D01*
X210850001Y-63469999D02*
X214599999Y-63469999D01*
X214599999Y-63469999D02*
X215900000Y-64770000D01*
X215900000Y-64770000D02*
X215900000Y-69000000D01*
X211732500Y-58062500D02*
X211732500Y-62587500D01*
X211455000Y-62865000D02*
X214630000Y-59690000D01*
X211732500Y-62587500D02*
X211455000Y-62865000D01*
X210850001Y-63469999D02*
X211455000Y-62865000D01*
D20*
X213360000Y-17780000D02*
X213360000Y-25757500D01*
X217170000Y-13970000D02*
X213360000Y-17780000D01*
X213360000Y-25757500D02*
X210820000Y-25757500D01*
X213360000Y-25757500D02*
X213522510Y-25594990D01*
X207287765Y-58142235D02*
X205740000Y-59690000D01*
X207287765Y-28295825D02*
X207287765Y-58142235D01*
X209826090Y-25757500D02*
X207287765Y-28295825D01*
X210820000Y-25757500D02*
X209826090Y-25757500D01*
D22*
X220551010Y-6217192D02*
X221081036Y-6377216D01*
X221569879Y-6637140D01*
X221998931Y-6987065D01*
X222351844Y-7413664D01*
X222615173Y-7900681D01*
X222778894Y-8429578D01*
X222840001Y-9010970D01*
X222840000Y-69967721D01*
X222782808Y-70551010D01*
X222622783Y-71081036D01*
X222362860Y-71569880D01*
X222012935Y-71998931D01*
X221586335Y-72351845D01*
X221099320Y-72615173D01*
X220570422Y-72778894D01*
X219989040Y-72840000D01*
X213940922Y-72840000D01*
X214084464Y-72780543D01*
X214321134Y-72622405D01*
X214522405Y-72421134D01*
X214680543Y-72184464D01*
X214789470Y-71921491D01*
X214845000Y-71642320D01*
X214845000Y-71357680D01*
X214789470Y-71078509D01*
X214680543Y-70815536D01*
X214522405Y-70578866D01*
X214321134Y-70377595D01*
X214084464Y-70219457D01*
X213821491Y-70110530D01*
X213542320Y-70055000D01*
X213257680Y-70055000D01*
X212978509Y-70110530D01*
X212715536Y-70219457D01*
X212478866Y-70377595D01*
X212277595Y-70578866D01*
X212169929Y-70740000D01*
X203894802Y-70740000D01*
X202012482Y-68857680D01*
X209455000Y-68857680D01*
X209455000Y-69142320D01*
X209510530Y-69421491D01*
X209619457Y-69684464D01*
X209777595Y-69921134D01*
X209978866Y-70122405D01*
X210215536Y-70280543D01*
X210478509Y-70389470D01*
X210757680Y-70445000D01*
X211042320Y-70445000D01*
X211321491Y-70389470D01*
X211584464Y-70280543D01*
X211821134Y-70122405D01*
X212022405Y-69921134D01*
X212180543Y-69684464D01*
X212289470Y-69421491D01*
X212345000Y-69142320D01*
X212345000Y-68857680D01*
X212289470Y-68578509D01*
X212180543Y-68315536D01*
X212022405Y-68078866D01*
X211821134Y-67877595D01*
X211584464Y-67719457D01*
X211321491Y-67610530D01*
X211042320Y-67555000D01*
X210757680Y-67555000D01*
X210478509Y-67610530D01*
X210215536Y-67719457D01*
X209978866Y-67877595D01*
X209777595Y-68078866D01*
X209619457Y-68315536D01*
X209510530Y-68578509D01*
X209455000Y-68857680D01*
X202012482Y-68857680D01*
X199409801Y-66255000D01*
X199536260Y-66255000D01*
X199823158Y-66197932D01*
X200093411Y-66085990D01*
X200336632Y-65923475D01*
X200543475Y-65716632D01*
X200705990Y-65473411D01*
X200817932Y-65203158D01*
X200875000Y-64916260D01*
X200875000Y-64623740D01*
X200831210Y-64403592D01*
X202244803Y-62990000D01*
X203728421Y-62990000D01*
X203436493Y-63281928D01*
X202350000Y-63281928D01*
X202225518Y-63294188D01*
X202105820Y-63330498D01*
X201995506Y-63389463D01*
X201898815Y-63468815D01*
X201819463Y-63565506D01*
X201760498Y-63675820D01*
X201724188Y-63795518D01*
X201711928Y-63920000D01*
X201711928Y-65620000D01*
X201724188Y-65744482D01*
X201760498Y-65864180D01*
X201819463Y-65974494D01*
X201898815Y-66071185D01*
X201995506Y-66150537D01*
X202105820Y-66209502D01*
X202225518Y-66245812D01*
X202350000Y-66258072D01*
X204050000Y-66258072D01*
X204174482Y-66245812D01*
X204294180Y-66209502D01*
X204404494Y-66150537D01*
X204501185Y-66071185D01*
X204580537Y-65974494D01*
X204639502Y-65864180D01*
X204663966Y-65783534D01*
X204739731Y-65867588D01*
X204973080Y-66041641D01*
X205235901Y-66166825D01*
X205383110Y-66211476D01*
X205613000Y-66090155D01*
X205613000Y-64897000D01*
X205867000Y-64897000D01*
X205867000Y-66090155D01*
X206096890Y-66211476D01*
X206244099Y-66166825D01*
X206506920Y-66041641D01*
X206740269Y-65867588D01*
X206935178Y-65651355D01*
X207084157Y-65401252D01*
X207181481Y-65126891D01*
X207060814Y-64897000D01*
X205867000Y-64897000D01*
X205613000Y-64897000D01*
X205593000Y-64897000D01*
X205593000Y-64643000D01*
X205613000Y-64643000D01*
X205613000Y-64623000D01*
X205867000Y-64623000D01*
X205867000Y-64643000D01*
X207060814Y-64643000D01*
X207181481Y-64413109D01*
X207160868Y-64354999D01*
X210806532Y-64354999D01*
X210850001Y-64359280D01*
X210893470Y-64354999D01*
X214233421Y-64354999D01*
X215015000Y-65136579D01*
X215015001Y-67853451D01*
X214978866Y-67877595D01*
X214777595Y-68078866D01*
X214619457Y-68315536D01*
X214510530Y-68578509D01*
X214455000Y-68857680D01*
X214455000Y-69142320D01*
X214510530Y-69421491D01*
X214619457Y-69684464D01*
X214777595Y-69921134D01*
X214978866Y-70122405D01*
X215215536Y-70280543D01*
X215478509Y-70389470D01*
X215757680Y-70445000D01*
X216042320Y-70445000D01*
X216321491Y-70389470D01*
X216584464Y-70280543D01*
X216821134Y-70122405D01*
X217022405Y-69921134D01*
X217145229Y-69737314D01*
X217332905Y-69737314D01*
X217332905Y-70262686D01*
X217435400Y-70777963D01*
X217636451Y-71263343D01*
X217928332Y-71700174D01*
X218299826Y-72071668D01*
X218736657Y-72363549D01*
X219222037Y-72564600D01*
X219737314Y-72667095D01*
X220262686Y-72667095D01*
X220777963Y-72564600D01*
X221263343Y-72363549D01*
X221700174Y-72071668D01*
X222071668Y-71700174D01*
X222363549Y-71263343D01*
X222564600Y-70777963D01*
X222667095Y-70262686D01*
X222667095Y-69737314D01*
X222564600Y-69222037D01*
X222363549Y-68736657D01*
X222071668Y-68299826D01*
X221700174Y-67928332D01*
X221263343Y-67636451D01*
X220777963Y-67435400D01*
X220262686Y-67332905D01*
X219737314Y-67332905D01*
X219222037Y-67435400D01*
X218736657Y-67636451D01*
X218299826Y-67928332D01*
X217928332Y-68299826D01*
X217636451Y-68736657D01*
X217435400Y-69222037D01*
X217332905Y-69737314D01*
X217145229Y-69737314D01*
X217180543Y-69684464D01*
X217289470Y-69421491D01*
X217345000Y-69142320D01*
X217345000Y-68857680D01*
X217289470Y-68578509D01*
X217180543Y-68315536D01*
X217022405Y-68078866D01*
X216821134Y-67877595D01*
X216785000Y-67853451D01*
X216785000Y-64813466D01*
X216789281Y-64769999D01*
X216785000Y-64726533D01*
X216785000Y-64726523D01*
X216772195Y-64596510D01*
X216721589Y-64429687D01*
X216639411Y-64275941D01*
X216584809Y-64209409D01*
X216556532Y-64174953D01*
X216556530Y-64174951D01*
X216528817Y-64141183D01*
X216495050Y-64113471D01*
X215256531Y-62874953D01*
X215228816Y-62841182D01*
X215094058Y-62730588D01*
X214940312Y-62648410D01*
X214773489Y-62597804D01*
X214643476Y-62584999D01*
X214643468Y-62584999D01*
X214599999Y-62580718D01*
X214556530Y-62584999D01*
X212986579Y-62584999D01*
X214996579Y-60575000D01*
X215854605Y-60575000D01*
X215935919Y-60674081D01*
X216146812Y-60847157D01*
X216387419Y-60975764D01*
X216648493Y-61054960D01*
X216851963Y-61075000D01*
X217488037Y-61075000D01*
X217691507Y-61054960D01*
X217952581Y-60975764D01*
X218193188Y-60847157D01*
X218404081Y-60674081D01*
X218577157Y-60463188D01*
X218705764Y-60222581D01*
X218784960Y-59961507D01*
X218811701Y-59690000D01*
X218784960Y-59418493D01*
X218705764Y-59157419D01*
X218577157Y-58916812D01*
X218404081Y-58705919D01*
X218193188Y-58532843D01*
X217982073Y-58420000D01*
X218193188Y-58307157D01*
X218404081Y-58134081D01*
X218577157Y-57923188D01*
X218705764Y-57682581D01*
X218784960Y-57421507D01*
X218811701Y-57150000D01*
X218784960Y-56878493D01*
X218705764Y-56617419D01*
X218577157Y-56376812D01*
X218404081Y-56165919D01*
X218193188Y-55992843D01*
X217982073Y-55880000D01*
X218193188Y-55767157D01*
X218404081Y-55594081D01*
X218577157Y-55383188D01*
X218705764Y-55142581D01*
X218784960Y-54881507D01*
X218811701Y-54610000D01*
X218784960Y-54338493D01*
X218705764Y-54077419D01*
X218577157Y-53836812D01*
X218404081Y-53625919D01*
X218193188Y-53452843D01*
X217982073Y-53340000D01*
X218193188Y-53227157D01*
X218404081Y-53054081D01*
X218577157Y-52843188D01*
X218705764Y-52602581D01*
X218784960Y-52341507D01*
X218811701Y-52070000D01*
X218784960Y-51798493D01*
X218705764Y-51537419D01*
X218577157Y-51296812D01*
X218404081Y-51085919D01*
X218193188Y-50912843D01*
X217982073Y-50800000D01*
X218193188Y-50687157D01*
X218404081Y-50514081D01*
X218577157Y-50303188D01*
X218705764Y-50062581D01*
X218784960Y-49801507D01*
X218811701Y-49530000D01*
X218784960Y-49258493D01*
X218705764Y-48997419D01*
X218577157Y-48756812D01*
X218404081Y-48545919D01*
X218193188Y-48372843D01*
X217984972Y-48261549D01*
X218041724Y-48239968D01*
X218273634Y-48094658D01*
X218472740Y-47906897D01*
X218631390Y-47683900D01*
X218743487Y-47434236D01*
X218762318Y-47331185D01*
X218639656Y-47117000D01*
X217297000Y-47117000D01*
X217297000Y-47137000D01*
X217043000Y-47137000D01*
X217043000Y-47117000D01*
X215700344Y-47117000D01*
X215577682Y-47331185D01*
X215596513Y-47434236D01*
X215708610Y-47683900D01*
X215867260Y-47906897D01*
X216066366Y-48094658D01*
X216298276Y-48239968D01*
X216355028Y-48261549D01*
X216146812Y-48372843D01*
X215935919Y-48545919D01*
X215762843Y-48756812D01*
X215634236Y-48997419D01*
X215555040Y-49258493D01*
X215528299Y-49530000D01*
X215555040Y-49801507D01*
X215634236Y-50062581D01*
X215762843Y-50303188D01*
X215935919Y-50514081D01*
X216146812Y-50687157D01*
X216357927Y-50800000D01*
X216146812Y-50912843D01*
X215935919Y-51085919D01*
X215762843Y-51296812D01*
X215634236Y-51537419D01*
X215555040Y-51798493D01*
X215528299Y-52070000D01*
X215555040Y-52341507D01*
X215634236Y-52602581D01*
X215762843Y-52843188D01*
X215935919Y-53054081D01*
X216146812Y-53227157D01*
X216357927Y-53340000D01*
X216146812Y-53452843D01*
X215935919Y-53625919D01*
X215762843Y-53836812D01*
X215634236Y-54077419D01*
X215555040Y-54338493D01*
X215528299Y-54610000D01*
X215555040Y-54881507D01*
X215634236Y-55142581D01*
X215762843Y-55383188D01*
X215935919Y-55594081D01*
X216146812Y-55767157D01*
X216357927Y-55880000D01*
X216146812Y-55992843D01*
X215935919Y-56165919D01*
X215762843Y-56376812D01*
X215634236Y-56617419D01*
X215555040Y-56878493D01*
X215528299Y-57150000D01*
X215555040Y-57421507D01*
X215634236Y-57682581D01*
X215762843Y-57923188D01*
X215935919Y-58134081D01*
X216146812Y-58307157D01*
X216357927Y-58420000D01*
X216146812Y-58532843D01*
X215935919Y-58705919D01*
X215854605Y-58805000D01*
X214673466Y-58805000D01*
X214629999Y-58800719D01*
X214586533Y-58805000D01*
X214586523Y-58805000D01*
X214456510Y-58817805D01*
X214289687Y-58868411D01*
X214135941Y-58950589D01*
X214106452Y-58974790D01*
X214034953Y-59033468D01*
X214034951Y-59033470D01*
X214001183Y-59061183D01*
X213973470Y-59094951D01*
X212617500Y-60450921D01*
X212617500Y-54177277D01*
X212710512Y-54063942D01*
X212791423Y-53912567D01*
X212841248Y-53748316D01*
X212858072Y-53577500D01*
X212858072Y-53102500D01*
X212841248Y-52931684D01*
X212791423Y-52767433D01*
X212710512Y-52616058D01*
X212601623Y-52483377D01*
X212468942Y-52374488D01*
X212317567Y-52293577D01*
X212153316Y-52243752D01*
X211982500Y-52226928D01*
X211482500Y-52226928D01*
X211311684Y-52243752D01*
X211147433Y-52293577D01*
X210996058Y-52374488D01*
X210863377Y-52483377D01*
X210820000Y-52536232D01*
X210776623Y-52483377D01*
X210643942Y-52374488D01*
X210492567Y-52293577D01*
X210328316Y-52243752D01*
X210157500Y-52226928D01*
X209869229Y-52226928D01*
X209675000Y-52032699D01*
X209675000Y-39934801D01*
X210696211Y-40956013D01*
X210720009Y-40985011D01*
X210835734Y-41079984D01*
X210967763Y-41150556D01*
X211111024Y-41194013D01*
X211222677Y-41205010D01*
X211222686Y-41205010D01*
X211260009Y-41208686D01*
X211297332Y-41205010D01*
X215726390Y-41205010D01*
X215634236Y-41377419D01*
X215555040Y-41638493D01*
X215528299Y-41910000D01*
X215555040Y-42181507D01*
X215634236Y-42442581D01*
X215762843Y-42683188D01*
X215935919Y-42894081D01*
X216146812Y-43067157D01*
X216357927Y-43180000D01*
X216146812Y-43292843D01*
X215935919Y-43465919D01*
X215762843Y-43676812D01*
X215634236Y-43917419D01*
X215555040Y-44178493D01*
X215528299Y-44450000D01*
X215555040Y-44721507D01*
X215634236Y-44982581D01*
X215762843Y-45223188D01*
X215935919Y-45434081D01*
X216146812Y-45607157D01*
X216355028Y-45718451D01*
X216298276Y-45740032D01*
X216066366Y-45885342D01*
X215867260Y-46073103D01*
X215708610Y-46296100D01*
X215596513Y-46545764D01*
X215577682Y-46648815D01*
X215700344Y-46863000D01*
X217043000Y-46863000D01*
X217043000Y-46843000D01*
X217297000Y-46843000D01*
X217297000Y-46863000D01*
X218639656Y-46863000D01*
X218762318Y-46648815D01*
X218743487Y-46545764D01*
X218631390Y-46296100D01*
X218472740Y-46073103D01*
X218273634Y-45885342D01*
X218041724Y-45740032D01*
X217984972Y-45718451D01*
X218193188Y-45607157D01*
X218404081Y-45434081D01*
X218577157Y-45223188D01*
X218705764Y-44982581D01*
X218784960Y-44721507D01*
X218811701Y-44450000D01*
X218784960Y-44178493D01*
X218705764Y-43917419D01*
X218577157Y-43676812D01*
X218404081Y-43465919D01*
X218193188Y-43292843D01*
X217982073Y-43180000D01*
X218193188Y-43067157D01*
X218404081Y-42894081D01*
X218577157Y-42683188D01*
X218705764Y-42442581D01*
X218784960Y-42181507D01*
X218811701Y-41910000D01*
X218784960Y-41638493D01*
X218705764Y-41377419D01*
X218577157Y-41136812D01*
X218428930Y-40956198D01*
X218429086Y-40956008D01*
X219006019Y-40379077D01*
X219035011Y-40355284D01*
X219058805Y-40326291D01*
X219058809Y-40326287D01*
X219129983Y-40239560D01*
X219129984Y-40239559D01*
X219200556Y-40107530D01*
X219244013Y-39964269D01*
X219255010Y-39852616D01*
X219255010Y-39852607D01*
X219258686Y-39815284D01*
X219255010Y-39777961D01*
X219255010Y-38192332D01*
X219258686Y-38155009D01*
X219255010Y-38117686D01*
X219255010Y-38117677D01*
X219244013Y-38006024D01*
X219200556Y-37862763D01*
X219171153Y-37807754D01*
X219129984Y-37730733D01*
X219058809Y-37644007D01*
X219035011Y-37615009D01*
X219006013Y-37591211D01*
X218722433Y-37307631D01*
X218784960Y-37101507D01*
X218811701Y-36830000D01*
X218784960Y-36558493D01*
X218705764Y-36297419D01*
X218577157Y-36056812D01*
X218404081Y-35845919D01*
X218193188Y-35672843D01*
X217982073Y-35560000D01*
X218193188Y-35447157D01*
X218404081Y-35274081D01*
X218577157Y-35063188D01*
X218705764Y-34822581D01*
X218784960Y-34561507D01*
X218811701Y-34290000D01*
X218784960Y-34018493D01*
X218705764Y-33757419D01*
X218577157Y-33516812D01*
X218404081Y-33305919D01*
X218193188Y-33132843D01*
X217982073Y-33020000D01*
X218193188Y-32907157D01*
X218404081Y-32734081D01*
X218577157Y-32523188D01*
X218705764Y-32282581D01*
X218784960Y-32021507D01*
X218811701Y-31750000D01*
X218784960Y-31478493D01*
X218705764Y-31217419D01*
X218577157Y-30976812D01*
X218404081Y-30765919D01*
X218193188Y-30592843D01*
X217982073Y-30480000D01*
X218193188Y-30367157D01*
X218404081Y-30194081D01*
X218577157Y-29983188D01*
X218705764Y-29742581D01*
X218784960Y-29481507D01*
X218811701Y-29210000D01*
X218784960Y-28938493D01*
X218705764Y-28677419D01*
X218577157Y-28436812D01*
X218404081Y-28225919D01*
X218193188Y-28052843D01*
X217982073Y-27940000D01*
X218193188Y-27827157D01*
X218404081Y-27654081D01*
X218577157Y-27443188D01*
X218705764Y-27202581D01*
X218784960Y-26941507D01*
X218811701Y-26670000D01*
X218784960Y-26398493D01*
X218705764Y-26137419D01*
X218577157Y-25896812D01*
X218404081Y-25685919D01*
X218193188Y-25512843D01*
X217982073Y-25400000D01*
X218193188Y-25287157D01*
X218404081Y-25114081D01*
X218577157Y-24903188D01*
X218705764Y-24662581D01*
X218784960Y-24401507D01*
X218811701Y-24130000D01*
X218784960Y-23858493D01*
X218705764Y-23597419D01*
X218577157Y-23356812D01*
X218404081Y-23145919D01*
X218193188Y-22972843D01*
X217982073Y-22860000D01*
X218193188Y-22747157D01*
X218404081Y-22574081D01*
X218577157Y-22363188D01*
X218705764Y-22122581D01*
X218784960Y-21861507D01*
X218811701Y-21590000D01*
X218784960Y-21318493D01*
X218705764Y-21057419D01*
X218577157Y-20816812D01*
X218404081Y-20605919D01*
X218193188Y-20432843D01*
X217982073Y-20320000D01*
X218193188Y-20207157D01*
X218404081Y-20034081D01*
X218577157Y-19823188D01*
X218705764Y-19582581D01*
X218784960Y-19321507D01*
X218811701Y-19050000D01*
X218784960Y-18778493D01*
X218705764Y-18517419D01*
X218577157Y-18276812D01*
X218404081Y-18065919D01*
X218193188Y-17892843D01*
X217982073Y-17780000D01*
X218193188Y-17667157D01*
X218404081Y-17494081D01*
X218577157Y-17283188D01*
X218705764Y-17042581D01*
X218784960Y-16781507D01*
X218811701Y-16510000D01*
X218784960Y-16238493D01*
X218705764Y-15977419D01*
X218577157Y-15736812D01*
X218404081Y-15525919D01*
X218193188Y-15352843D01*
X217982073Y-15240000D01*
X218193188Y-15127157D01*
X218404081Y-14954081D01*
X218577157Y-14743188D01*
X218705764Y-14502581D01*
X218784960Y-14241507D01*
X218811701Y-13970000D01*
X218784960Y-13698493D01*
X218705764Y-13437419D01*
X218577157Y-13196812D01*
X218404081Y-12985919D01*
X218193188Y-12812843D01*
X217952581Y-12684236D01*
X217892846Y-12666116D01*
X217892846Y-10647065D01*
X217928332Y-10700174D01*
X218299826Y-11071668D01*
X218736657Y-11363549D01*
X219222037Y-11564600D01*
X219737314Y-11667095D01*
X220262686Y-11667095D01*
X220777963Y-11564600D01*
X221263343Y-11363549D01*
X221700174Y-11071668D01*
X222071668Y-10700174D01*
X222363549Y-10263343D01*
X222564600Y-9777963D01*
X222667095Y-9262686D01*
X222667095Y-8737314D01*
X222564600Y-8222037D01*
X222363549Y-7736657D01*
X222071668Y-7299826D01*
X221700174Y-6928332D01*
X221263343Y-6636451D01*
X220777963Y-6435400D01*
X220262686Y-6332905D01*
X219737314Y-6332905D01*
X219222037Y-6435400D01*
X218736657Y-6636451D01*
X218299826Y-6928332D01*
X217928332Y-7299826D01*
X217892846Y-7352935D01*
X217892846Y-6160000D01*
X219967721Y-6160000D01*
X220551010Y-6217192D01*
G04 #@! TA.AperFunction,Conductor*
D23*
G36*
X220551010Y-6217192D02*
G01*
X221081036Y-6377216D01*
X221569879Y-6637140D01*
X221998931Y-6987065D01*
X222351844Y-7413664D01*
X222615173Y-7900681D01*
X222778894Y-8429578D01*
X222840001Y-9010970D01*
X222840000Y-69967721D01*
X222782808Y-70551010D01*
X222622783Y-71081036D01*
X222362860Y-71569880D01*
X222012935Y-71998931D01*
X221586335Y-72351845D01*
X221099320Y-72615173D01*
X220570422Y-72778894D01*
X219989040Y-72840000D01*
X213940922Y-72840000D01*
X214084464Y-72780543D01*
X214321134Y-72622405D01*
X214522405Y-72421134D01*
X214680543Y-72184464D01*
X214789470Y-71921491D01*
X214845000Y-71642320D01*
X214845000Y-71357680D01*
X214789470Y-71078509D01*
X214680543Y-70815536D01*
X214522405Y-70578866D01*
X214321134Y-70377595D01*
X214084464Y-70219457D01*
X213821491Y-70110530D01*
X213542320Y-70055000D01*
X213257680Y-70055000D01*
X212978509Y-70110530D01*
X212715536Y-70219457D01*
X212478866Y-70377595D01*
X212277595Y-70578866D01*
X212169929Y-70740000D01*
X203894802Y-70740000D01*
X202012482Y-68857680D01*
X209455000Y-68857680D01*
X209455000Y-69142320D01*
X209510530Y-69421491D01*
X209619457Y-69684464D01*
X209777595Y-69921134D01*
X209978866Y-70122405D01*
X210215536Y-70280543D01*
X210478509Y-70389470D01*
X210757680Y-70445000D01*
X211042320Y-70445000D01*
X211321491Y-70389470D01*
X211584464Y-70280543D01*
X211821134Y-70122405D01*
X212022405Y-69921134D01*
X212180543Y-69684464D01*
X212289470Y-69421491D01*
X212345000Y-69142320D01*
X212345000Y-68857680D01*
X212289470Y-68578509D01*
X212180543Y-68315536D01*
X212022405Y-68078866D01*
X211821134Y-67877595D01*
X211584464Y-67719457D01*
X211321491Y-67610530D01*
X211042320Y-67555000D01*
X210757680Y-67555000D01*
X210478509Y-67610530D01*
X210215536Y-67719457D01*
X209978866Y-67877595D01*
X209777595Y-68078866D01*
X209619457Y-68315536D01*
X209510530Y-68578509D01*
X209455000Y-68857680D01*
X202012482Y-68857680D01*
X199409801Y-66255000D01*
X199536260Y-66255000D01*
X199823158Y-66197932D01*
X200093411Y-66085990D01*
X200336632Y-65923475D01*
X200543475Y-65716632D01*
X200705990Y-65473411D01*
X200817932Y-65203158D01*
X200875000Y-64916260D01*
X200875000Y-64623740D01*
X200831210Y-64403592D01*
X202244803Y-62990000D01*
X203728421Y-62990000D01*
X203436493Y-63281928D01*
X202350000Y-63281928D01*
X202225518Y-63294188D01*
X202105820Y-63330498D01*
X201995506Y-63389463D01*
X201898815Y-63468815D01*
X201819463Y-63565506D01*
X201760498Y-63675820D01*
X201724188Y-63795518D01*
X201711928Y-63920000D01*
X201711928Y-65620000D01*
X201724188Y-65744482D01*
X201760498Y-65864180D01*
X201819463Y-65974494D01*
X201898815Y-66071185D01*
X201995506Y-66150537D01*
X202105820Y-66209502D01*
X202225518Y-66245812D01*
X202350000Y-66258072D01*
X204050000Y-66258072D01*
X204174482Y-66245812D01*
X204294180Y-66209502D01*
X204404494Y-66150537D01*
X204501185Y-66071185D01*
X204580537Y-65974494D01*
X204639502Y-65864180D01*
X204663966Y-65783534D01*
X204739731Y-65867588D01*
X204973080Y-66041641D01*
X205235901Y-66166825D01*
X205383110Y-66211476D01*
X205613000Y-66090155D01*
X205613000Y-64897000D01*
X205867000Y-64897000D01*
X205867000Y-66090155D01*
X206096890Y-66211476D01*
X206244099Y-66166825D01*
X206506920Y-66041641D01*
X206740269Y-65867588D01*
X206935178Y-65651355D01*
X207084157Y-65401252D01*
X207181481Y-65126891D01*
X207060814Y-64897000D01*
X205867000Y-64897000D01*
X205613000Y-64897000D01*
X205593000Y-64897000D01*
X205593000Y-64643000D01*
X205613000Y-64643000D01*
X205613000Y-64623000D01*
X205867000Y-64623000D01*
X205867000Y-64643000D01*
X207060814Y-64643000D01*
X207181481Y-64413109D01*
X207160868Y-64354999D01*
X210806532Y-64354999D01*
X210850001Y-64359280D01*
X210893470Y-64354999D01*
X214233421Y-64354999D01*
X215015000Y-65136579D01*
X215015001Y-67853451D01*
X214978866Y-67877595D01*
X214777595Y-68078866D01*
X214619457Y-68315536D01*
X214510530Y-68578509D01*
X214455000Y-68857680D01*
X214455000Y-69142320D01*
X214510530Y-69421491D01*
X214619457Y-69684464D01*
X214777595Y-69921134D01*
X214978866Y-70122405D01*
X215215536Y-70280543D01*
X215478509Y-70389470D01*
X215757680Y-70445000D01*
X216042320Y-70445000D01*
X216321491Y-70389470D01*
X216584464Y-70280543D01*
X216821134Y-70122405D01*
X217022405Y-69921134D01*
X217145229Y-69737314D01*
X217332905Y-69737314D01*
X217332905Y-70262686D01*
X217435400Y-70777963D01*
X217636451Y-71263343D01*
X217928332Y-71700174D01*
X218299826Y-72071668D01*
X218736657Y-72363549D01*
X219222037Y-72564600D01*
X219737314Y-72667095D01*
X220262686Y-72667095D01*
X220777963Y-72564600D01*
X221263343Y-72363549D01*
X221700174Y-72071668D01*
X222071668Y-71700174D01*
X222363549Y-71263343D01*
X222564600Y-70777963D01*
X222667095Y-70262686D01*
X222667095Y-69737314D01*
X222564600Y-69222037D01*
X222363549Y-68736657D01*
X222071668Y-68299826D01*
X221700174Y-67928332D01*
X221263343Y-67636451D01*
X220777963Y-67435400D01*
X220262686Y-67332905D01*
X219737314Y-67332905D01*
X219222037Y-67435400D01*
X218736657Y-67636451D01*
X218299826Y-67928332D01*
X217928332Y-68299826D01*
X217636451Y-68736657D01*
X217435400Y-69222037D01*
X217332905Y-69737314D01*
X217145229Y-69737314D01*
X217180543Y-69684464D01*
X217289470Y-69421491D01*
X217345000Y-69142320D01*
X217345000Y-68857680D01*
X217289470Y-68578509D01*
X217180543Y-68315536D01*
X217022405Y-68078866D01*
X216821134Y-67877595D01*
X216785000Y-67853451D01*
X216785000Y-64813466D01*
X216789281Y-64769999D01*
X216785000Y-64726533D01*
X216785000Y-64726523D01*
X216772195Y-64596510D01*
X216721589Y-64429687D01*
X216639411Y-64275941D01*
X216584809Y-64209409D01*
X216556532Y-64174953D01*
X216556530Y-64174951D01*
X216528817Y-64141183D01*
X216495050Y-64113471D01*
X215256531Y-62874953D01*
X215228816Y-62841182D01*
X215094058Y-62730588D01*
X214940312Y-62648410D01*
X214773489Y-62597804D01*
X214643476Y-62584999D01*
X214643468Y-62584999D01*
X214599999Y-62580718D01*
X214556530Y-62584999D01*
X212986579Y-62584999D01*
X214996579Y-60575000D01*
X215854605Y-60575000D01*
X215935919Y-60674081D01*
X216146812Y-60847157D01*
X216387419Y-60975764D01*
X216648493Y-61054960D01*
X216851963Y-61075000D01*
X217488037Y-61075000D01*
X217691507Y-61054960D01*
X217952581Y-60975764D01*
X218193188Y-60847157D01*
X218404081Y-60674081D01*
X218577157Y-60463188D01*
X218705764Y-60222581D01*
X218784960Y-59961507D01*
X218811701Y-59690000D01*
X218784960Y-59418493D01*
X218705764Y-59157419D01*
X218577157Y-58916812D01*
X218404081Y-58705919D01*
X218193188Y-58532843D01*
X217982073Y-58420000D01*
X218193188Y-58307157D01*
X218404081Y-58134081D01*
X218577157Y-57923188D01*
X218705764Y-57682581D01*
X218784960Y-57421507D01*
X218811701Y-57150000D01*
X218784960Y-56878493D01*
X218705764Y-56617419D01*
X218577157Y-56376812D01*
X218404081Y-56165919D01*
X218193188Y-55992843D01*
X217982073Y-55880000D01*
X218193188Y-55767157D01*
X218404081Y-55594081D01*
X218577157Y-55383188D01*
X218705764Y-55142581D01*
X218784960Y-54881507D01*
X218811701Y-54610000D01*
X218784960Y-54338493D01*
X218705764Y-54077419D01*
X218577157Y-53836812D01*
X218404081Y-53625919D01*
X218193188Y-53452843D01*
X217982073Y-53340000D01*
X218193188Y-53227157D01*
X218404081Y-53054081D01*
X218577157Y-52843188D01*
X218705764Y-52602581D01*
X218784960Y-52341507D01*
X218811701Y-52070000D01*
X218784960Y-51798493D01*
X218705764Y-51537419D01*
X218577157Y-51296812D01*
X218404081Y-51085919D01*
X218193188Y-50912843D01*
X217982073Y-50800000D01*
X218193188Y-50687157D01*
X218404081Y-50514081D01*
X218577157Y-50303188D01*
X218705764Y-50062581D01*
X218784960Y-49801507D01*
X218811701Y-49530000D01*
X218784960Y-49258493D01*
X218705764Y-48997419D01*
X218577157Y-48756812D01*
X218404081Y-48545919D01*
X218193188Y-48372843D01*
X217984972Y-48261549D01*
X218041724Y-48239968D01*
X218273634Y-48094658D01*
X218472740Y-47906897D01*
X218631390Y-47683900D01*
X218743487Y-47434236D01*
X218762318Y-47331185D01*
X218639656Y-47117000D01*
X217297000Y-47117000D01*
X217297000Y-47137000D01*
X217043000Y-47137000D01*
X217043000Y-47117000D01*
X215700344Y-47117000D01*
X215577682Y-47331185D01*
X215596513Y-47434236D01*
X215708610Y-47683900D01*
X215867260Y-47906897D01*
X216066366Y-48094658D01*
X216298276Y-48239968D01*
X216355028Y-48261549D01*
X216146812Y-48372843D01*
X215935919Y-48545919D01*
X215762843Y-48756812D01*
X215634236Y-48997419D01*
X215555040Y-49258493D01*
X215528299Y-49530000D01*
X215555040Y-49801507D01*
X215634236Y-50062581D01*
X215762843Y-50303188D01*
X215935919Y-50514081D01*
X216146812Y-50687157D01*
X216357927Y-50800000D01*
X216146812Y-50912843D01*
X215935919Y-51085919D01*
X215762843Y-51296812D01*
X215634236Y-51537419D01*
X215555040Y-51798493D01*
X215528299Y-52070000D01*
X215555040Y-52341507D01*
X215634236Y-52602581D01*
X215762843Y-52843188D01*
X215935919Y-53054081D01*
X216146812Y-53227157D01*
X216357927Y-53340000D01*
X216146812Y-53452843D01*
X215935919Y-53625919D01*
X215762843Y-53836812D01*
X215634236Y-54077419D01*
X215555040Y-54338493D01*
X215528299Y-54610000D01*
X215555040Y-54881507D01*
X215634236Y-55142581D01*
X215762843Y-55383188D01*
X215935919Y-55594081D01*
X216146812Y-55767157D01*
X216357927Y-55880000D01*
X216146812Y-55992843D01*
X215935919Y-56165919D01*
X215762843Y-56376812D01*
X215634236Y-56617419D01*
X215555040Y-56878493D01*
X215528299Y-57150000D01*
X215555040Y-57421507D01*
X215634236Y-57682581D01*
X215762843Y-57923188D01*
X215935919Y-58134081D01*
X216146812Y-58307157D01*
X216357927Y-58420000D01*
X216146812Y-58532843D01*
X215935919Y-58705919D01*
X215854605Y-58805000D01*
X214673466Y-58805000D01*
X214629999Y-58800719D01*
X214586533Y-58805000D01*
X214586523Y-58805000D01*
X214456510Y-58817805D01*
X214289687Y-58868411D01*
X214135941Y-58950589D01*
X214106452Y-58974790D01*
X214034953Y-59033468D01*
X214034951Y-59033470D01*
X214001183Y-59061183D01*
X213973470Y-59094951D01*
X212617500Y-60450921D01*
X212617500Y-54177277D01*
X212710512Y-54063942D01*
X212791423Y-53912567D01*
X212841248Y-53748316D01*
X212858072Y-53577500D01*
X212858072Y-53102500D01*
X212841248Y-52931684D01*
X212791423Y-52767433D01*
X212710512Y-52616058D01*
X212601623Y-52483377D01*
X212468942Y-52374488D01*
X212317567Y-52293577D01*
X212153316Y-52243752D01*
X211982500Y-52226928D01*
X211482500Y-52226928D01*
X211311684Y-52243752D01*
X211147433Y-52293577D01*
X210996058Y-52374488D01*
X210863377Y-52483377D01*
X210820000Y-52536232D01*
X210776623Y-52483377D01*
X210643942Y-52374488D01*
X210492567Y-52293577D01*
X210328316Y-52243752D01*
X210157500Y-52226928D01*
X209869229Y-52226928D01*
X209675000Y-52032699D01*
X209675000Y-39934801D01*
X210696211Y-40956013D01*
X210720009Y-40985011D01*
X210835734Y-41079984D01*
X210967763Y-41150556D01*
X211111024Y-41194013D01*
X211222677Y-41205010D01*
X211222686Y-41205010D01*
X211260009Y-41208686D01*
X211297332Y-41205010D01*
X215726390Y-41205010D01*
X215634236Y-41377419D01*
X215555040Y-41638493D01*
X215528299Y-41910000D01*
X215555040Y-42181507D01*
X215634236Y-42442581D01*
X215762843Y-42683188D01*
X215935919Y-42894081D01*
X216146812Y-43067157D01*
X216357927Y-43180000D01*
X216146812Y-43292843D01*
X215935919Y-43465919D01*
X215762843Y-43676812D01*
X215634236Y-43917419D01*
X215555040Y-44178493D01*
X215528299Y-44450000D01*
X215555040Y-44721507D01*
X215634236Y-44982581D01*
X215762843Y-45223188D01*
X215935919Y-45434081D01*
X216146812Y-45607157D01*
X216355028Y-45718451D01*
X216298276Y-45740032D01*
X216066366Y-45885342D01*
X215867260Y-46073103D01*
X215708610Y-46296100D01*
X215596513Y-46545764D01*
X215577682Y-46648815D01*
X215700344Y-46863000D01*
X217043000Y-46863000D01*
X217043000Y-46843000D01*
X217297000Y-46843000D01*
X217297000Y-46863000D01*
X218639656Y-46863000D01*
X218762318Y-46648815D01*
X218743487Y-46545764D01*
X218631390Y-46296100D01*
X218472740Y-46073103D01*
X218273634Y-45885342D01*
X218041724Y-45740032D01*
X217984972Y-45718451D01*
X218193188Y-45607157D01*
X218404081Y-45434081D01*
X218577157Y-45223188D01*
X218705764Y-44982581D01*
X218784960Y-44721507D01*
X218811701Y-44450000D01*
X218784960Y-44178493D01*
X218705764Y-43917419D01*
X218577157Y-43676812D01*
X218404081Y-43465919D01*
X218193188Y-43292843D01*
X217982073Y-43180000D01*
X218193188Y-43067157D01*
X218404081Y-42894081D01*
X218577157Y-42683188D01*
X218705764Y-42442581D01*
X218784960Y-42181507D01*
X218811701Y-41910000D01*
X218784960Y-41638493D01*
X218705764Y-41377419D01*
X218577157Y-41136812D01*
X218428930Y-40956198D01*
X218429086Y-40956008D01*
X219006019Y-40379077D01*
X219035011Y-40355284D01*
X219058805Y-40326291D01*
X219058809Y-40326287D01*
X219129983Y-40239560D01*
X219129984Y-40239559D01*
X219200556Y-40107530D01*
X219244013Y-39964269D01*
X219255010Y-39852616D01*
X219255010Y-39852607D01*
X219258686Y-39815284D01*
X219255010Y-39777961D01*
X219255010Y-38192332D01*
X219258686Y-38155009D01*
X219255010Y-38117686D01*
X219255010Y-38117677D01*
X219244013Y-38006024D01*
X219200556Y-37862763D01*
X219171153Y-37807754D01*
X219129984Y-37730733D01*
X219058809Y-37644007D01*
X219035011Y-37615009D01*
X219006013Y-37591211D01*
X218722433Y-37307631D01*
X218784960Y-37101507D01*
X218811701Y-36830000D01*
X218784960Y-36558493D01*
X218705764Y-36297419D01*
X218577157Y-36056812D01*
X218404081Y-35845919D01*
X218193188Y-35672843D01*
X217982073Y-35560000D01*
X218193188Y-35447157D01*
X218404081Y-35274081D01*
X218577157Y-35063188D01*
X218705764Y-34822581D01*
X218784960Y-34561507D01*
X218811701Y-34290000D01*
X218784960Y-34018493D01*
X218705764Y-33757419D01*
X218577157Y-33516812D01*
X218404081Y-33305919D01*
X218193188Y-33132843D01*
X217982073Y-33020000D01*
X218193188Y-32907157D01*
X218404081Y-32734081D01*
X218577157Y-32523188D01*
X218705764Y-32282581D01*
X218784960Y-32021507D01*
X218811701Y-31750000D01*
X218784960Y-31478493D01*
X218705764Y-31217419D01*
X218577157Y-30976812D01*
X218404081Y-30765919D01*
X218193188Y-30592843D01*
X217982073Y-30480000D01*
X218193188Y-30367157D01*
X218404081Y-30194081D01*
X218577157Y-29983188D01*
X218705764Y-29742581D01*
X218784960Y-29481507D01*
X218811701Y-29210000D01*
X218784960Y-28938493D01*
X218705764Y-28677419D01*
X218577157Y-28436812D01*
X218404081Y-28225919D01*
X218193188Y-28052843D01*
X217982073Y-27940000D01*
X218193188Y-27827157D01*
X218404081Y-27654081D01*
X218577157Y-27443188D01*
X218705764Y-27202581D01*
X218784960Y-26941507D01*
X218811701Y-26670000D01*
X218784960Y-26398493D01*
X218705764Y-26137419D01*
X218577157Y-25896812D01*
X218404081Y-25685919D01*
X218193188Y-25512843D01*
X217982073Y-25400000D01*
X218193188Y-25287157D01*
X218404081Y-25114081D01*
X218577157Y-24903188D01*
X218705764Y-24662581D01*
X218784960Y-24401507D01*
X218811701Y-24130000D01*
X218784960Y-23858493D01*
X218705764Y-23597419D01*
X218577157Y-23356812D01*
X218404081Y-23145919D01*
X218193188Y-22972843D01*
X217982073Y-22860000D01*
X218193188Y-22747157D01*
X218404081Y-22574081D01*
X218577157Y-22363188D01*
X218705764Y-22122581D01*
X218784960Y-21861507D01*
X218811701Y-21590000D01*
X218784960Y-21318493D01*
X218705764Y-21057419D01*
X218577157Y-20816812D01*
X218404081Y-20605919D01*
X218193188Y-20432843D01*
X217982073Y-20320000D01*
X218193188Y-20207157D01*
X218404081Y-20034081D01*
X218577157Y-19823188D01*
X218705764Y-19582581D01*
X218784960Y-19321507D01*
X218811701Y-19050000D01*
X218784960Y-18778493D01*
X218705764Y-18517419D01*
X218577157Y-18276812D01*
X218404081Y-18065919D01*
X218193188Y-17892843D01*
X217982073Y-17780000D01*
X218193188Y-17667157D01*
X218404081Y-17494081D01*
X218577157Y-17283188D01*
X218705764Y-17042581D01*
X218784960Y-16781507D01*
X218811701Y-16510000D01*
X218784960Y-16238493D01*
X218705764Y-15977419D01*
X218577157Y-15736812D01*
X218404081Y-15525919D01*
X218193188Y-15352843D01*
X217982073Y-15240000D01*
X218193188Y-15127157D01*
X218404081Y-14954081D01*
X218577157Y-14743188D01*
X218705764Y-14502581D01*
X218784960Y-14241507D01*
X218811701Y-13970000D01*
X218784960Y-13698493D01*
X218705764Y-13437419D01*
X218577157Y-13196812D01*
X218404081Y-12985919D01*
X218193188Y-12812843D01*
X217952581Y-12684236D01*
X217892846Y-12666116D01*
X217892846Y-10647065D01*
X217928332Y-10700174D01*
X218299826Y-11071668D01*
X218736657Y-11363549D01*
X219222037Y-11564600D01*
X219737314Y-11667095D01*
X220262686Y-11667095D01*
X220777963Y-11564600D01*
X221263343Y-11363549D01*
X221700174Y-11071668D01*
X222071668Y-10700174D01*
X222363549Y-10263343D01*
X222564600Y-9777963D01*
X222667095Y-9262686D01*
X222667095Y-8737314D01*
X222564600Y-8222037D01*
X222363549Y-7736657D01*
X222071668Y-7299826D01*
X221700174Y-6928332D01*
X221263343Y-6636451D01*
X220777963Y-6435400D01*
X220262686Y-6332905D01*
X219737314Y-6332905D01*
X219222037Y-6435400D01*
X218736657Y-6636451D01*
X218299826Y-6928332D01*
X217928332Y-7299826D01*
X217892846Y-7352935D01*
X217892846Y-6160000D01*
X219967721Y-6160000D01*
X220551010Y-6217192D01*
G37*
G04 #@! TD.AperFunction*
D22*
X190968846Y-7990866D02*
X190863549Y-7736657D01*
X190571668Y-7299826D01*
X190200174Y-6928332D01*
X189763343Y-6636451D01*
X189277963Y-6435400D01*
X188762686Y-6332905D01*
X188237314Y-6332905D01*
X187722037Y-6435400D01*
X187236657Y-6636451D01*
X186799826Y-6928332D01*
X186428332Y-7299826D01*
X186136451Y-7736657D01*
X185935400Y-8222037D01*
X185832905Y-8737314D01*
X185832905Y-9262686D01*
X185935400Y-9777963D01*
X186136451Y-10263343D01*
X186428332Y-10700174D01*
X186799826Y-11071668D01*
X187236657Y-11363549D01*
X187722037Y-11564600D01*
X188237314Y-11667095D01*
X188762686Y-11667095D01*
X189277963Y-11564600D01*
X189763343Y-11363549D01*
X190200174Y-11071668D01*
X190571668Y-10700174D01*
X190863549Y-10263343D01*
X190968846Y-10009134D01*
X190968846Y-12693196D01*
X190898276Y-12720032D01*
X190666366Y-12865342D01*
X190467260Y-13053103D01*
X190308610Y-13276100D01*
X190196513Y-13525764D01*
X190177682Y-13628815D01*
X190300344Y-13843000D01*
X191643000Y-13843000D01*
X191643000Y-13823000D01*
X191897000Y-13823000D01*
X191897000Y-13843000D01*
X193239656Y-13843000D01*
X193362318Y-13628815D01*
X193343487Y-13525764D01*
X193231390Y-13276100D01*
X193072740Y-13053103D01*
X192873634Y-12865342D01*
X192812441Y-12827000D01*
X216129562Y-12827000D01*
X215935919Y-12985919D01*
X215762843Y-13196812D01*
X215634236Y-13437419D01*
X215555040Y-13698493D01*
X215528299Y-13970000D01*
X215555040Y-14241507D01*
X215617567Y-14447631D01*
X212849003Y-17216196D01*
X212819999Y-17239999D01*
X212784555Y-17283188D01*
X212725026Y-17355724D01*
X212654455Y-17487753D01*
X212654454Y-17487754D01*
X212610997Y-17631015D01*
X212600000Y-17742668D01*
X212600000Y-17742678D01*
X212596324Y-17780000D01*
X212600000Y-17817322D01*
X212600001Y-24809079D01*
X212503377Y-24888377D01*
X212413822Y-24997500D01*
X211766178Y-24997500D01*
X211676623Y-24888377D01*
X211543942Y-24779488D01*
X211392567Y-24698577D01*
X211228316Y-24648752D01*
X211057500Y-24631928D01*
X210582500Y-24631928D01*
X210411684Y-24648752D01*
X210247433Y-24698577D01*
X210096058Y-24779488D01*
X209963377Y-24888377D01*
X209873822Y-24997500D01*
X209863415Y-24997500D01*
X209826090Y-24993824D01*
X209788765Y-24997500D01*
X209788757Y-24997500D01*
X209677104Y-25008497D01*
X209533843Y-25051954D01*
X209401814Y-25122526D01*
X209286089Y-25217499D01*
X209262291Y-25246497D01*
X207597755Y-26911034D01*
X207597755Y-25887046D01*
X208746004Y-24738798D01*
X208775002Y-24715000D01*
X208869975Y-24599275D01*
X208940547Y-24467246D01*
X208984004Y-24323985D01*
X208995001Y-24212332D01*
X208995001Y-24212323D01*
X208998677Y-24175000D01*
X208995001Y-24137677D01*
X208995001Y-20947323D01*
X208998677Y-20910000D01*
X208995001Y-20872677D01*
X208995001Y-20872668D01*
X208984004Y-20761015D01*
X208940547Y-20617754D01*
X208914314Y-20568676D01*
X208869975Y-20485724D01*
X208798800Y-20398998D01*
X208775002Y-20370000D01*
X208746005Y-20346203D01*
X208493731Y-20093930D01*
X208545000Y-19836184D01*
X208545000Y-19533816D01*
X208486011Y-19237257D01*
X208370299Y-18957905D01*
X208202312Y-18706495D01*
X207988505Y-18492688D01*
X207737095Y-18324701D01*
X207457743Y-18208989D01*
X207161184Y-18150000D01*
X206858816Y-18150000D01*
X206562257Y-18208989D01*
X206282905Y-18324701D01*
X206031495Y-18492688D01*
X205817688Y-18706495D01*
X205649701Y-18957905D01*
X205533989Y-19237257D01*
X205475000Y-19533816D01*
X205475000Y-19836184D01*
X205533989Y-20132743D01*
X205649701Y-20412095D01*
X205817688Y-20663505D01*
X205884127Y-20729944D01*
X205865820Y-20735498D01*
X205755506Y-20794463D01*
X205658815Y-20873815D01*
X205579463Y-20970506D01*
X205520498Y-21080820D01*
X205484188Y-21200518D01*
X205471928Y-21325000D01*
X205471928Y-21465000D01*
X204298052Y-21465000D01*
X204296248Y-21446684D01*
X204246423Y-21282433D01*
X204165512Y-21131058D01*
X204076188Y-21022217D01*
X204126185Y-20981185D01*
X204205537Y-20884494D01*
X204264502Y-20774180D01*
X204300812Y-20654482D01*
X204313072Y-20530000D01*
X204310000Y-20328250D01*
X204151250Y-20169500D01*
X203327000Y-20169500D01*
X203327000Y-20189500D01*
X203073000Y-20189500D01*
X203073000Y-20169500D01*
X202248750Y-20169500D01*
X202090000Y-20328250D01*
X202086928Y-20530000D01*
X202099188Y-20654482D01*
X202135498Y-20774180D01*
X202194463Y-20884494D01*
X202273815Y-20981185D01*
X202323812Y-21022217D01*
X202234488Y-21131058D01*
X202153577Y-21282433D01*
X202103752Y-21446684D01*
X202086928Y-21617500D01*
X202086928Y-22117500D01*
X202103752Y-22288316D01*
X202153577Y-22452567D01*
X202234488Y-22603942D01*
X202343377Y-22736623D01*
X202476058Y-22845512D01*
X202627433Y-22926423D01*
X202791684Y-22976248D01*
X202962500Y-22993072D01*
X203437500Y-22993072D01*
X203519811Y-22984965D01*
X203520167Y-22985000D01*
X203520176Y-22985000D01*
X203557499Y-22988676D01*
X203594822Y-22985000D01*
X205471928Y-22985000D01*
X205471928Y-23125000D01*
X205484188Y-23249482D01*
X205520498Y-23369180D01*
X205579463Y-23479494D01*
X205658815Y-23576185D01*
X205755506Y-23655537D01*
X205865820Y-23714502D01*
X205985518Y-23750812D01*
X206110000Y-23763072D01*
X207475002Y-23763072D01*
X207475002Y-23860196D01*
X206326758Y-25008441D01*
X206297754Y-25032244D01*
X206242626Y-25099419D01*
X206202781Y-25147969D01*
X206180702Y-25189276D01*
X206132209Y-25279999D01*
X206088752Y-25423260D01*
X206077755Y-25534913D01*
X206077755Y-25534923D01*
X206074079Y-25572245D01*
X206077755Y-25609567D01*
X206077756Y-38882952D01*
X201616108Y-43344600D01*
X201516623Y-43223377D01*
X201463768Y-43180000D01*
X201516623Y-43136623D01*
X201625512Y-43003942D01*
X201706423Y-42852567D01*
X201756248Y-42688316D01*
X201773072Y-42517500D01*
X201773072Y-42017500D01*
X201756248Y-41846684D01*
X201706423Y-41682433D01*
X201625512Y-41531058D01*
X201516623Y-41398377D01*
X201383942Y-41289488D01*
X201232567Y-41208577D01*
X201068316Y-41158752D01*
X200897500Y-41141928D01*
X200422500Y-41141928D01*
X200339868Y-41150067D01*
X199515000Y-40325199D01*
X199515000Y-25079801D01*
X200158503Y-24436299D01*
X200187501Y-24412501D01*
X200282474Y-24296776D01*
X200353046Y-24164747D01*
X200396503Y-24021486D01*
X200407500Y-23909833D01*
X200411177Y-23872500D01*
X200407500Y-23835167D01*
X200407500Y-22004833D01*
X200411177Y-21967500D01*
X200396503Y-21818514D01*
X200353046Y-21675253D01*
X200321132Y-21615547D01*
X200282474Y-21543224D01*
X200187501Y-21427499D01*
X200158498Y-21403697D01*
X199833804Y-21079003D01*
X199810001Y-21049999D01*
X199694276Y-20955026D01*
X199562247Y-20884454D01*
X199523052Y-20872565D01*
X199528377Y-20864421D01*
X199613900Y-20627383D01*
X199488244Y-20447000D01*
X198747560Y-20447000D01*
X198714360Y-20436929D01*
X198542477Y-20420000D01*
X197973000Y-20420000D01*
X197973000Y-20220000D01*
X198542477Y-20220000D01*
X198714360Y-20203071D01*
X198747560Y-20193000D01*
X199488244Y-20193000D01*
X199613900Y-20012617D01*
X199528377Y-19775579D01*
X199470846Y-19687596D01*
X199541720Y-19555000D01*
X202086928Y-19555000D01*
X202090000Y-19756750D01*
X202248750Y-19915500D01*
X203073000Y-19915500D01*
X203073000Y-19078750D01*
X203327000Y-19078750D01*
X203327000Y-19915500D01*
X204151250Y-19915500D01*
X204310000Y-19756750D01*
X204313072Y-19555000D01*
X204300812Y-19430518D01*
X204264502Y-19310820D01*
X204205537Y-19200506D01*
X204126185Y-19103815D01*
X204029494Y-19024463D01*
X203919180Y-18965498D01*
X203799482Y-18929188D01*
X203675000Y-18916928D01*
X203485750Y-18920000D01*
X203327000Y-19078750D01*
X203073000Y-19078750D01*
X202914250Y-18920000D01*
X202725000Y-18916928D01*
X202600518Y-18929188D01*
X202480820Y-18965498D01*
X202370506Y-19024463D01*
X202273815Y-19103815D01*
X202194463Y-19200506D01*
X202135498Y-19310820D01*
X202099188Y-19430518D01*
X202086928Y-19555000D01*
X199541720Y-19555000D01*
X199571169Y-19499906D01*
X199638071Y-19279360D01*
X199660661Y-19050000D01*
X199638071Y-18820640D01*
X199571169Y-18600094D01*
X199462526Y-18396838D01*
X199316318Y-18218682D01*
X199138162Y-18072474D01*
X198934906Y-17963831D01*
X198714360Y-17896929D01*
X198542477Y-17880000D01*
X197697523Y-17880000D01*
X197525640Y-17896929D01*
X197305094Y-17963831D01*
X197101838Y-18072474D01*
X196923682Y-18218682D01*
X196859216Y-18297234D01*
X196821014Y-18300997D01*
X196677753Y-18344454D01*
X196545724Y-18415026D01*
X196429999Y-18509999D01*
X196406201Y-18538998D01*
X195703998Y-19241201D01*
X195675000Y-19264999D01*
X195651202Y-19293997D01*
X195651201Y-19293998D01*
X195580026Y-19380724D01*
X195509454Y-19512754D01*
X195465998Y-19656015D01*
X195451324Y-19805000D01*
X195455001Y-19842332D01*
X195455000Y-23457677D01*
X195451324Y-23495000D01*
X195455000Y-23532322D01*
X195455000Y-23532332D01*
X195465997Y-23643985D01*
X195498402Y-23750812D01*
X195509454Y-23787246D01*
X195580026Y-23919276D01*
X195611484Y-23957607D01*
X195674999Y-24035001D01*
X195704003Y-24058804D01*
X196725001Y-25079803D01*
X196725000Y-40323788D01*
X196533789Y-40515000D01*
X195287307Y-40515000D01*
X195249982Y-40511324D01*
X195212657Y-40515000D01*
X195212649Y-40515000D01*
X195100996Y-40525997D01*
X194957735Y-40569454D01*
X194825706Y-40640026D01*
X194709981Y-40734999D01*
X194686178Y-40764003D01*
X194268989Y-41181192D01*
X194239991Y-41204990D01*
X194216193Y-41233988D01*
X194216192Y-41233989D01*
X194145017Y-41320715D01*
X194074445Y-41452745D01*
X194058951Y-41503824D01*
X194030989Y-41596005D01*
X194020818Y-41699276D01*
X194016315Y-41744991D01*
X194019992Y-41782323D01*
X194019991Y-42713176D01*
X194016315Y-42750499D01*
X194019991Y-42787824D01*
X194019991Y-42787832D01*
X194030988Y-42899485D01*
X194074445Y-43042746D01*
X194145017Y-43174775D01*
X194239990Y-43290501D01*
X194268993Y-43314303D01*
X194287190Y-43332500D01*
X192841510Y-43332500D01*
X192793188Y-43292843D01*
X192582073Y-43180000D01*
X192793188Y-43067157D01*
X193004081Y-42894081D01*
X193177157Y-42683188D01*
X193305764Y-42442581D01*
X193384960Y-42181507D01*
X193411701Y-41910000D01*
X193384960Y-41638493D01*
X193305764Y-41377419D01*
X193177157Y-41136812D01*
X193004081Y-40925919D01*
X192793188Y-40752843D01*
X192582073Y-40640000D01*
X192793188Y-40527157D01*
X193004081Y-40354081D01*
X193177157Y-40143188D01*
X193305764Y-39902581D01*
X193384960Y-39641507D01*
X193411701Y-39370000D01*
X193384960Y-39098493D01*
X193305764Y-38837419D01*
X193177157Y-38596812D01*
X193004081Y-38385919D01*
X192793188Y-38212843D01*
X192582073Y-38100000D01*
X192793188Y-37987157D01*
X193004081Y-37814081D01*
X193177157Y-37603188D01*
X193305764Y-37362581D01*
X193384960Y-37101507D01*
X193411701Y-36830000D01*
X193384960Y-36558493D01*
X193305764Y-36297419D01*
X193177157Y-36056812D01*
X193004081Y-35845919D01*
X192793188Y-35672843D01*
X192582073Y-35560000D01*
X192793188Y-35447157D01*
X193004081Y-35274081D01*
X193177157Y-35063188D01*
X193305764Y-34822581D01*
X193384960Y-34561507D01*
X193411701Y-34290000D01*
X193384960Y-34018493D01*
X193305764Y-33757419D01*
X193177157Y-33516812D01*
X193004081Y-33305919D01*
X192793188Y-33132843D01*
X192582073Y-33020000D01*
X192793188Y-32907157D01*
X193004081Y-32734081D01*
X193177157Y-32523188D01*
X193305764Y-32282581D01*
X193384960Y-32021507D01*
X193411701Y-31750000D01*
X193384960Y-31478493D01*
X193305764Y-31217419D01*
X193177157Y-30976812D01*
X193004081Y-30765919D01*
X192793188Y-30592843D01*
X192584972Y-30481549D01*
X192641724Y-30459968D01*
X192873634Y-30314658D01*
X193072740Y-30126897D01*
X193231390Y-29903900D01*
X193343487Y-29654236D01*
X193362318Y-29551185D01*
X193239656Y-29337000D01*
X191897000Y-29337000D01*
X191897000Y-29357000D01*
X191643000Y-29357000D01*
X191643000Y-29337000D01*
X190300344Y-29337000D01*
X190177682Y-29551185D01*
X190196513Y-29654236D01*
X190308610Y-29903900D01*
X190467260Y-30126897D01*
X190666366Y-30314658D01*
X190898276Y-30459968D01*
X190955028Y-30481549D01*
X190746812Y-30592843D01*
X190535919Y-30765919D01*
X190362843Y-30976812D01*
X190234236Y-31217419D01*
X190155040Y-31478493D01*
X190128299Y-31750000D01*
X190155040Y-32021507D01*
X190234236Y-32282581D01*
X190362843Y-32523188D01*
X190535919Y-32734081D01*
X190746812Y-32907157D01*
X190957927Y-33020000D01*
X190746812Y-33132843D01*
X190535919Y-33305919D01*
X190362843Y-33516812D01*
X190234236Y-33757419D01*
X190155040Y-34018493D01*
X190128299Y-34290000D01*
X190155040Y-34561507D01*
X190234236Y-34822581D01*
X190362843Y-35063188D01*
X190535919Y-35274081D01*
X190746812Y-35447157D01*
X190957927Y-35560000D01*
X190746812Y-35672843D01*
X190535919Y-35845919D01*
X190362843Y-36056812D01*
X190234236Y-36297419D01*
X190155040Y-36558493D01*
X190128299Y-36830000D01*
X190155040Y-37101507D01*
X190234236Y-37362581D01*
X190362843Y-37603188D01*
X190535919Y-37814081D01*
X190746812Y-37987157D01*
X190957927Y-38100000D01*
X190746812Y-38212843D01*
X190535919Y-38385919D01*
X190362843Y-38596812D01*
X190234236Y-38837419D01*
X190155040Y-39098493D01*
X190128299Y-39370000D01*
X190155040Y-39641507D01*
X190234236Y-39902581D01*
X190362843Y-40143188D01*
X190535919Y-40354081D01*
X190746812Y-40527157D01*
X190957927Y-40640000D01*
X190746812Y-40752843D01*
X190535919Y-40925919D01*
X190362843Y-41136812D01*
X190234236Y-41377419D01*
X190155040Y-41638493D01*
X190128299Y-41910000D01*
X190155040Y-42181507D01*
X190234236Y-42442581D01*
X190362843Y-42683188D01*
X190535919Y-42894081D01*
X190746812Y-43067157D01*
X190957927Y-43180000D01*
X190746812Y-43292843D01*
X190535919Y-43465919D01*
X190362843Y-43676812D01*
X190234236Y-43917419D01*
X190155040Y-44178493D01*
X190128299Y-44450000D01*
X190155040Y-44721507D01*
X190234236Y-44982581D01*
X190362843Y-45223188D01*
X190535919Y-45434081D01*
X190746812Y-45607157D01*
X190957927Y-45720000D01*
X190746812Y-45832843D01*
X190535919Y-46005919D01*
X190362843Y-46216812D01*
X190234236Y-46457419D01*
X190155040Y-46718493D01*
X190128299Y-46990000D01*
X190155040Y-47261507D01*
X190217567Y-47467632D01*
X189933988Y-47751211D01*
X189904990Y-47775009D01*
X189881192Y-47804007D01*
X189881191Y-47804008D01*
X189810016Y-47890734D01*
X189739444Y-48022764D01*
X189717636Y-48094658D01*
X189696287Y-48165040D01*
X189695988Y-48166025D01*
X189681314Y-48315010D01*
X189684991Y-48352342D01*
X189684990Y-52477960D01*
X189681314Y-52515283D01*
X189684990Y-52552605D01*
X189684990Y-52552615D01*
X189695987Y-52664268D01*
X189728599Y-52771776D01*
X189739444Y-52807529D01*
X189810016Y-52939559D01*
X189845236Y-52982474D01*
X189904989Y-53055284D01*
X189933992Y-53079086D01*
X190510922Y-53656018D01*
X190511070Y-53656198D01*
X190362843Y-53836812D01*
X190234236Y-54077419D01*
X190155040Y-54338493D01*
X190128299Y-54610000D01*
X190155040Y-54881507D01*
X190234236Y-55142581D01*
X190362843Y-55383188D01*
X190535919Y-55594081D01*
X190746812Y-55767157D01*
X190957927Y-55880000D01*
X190746812Y-55992843D01*
X190535919Y-56165919D01*
X190362843Y-56376812D01*
X190234236Y-56617419D01*
X190155040Y-56878493D01*
X190128299Y-57150000D01*
X190155040Y-57421507D01*
X190234236Y-57682581D01*
X190362843Y-57923188D01*
X190535919Y-58134081D01*
X190746812Y-58307157D01*
X190957927Y-58420000D01*
X190746812Y-58532843D01*
X190535919Y-58705919D01*
X190362843Y-58916812D01*
X190234236Y-59157419D01*
X190155040Y-59418493D01*
X190128299Y-59690000D01*
X190155040Y-59961507D01*
X190234236Y-60222581D01*
X190362843Y-60463188D01*
X190535919Y-60674081D01*
X190746812Y-60847157D01*
X190987419Y-60975764D01*
X191248493Y-61054960D01*
X191451963Y-61075000D01*
X192088037Y-61075000D01*
X192291507Y-61054960D01*
X192552581Y-60975764D01*
X192793188Y-60847157D01*
X193004081Y-60674081D01*
X193177157Y-60463188D01*
X193305764Y-60222581D01*
X193384960Y-59961507D01*
X193411701Y-59690000D01*
X193384960Y-59418493D01*
X193305764Y-59157419D01*
X193177157Y-58916812D01*
X193004081Y-58705919D01*
X192793188Y-58532843D01*
X192582073Y-58420000D01*
X192793188Y-58307157D01*
X193004081Y-58134081D01*
X193177157Y-57923188D01*
X193305764Y-57682581D01*
X193384960Y-57421507D01*
X193411701Y-57150000D01*
X193384960Y-56878493D01*
X193305764Y-56617419D01*
X193177157Y-56376812D01*
X193004081Y-56165919D01*
X192793188Y-55992843D01*
X192582073Y-55880000D01*
X192793188Y-55767157D01*
X193004081Y-55594081D01*
X193177157Y-55383188D01*
X193305764Y-55142581D01*
X193384960Y-54881507D01*
X193411701Y-54610000D01*
X193384960Y-54338493D01*
X193305764Y-54077419D01*
X193184113Y-53849826D01*
X193314776Y-53779984D01*
X193430501Y-53685011D01*
X193454304Y-53656007D01*
X206527765Y-40582547D01*
X206527766Y-57827432D01*
X206106408Y-58248790D01*
X205886260Y-58205000D01*
X205593740Y-58205000D01*
X205306842Y-58262068D01*
X205036589Y-58374010D01*
X204793368Y-58536525D01*
X204586525Y-58743368D01*
X204470000Y-58917760D01*
X204353475Y-58743368D01*
X204146632Y-58536525D01*
X203903411Y-58374010D01*
X203633158Y-58262068D01*
X203346260Y-58205000D01*
X203053740Y-58205000D01*
X202766842Y-58262068D01*
X202496589Y-58374010D01*
X202253368Y-58536525D01*
X202121513Y-58668380D01*
X202099502Y-58595820D01*
X202040537Y-58485506D01*
X201961185Y-58388815D01*
X201864494Y-58309463D01*
X201754180Y-58250498D01*
X201634482Y-58214188D01*
X201510000Y-58201928D01*
X199810000Y-58201928D01*
X199685518Y-58214188D01*
X199565820Y-58250498D01*
X199455506Y-58309463D01*
X199358815Y-58388815D01*
X199279463Y-58485506D01*
X199220498Y-58595820D01*
X199184188Y-58715518D01*
X199171928Y-58840000D01*
X199171928Y-60540000D01*
X199184188Y-60664482D01*
X199220498Y-60784180D01*
X199279463Y-60894494D01*
X199358815Y-60991185D01*
X199455506Y-61070537D01*
X199565820Y-61129502D01*
X199685518Y-61165812D01*
X199810000Y-61178072D01*
X201510000Y-61178072D01*
X201634482Y-61165812D01*
X201754180Y-61129502D01*
X201864494Y-61070537D01*
X201961185Y-60991185D01*
X202040537Y-60894494D01*
X202099502Y-60784180D01*
X202121513Y-60711620D01*
X202253368Y-60843475D01*
X202496589Y-61005990D01*
X202766842Y-61117932D01*
X203053740Y-61175000D01*
X203346260Y-61175000D01*
X203633158Y-61117932D01*
X203903411Y-61005990D01*
X204146632Y-60843475D01*
X204353475Y-60636632D01*
X204470000Y-60462240D01*
X204586525Y-60636632D01*
X204793368Y-60843475D01*
X205036589Y-61005990D01*
X205306842Y-61117932D01*
X205593740Y-61175000D01*
X205886260Y-61175000D01*
X206173158Y-61117932D01*
X206443411Y-61005990D01*
X206686632Y-60843475D01*
X206893475Y-60636632D01*
X207015195Y-60454466D01*
X207084822Y-60571355D01*
X207279731Y-60787588D01*
X207513080Y-60961641D01*
X207775901Y-61086825D01*
X207923110Y-61131476D01*
X208153000Y-61010155D01*
X208153000Y-59817000D01*
X208133000Y-59817000D01*
X208133000Y-59563000D01*
X208153000Y-59563000D01*
X208153000Y-58369845D01*
X208032248Y-58306120D01*
X208036768Y-58291221D01*
X208047765Y-58179568D01*
X208047765Y-58179559D01*
X208051441Y-58142236D01*
X208047765Y-58104913D01*
X208047765Y-28610626D01*
X208155000Y-28503391D01*
X208155001Y-52310167D01*
X208151324Y-52347500D01*
X208165998Y-52496485D01*
X208209454Y-52639746D01*
X208280026Y-52771776D01*
X208346491Y-52852763D01*
X208375000Y-52887501D01*
X208403998Y-52911299D01*
X208781928Y-53289229D01*
X208781928Y-53577500D01*
X208798752Y-53748316D01*
X208848577Y-53912567D01*
X208929488Y-54063942D01*
X209038377Y-54196623D01*
X209147500Y-54286178D01*
X209147501Y-58493381D01*
X209046920Y-58418359D01*
X208784099Y-58293175D01*
X208636890Y-58248524D01*
X208407000Y-58369845D01*
X208407000Y-59563000D01*
X208427000Y-59563000D01*
X208427000Y-59817000D01*
X208407000Y-59817000D01*
X208407000Y-61010155D01*
X208636890Y-61131476D01*
X208784099Y-61086825D01*
X209046920Y-60961641D01*
X209147501Y-60886619D01*
X209147501Y-60922697D01*
X208600199Y-61470000D01*
X201967322Y-61470000D01*
X201929999Y-61466324D01*
X201892676Y-61470000D01*
X201892667Y-61470000D01*
X201781014Y-61480997D01*
X201637753Y-61524454D01*
X201505724Y-61595026D01*
X201505722Y-61595027D01*
X201505723Y-61595027D01*
X201418996Y-61666201D01*
X201418992Y-61666205D01*
X201389999Y-61689999D01*
X201366205Y-61718992D01*
X199756408Y-63328790D01*
X199536260Y-63285000D01*
X199243740Y-63285000D01*
X198956842Y-63342068D01*
X198686589Y-63454010D01*
X198443368Y-63616525D01*
X198236525Y-63823368D01*
X198120000Y-63997760D01*
X198003475Y-63823368D01*
X197796632Y-63616525D01*
X197553411Y-63454010D01*
X197283158Y-63342068D01*
X196996260Y-63285000D01*
X196703740Y-63285000D01*
X196416842Y-63342068D01*
X196146589Y-63454010D01*
X195903368Y-63616525D01*
X195771513Y-63748380D01*
X195749502Y-63675820D01*
X195690537Y-63565506D01*
X195611185Y-63468815D01*
X195514494Y-63389463D01*
X195404180Y-63330498D01*
X195284482Y-63294188D01*
X195160000Y-63281928D01*
X194595750Y-63285000D01*
X194437000Y-63443750D01*
X194437000Y-64643000D01*
X194457000Y-64643000D01*
X194457000Y-64897000D01*
X194437000Y-64897000D01*
X194437000Y-66096250D01*
X194595750Y-66255000D01*
X195160000Y-66258072D01*
X195284482Y-66245812D01*
X195404180Y-66209502D01*
X195514494Y-66150537D01*
X195611185Y-66071185D01*
X195690537Y-65974494D01*
X195749502Y-65864180D01*
X195771513Y-65791620D01*
X195903368Y-65923475D01*
X196146589Y-66085990D01*
X196416842Y-66197932D01*
X196703740Y-66255000D01*
X196996260Y-66255000D01*
X197216408Y-66211209D01*
X203016201Y-72011003D01*
X203039999Y-72040001D01*
X203155724Y-72134974D01*
X203287753Y-72205546D01*
X203431014Y-72249003D01*
X203542667Y-72260000D01*
X203542676Y-72260000D01*
X203579999Y-72263676D01*
X203617322Y-72260000D01*
X212169929Y-72260000D01*
X212277595Y-72421134D01*
X212478866Y-72622405D01*
X212715536Y-72780543D01*
X212859078Y-72840000D01*
X188532279Y-72840000D01*
X187948990Y-72782808D01*
X187418964Y-72622783D01*
X186930120Y-72362860D01*
X186501069Y-72012935D01*
X186148155Y-71586335D01*
X185884827Y-71099320D01*
X185721106Y-70570422D01*
X185660000Y-69989040D01*
X185660000Y-69737314D01*
X185832905Y-69737314D01*
X185832905Y-70262686D01*
X185935400Y-70777963D01*
X186136451Y-71263343D01*
X186428332Y-71700174D01*
X186799826Y-72071668D01*
X187236657Y-72363549D01*
X187722037Y-72564600D01*
X188237314Y-72667095D01*
X188762686Y-72667095D01*
X189277963Y-72564600D01*
X189763343Y-72363549D01*
X190200174Y-72071668D01*
X190571668Y-71700174D01*
X190863549Y-71263343D01*
X191064600Y-70777963D01*
X191167095Y-70262686D01*
X191167095Y-69737314D01*
X191064600Y-69222037D01*
X190863549Y-68736657D01*
X190571668Y-68299826D01*
X190200174Y-67928332D01*
X189763343Y-67636451D01*
X189277963Y-67435400D01*
X188762686Y-67332905D01*
X188237314Y-67332905D01*
X187722037Y-67435400D01*
X187236657Y-67636451D01*
X186799826Y-67928332D01*
X186428332Y-68299826D01*
X186136451Y-68736657D01*
X185935400Y-69222037D01*
X185832905Y-69737314D01*
X185660000Y-69737314D01*
X185660000Y-65620000D01*
X192821928Y-65620000D01*
X192834188Y-65744482D01*
X192870498Y-65864180D01*
X192929463Y-65974494D01*
X193008815Y-66071185D01*
X193105506Y-66150537D01*
X193215820Y-66209502D01*
X193335518Y-66245812D01*
X193460000Y-66258072D01*
X194024250Y-66255000D01*
X194183000Y-66096250D01*
X194183000Y-64897000D01*
X192983750Y-64897000D01*
X192825000Y-65055750D01*
X192821928Y-65620000D01*
X185660000Y-65620000D01*
X185660000Y-63920000D01*
X192821928Y-63920000D01*
X192825000Y-64484250D01*
X192983750Y-64643000D01*
X194183000Y-64643000D01*
X194183000Y-63443750D01*
X194024250Y-63285000D01*
X193460000Y-63281928D01*
X193335518Y-63294188D01*
X193215820Y-63330498D01*
X193105506Y-63389463D01*
X193008815Y-63468815D01*
X192929463Y-63565506D01*
X192870498Y-63675820D01*
X192834188Y-63795518D01*
X192821928Y-63920000D01*
X185660000Y-63920000D01*
X185660000Y-30967581D01*
X185656777Y-30934857D01*
X185656777Y-30925124D01*
X185655814Y-30915959D01*
X185639498Y-30770497D01*
X185627059Y-30711976D01*
X185615442Y-30653305D01*
X185612717Y-30644502D01*
X185568458Y-30504980D01*
X185544892Y-30449997D01*
X185522097Y-30394691D01*
X185517714Y-30386585D01*
X185447196Y-30258316D01*
X185413453Y-30209036D01*
X185380302Y-30159139D01*
X185374427Y-30152039D01*
X185280340Y-30039908D01*
X185237606Y-29998060D01*
X185195444Y-29955603D01*
X185188303Y-29949779D01*
X185127000Y-29900491D01*
X185127000Y-27099786D01*
X185202877Y-27037015D01*
X185245018Y-26994579D01*
X185287767Y-26952716D01*
X185293641Y-26945616D01*
X185386154Y-26832184D01*
X185419246Y-26782375D01*
X185453053Y-26733003D01*
X185457436Y-26724896D01*
X185526155Y-26595655D01*
X185548940Y-26540374D01*
X185572517Y-26485364D01*
X185575242Y-26476561D01*
X185617548Y-26336434D01*
X185629164Y-26277768D01*
X185641603Y-26219247D01*
X185642566Y-26210082D01*
X185656850Y-26064406D01*
X185656850Y-26064402D01*
X185660000Y-26032419D01*
X185660000Y-16510000D01*
X190128299Y-16510000D01*
X190155040Y-16781507D01*
X190234236Y-17042581D01*
X190362843Y-17283188D01*
X190535919Y-17494081D01*
X190746812Y-17667157D01*
X190957927Y-17780000D01*
X190746812Y-17892843D01*
X190535919Y-18065919D01*
X190362843Y-18276812D01*
X190234236Y-18517419D01*
X190155040Y-18778493D01*
X190128299Y-19050000D01*
X190155040Y-19321507D01*
X190234236Y-19582581D01*
X190362843Y-19823188D01*
X190535919Y-20034081D01*
X190746812Y-20207157D01*
X190957927Y-20320000D01*
X190746812Y-20432843D01*
X190535919Y-20605919D01*
X190362843Y-20816812D01*
X190234236Y-21057419D01*
X190155040Y-21318493D01*
X190128299Y-21590000D01*
X190155040Y-21861507D01*
X190234236Y-22122581D01*
X190362843Y-22363188D01*
X190535919Y-22574081D01*
X190746812Y-22747157D01*
X190957927Y-22860000D01*
X190746812Y-22972843D01*
X190535919Y-23145919D01*
X190362843Y-23356812D01*
X190234236Y-23597419D01*
X190155040Y-23858493D01*
X190128299Y-24130000D01*
X190155040Y-24401507D01*
X190234236Y-24662581D01*
X190362843Y-24903188D01*
X190535919Y-25114081D01*
X190746812Y-25287157D01*
X190957927Y-25400000D01*
X190746812Y-25512843D01*
X190535919Y-25685919D01*
X190362843Y-25896812D01*
X190234236Y-26137419D01*
X190155040Y-26398493D01*
X190128299Y-26670000D01*
X190155040Y-26941507D01*
X190234236Y-27202581D01*
X190362843Y-27443188D01*
X190535919Y-27654081D01*
X190746812Y-27827157D01*
X190955028Y-27938451D01*
X190898276Y-27960032D01*
X190666366Y-28105342D01*
X190467260Y-28293103D01*
X190308610Y-28516100D01*
X190196513Y-28765764D01*
X190177682Y-28868815D01*
X190300344Y-29083000D01*
X191643000Y-29083000D01*
X191643000Y-29063000D01*
X191897000Y-29063000D01*
X191897000Y-29083000D01*
X193239656Y-29083000D01*
X193362318Y-28868815D01*
X193343487Y-28765764D01*
X193231390Y-28516100D01*
X193072740Y-28293103D01*
X192873634Y-28105342D01*
X192641724Y-27960032D01*
X192584972Y-27938451D01*
X192793188Y-27827157D01*
X193004081Y-27654081D01*
X193177157Y-27443188D01*
X193305764Y-27202581D01*
X193384960Y-26941507D01*
X193411701Y-26670000D01*
X193384960Y-26398493D01*
X193305764Y-26137419D01*
X193177157Y-25896812D01*
X193004081Y-25685919D01*
X192793188Y-25512843D01*
X192582073Y-25400000D01*
X192793188Y-25287157D01*
X193004081Y-25114081D01*
X193177157Y-24903188D01*
X193305764Y-24662581D01*
X193384960Y-24401507D01*
X193411701Y-24130000D01*
X193384960Y-23858493D01*
X193305764Y-23597419D01*
X193177157Y-23356812D01*
X193004081Y-23145919D01*
X192793188Y-22972843D01*
X192582073Y-22860000D01*
X192793188Y-22747157D01*
X193004081Y-22574081D01*
X193177157Y-22363188D01*
X193305764Y-22122581D01*
X193384960Y-21861507D01*
X193411701Y-21590000D01*
X193384960Y-21318493D01*
X193305764Y-21057419D01*
X193177157Y-20816812D01*
X193004081Y-20605919D01*
X192793188Y-20432843D01*
X192582073Y-20320000D01*
X192793188Y-20207157D01*
X193004081Y-20034081D01*
X193177157Y-19823188D01*
X193305764Y-19582581D01*
X193384960Y-19321507D01*
X193411701Y-19050000D01*
X193384960Y-18778493D01*
X193305764Y-18517419D01*
X193177157Y-18276812D01*
X193004081Y-18065919D01*
X192793188Y-17892843D01*
X192582073Y-17780000D01*
X192793188Y-17667157D01*
X193004081Y-17494081D01*
X193177157Y-17283188D01*
X193305764Y-17042581D01*
X193384960Y-16781507D01*
X193411701Y-16510000D01*
X193384960Y-16238493D01*
X193305764Y-15977419D01*
X193177157Y-15736812D01*
X193004081Y-15525919D01*
X192793188Y-15352843D01*
X192584972Y-15241549D01*
X192641724Y-15219968D01*
X192873634Y-15074658D01*
X193072740Y-14886897D01*
X193231390Y-14663900D01*
X193343487Y-14414236D01*
X193362318Y-14311185D01*
X193239656Y-14097000D01*
X191897000Y-14097000D01*
X191897000Y-14117000D01*
X191643000Y-14117000D01*
X191643000Y-14097000D01*
X190300344Y-14097000D01*
X190177682Y-14311185D01*
X190196513Y-14414236D01*
X190308610Y-14663900D01*
X190467260Y-14886897D01*
X190666366Y-15074658D01*
X190898276Y-15219968D01*
X190955028Y-15241549D01*
X190746812Y-15352843D01*
X190535919Y-15525919D01*
X190362843Y-15736812D01*
X190234236Y-15977419D01*
X190155040Y-16238493D01*
X190128299Y-16510000D01*
X185660000Y-16510000D01*
X185660000Y-9032279D01*
X185717192Y-8448990D01*
X185877216Y-7918964D01*
X186137140Y-7430121D01*
X186487065Y-7001069D01*
X186913664Y-6648156D01*
X187400681Y-6384827D01*
X187929578Y-6221106D01*
X188510960Y-6160000D01*
X190968846Y-6160000D01*
X190968846Y-7990866D01*
G04 #@! TA.AperFunction,Conductor*
D23*
G36*
X190968846Y-7990866D02*
G01*
X190863549Y-7736657D01*
X190571668Y-7299826D01*
X190200174Y-6928332D01*
X189763343Y-6636451D01*
X189277963Y-6435400D01*
X188762686Y-6332905D01*
X188237314Y-6332905D01*
X187722037Y-6435400D01*
X187236657Y-6636451D01*
X186799826Y-6928332D01*
X186428332Y-7299826D01*
X186136451Y-7736657D01*
X185935400Y-8222037D01*
X185832905Y-8737314D01*
X185832905Y-9262686D01*
X185935400Y-9777963D01*
X186136451Y-10263343D01*
X186428332Y-10700174D01*
X186799826Y-11071668D01*
X187236657Y-11363549D01*
X187722037Y-11564600D01*
X188237314Y-11667095D01*
X188762686Y-11667095D01*
X189277963Y-11564600D01*
X189763343Y-11363549D01*
X190200174Y-11071668D01*
X190571668Y-10700174D01*
X190863549Y-10263343D01*
X190968846Y-10009134D01*
X190968846Y-12693196D01*
X190898276Y-12720032D01*
X190666366Y-12865342D01*
X190467260Y-13053103D01*
X190308610Y-13276100D01*
X190196513Y-13525764D01*
X190177682Y-13628815D01*
X190300344Y-13843000D01*
X191643000Y-13843000D01*
X191643000Y-13823000D01*
X191897000Y-13823000D01*
X191897000Y-13843000D01*
X193239656Y-13843000D01*
X193362318Y-13628815D01*
X193343487Y-13525764D01*
X193231390Y-13276100D01*
X193072740Y-13053103D01*
X192873634Y-12865342D01*
X192812441Y-12827000D01*
X216129562Y-12827000D01*
X215935919Y-12985919D01*
X215762843Y-13196812D01*
X215634236Y-13437419D01*
X215555040Y-13698493D01*
X215528299Y-13970000D01*
X215555040Y-14241507D01*
X215617567Y-14447631D01*
X212849003Y-17216196D01*
X212819999Y-17239999D01*
X212784555Y-17283188D01*
X212725026Y-17355724D01*
X212654455Y-17487753D01*
X212654454Y-17487754D01*
X212610997Y-17631015D01*
X212600000Y-17742668D01*
X212600000Y-17742678D01*
X212596324Y-17780000D01*
X212600000Y-17817322D01*
X212600001Y-24809079D01*
X212503377Y-24888377D01*
X212413822Y-24997500D01*
X211766178Y-24997500D01*
X211676623Y-24888377D01*
X211543942Y-24779488D01*
X211392567Y-24698577D01*
X211228316Y-24648752D01*
X211057500Y-24631928D01*
X210582500Y-24631928D01*
X210411684Y-24648752D01*
X210247433Y-24698577D01*
X210096058Y-24779488D01*
X209963377Y-24888377D01*
X209873822Y-24997500D01*
X209863415Y-24997500D01*
X209826090Y-24993824D01*
X209788765Y-24997500D01*
X209788757Y-24997500D01*
X209677104Y-25008497D01*
X209533843Y-25051954D01*
X209401814Y-25122526D01*
X209286089Y-25217499D01*
X209262291Y-25246497D01*
X207597755Y-26911034D01*
X207597755Y-25887046D01*
X208746004Y-24738798D01*
X208775002Y-24715000D01*
X208869975Y-24599275D01*
X208940547Y-24467246D01*
X208984004Y-24323985D01*
X208995001Y-24212332D01*
X208995001Y-24212323D01*
X208998677Y-24175000D01*
X208995001Y-24137677D01*
X208995001Y-20947323D01*
X208998677Y-20910000D01*
X208995001Y-20872677D01*
X208995001Y-20872668D01*
X208984004Y-20761015D01*
X208940547Y-20617754D01*
X208914314Y-20568676D01*
X208869975Y-20485724D01*
X208798800Y-20398998D01*
X208775002Y-20370000D01*
X208746005Y-20346203D01*
X208493731Y-20093930D01*
X208545000Y-19836184D01*
X208545000Y-19533816D01*
X208486011Y-19237257D01*
X208370299Y-18957905D01*
X208202312Y-18706495D01*
X207988505Y-18492688D01*
X207737095Y-18324701D01*
X207457743Y-18208989D01*
X207161184Y-18150000D01*
X206858816Y-18150000D01*
X206562257Y-18208989D01*
X206282905Y-18324701D01*
X206031495Y-18492688D01*
X205817688Y-18706495D01*
X205649701Y-18957905D01*
X205533989Y-19237257D01*
X205475000Y-19533816D01*
X205475000Y-19836184D01*
X205533989Y-20132743D01*
X205649701Y-20412095D01*
X205817688Y-20663505D01*
X205884127Y-20729944D01*
X205865820Y-20735498D01*
X205755506Y-20794463D01*
X205658815Y-20873815D01*
X205579463Y-20970506D01*
X205520498Y-21080820D01*
X205484188Y-21200518D01*
X205471928Y-21325000D01*
X205471928Y-21465000D01*
X204298052Y-21465000D01*
X204296248Y-21446684D01*
X204246423Y-21282433D01*
X204165512Y-21131058D01*
X204076188Y-21022217D01*
X204126185Y-20981185D01*
X204205537Y-20884494D01*
X204264502Y-20774180D01*
X204300812Y-20654482D01*
X204313072Y-20530000D01*
X204310000Y-20328250D01*
X204151250Y-20169500D01*
X203327000Y-20169500D01*
X203327000Y-20189500D01*
X203073000Y-20189500D01*
X203073000Y-20169500D01*
X202248750Y-20169500D01*
X202090000Y-20328250D01*
X202086928Y-20530000D01*
X202099188Y-20654482D01*
X202135498Y-20774180D01*
X202194463Y-20884494D01*
X202273815Y-20981185D01*
X202323812Y-21022217D01*
X202234488Y-21131058D01*
X202153577Y-21282433D01*
X202103752Y-21446684D01*
X202086928Y-21617500D01*
X202086928Y-22117500D01*
X202103752Y-22288316D01*
X202153577Y-22452567D01*
X202234488Y-22603942D01*
X202343377Y-22736623D01*
X202476058Y-22845512D01*
X202627433Y-22926423D01*
X202791684Y-22976248D01*
X202962500Y-22993072D01*
X203437500Y-22993072D01*
X203519811Y-22984965D01*
X203520167Y-22985000D01*
X203520176Y-22985000D01*
X203557499Y-22988676D01*
X203594822Y-22985000D01*
X205471928Y-22985000D01*
X205471928Y-23125000D01*
X205484188Y-23249482D01*
X205520498Y-23369180D01*
X205579463Y-23479494D01*
X205658815Y-23576185D01*
X205755506Y-23655537D01*
X205865820Y-23714502D01*
X205985518Y-23750812D01*
X206110000Y-23763072D01*
X207475002Y-23763072D01*
X207475002Y-23860196D01*
X206326758Y-25008441D01*
X206297754Y-25032244D01*
X206242626Y-25099419D01*
X206202781Y-25147969D01*
X206180702Y-25189276D01*
X206132209Y-25279999D01*
X206088752Y-25423260D01*
X206077755Y-25534913D01*
X206077755Y-25534923D01*
X206074079Y-25572245D01*
X206077755Y-25609567D01*
X206077756Y-38882952D01*
X201616108Y-43344600D01*
X201516623Y-43223377D01*
X201463768Y-43180000D01*
X201516623Y-43136623D01*
X201625512Y-43003942D01*
X201706423Y-42852567D01*
X201756248Y-42688316D01*
X201773072Y-42517500D01*
X201773072Y-42017500D01*
X201756248Y-41846684D01*
X201706423Y-41682433D01*
X201625512Y-41531058D01*
X201516623Y-41398377D01*
X201383942Y-41289488D01*
X201232567Y-41208577D01*
X201068316Y-41158752D01*
X200897500Y-41141928D01*
X200422500Y-41141928D01*
X200339868Y-41150067D01*
X199515000Y-40325199D01*
X199515000Y-25079801D01*
X200158503Y-24436299D01*
X200187501Y-24412501D01*
X200282474Y-24296776D01*
X200353046Y-24164747D01*
X200396503Y-24021486D01*
X200407500Y-23909833D01*
X200411177Y-23872500D01*
X200407500Y-23835167D01*
X200407500Y-22004833D01*
X200411177Y-21967500D01*
X200396503Y-21818514D01*
X200353046Y-21675253D01*
X200321132Y-21615547D01*
X200282474Y-21543224D01*
X200187501Y-21427499D01*
X200158498Y-21403697D01*
X199833804Y-21079003D01*
X199810001Y-21049999D01*
X199694276Y-20955026D01*
X199562247Y-20884454D01*
X199523052Y-20872565D01*
X199528377Y-20864421D01*
X199613900Y-20627383D01*
X199488244Y-20447000D01*
X198747560Y-20447000D01*
X198714360Y-20436929D01*
X198542477Y-20420000D01*
X197973000Y-20420000D01*
X197973000Y-20220000D01*
X198542477Y-20220000D01*
X198714360Y-20203071D01*
X198747560Y-20193000D01*
X199488244Y-20193000D01*
X199613900Y-20012617D01*
X199528377Y-19775579D01*
X199470846Y-19687596D01*
X199541720Y-19555000D01*
X202086928Y-19555000D01*
X202090000Y-19756750D01*
X202248750Y-19915500D01*
X203073000Y-19915500D01*
X203073000Y-19078750D01*
X203327000Y-19078750D01*
X203327000Y-19915500D01*
X204151250Y-19915500D01*
X204310000Y-19756750D01*
X204313072Y-19555000D01*
X204300812Y-19430518D01*
X204264502Y-19310820D01*
X204205537Y-19200506D01*
X204126185Y-19103815D01*
X204029494Y-19024463D01*
X203919180Y-18965498D01*
X203799482Y-18929188D01*
X203675000Y-18916928D01*
X203485750Y-18920000D01*
X203327000Y-19078750D01*
X203073000Y-19078750D01*
X202914250Y-18920000D01*
X202725000Y-18916928D01*
X202600518Y-18929188D01*
X202480820Y-18965498D01*
X202370506Y-19024463D01*
X202273815Y-19103815D01*
X202194463Y-19200506D01*
X202135498Y-19310820D01*
X202099188Y-19430518D01*
X202086928Y-19555000D01*
X199541720Y-19555000D01*
X199571169Y-19499906D01*
X199638071Y-19279360D01*
X199660661Y-19050000D01*
X199638071Y-18820640D01*
X199571169Y-18600094D01*
X199462526Y-18396838D01*
X199316318Y-18218682D01*
X199138162Y-18072474D01*
X198934906Y-17963831D01*
X198714360Y-17896929D01*
X198542477Y-17880000D01*
X197697523Y-17880000D01*
X197525640Y-17896929D01*
X197305094Y-17963831D01*
X197101838Y-18072474D01*
X196923682Y-18218682D01*
X196859216Y-18297234D01*
X196821014Y-18300997D01*
X196677753Y-18344454D01*
X196545724Y-18415026D01*
X196429999Y-18509999D01*
X196406201Y-18538998D01*
X195703998Y-19241201D01*
X195675000Y-19264999D01*
X195651202Y-19293997D01*
X195651201Y-19293998D01*
X195580026Y-19380724D01*
X195509454Y-19512754D01*
X195465998Y-19656015D01*
X195451324Y-19805000D01*
X195455001Y-19842332D01*
X195455000Y-23457677D01*
X195451324Y-23495000D01*
X195455000Y-23532322D01*
X195455000Y-23532332D01*
X195465997Y-23643985D01*
X195498402Y-23750812D01*
X195509454Y-23787246D01*
X195580026Y-23919276D01*
X195611484Y-23957607D01*
X195674999Y-24035001D01*
X195704003Y-24058804D01*
X196725001Y-25079803D01*
X196725000Y-40323788D01*
X196533789Y-40515000D01*
X195287307Y-40515000D01*
X195249982Y-40511324D01*
X195212657Y-40515000D01*
X195212649Y-40515000D01*
X195100996Y-40525997D01*
X194957735Y-40569454D01*
X194825706Y-40640026D01*
X194709981Y-40734999D01*
X194686178Y-40764003D01*
X194268989Y-41181192D01*
X194239991Y-41204990D01*
X194216193Y-41233988D01*
X194216192Y-41233989D01*
X194145017Y-41320715D01*
X194074445Y-41452745D01*
X194058951Y-41503824D01*
X194030989Y-41596005D01*
X194020818Y-41699276D01*
X194016315Y-41744991D01*
X194019992Y-41782323D01*
X194019991Y-42713176D01*
X194016315Y-42750499D01*
X194019991Y-42787824D01*
X194019991Y-42787832D01*
X194030988Y-42899485D01*
X194074445Y-43042746D01*
X194145017Y-43174775D01*
X194239990Y-43290501D01*
X194268993Y-43314303D01*
X194287190Y-43332500D01*
X192841510Y-43332500D01*
X192793188Y-43292843D01*
X192582073Y-43180000D01*
X192793188Y-43067157D01*
X193004081Y-42894081D01*
X193177157Y-42683188D01*
X193305764Y-42442581D01*
X193384960Y-42181507D01*
X193411701Y-41910000D01*
X193384960Y-41638493D01*
X193305764Y-41377419D01*
X193177157Y-41136812D01*
X193004081Y-40925919D01*
X192793188Y-40752843D01*
X192582073Y-40640000D01*
X192793188Y-40527157D01*
X193004081Y-40354081D01*
X193177157Y-40143188D01*
X193305764Y-39902581D01*
X193384960Y-39641507D01*
X193411701Y-39370000D01*
X193384960Y-39098493D01*
X193305764Y-38837419D01*
X193177157Y-38596812D01*
X193004081Y-38385919D01*
X192793188Y-38212843D01*
X192582073Y-38100000D01*
X192793188Y-37987157D01*
X193004081Y-37814081D01*
X193177157Y-37603188D01*
X193305764Y-37362581D01*
X193384960Y-37101507D01*
X193411701Y-36830000D01*
X193384960Y-36558493D01*
X193305764Y-36297419D01*
X193177157Y-36056812D01*
X193004081Y-35845919D01*
X192793188Y-35672843D01*
X192582073Y-35560000D01*
X192793188Y-35447157D01*
X193004081Y-35274081D01*
X193177157Y-35063188D01*
X193305764Y-34822581D01*
X193384960Y-34561507D01*
X193411701Y-34290000D01*
X193384960Y-34018493D01*
X193305764Y-33757419D01*
X193177157Y-33516812D01*
X193004081Y-33305919D01*
X192793188Y-33132843D01*
X192582073Y-33020000D01*
X192793188Y-32907157D01*
X193004081Y-32734081D01*
X193177157Y-32523188D01*
X193305764Y-32282581D01*
X193384960Y-32021507D01*
X193411701Y-31750000D01*
X193384960Y-31478493D01*
X193305764Y-31217419D01*
X193177157Y-30976812D01*
X193004081Y-30765919D01*
X192793188Y-30592843D01*
X192584972Y-30481549D01*
X192641724Y-30459968D01*
X192873634Y-30314658D01*
X193072740Y-30126897D01*
X193231390Y-29903900D01*
X193343487Y-29654236D01*
X193362318Y-29551185D01*
X193239656Y-29337000D01*
X191897000Y-29337000D01*
X191897000Y-29357000D01*
X191643000Y-29357000D01*
X191643000Y-29337000D01*
X190300344Y-29337000D01*
X190177682Y-29551185D01*
X190196513Y-29654236D01*
X190308610Y-29903900D01*
X190467260Y-30126897D01*
X190666366Y-30314658D01*
X190898276Y-30459968D01*
X190955028Y-30481549D01*
X190746812Y-30592843D01*
X190535919Y-30765919D01*
X190362843Y-30976812D01*
X190234236Y-31217419D01*
X190155040Y-31478493D01*
X190128299Y-31750000D01*
X190155040Y-32021507D01*
X190234236Y-32282581D01*
X190362843Y-32523188D01*
X190535919Y-32734081D01*
X190746812Y-32907157D01*
X190957927Y-33020000D01*
X190746812Y-33132843D01*
X190535919Y-33305919D01*
X190362843Y-33516812D01*
X190234236Y-33757419D01*
X190155040Y-34018493D01*
X190128299Y-34290000D01*
X190155040Y-34561507D01*
X190234236Y-34822581D01*
X190362843Y-35063188D01*
X190535919Y-35274081D01*
X190746812Y-35447157D01*
X190957927Y-35560000D01*
X190746812Y-35672843D01*
X190535919Y-35845919D01*
X190362843Y-36056812D01*
X190234236Y-36297419D01*
X190155040Y-36558493D01*
X190128299Y-36830000D01*
X190155040Y-37101507D01*
X190234236Y-37362581D01*
X190362843Y-37603188D01*
X190535919Y-37814081D01*
X190746812Y-37987157D01*
X190957927Y-38100000D01*
X190746812Y-38212843D01*
X190535919Y-38385919D01*
X190362843Y-38596812D01*
X190234236Y-38837419D01*
X190155040Y-39098493D01*
X190128299Y-39370000D01*
X190155040Y-39641507D01*
X190234236Y-39902581D01*
X190362843Y-40143188D01*
X190535919Y-40354081D01*
X190746812Y-40527157D01*
X190957927Y-40640000D01*
X190746812Y-40752843D01*
X190535919Y-40925919D01*
X190362843Y-41136812D01*
X190234236Y-41377419D01*
X190155040Y-41638493D01*
X190128299Y-41910000D01*
X190155040Y-42181507D01*
X190234236Y-42442581D01*
X190362843Y-42683188D01*
X190535919Y-42894081D01*
X190746812Y-43067157D01*
X190957927Y-43180000D01*
X190746812Y-43292843D01*
X190535919Y-43465919D01*
X190362843Y-43676812D01*
X190234236Y-43917419D01*
X190155040Y-44178493D01*
X190128299Y-44450000D01*
X190155040Y-44721507D01*
X190234236Y-44982581D01*
X190362843Y-45223188D01*
X190535919Y-45434081D01*
X190746812Y-45607157D01*
X190957927Y-45720000D01*
X190746812Y-45832843D01*
X190535919Y-46005919D01*
X190362843Y-46216812D01*
X190234236Y-46457419D01*
X190155040Y-46718493D01*
X190128299Y-46990000D01*
X190155040Y-47261507D01*
X190217567Y-47467632D01*
X189933988Y-47751211D01*
X189904990Y-47775009D01*
X189881192Y-47804007D01*
X189881191Y-47804008D01*
X189810016Y-47890734D01*
X189739444Y-48022764D01*
X189717636Y-48094658D01*
X189696287Y-48165040D01*
X189695988Y-48166025D01*
X189681314Y-48315010D01*
X189684991Y-48352342D01*
X189684990Y-52477960D01*
X189681314Y-52515283D01*
X189684990Y-52552605D01*
X189684990Y-52552615D01*
X189695987Y-52664268D01*
X189728599Y-52771776D01*
X189739444Y-52807529D01*
X189810016Y-52939559D01*
X189845236Y-52982474D01*
X189904989Y-53055284D01*
X189933992Y-53079086D01*
X190510922Y-53656018D01*
X190511070Y-53656198D01*
X190362843Y-53836812D01*
X190234236Y-54077419D01*
X190155040Y-54338493D01*
X190128299Y-54610000D01*
X190155040Y-54881507D01*
X190234236Y-55142581D01*
X190362843Y-55383188D01*
X190535919Y-55594081D01*
X190746812Y-55767157D01*
X190957927Y-55880000D01*
X190746812Y-55992843D01*
X190535919Y-56165919D01*
X190362843Y-56376812D01*
X190234236Y-56617419D01*
X190155040Y-56878493D01*
X190128299Y-57150000D01*
X190155040Y-57421507D01*
X190234236Y-57682581D01*
X190362843Y-57923188D01*
X190535919Y-58134081D01*
X190746812Y-58307157D01*
X190957927Y-58420000D01*
X190746812Y-58532843D01*
X190535919Y-58705919D01*
X190362843Y-58916812D01*
X190234236Y-59157419D01*
X190155040Y-59418493D01*
X190128299Y-59690000D01*
X190155040Y-59961507D01*
X190234236Y-60222581D01*
X190362843Y-60463188D01*
X190535919Y-60674081D01*
X190746812Y-60847157D01*
X190987419Y-60975764D01*
X191248493Y-61054960D01*
X191451963Y-61075000D01*
X192088037Y-61075000D01*
X192291507Y-61054960D01*
X192552581Y-60975764D01*
X192793188Y-60847157D01*
X193004081Y-60674081D01*
X193177157Y-60463188D01*
X193305764Y-60222581D01*
X193384960Y-59961507D01*
X193411701Y-59690000D01*
X193384960Y-59418493D01*
X193305764Y-59157419D01*
X193177157Y-58916812D01*
X193004081Y-58705919D01*
X192793188Y-58532843D01*
X192582073Y-58420000D01*
X192793188Y-58307157D01*
X193004081Y-58134081D01*
X193177157Y-57923188D01*
X193305764Y-57682581D01*
X193384960Y-57421507D01*
X193411701Y-57150000D01*
X193384960Y-56878493D01*
X193305764Y-56617419D01*
X193177157Y-56376812D01*
X193004081Y-56165919D01*
X192793188Y-55992843D01*
X192582073Y-55880000D01*
X192793188Y-55767157D01*
X193004081Y-55594081D01*
X193177157Y-55383188D01*
X193305764Y-55142581D01*
X193384960Y-54881507D01*
X193411701Y-54610000D01*
X193384960Y-54338493D01*
X193305764Y-54077419D01*
X193184113Y-53849826D01*
X193314776Y-53779984D01*
X193430501Y-53685011D01*
X193454304Y-53656007D01*
X206527765Y-40582547D01*
X206527766Y-57827432D01*
X206106408Y-58248790D01*
X205886260Y-58205000D01*
X205593740Y-58205000D01*
X205306842Y-58262068D01*
X205036589Y-58374010D01*
X204793368Y-58536525D01*
X204586525Y-58743368D01*
X204470000Y-58917760D01*
X204353475Y-58743368D01*
X204146632Y-58536525D01*
X203903411Y-58374010D01*
X203633158Y-58262068D01*
X203346260Y-58205000D01*
X203053740Y-58205000D01*
X202766842Y-58262068D01*
X202496589Y-58374010D01*
X202253368Y-58536525D01*
X202121513Y-58668380D01*
X202099502Y-58595820D01*
X202040537Y-58485506D01*
X201961185Y-58388815D01*
X201864494Y-58309463D01*
X201754180Y-58250498D01*
X201634482Y-58214188D01*
X201510000Y-58201928D01*
X199810000Y-58201928D01*
X199685518Y-58214188D01*
X199565820Y-58250498D01*
X199455506Y-58309463D01*
X199358815Y-58388815D01*
X199279463Y-58485506D01*
X199220498Y-58595820D01*
X199184188Y-58715518D01*
X199171928Y-58840000D01*
X199171928Y-60540000D01*
X199184188Y-60664482D01*
X199220498Y-60784180D01*
X199279463Y-60894494D01*
X199358815Y-60991185D01*
X199455506Y-61070537D01*
X199565820Y-61129502D01*
X199685518Y-61165812D01*
X199810000Y-61178072D01*
X201510000Y-61178072D01*
X201634482Y-61165812D01*
X201754180Y-61129502D01*
X201864494Y-61070537D01*
X201961185Y-60991185D01*
X202040537Y-60894494D01*
X202099502Y-60784180D01*
X202121513Y-60711620D01*
X202253368Y-60843475D01*
X202496589Y-61005990D01*
X202766842Y-61117932D01*
X203053740Y-61175000D01*
X203346260Y-61175000D01*
X203633158Y-61117932D01*
X203903411Y-61005990D01*
X204146632Y-60843475D01*
X204353475Y-60636632D01*
X204470000Y-60462240D01*
X204586525Y-60636632D01*
X204793368Y-60843475D01*
X205036589Y-61005990D01*
X205306842Y-61117932D01*
X205593740Y-61175000D01*
X205886260Y-61175000D01*
X206173158Y-61117932D01*
X206443411Y-61005990D01*
X206686632Y-60843475D01*
X206893475Y-60636632D01*
X207015195Y-60454466D01*
X207084822Y-60571355D01*
X207279731Y-60787588D01*
X207513080Y-60961641D01*
X207775901Y-61086825D01*
X207923110Y-61131476D01*
X208153000Y-61010155D01*
X208153000Y-59817000D01*
X208133000Y-59817000D01*
X208133000Y-59563000D01*
X208153000Y-59563000D01*
X208153000Y-58369845D01*
X208032248Y-58306120D01*
X208036768Y-58291221D01*
X208047765Y-58179568D01*
X208047765Y-58179559D01*
X208051441Y-58142236D01*
X208047765Y-58104913D01*
X208047765Y-28610626D01*
X208155000Y-28503391D01*
X208155001Y-52310167D01*
X208151324Y-52347500D01*
X208165998Y-52496485D01*
X208209454Y-52639746D01*
X208280026Y-52771776D01*
X208346491Y-52852763D01*
X208375000Y-52887501D01*
X208403998Y-52911299D01*
X208781928Y-53289229D01*
X208781928Y-53577500D01*
X208798752Y-53748316D01*
X208848577Y-53912567D01*
X208929488Y-54063942D01*
X209038377Y-54196623D01*
X209147500Y-54286178D01*
X209147501Y-58493381D01*
X209046920Y-58418359D01*
X208784099Y-58293175D01*
X208636890Y-58248524D01*
X208407000Y-58369845D01*
X208407000Y-59563000D01*
X208427000Y-59563000D01*
X208427000Y-59817000D01*
X208407000Y-59817000D01*
X208407000Y-61010155D01*
X208636890Y-61131476D01*
X208784099Y-61086825D01*
X209046920Y-60961641D01*
X209147501Y-60886619D01*
X209147501Y-60922697D01*
X208600199Y-61470000D01*
X201967322Y-61470000D01*
X201929999Y-61466324D01*
X201892676Y-61470000D01*
X201892667Y-61470000D01*
X201781014Y-61480997D01*
X201637753Y-61524454D01*
X201505724Y-61595026D01*
X201505722Y-61595027D01*
X201505723Y-61595027D01*
X201418996Y-61666201D01*
X201418992Y-61666205D01*
X201389999Y-61689999D01*
X201366205Y-61718992D01*
X199756408Y-63328790D01*
X199536260Y-63285000D01*
X199243740Y-63285000D01*
X198956842Y-63342068D01*
X198686589Y-63454010D01*
X198443368Y-63616525D01*
X198236525Y-63823368D01*
X198120000Y-63997760D01*
X198003475Y-63823368D01*
X197796632Y-63616525D01*
X197553411Y-63454010D01*
X197283158Y-63342068D01*
X196996260Y-63285000D01*
X196703740Y-63285000D01*
X196416842Y-63342068D01*
X196146589Y-63454010D01*
X195903368Y-63616525D01*
X195771513Y-63748380D01*
X195749502Y-63675820D01*
X195690537Y-63565506D01*
X195611185Y-63468815D01*
X195514494Y-63389463D01*
X195404180Y-63330498D01*
X195284482Y-63294188D01*
X195160000Y-63281928D01*
X194595750Y-63285000D01*
X194437000Y-63443750D01*
X194437000Y-64643000D01*
X194457000Y-64643000D01*
X194457000Y-64897000D01*
X194437000Y-64897000D01*
X194437000Y-66096250D01*
X194595750Y-66255000D01*
X195160000Y-66258072D01*
X195284482Y-66245812D01*
X195404180Y-66209502D01*
X195514494Y-66150537D01*
X195611185Y-66071185D01*
X195690537Y-65974494D01*
X195749502Y-65864180D01*
X195771513Y-65791620D01*
X195903368Y-65923475D01*
X196146589Y-66085990D01*
X196416842Y-66197932D01*
X196703740Y-66255000D01*
X196996260Y-66255000D01*
X197216408Y-66211209D01*
X203016201Y-72011003D01*
X203039999Y-72040001D01*
X203155724Y-72134974D01*
X203287753Y-72205546D01*
X203431014Y-72249003D01*
X203542667Y-72260000D01*
X203542676Y-72260000D01*
X203579999Y-72263676D01*
X203617322Y-72260000D01*
X212169929Y-72260000D01*
X212277595Y-72421134D01*
X212478866Y-72622405D01*
X212715536Y-72780543D01*
X212859078Y-72840000D01*
X188532279Y-72840000D01*
X187948990Y-72782808D01*
X187418964Y-72622783D01*
X186930120Y-72362860D01*
X186501069Y-72012935D01*
X186148155Y-71586335D01*
X185884827Y-71099320D01*
X185721106Y-70570422D01*
X185660000Y-69989040D01*
X185660000Y-69737314D01*
X185832905Y-69737314D01*
X185832905Y-70262686D01*
X185935400Y-70777963D01*
X186136451Y-71263343D01*
X186428332Y-71700174D01*
X186799826Y-72071668D01*
X187236657Y-72363549D01*
X187722037Y-72564600D01*
X188237314Y-72667095D01*
X188762686Y-72667095D01*
X189277963Y-72564600D01*
X189763343Y-72363549D01*
X190200174Y-72071668D01*
X190571668Y-71700174D01*
X190863549Y-71263343D01*
X191064600Y-70777963D01*
X191167095Y-70262686D01*
X191167095Y-69737314D01*
X191064600Y-69222037D01*
X190863549Y-68736657D01*
X190571668Y-68299826D01*
X190200174Y-67928332D01*
X189763343Y-67636451D01*
X189277963Y-67435400D01*
X188762686Y-67332905D01*
X188237314Y-67332905D01*
X187722037Y-67435400D01*
X187236657Y-67636451D01*
X186799826Y-67928332D01*
X186428332Y-68299826D01*
X186136451Y-68736657D01*
X185935400Y-69222037D01*
X185832905Y-69737314D01*
X185660000Y-69737314D01*
X185660000Y-65620000D01*
X192821928Y-65620000D01*
X192834188Y-65744482D01*
X192870498Y-65864180D01*
X192929463Y-65974494D01*
X193008815Y-66071185D01*
X193105506Y-66150537D01*
X193215820Y-66209502D01*
X193335518Y-66245812D01*
X193460000Y-66258072D01*
X194024250Y-66255000D01*
X194183000Y-66096250D01*
X194183000Y-64897000D01*
X192983750Y-64897000D01*
X192825000Y-65055750D01*
X192821928Y-65620000D01*
X185660000Y-65620000D01*
X185660000Y-63920000D01*
X192821928Y-63920000D01*
X192825000Y-64484250D01*
X192983750Y-64643000D01*
X194183000Y-64643000D01*
X194183000Y-63443750D01*
X194024250Y-63285000D01*
X193460000Y-63281928D01*
X193335518Y-63294188D01*
X193215820Y-63330498D01*
X193105506Y-63389463D01*
X193008815Y-63468815D01*
X192929463Y-63565506D01*
X192870498Y-63675820D01*
X192834188Y-63795518D01*
X192821928Y-63920000D01*
X185660000Y-63920000D01*
X185660000Y-30967581D01*
X185656777Y-30934857D01*
X185656777Y-30925124D01*
X185655814Y-30915959D01*
X185639498Y-30770497D01*
X185627059Y-30711976D01*
X185615442Y-30653305D01*
X185612717Y-30644502D01*
X185568458Y-30504980D01*
X185544892Y-30449997D01*
X185522097Y-30394691D01*
X185517714Y-30386585D01*
X185447196Y-30258316D01*
X185413453Y-30209036D01*
X185380302Y-30159139D01*
X185374427Y-30152039D01*
X185280340Y-30039908D01*
X185237606Y-29998060D01*
X185195444Y-29955603D01*
X185188303Y-29949779D01*
X185127000Y-29900491D01*
X185127000Y-27099786D01*
X185202877Y-27037015D01*
X185245018Y-26994579D01*
X185287767Y-26952716D01*
X185293641Y-26945616D01*
X185386154Y-26832184D01*
X185419246Y-26782375D01*
X185453053Y-26733003D01*
X185457436Y-26724896D01*
X185526155Y-26595655D01*
X185548940Y-26540374D01*
X185572517Y-26485364D01*
X185575242Y-26476561D01*
X185617548Y-26336434D01*
X185629164Y-26277768D01*
X185641603Y-26219247D01*
X185642566Y-26210082D01*
X185656850Y-26064406D01*
X185656850Y-26064402D01*
X185660000Y-26032419D01*
X185660000Y-16510000D01*
X190128299Y-16510000D01*
X190155040Y-16781507D01*
X190234236Y-17042581D01*
X190362843Y-17283188D01*
X190535919Y-17494081D01*
X190746812Y-17667157D01*
X190957927Y-17780000D01*
X190746812Y-17892843D01*
X190535919Y-18065919D01*
X190362843Y-18276812D01*
X190234236Y-18517419D01*
X190155040Y-18778493D01*
X190128299Y-19050000D01*
X190155040Y-19321507D01*
X190234236Y-19582581D01*
X190362843Y-19823188D01*
X190535919Y-20034081D01*
X190746812Y-20207157D01*
X190957927Y-20320000D01*
X190746812Y-20432843D01*
X190535919Y-20605919D01*
X190362843Y-20816812D01*
X190234236Y-21057419D01*
X190155040Y-21318493D01*
X190128299Y-21590000D01*
X190155040Y-21861507D01*
X190234236Y-22122581D01*
X190362843Y-22363188D01*
X190535919Y-22574081D01*
X190746812Y-22747157D01*
X190957927Y-22860000D01*
X190746812Y-22972843D01*
X190535919Y-23145919D01*
X190362843Y-23356812D01*
X190234236Y-23597419D01*
X190155040Y-23858493D01*
X190128299Y-24130000D01*
X190155040Y-24401507D01*
X190234236Y-24662581D01*
X190362843Y-24903188D01*
X190535919Y-25114081D01*
X190746812Y-25287157D01*
X190957927Y-25400000D01*
X190746812Y-25512843D01*
X190535919Y-25685919D01*
X190362843Y-25896812D01*
X190234236Y-26137419D01*
X190155040Y-26398493D01*
X190128299Y-26670000D01*
X190155040Y-26941507D01*
X190234236Y-27202581D01*
X190362843Y-27443188D01*
X190535919Y-27654081D01*
X190746812Y-27827157D01*
X190955028Y-27938451D01*
X190898276Y-27960032D01*
X190666366Y-28105342D01*
X190467260Y-28293103D01*
X190308610Y-28516100D01*
X190196513Y-28765764D01*
X190177682Y-28868815D01*
X190300344Y-29083000D01*
X191643000Y-29083000D01*
X191643000Y-29063000D01*
X191897000Y-29063000D01*
X191897000Y-29083000D01*
X193239656Y-29083000D01*
X193362318Y-28868815D01*
X193343487Y-28765764D01*
X193231390Y-28516100D01*
X193072740Y-28293103D01*
X192873634Y-28105342D01*
X192641724Y-27960032D01*
X192584972Y-27938451D01*
X192793188Y-27827157D01*
X193004081Y-27654081D01*
X193177157Y-27443188D01*
X193305764Y-27202581D01*
X193384960Y-26941507D01*
X193411701Y-26670000D01*
X193384960Y-26398493D01*
X193305764Y-26137419D01*
X193177157Y-25896812D01*
X193004081Y-25685919D01*
X192793188Y-25512843D01*
X192582073Y-25400000D01*
X192793188Y-25287157D01*
X193004081Y-25114081D01*
X193177157Y-24903188D01*
X193305764Y-24662581D01*
X193384960Y-24401507D01*
X193411701Y-24130000D01*
X193384960Y-23858493D01*
X193305764Y-23597419D01*
X193177157Y-23356812D01*
X193004081Y-23145919D01*
X192793188Y-22972843D01*
X192582073Y-22860000D01*
X192793188Y-22747157D01*
X193004081Y-22574081D01*
X193177157Y-22363188D01*
X193305764Y-22122581D01*
X193384960Y-21861507D01*
X193411701Y-21590000D01*
X193384960Y-21318493D01*
X193305764Y-21057419D01*
X193177157Y-20816812D01*
X193004081Y-20605919D01*
X192793188Y-20432843D01*
X192582073Y-20320000D01*
X192793188Y-20207157D01*
X193004081Y-20034081D01*
X193177157Y-19823188D01*
X193305764Y-19582581D01*
X193384960Y-19321507D01*
X193411701Y-19050000D01*
X193384960Y-18778493D01*
X193305764Y-18517419D01*
X193177157Y-18276812D01*
X193004081Y-18065919D01*
X192793188Y-17892843D01*
X192582073Y-17780000D01*
X192793188Y-17667157D01*
X193004081Y-17494081D01*
X193177157Y-17283188D01*
X193305764Y-17042581D01*
X193384960Y-16781507D01*
X193411701Y-16510000D01*
X193384960Y-16238493D01*
X193305764Y-15977419D01*
X193177157Y-15736812D01*
X193004081Y-15525919D01*
X192793188Y-15352843D01*
X192584972Y-15241549D01*
X192641724Y-15219968D01*
X192873634Y-15074658D01*
X193072740Y-14886897D01*
X193231390Y-14663900D01*
X193343487Y-14414236D01*
X193362318Y-14311185D01*
X193239656Y-14097000D01*
X191897000Y-14097000D01*
X191897000Y-14117000D01*
X191643000Y-14117000D01*
X191643000Y-14097000D01*
X190300344Y-14097000D01*
X190177682Y-14311185D01*
X190196513Y-14414236D01*
X190308610Y-14663900D01*
X190467260Y-14886897D01*
X190666366Y-15074658D01*
X190898276Y-15219968D01*
X190955028Y-15241549D01*
X190746812Y-15352843D01*
X190535919Y-15525919D01*
X190362843Y-15736812D01*
X190234236Y-15977419D01*
X190155040Y-16238493D01*
X190128299Y-16510000D01*
X185660000Y-16510000D01*
X185660000Y-9032279D01*
X185717192Y-8448990D01*
X185877216Y-7918964D01*
X186137140Y-7430121D01*
X186487065Y-7001069D01*
X186913664Y-6648156D01*
X187400681Y-6384827D01*
X187929578Y-6221106D01*
X188510960Y-6160000D01*
X190968846Y-6160000D01*
X190968846Y-7990866D01*
G37*
G04 #@! TD.AperFunction*
D22*
X180551010Y-22217192D02*
X181081036Y-22377216D01*
X181569879Y-22637140D01*
X181998931Y-22987065D01*
X182351844Y-23413664D01*
X182615173Y-23900681D01*
X182778894Y-24429578D01*
X182840001Y-25010969D01*
X182840000Y-26032418D01*
X182843223Y-26065142D01*
X182843223Y-26074876D01*
X182844186Y-26084041D01*
X182860502Y-26229503D01*
X182872940Y-26288017D01*
X182884558Y-26346695D01*
X182887283Y-26355498D01*
X182931542Y-26495021D01*
X182955109Y-26550005D01*
X182977903Y-26605309D01*
X182982287Y-26613415D01*
X183052804Y-26741684D01*
X183086591Y-26791029D01*
X183119699Y-26840861D01*
X183125573Y-26847962D01*
X183219660Y-26960092D01*
X183262411Y-27001957D01*
X183304556Y-27044397D01*
X183311697Y-27050221D01*
X183373000Y-27099509D01*
X183373000Y-29900214D01*
X183297123Y-29962985D01*
X183255001Y-30005402D01*
X183212232Y-30047284D01*
X183206359Y-30054385D01*
X183113846Y-30167816D01*
X183080754Y-30217625D01*
X183046947Y-30266997D01*
X183042564Y-30275103D01*
X182973845Y-30404345D01*
X182951055Y-30459638D01*
X182927483Y-30514636D01*
X182924758Y-30523440D01*
X182882452Y-30663566D01*
X182870836Y-30722232D01*
X182858397Y-30780753D01*
X182857434Y-30789917D01*
X182849465Y-30871192D01*
X182849383Y-30871463D01*
X182843244Y-30934640D01*
X182843150Y-30935594D01*
X182843150Y-30935603D01*
X182839959Y-30968439D01*
X182854958Y-42513146D01*
X182797808Y-43096010D01*
X182637783Y-43626036D01*
X182377860Y-44114880D01*
X182027935Y-44543931D01*
X181601335Y-44896845D01*
X181114320Y-45160173D01*
X180585422Y-45323894D01*
X180013079Y-45384050D01*
X179721138Y-45369206D01*
X179703241Y-45370054D01*
X179693270Y-45370089D01*
X179685186Y-45370910D01*
X179644066Y-45372859D01*
X179635748Y-45372801D01*
X179626832Y-45373676D01*
X179623815Y-45373819D01*
X179622615Y-45374117D01*
X178947238Y-45445103D01*
X178888675Y-45457124D01*
X178829882Y-45468339D01*
X178821060Y-45471003D01*
X178168528Y-45672995D01*
X178113373Y-45696180D01*
X178057920Y-45718584D01*
X178049788Y-45722909D01*
X178049783Y-45722911D01*
X178049779Y-45722914D01*
X177448913Y-46047800D01*
X177399329Y-46081245D01*
X177349266Y-46114005D01*
X177342125Y-46119829D01*
X176815802Y-46555241D01*
X176773642Y-46597697D01*
X176730912Y-46639541D01*
X176725038Y-46646642D01*
X176293312Y-47175991D01*
X176260208Y-47225818D01*
X176226413Y-47275173D01*
X176222031Y-47283279D01*
X175901344Y-47886403D01*
X175878548Y-47941709D01*
X175854983Y-47996690D01*
X175852258Y-48005493D01*
X175654826Y-48659419D01*
X175643203Y-48718122D01*
X175630770Y-48776611D01*
X175629807Y-48785775D01*
X175563150Y-49465595D01*
X175563150Y-49465608D01*
X175560001Y-49497581D01*
X175560000Y-64967721D01*
X175502808Y-65551010D01*
X175342783Y-66081036D01*
X175082860Y-66569880D01*
X174732935Y-66998931D01*
X174306335Y-67351845D01*
X173819320Y-67615173D01*
X173290422Y-67778894D01*
X172709040Y-67840000D01*
X160032279Y-67840000D01*
X159448990Y-67782808D01*
X158918964Y-67622783D01*
X158430120Y-67362860D01*
X158001069Y-67012935D01*
X157648155Y-66586335D01*
X157384827Y-66099320D01*
X157221106Y-65570422D01*
X157160000Y-64989040D01*
X157160000Y-64737314D01*
X157332905Y-64737314D01*
X157332905Y-65262686D01*
X157435400Y-65777963D01*
X157636451Y-66263343D01*
X157928332Y-66700174D01*
X158299826Y-67071668D01*
X158736657Y-67363549D01*
X159222037Y-67564600D01*
X159737314Y-67667095D01*
X160262686Y-67667095D01*
X160777963Y-67564600D01*
X161263343Y-67363549D01*
X161700174Y-67071668D01*
X162071668Y-66700174D01*
X162363549Y-66263343D01*
X162564600Y-65777963D01*
X162576129Y-65720000D01*
X163678299Y-65720000D01*
X163705040Y-65991507D01*
X163784236Y-66252581D01*
X163912843Y-66493188D01*
X164085919Y-66704081D01*
X164296812Y-66877157D01*
X164537419Y-67005764D01*
X164798493Y-67084960D01*
X165001963Y-67105000D01*
X167738037Y-67105000D01*
X167941507Y-67084960D01*
X168202581Y-67005764D01*
X168443188Y-66877157D01*
X168654081Y-66704081D01*
X168827157Y-66493188D01*
X168955764Y-66252581D01*
X169034960Y-65991507D01*
X169061701Y-65720000D01*
X169034960Y-65448493D01*
X168955764Y-65187419D01*
X168827157Y-64946812D01*
X168655226Y-64737314D01*
X170052905Y-64737314D01*
X170052905Y-65262686D01*
X170155400Y-65777963D01*
X170356451Y-66263343D01*
X170648332Y-66700174D01*
X171019826Y-67071668D01*
X171456657Y-67363549D01*
X171942037Y-67564600D01*
X172457314Y-67667095D01*
X172982686Y-67667095D01*
X173497963Y-67564600D01*
X173983343Y-67363549D01*
X174420174Y-67071668D01*
X174791668Y-66700174D01*
X175083549Y-66263343D01*
X175284600Y-65777963D01*
X175387095Y-65262686D01*
X175387095Y-64737314D01*
X175284600Y-64222037D01*
X175083549Y-63736657D01*
X174791668Y-63299826D01*
X174420174Y-62928332D01*
X173983343Y-62636451D01*
X173497963Y-62435400D01*
X172982686Y-62332905D01*
X172457314Y-62332905D01*
X171942037Y-62435400D01*
X171456657Y-62636451D01*
X171019826Y-62928332D01*
X170648332Y-63299826D01*
X170356451Y-63736657D01*
X170155400Y-64222037D01*
X170052905Y-64737314D01*
X168655226Y-64737314D01*
X168654081Y-64735919D01*
X168443188Y-64562843D01*
X168202581Y-64434236D01*
X167941507Y-64355040D01*
X167738037Y-64335000D01*
X165001963Y-64335000D01*
X164798493Y-64355040D01*
X164537419Y-64434236D01*
X164296812Y-64562843D01*
X164085919Y-64735919D01*
X163912843Y-64946812D01*
X163784236Y-65187419D01*
X163705040Y-65448493D01*
X163678299Y-65720000D01*
X162576129Y-65720000D01*
X162667095Y-65262686D01*
X162667095Y-64737314D01*
X162564600Y-64222037D01*
X162363549Y-63736657D01*
X162071668Y-63299826D01*
X161700174Y-62928332D01*
X161263343Y-62636451D01*
X160777963Y-62435400D01*
X160262686Y-62332905D01*
X159737314Y-62332905D01*
X159222037Y-62435400D01*
X158736657Y-62636451D01*
X158299826Y-62928332D01*
X157928332Y-63299826D01*
X157636451Y-63736657D01*
X157435400Y-64222037D01*
X157332905Y-64737314D01*
X157160000Y-64737314D01*
X157160000Y-58420000D01*
X163678299Y-58420000D01*
X163705040Y-58691507D01*
X163784236Y-58952581D01*
X163912843Y-59193188D01*
X164085919Y-59404081D01*
X164296812Y-59577157D01*
X164537419Y-59705764D01*
X164798493Y-59784960D01*
X165001963Y-59805000D01*
X167738037Y-59805000D01*
X167941507Y-59784960D01*
X168202581Y-59705764D01*
X168443188Y-59577157D01*
X168654081Y-59404081D01*
X168827157Y-59193188D01*
X168955764Y-58952581D01*
X169034960Y-58691507D01*
X169061701Y-58420000D01*
X169034960Y-58148493D01*
X168955764Y-57887419D01*
X168827157Y-57646812D01*
X168654081Y-57435919D01*
X168443188Y-57262843D01*
X168202581Y-57134236D01*
X167941507Y-57055040D01*
X167738037Y-57035000D01*
X167130000Y-57035000D01*
X167130000Y-54924801D01*
X180851008Y-41203795D01*
X180880001Y-41180001D01*
X180903795Y-41151008D01*
X180903799Y-41151004D01*
X180974973Y-41064277D01*
X180974974Y-41064276D01*
X181045546Y-40932247D01*
X181089003Y-40788986D01*
X181100000Y-40677333D01*
X181100000Y-40677324D01*
X181103676Y-40640001D01*
X181100000Y-40602678D01*
X181100000Y-34298178D01*
X181286632Y-34173475D01*
X181493475Y-33966632D01*
X181655990Y-33723411D01*
X181767932Y-33453158D01*
X181825000Y-33166260D01*
X181825000Y-32873740D01*
X181767932Y-32586842D01*
X181655990Y-32316589D01*
X181493475Y-32073368D01*
X181286632Y-31866525D01*
X181043411Y-31704010D01*
X180773158Y-31592068D01*
X180486260Y-31535000D01*
X180193740Y-31535000D01*
X179906842Y-31592068D01*
X179636589Y-31704010D01*
X179393368Y-31866525D01*
X179186525Y-32073368D01*
X179070000Y-32247760D01*
X178953475Y-32073368D01*
X178746632Y-31866525D01*
X178560000Y-31741822D01*
X178560000Y-29247322D01*
X178563676Y-29209999D01*
X178560000Y-29172676D01*
X178560000Y-29172667D01*
X178549003Y-29061014D01*
X178505546Y-28917753D01*
X178434974Y-28785724D01*
X178421811Y-28769685D01*
X178363799Y-28698996D01*
X178363795Y-28698992D01*
X178340001Y-28669999D01*
X178311008Y-28646205D01*
X175823804Y-26159003D01*
X175800001Y-26129999D01*
X175684276Y-26035026D01*
X175552247Y-25964454D01*
X175408986Y-25920997D01*
X175297333Y-25910000D01*
X175297322Y-25910000D01*
X175260000Y-25906324D01*
X175222678Y-25910000D01*
X170448072Y-25910000D01*
X170448072Y-25770000D01*
X170435812Y-25645518D01*
X170399502Y-25525820D01*
X170340537Y-25415506D01*
X170261185Y-25318815D01*
X170164494Y-25239463D01*
X170054180Y-25180498D01*
X169934482Y-25144188D01*
X169810000Y-25131928D01*
X168010000Y-25131928D01*
X167885518Y-25144188D01*
X167765820Y-25180498D01*
X167655506Y-25239463D01*
X167558815Y-25318815D01*
X167479463Y-25415506D01*
X167420498Y-25525820D01*
X167417187Y-25536735D01*
X167370422Y-25489970D01*
X167254474Y-25605918D01*
X167170792Y-25351739D01*
X166898225Y-25220842D01*
X166605358Y-25145635D01*
X166303447Y-25129009D01*
X166004093Y-25171603D01*
X165718801Y-25271778D01*
X165569208Y-25351739D01*
X165485525Y-25605920D01*
X166370000Y-26490395D01*
X166384143Y-26476253D01*
X166563748Y-26655858D01*
X166549605Y-26670000D01*
X166563748Y-26684143D01*
X166384143Y-26863748D01*
X166370000Y-26849605D01*
X165485525Y-27734080D01*
X165569208Y-27988261D01*
X165841775Y-28119158D01*
X166134642Y-28194365D01*
X166436553Y-28210991D01*
X166735907Y-28168397D01*
X167021199Y-28068222D01*
X167170792Y-27988261D01*
X167254474Y-27734082D01*
X167370422Y-27850030D01*
X167417187Y-27803265D01*
X167420498Y-27814180D01*
X167479463Y-27924494D01*
X167558815Y-28021185D01*
X167655506Y-28100537D01*
X167765820Y-28159502D01*
X167885518Y-28195812D01*
X168010000Y-28208072D01*
X169810000Y-28208072D01*
X169934482Y-28195812D01*
X170054180Y-28159502D01*
X170164494Y-28100537D01*
X170261185Y-28021185D01*
X170340537Y-27924494D01*
X170399502Y-27814180D01*
X170435812Y-27694482D01*
X170448072Y-27570000D01*
X170448072Y-27430000D01*
X174945199Y-27430000D01*
X177040001Y-29524804D01*
X177040000Y-31741821D01*
X176853368Y-31866525D01*
X176721513Y-31998380D01*
X176699502Y-31925820D01*
X176640537Y-31815506D01*
X176561185Y-31718815D01*
X176464494Y-31639463D01*
X176354180Y-31580498D01*
X176234482Y-31544188D01*
X176110000Y-31531928D01*
X175545750Y-31535000D01*
X175387000Y-31693750D01*
X175387000Y-32893000D01*
X175407000Y-32893000D01*
X175407000Y-33147000D01*
X175387000Y-33147000D01*
X175387000Y-34346250D01*
X175545750Y-34505000D01*
X176110000Y-34508072D01*
X176234482Y-34495812D01*
X176354180Y-34459502D01*
X176464494Y-34400537D01*
X176561185Y-34321185D01*
X176640537Y-34224494D01*
X176699502Y-34114180D01*
X176721513Y-34041620D01*
X176853368Y-34173475D01*
X177096589Y-34335990D01*
X177366842Y-34447932D01*
X177653740Y-34505000D01*
X177946260Y-34505000D01*
X178233158Y-34447932D01*
X178503411Y-34335990D01*
X178746632Y-34173475D01*
X178953475Y-33966632D01*
X179070000Y-33792240D01*
X179186525Y-33966632D01*
X179393368Y-34173475D01*
X179580000Y-34298179D01*
X179580001Y-40325196D01*
X165859003Y-54046196D01*
X165829999Y-54069999D01*
X165774871Y-54137174D01*
X165735026Y-54185724D01*
X165664455Y-54317753D01*
X165664454Y-54317754D01*
X165620997Y-54461015D01*
X165610000Y-54572668D01*
X165610000Y-54572678D01*
X165606324Y-54610000D01*
X165610000Y-54647323D01*
X165610001Y-57035000D01*
X165001963Y-57035000D01*
X164798493Y-57055040D01*
X164537419Y-57134236D01*
X164296812Y-57262843D01*
X164085919Y-57435919D01*
X163912843Y-57646812D01*
X163784236Y-57887419D01*
X163705040Y-58148493D01*
X163678299Y-58420000D01*
X157160000Y-58420000D01*
X157160000Y-50370000D01*
X163681928Y-50370000D01*
X163694188Y-50494482D01*
X163730498Y-50614180D01*
X163789463Y-50724494D01*
X163868815Y-50821185D01*
X163965506Y-50900537D01*
X164075820Y-50959502D01*
X164195518Y-50995812D01*
X164320000Y-51008072D01*
X166084250Y-51005000D01*
X166243000Y-50846250D01*
X166243000Y-49747000D01*
X166497000Y-49747000D01*
X166497000Y-50846250D01*
X166655750Y-51005000D01*
X168420000Y-51008072D01*
X168544482Y-50995812D01*
X168664180Y-50959502D01*
X168774494Y-50900537D01*
X168871185Y-50821185D01*
X168950537Y-50724494D01*
X169009502Y-50614180D01*
X169045812Y-50494482D01*
X169058072Y-50370000D01*
X169055000Y-49905750D01*
X168896250Y-49747000D01*
X166497000Y-49747000D01*
X166243000Y-49747000D01*
X163843750Y-49747000D01*
X163685000Y-49905750D01*
X163681928Y-50370000D01*
X157160000Y-50370000D01*
X157160000Y-48870000D01*
X163681928Y-48870000D01*
X163685000Y-49334250D01*
X163843750Y-49493000D01*
X166243000Y-49493000D01*
X166243000Y-48393750D01*
X166497000Y-48393750D01*
X166497000Y-49493000D01*
X168896250Y-49493000D01*
X169055000Y-49334250D01*
X169058072Y-48870000D01*
X169045812Y-48745518D01*
X169009502Y-48625820D01*
X168950537Y-48515506D01*
X168871185Y-48418815D01*
X168774494Y-48339463D01*
X168664180Y-48280498D01*
X168544482Y-48244188D01*
X168420000Y-48231928D01*
X166655750Y-48235000D01*
X166497000Y-48393750D01*
X166243000Y-48393750D01*
X166084250Y-48235000D01*
X164320000Y-48231928D01*
X164195518Y-48244188D01*
X164075820Y-48280498D01*
X163965506Y-48339463D01*
X163868815Y-48418815D01*
X163789463Y-48515506D01*
X163730498Y-48625820D01*
X163694188Y-48745518D01*
X163681928Y-48870000D01*
X157160000Y-48870000D01*
X157160000Y-33870000D01*
X173771928Y-33870000D01*
X173784188Y-33994482D01*
X173820498Y-34114180D01*
X173879463Y-34224494D01*
X173958815Y-34321185D01*
X174055506Y-34400537D01*
X174165820Y-34459502D01*
X174285518Y-34495812D01*
X174410000Y-34508072D01*
X174974250Y-34505000D01*
X175133000Y-34346250D01*
X175133000Y-33147000D01*
X173933750Y-33147000D01*
X173775000Y-33305750D01*
X173771928Y-33870000D01*
X157160000Y-33870000D01*
X157160000Y-32170000D01*
X173771928Y-32170000D01*
X173775000Y-32734250D01*
X173933750Y-32893000D01*
X175133000Y-32893000D01*
X175133000Y-31693750D01*
X174974250Y-31535000D01*
X174410000Y-31531928D01*
X174285518Y-31544188D01*
X174165820Y-31580498D01*
X174055506Y-31639463D01*
X173958815Y-31718815D01*
X173879463Y-31815506D01*
X173820498Y-31925820D01*
X173784188Y-32045518D01*
X173771928Y-32170000D01*
X157160000Y-32170000D01*
X157160000Y-25032279D01*
X157188921Y-24737314D01*
X157332905Y-24737314D01*
X157332905Y-25262686D01*
X157435400Y-25777963D01*
X157636451Y-26263343D01*
X157928332Y-26700174D01*
X158299826Y-27071668D01*
X158736657Y-27363549D01*
X159222037Y-27564600D01*
X159737314Y-27667095D01*
X160262686Y-27667095D01*
X160777963Y-27564600D01*
X161263343Y-27363549D01*
X161700174Y-27071668D01*
X162035289Y-26736553D01*
X164829009Y-26736553D01*
X164871603Y-27035907D01*
X164971778Y-27321199D01*
X165051739Y-27470792D01*
X165305920Y-27554475D01*
X166190395Y-26670000D01*
X165305920Y-25785525D01*
X165051739Y-25869208D01*
X164920842Y-26141775D01*
X164845635Y-26434642D01*
X164829009Y-26736553D01*
X162035289Y-26736553D01*
X162071668Y-26700174D01*
X162363549Y-26263343D01*
X162564600Y-25777963D01*
X162667095Y-25262686D01*
X162667095Y-24737314D01*
X162564600Y-24222037D01*
X162363549Y-23736657D01*
X162071668Y-23299826D01*
X161700174Y-22928332D01*
X161263343Y-22636451D01*
X160777963Y-22435400D01*
X160262686Y-22332905D01*
X159737314Y-22332905D01*
X159222037Y-22435400D01*
X158736657Y-22636451D01*
X158299826Y-22928332D01*
X157928332Y-23299826D01*
X157636451Y-23736657D01*
X157435400Y-24222037D01*
X157332905Y-24737314D01*
X157188921Y-24737314D01*
X157217192Y-24448990D01*
X157377216Y-23918964D01*
X157637140Y-23430121D01*
X157987065Y-23001069D01*
X158413664Y-22648156D01*
X158900681Y-22384827D01*
X159429578Y-22221106D01*
X160010960Y-22160000D01*
X179967721Y-22160000D01*
X180551010Y-22217192D01*
G04 #@! TA.AperFunction,Conductor*
D23*
G36*
X180551010Y-22217192D02*
G01*
X181081036Y-22377216D01*
X181569879Y-22637140D01*
X181998931Y-22987065D01*
X182351844Y-23413664D01*
X182615173Y-23900681D01*
X182778894Y-24429578D01*
X182840001Y-25010969D01*
X182840000Y-26032418D01*
X182843223Y-26065142D01*
X182843223Y-26074876D01*
X182844186Y-26084041D01*
X182860502Y-26229503D01*
X182872940Y-26288017D01*
X182884558Y-26346695D01*
X182887283Y-26355498D01*
X182931542Y-26495021D01*
X182955109Y-26550005D01*
X182977903Y-26605309D01*
X182982287Y-26613415D01*
X183052804Y-26741684D01*
X183086591Y-26791029D01*
X183119699Y-26840861D01*
X183125573Y-26847962D01*
X183219660Y-26960092D01*
X183262411Y-27001957D01*
X183304556Y-27044397D01*
X183311697Y-27050221D01*
X183373000Y-27099509D01*
X183373000Y-29900214D01*
X183297123Y-29962985D01*
X183255001Y-30005402D01*
X183212232Y-30047284D01*
X183206359Y-30054385D01*
X183113846Y-30167816D01*
X183080754Y-30217625D01*
X183046947Y-30266997D01*
X183042564Y-30275103D01*
X182973845Y-30404345D01*
X182951055Y-30459638D01*
X182927483Y-30514636D01*
X182924758Y-30523440D01*
X182882452Y-30663566D01*
X182870836Y-30722232D01*
X182858397Y-30780753D01*
X182857434Y-30789917D01*
X182849465Y-30871192D01*
X182849383Y-30871463D01*
X182843244Y-30934640D01*
X182843150Y-30935594D01*
X182843150Y-30935603D01*
X182839959Y-30968439D01*
X182854958Y-42513146D01*
X182797808Y-43096010D01*
X182637783Y-43626036D01*
X182377860Y-44114880D01*
X182027935Y-44543931D01*
X181601335Y-44896845D01*
X181114320Y-45160173D01*
X180585422Y-45323894D01*
X180013079Y-45384050D01*
X179721138Y-45369206D01*
X179703241Y-45370054D01*
X179693270Y-45370089D01*
X179685186Y-45370910D01*
X179644066Y-45372859D01*
X179635748Y-45372801D01*
X179626832Y-45373676D01*
X179623815Y-45373819D01*
X179622615Y-45374117D01*
X178947238Y-45445103D01*
X178888675Y-45457124D01*
X178829882Y-45468339D01*
X178821060Y-45471003D01*
X178168528Y-45672995D01*
X178113373Y-45696180D01*
X178057920Y-45718584D01*
X178049788Y-45722909D01*
X178049783Y-45722911D01*
X178049779Y-45722914D01*
X177448913Y-46047800D01*
X177399329Y-46081245D01*
X177349266Y-46114005D01*
X177342125Y-46119829D01*
X176815802Y-46555241D01*
X176773642Y-46597697D01*
X176730912Y-46639541D01*
X176725038Y-46646642D01*
X176293312Y-47175991D01*
X176260208Y-47225818D01*
X176226413Y-47275173D01*
X176222031Y-47283279D01*
X175901344Y-47886403D01*
X175878548Y-47941709D01*
X175854983Y-47996690D01*
X175852258Y-48005493D01*
X175654826Y-48659419D01*
X175643203Y-48718122D01*
X175630770Y-48776611D01*
X175629807Y-48785775D01*
X175563150Y-49465595D01*
X175563150Y-49465608D01*
X175560001Y-49497581D01*
X175560000Y-64967721D01*
X175502808Y-65551010D01*
X175342783Y-66081036D01*
X175082860Y-66569880D01*
X174732935Y-66998931D01*
X174306335Y-67351845D01*
X173819320Y-67615173D01*
X173290422Y-67778894D01*
X172709040Y-67840000D01*
X160032279Y-67840000D01*
X159448990Y-67782808D01*
X158918964Y-67622783D01*
X158430120Y-67362860D01*
X158001069Y-67012935D01*
X157648155Y-66586335D01*
X157384827Y-66099320D01*
X157221106Y-65570422D01*
X157160000Y-64989040D01*
X157160000Y-64737314D01*
X157332905Y-64737314D01*
X157332905Y-65262686D01*
X157435400Y-65777963D01*
X157636451Y-66263343D01*
X157928332Y-66700174D01*
X158299826Y-67071668D01*
X158736657Y-67363549D01*
X159222037Y-67564600D01*
X159737314Y-67667095D01*
X160262686Y-67667095D01*
X160777963Y-67564600D01*
X161263343Y-67363549D01*
X161700174Y-67071668D01*
X162071668Y-66700174D01*
X162363549Y-66263343D01*
X162564600Y-65777963D01*
X162576129Y-65720000D01*
X163678299Y-65720000D01*
X163705040Y-65991507D01*
X163784236Y-66252581D01*
X163912843Y-66493188D01*
X164085919Y-66704081D01*
X164296812Y-66877157D01*
X164537419Y-67005764D01*
X164798493Y-67084960D01*
X165001963Y-67105000D01*
X167738037Y-67105000D01*
X167941507Y-67084960D01*
X168202581Y-67005764D01*
X168443188Y-66877157D01*
X168654081Y-66704081D01*
X168827157Y-66493188D01*
X168955764Y-66252581D01*
X169034960Y-65991507D01*
X169061701Y-65720000D01*
X169034960Y-65448493D01*
X168955764Y-65187419D01*
X168827157Y-64946812D01*
X168655226Y-64737314D01*
X170052905Y-64737314D01*
X170052905Y-65262686D01*
X170155400Y-65777963D01*
X170356451Y-66263343D01*
X170648332Y-66700174D01*
X171019826Y-67071668D01*
X171456657Y-67363549D01*
X171942037Y-67564600D01*
X172457314Y-67667095D01*
X172982686Y-67667095D01*
X173497963Y-67564600D01*
X173983343Y-67363549D01*
X174420174Y-67071668D01*
X174791668Y-66700174D01*
X175083549Y-66263343D01*
X175284600Y-65777963D01*
X175387095Y-65262686D01*
X175387095Y-64737314D01*
X175284600Y-64222037D01*
X175083549Y-63736657D01*
X174791668Y-63299826D01*
X174420174Y-62928332D01*
X173983343Y-62636451D01*
X173497963Y-62435400D01*
X172982686Y-62332905D01*
X172457314Y-62332905D01*
X171942037Y-62435400D01*
X171456657Y-62636451D01*
X171019826Y-62928332D01*
X170648332Y-63299826D01*
X170356451Y-63736657D01*
X170155400Y-64222037D01*
X170052905Y-64737314D01*
X168655226Y-64737314D01*
X168654081Y-64735919D01*
X168443188Y-64562843D01*
X168202581Y-64434236D01*
X167941507Y-64355040D01*
X167738037Y-64335000D01*
X165001963Y-64335000D01*
X164798493Y-64355040D01*
X164537419Y-64434236D01*
X164296812Y-64562843D01*
X164085919Y-64735919D01*
X163912843Y-64946812D01*
X163784236Y-65187419D01*
X163705040Y-65448493D01*
X163678299Y-65720000D01*
X162576129Y-65720000D01*
X162667095Y-65262686D01*
X162667095Y-64737314D01*
X162564600Y-64222037D01*
X162363549Y-63736657D01*
X162071668Y-63299826D01*
X161700174Y-62928332D01*
X161263343Y-62636451D01*
X160777963Y-62435400D01*
X160262686Y-62332905D01*
X159737314Y-62332905D01*
X159222037Y-62435400D01*
X158736657Y-62636451D01*
X158299826Y-62928332D01*
X157928332Y-63299826D01*
X157636451Y-63736657D01*
X157435400Y-64222037D01*
X157332905Y-64737314D01*
X157160000Y-64737314D01*
X157160000Y-58420000D01*
X163678299Y-58420000D01*
X163705040Y-58691507D01*
X163784236Y-58952581D01*
X163912843Y-59193188D01*
X164085919Y-59404081D01*
X164296812Y-59577157D01*
X164537419Y-59705764D01*
X164798493Y-59784960D01*
X165001963Y-59805000D01*
X167738037Y-59805000D01*
X167941507Y-59784960D01*
X168202581Y-59705764D01*
X168443188Y-59577157D01*
X168654081Y-59404081D01*
X168827157Y-59193188D01*
X168955764Y-58952581D01*
X169034960Y-58691507D01*
X169061701Y-58420000D01*
X169034960Y-58148493D01*
X168955764Y-57887419D01*
X168827157Y-57646812D01*
X168654081Y-57435919D01*
X168443188Y-57262843D01*
X168202581Y-57134236D01*
X167941507Y-57055040D01*
X167738037Y-57035000D01*
X167130000Y-57035000D01*
X167130000Y-54924801D01*
X180851008Y-41203795D01*
X180880001Y-41180001D01*
X180903795Y-41151008D01*
X180903799Y-41151004D01*
X180974973Y-41064277D01*
X180974974Y-41064276D01*
X181045546Y-40932247D01*
X181089003Y-40788986D01*
X181100000Y-40677333D01*
X181100000Y-40677324D01*
X181103676Y-40640001D01*
X181100000Y-40602678D01*
X181100000Y-34298178D01*
X181286632Y-34173475D01*
X181493475Y-33966632D01*
X181655990Y-33723411D01*
X181767932Y-33453158D01*
X181825000Y-33166260D01*
X181825000Y-32873740D01*
X181767932Y-32586842D01*
X181655990Y-32316589D01*
X181493475Y-32073368D01*
X181286632Y-31866525D01*
X181043411Y-31704010D01*
X180773158Y-31592068D01*
X180486260Y-31535000D01*
X180193740Y-31535000D01*
X179906842Y-31592068D01*
X179636589Y-31704010D01*
X179393368Y-31866525D01*
X179186525Y-32073368D01*
X179070000Y-32247760D01*
X178953475Y-32073368D01*
X178746632Y-31866525D01*
X178560000Y-31741822D01*
X178560000Y-29247322D01*
X178563676Y-29209999D01*
X178560000Y-29172676D01*
X178560000Y-29172667D01*
X178549003Y-29061014D01*
X178505546Y-28917753D01*
X178434974Y-28785724D01*
X178421811Y-28769685D01*
X178363799Y-28698996D01*
X178363795Y-28698992D01*
X178340001Y-28669999D01*
X178311008Y-28646205D01*
X175823804Y-26159003D01*
X175800001Y-26129999D01*
X175684276Y-26035026D01*
X175552247Y-25964454D01*
X175408986Y-25920997D01*
X175297333Y-25910000D01*
X175297322Y-25910000D01*
X175260000Y-25906324D01*
X175222678Y-25910000D01*
X170448072Y-25910000D01*
X170448072Y-25770000D01*
X170435812Y-25645518D01*
X170399502Y-25525820D01*
X170340537Y-25415506D01*
X170261185Y-25318815D01*
X170164494Y-25239463D01*
X170054180Y-25180498D01*
X169934482Y-25144188D01*
X169810000Y-25131928D01*
X168010000Y-25131928D01*
X167885518Y-25144188D01*
X167765820Y-25180498D01*
X167655506Y-25239463D01*
X167558815Y-25318815D01*
X167479463Y-25415506D01*
X167420498Y-25525820D01*
X167417187Y-25536735D01*
X167370422Y-25489970D01*
X167254474Y-25605918D01*
X167170792Y-25351739D01*
X166898225Y-25220842D01*
X166605358Y-25145635D01*
X166303447Y-25129009D01*
X166004093Y-25171603D01*
X165718801Y-25271778D01*
X165569208Y-25351739D01*
X165485525Y-25605920D01*
X166370000Y-26490395D01*
X166384143Y-26476253D01*
X166563748Y-26655858D01*
X166549605Y-26670000D01*
X166563748Y-26684143D01*
X166384143Y-26863748D01*
X166370000Y-26849605D01*
X165485525Y-27734080D01*
X165569208Y-27988261D01*
X165841775Y-28119158D01*
X166134642Y-28194365D01*
X166436553Y-28210991D01*
X166735907Y-28168397D01*
X167021199Y-28068222D01*
X167170792Y-27988261D01*
X167254474Y-27734082D01*
X167370422Y-27850030D01*
X167417187Y-27803265D01*
X167420498Y-27814180D01*
X167479463Y-27924494D01*
X167558815Y-28021185D01*
X167655506Y-28100537D01*
X167765820Y-28159502D01*
X167885518Y-28195812D01*
X168010000Y-28208072D01*
X169810000Y-28208072D01*
X169934482Y-28195812D01*
X170054180Y-28159502D01*
X170164494Y-28100537D01*
X170261185Y-28021185D01*
X170340537Y-27924494D01*
X170399502Y-27814180D01*
X170435812Y-27694482D01*
X170448072Y-27570000D01*
X170448072Y-27430000D01*
X174945199Y-27430000D01*
X177040001Y-29524804D01*
X177040000Y-31741821D01*
X176853368Y-31866525D01*
X176721513Y-31998380D01*
X176699502Y-31925820D01*
X176640537Y-31815506D01*
X176561185Y-31718815D01*
X176464494Y-31639463D01*
X176354180Y-31580498D01*
X176234482Y-31544188D01*
X176110000Y-31531928D01*
X175545750Y-31535000D01*
X175387000Y-31693750D01*
X175387000Y-32893000D01*
X175407000Y-32893000D01*
X175407000Y-33147000D01*
X175387000Y-33147000D01*
X175387000Y-34346250D01*
X175545750Y-34505000D01*
X176110000Y-34508072D01*
X176234482Y-34495812D01*
X176354180Y-34459502D01*
X176464494Y-34400537D01*
X176561185Y-34321185D01*
X176640537Y-34224494D01*
X176699502Y-34114180D01*
X176721513Y-34041620D01*
X176853368Y-34173475D01*
X177096589Y-34335990D01*
X177366842Y-34447932D01*
X177653740Y-34505000D01*
X177946260Y-34505000D01*
X178233158Y-34447932D01*
X178503411Y-34335990D01*
X178746632Y-34173475D01*
X178953475Y-33966632D01*
X179070000Y-33792240D01*
X179186525Y-33966632D01*
X179393368Y-34173475D01*
X179580000Y-34298179D01*
X179580001Y-40325196D01*
X165859003Y-54046196D01*
X165829999Y-54069999D01*
X165774871Y-54137174D01*
X165735026Y-54185724D01*
X165664455Y-54317753D01*
X165664454Y-54317754D01*
X165620997Y-54461015D01*
X165610000Y-54572668D01*
X165610000Y-54572678D01*
X165606324Y-54610000D01*
X165610000Y-54647323D01*
X165610001Y-57035000D01*
X165001963Y-57035000D01*
X164798493Y-57055040D01*
X164537419Y-57134236D01*
X164296812Y-57262843D01*
X164085919Y-57435919D01*
X163912843Y-57646812D01*
X163784236Y-57887419D01*
X163705040Y-58148493D01*
X163678299Y-58420000D01*
X157160000Y-58420000D01*
X157160000Y-50370000D01*
X163681928Y-50370000D01*
X163694188Y-50494482D01*
X163730498Y-50614180D01*
X163789463Y-50724494D01*
X163868815Y-50821185D01*
X163965506Y-50900537D01*
X164075820Y-50959502D01*
X164195518Y-50995812D01*
X164320000Y-51008072D01*
X166084250Y-51005000D01*
X166243000Y-50846250D01*
X166243000Y-49747000D01*
X166497000Y-49747000D01*
X166497000Y-50846250D01*
X166655750Y-51005000D01*
X168420000Y-51008072D01*
X168544482Y-50995812D01*
X168664180Y-50959502D01*
X168774494Y-50900537D01*
X168871185Y-50821185D01*
X168950537Y-50724494D01*
X169009502Y-50614180D01*
X169045812Y-50494482D01*
X169058072Y-50370000D01*
X169055000Y-49905750D01*
X168896250Y-49747000D01*
X166497000Y-49747000D01*
X166243000Y-49747000D01*
X163843750Y-49747000D01*
X163685000Y-49905750D01*
X163681928Y-50370000D01*
X157160000Y-50370000D01*
X157160000Y-48870000D01*
X163681928Y-48870000D01*
X163685000Y-49334250D01*
X163843750Y-49493000D01*
X166243000Y-49493000D01*
X166243000Y-48393750D01*
X166497000Y-48393750D01*
X166497000Y-49493000D01*
X168896250Y-49493000D01*
X169055000Y-49334250D01*
X169058072Y-48870000D01*
X169045812Y-48745518D01*
X169009502Y-48625820D01*
X168950537Y-48515506D01*
X168871185Y-48418815D01*
X168774494Y-48339463D01*
X168664180Y-48280498D01*
X168544482Y-48244188D01*
X168420000Y-48231928D01*
X166655750Y-48235000D01*
X166497000Y-48393750D01*
X166243000Y-48393750D01*
X166084250Y-48235000D01*
X164320000Y-48231928D01*
X164195518Y-48244188D01*
X164075820Y-48280498D01*
X163965506Y-48339463D01*
X163868815Y-48418815D01*
X163789463Y-48515506D01*
X163730498Y-48625820D01*
X163694188Y-48745518D01*
X163681928Y-48870000D01*
X157160000Y-48870000D01*
X157160000Y-33870000D01*
X173771928Y-33870000D01*
X173784188Y-33994482D01*
X173820498Y-34114180D01*
X173879463Y-34224494D01*
X173958815Y-34321185D01*
X174055506Y-34400537D01*
X174165820Y-34459502D01*
X174285518Y-34495812D01*
X174410000Y-34508072D01*
X174974250Y-34505000D01*
X175133000Y-34346250D01*
X175133000Y-33147000D01*
X173933750Y-33147000D01*
X173775000Y-33305750D01*
X173771928Y-33870000D01*
X157160000Y-33870000D01*
X157160000Y-32170000D01*
X173771928Y-32170000D01*
X173775000Y-32734250D01*
X173933750Y-32893000D01*
X175133000Y-32893000D01*
X175133000Y-31693750D01*
X174974250Y-31535000D01*
X174410000Y-31531928D01*
X174285518Y-31544188D01*
X174165820Y-31580498D01*
X174055506Y-31639463D01*
X173958815Y-31718815D01*
X173879463Y-31815506D01*
X173820498Y-31925820D01*
X173784188Y-32045518D01*
X173771928Y-32170000D01*
X157160000Y-32170000D01*
X157160000Y-25032279D01*
X157188921Y-24737314D01*
X157332905Y-24737314D01*
X157332905Y-25262686D01*
X157435400Y-25777963D01*
X157636451Y-26263343D01*
X157928332Y-26700174D01*
X158299826Y-27071668D01*
X158736657Y-27363549D01*
X159222037Y-27564600D01*
X159737314Y-27667095D01*
X160262686Y-27667095D01*
X160777963Y-27564600D01*
X161263343Y-27363549D01*
X161700174Y-27071668D01*
X162035289Y-26736553D01*
X164829009Y-26736553D01*
X164871603Y-27035907D01*
X164971778Y-27321199D01*
X165051739Y-27470792D01*
X165305920Y-27554475D01*
X166190395Y-26670000D01*
X165305920Y-25785525D01*
X165051739Y-25869208D01*
X164920842Y-26141775D01*
X164845635Y-26434642D01*
X164829009Y-26736553D01*
X162035289Y-26736553D01*
X162071668Y-26700174D01*
X162363549Y-26263343D01*
X162564600Y-25777963D01*
X162667095Y-25262686D01*
X162667095Y-24737314D01*
X162564600Y-24222037D01*
X162363549Y-23736657D01*
X162071668Y-23299826D01*
X161700174Y-22928332D01*
X161263343Y-22636451D01*
X160777963Y-22435400D01*
X160262686Y-22332905D01*
X159737314Y-22332905D01*
X159222037Y-22435400D01*
X158736657Y-22636451D01*
X158299826Y-22928332D01*
X157928332Y-23299826D01*
X157636451Y-23736657D01*
X157435400Y-24222037D01*
X157332905Y-24737314D01*
X157188921Y-24737314D01*
X157217192Y-24448990D01*
X157377216Y-23918964D01*
X157637140Y-23430121D01*
X157987065Y-23001069D01*
X158413664Y-22648156D01*
X158900681Y-22384827D01*
X159429578Y-22221106D01*
X160010960Y-22160000D01*
X179967721Y-22160000D01*
X180551010Y-22217192D01*
G37*
G04 #@! TD.AperFunction*
M02*
