G04 #@! TF.GenerationSoftware,KiCad,Pcbnew,5.1.12-84ad8e8a86~92~ubuntu20.04.1*
G04 #@! TF.CreationDate,2021-12-17T13:54:35+09:00*
G04 #@! TF.ProjectId,Key_checker,4b65795f-6368-4656-936b-65722e6b6963,rev?*
G04 #@! TF.SameCoordinates,Original*
G04 #@! TF.FileFunction,Legend,Top*
G04 #@! TF.FilePolarity,Positive*
%FSLAX46Y46*%
G04 Gerber Fmt 4.6, Leading zero omitted, Abs format (unit mm)*
G04 Created by KiCad (PCBNEW 5.1.12-84ad8e8a86~92~ubuntu20.04.1) date 2021-12-17 13:54:35*
%MOMM*%
%LPD*%
G01*
G04 APERTURE LIST*
%ADD10C,0.500000*%
%ADD11C,0.150000*%
%ADD12C,0.300000*%
%ADD13C,0.010000*%
%ADD14C,0.120000*%
G04 APERTURE END LIST*
D10*
X158910000Y-43267142D02*
X158910000Y-40267142D01*
X160052857Y-40267142D01*
X160338571Y-40410000D01*
X160481428Y-40552857D01*
X160624285Y-40838571D01*
X160624285Y-41267142D01*
X160481428Y-41552857D01*
X160338571Y-41695714D01*
X160052857Y-41838571D01*
X158910000Y-41838571D01*
X163195714Y-41267142D02*
X163195714Y-43267142D01*
X161910000Y-41267142D02*
X161910000Y-42838571D01*
X162052857Y-43124285D01*
X162338571Y-43267142D01*
X162767142Y-43267142D01*
X163052857Y-43124285D01*
X163195714Y-42981428D01*
X164195714Y-41267142D02*
X165338571Y-41267142D01*
X164624285Y-40267142D02*
X164624285Y-42838571D01*
X164767142Y-43124285D01*
X165052857Y-43267142D01*
X165338571Y-43267142D01*
X168624285Y-43267142D02*
X168624285Y-40267142D01*
X170338571Y-43267142D02*
X169052857Y-41552857D01*
X170338571Y-40267142D02*
X168624285Y-41981428D01*
X172767142Y-43124285D02*
X172481428Y-43267142D01*
X171910000Y-43267142D01*
X171624285Y-43124285D01*
X171481428Y-42838571D01*
X171481428Y-41695714D01*
X171624285Y-41410000D01*
X171910000Y-41267142D01*
X172481428Y-41267142D01*
X172767142Y-41410000D01*
X172910000Y-41695714D01*
X172910000Y-41981428D01*
X171481428Y-42267142D01*
X173910000Y-41267142D02*
X174624285Y-43267142D01*
X175338571Y-41267142D02*
X174624285Y-43267142D01*
X174338571Y-43981428D01*
X174195714Y-44124285D01*
X173910000Y-44267142D01*
X176338571Y-43124285D02*
X176624285Y-43267142D01*
X177195714Y-43267142D01*
X177481428Y-43124285D01*
X177624285Y-42838571D01*
X177624285Y-42695714D01*
X177481428Y-42410000D01*
X177195714Y-42267142D01*
X176767142Y-42267142D01*
X176481428Y-42124285D01*
X176338571Y-41838571D01*
X176338571Y-41695714D01*
X176481428Y-41410000D01*
X176767142Y-41267142D01*
X177195714Y-41267142D01*
X177481428Y-41410000D01*
X178910000Y-42981428D02*
X179052857Y-43124285D01*
X178910000Y-43267142D01*
X178767142Y-43124285D01*
X178910000Y-42981428D01*
X178910000Y-43267142D01*
X178910000Y-42124285D02*
X178767142Y-40410000D01*
X178910000Y-40267142D01*
X179052857Y-40410000D01*
X178910000Y-42124285D01*
X178910000Y-40267142D01*
D11*
X174990476Y-35933571D02*
X175323809Y-35933571D01*
X175466666Y-36457380D02*
X174990476Y-36457380D01*
X174990476Y-35457380D01*
X175466666Y-35457380D01*
X175800000Y-36457380D02*
X176323809Y-35790714D01*
X175800000Y-35790714D02*
X176323809Y-36457380D01*
X176561904Y-35790714D02*
X176942857Y-35790714D01*
X176704761Y-35457380D02*
X176704761Y-36314523D01*
X176752380Y-36409761D01*
X176847619Y-36457380D01*
X176942857Y-36457380D01*
X177657142Y-36409761D02*
X177561904Y-36457380D01*
X177371428Y-36457380D01*
X177276190Y-36409761D01*
X177228571Y-36314523D01*
X177228571Y-35933571D01*
X177276190Y-35838333D01*
X177371428Y-35790714D01*
X177561904Y-35790714D01*
X177657142Y-35838333D01*
X177704761Y-35933571D01*
X177704761Y-36028809D01*
X177228571Y-36124047D01*
X178133333Y-36457380D02*
X178133333Y-35790714D01*
X178133333Y-35981190D02*
X178180952Y-35885952D01*
X178228571Y-35838333D01*
X178323809Y-35790714D01*
X178419047Y-35790714D01*
X178752380Y-35790714D02*
X178752380Y-36457380D01*
X178752380Y-35885952D02*
X178800000Y-35838333D01*
X178895238Y-35790714D01*
X179038095Y-35790714D01*
X179133333Y-35838333D01*
X179180952Y-35933571D01*
X179180952Y-36457380D01*
X180085714Y-36457380D02*
X180085714Y-35933571D01*
X180038095Y-35838333D01*
X179942857Y-35790714D01*
X179752380Y-35790714D01*
X179657142Y-35838333D01*
X180085714Y-36409761D02*
X179990476Y-36457380D01*
X179752380Y-36457380D01*
X179657142Y-36409761D01*
X179609523Y-36314523D01*
X179609523Y-36219285D01*
X179657142Y-36124047D01*
X179752380Y-36076428D01*
X179990476Y-36076428D01*
X180085714Y-36028809D01*
X180704761Y-36457380D02*
X180609523Y-36409761D01*
X180561904Y-36314523D01*
X180561904Y-35457380D01*
X174847619Y-38012142D02*
X174800000Y-38059761D01*
X174657142Y-38107380D01*
X174561904Y-38107380D01*
X174419047Y-38059761D01*
X174323809Y-37964523D01*
X174276190Y-37869285D01*
X174228571Y-37678809D01*
X174228571Y-37535952D01*
X174276190Y-37345476D01*
X174323809Y-37250238D01*
X174419047Y-37155000D01*
X174561904Y-37107380D01*
X174657142Y-37107380D01*
X174800000Y-37155000D01*
X174847619Y-37202619D01*
X175419047Y-38107380D02*
X175323809Y-38059761D01*
X175276190Y-38012142D01*
X175228571Y-37916904D01*
X175228571Y-37631190D01*
X175276190Y-37535952D01*
X175323809Y-37488333D01*
X175419047Y-37440714D01*
X175561904Y-37440714D01*
X175657142Y-37488333D01*
X175704761Y-37535952D01*
X175752380Y-37631190D01*
X175752380Y-37916904D01*
X175704761Y-38012142D01*
X175657142Y-38059761D01*
X175561904Y-38107380D01*
X175419047Y-38107380D01*
X176180952Y-37440714D02*
X176180952Y-38107380D01*
X176180952Y-37535952D02*
X176228571Y-37488333D01*
X176323809Y-37440714D01*
X176466666Y-37440714D01*
X176561904Y-37488333D01*
X176609523Y-37583571D01*
X176609523Y-38107380D01*
X177085714Y-37440714D02*
X177085714Y-38107380D01*
X177085714Y-37535952D02*
X177133333Y-37488333D01*
X177228571Y-37440714D01*
X177371428Y-37440714D01*
X177466666Y-37488333D01*
X177514285Y-37583571D01*
X177514285Y-38107380D01*
X178371428Y-38059761D02*
X178276190Y-38107380D01*
X178085714Y-38107380D01*
X177990476Y-38059761D01*
X177942857Y-37964523D01*
X177942857Y-37583571D01*
X177990476Y-37488333D01*
X178085714Y-37440714D01*
X178276190Y-37440714D01*
X178371428Y-37488333D01*
X178419047Y-37583571D01*
X178419047Y-37678809D01*
X177942857Y-37774047D01*
X179276190Y-38059761D02*
X179180952Y-38107380D01*
X178990476Y-38107380D01*
X178895238Y-38059761D01*
X178847619Y-38012142D01*
X178800000Y-37916904D01*
X178800000Y-37631190D01*
X178847619Y-37535952D01*
X178895238Y-37488333D01*
X178990476Y-37440714D01*
X179180952Y-37440714D01*
X179276190Y-37488333D01*
X179561904Y-37440714D02*
X179942857Y-37440714D01*
X179704761Y-37107380D02*
X179704761Y-37964523D01*
X179752380Y-38059761D01*
X179847619Y-38107380D01*
X179942857Y-38107380D01*
X180419047Y-38107380D02*
X180323809Y-38059761D01*
X180276190Y-38012142D01*
X180228571Y-37916904D01*
X180228571Y-37631190D01*
X180276190Y-37535952D01*
X180323809Y-37488333D01*
X180419047Y-37440714D01*
X180561904Y-37440714D01*
X180657142Y-37488333D01*
X180704761Y-37535952D01*
X180752380Y-37631190D01*
X180752380Y-37916904D01*
X180704761Y-38012142D01*
X180657142Y-38059761D01*
X180561904Y-38107380D01*
X180419047Y-38107380D01*
X181180952Y-38107380D02*
X181180952Y-37440714D01*
X181180952Y-37631190D02*
X181228571Y-37535952D01*
X181276190Y-37488333D01*
X181371428Y-37440714D01*
X181466666Y-37440714D01*
X160274285Y-28837380D02*
X160274285Y-27837380D01*
X160655238Y-27837380D01*
X160750476Y-27885000D01*
X160798095Y-27932619D01*
X160845714Y-28027857D01*
X160845714Y-28170714D01*
X160798095Y-28265952D01*
X160750476Y-28313571D01*
X160655238Y-28361190D01*
X160274285Y-28361190D01*
X161274285Y-28837380D02*
X161274285Y-27837380D01*
X161702857Y-28837380D02*
X161702857Y-28313571D01*
X161655238Y-28218333D01*
X161560000Y-28170714D01*
X161417142Y-28170714D01*
X161321904Y-28218333D01*
X161274285Y-28265952D01*
X162321904Y-28837380D02*
X162226666Y-28789761D01*
X162179047Y-28742142D01*
X162131428Y-28646904D01*
X162131428Y-28361190D01*
X162179047Y-28265952D01*
X162226666Y-28218333D01*
X162321904Y-28170714D01*
X162464761Y-28170714D01*
X162560000Y-28218333D01*
X162607619Y-28265952D01*
X162655238Y-28361190D01*
X162655238Y-28646904D01*
X162607619Y-28742142D01*
X162560000Y-28789761D01*
X162464761Y-28837380D01*
X162321904Y-28837380D01*
X162940952Y-28170714D02*
X163321904Y-28170714D01*
X163083809Y-27837380D02*
X163083809Y-28694523D01*
X163131428Y-28789761D01*
X163226666Y-28837380D01*
X163321904Y-28837380D01*
X163798095Y-28837380D02*
X163702857Y-28789761D01*
X163655238Y-28742142D01*
X163607619Y-28646904D01*
X163607619Y-28361190D01*
X163655238Y-28265952D01*
X163702857Y-28218333D01*
X163798095Y-28170714D01*
X163940952Y-28170714D01*
X164036190Y-28218333D01*
X164083809Y-28265952D01*
X164131428Y-28361190D01*
X164131428Y-28646904D01*
X164083809Y-28742142D01*
X164036190Y-28789761D01*
X163940952Y-28837380D01*
X163798095Y-28837380D01*
X160726666Y-30487380D02*
X160726666Y-29487380D01*
X160964761Y-29487380D01*
X161107619Y-29535000D01*
X161202857Y-29630238D01*
X161250476Y-29725476D01*
X161298095Y-29915952D01*
X161298095Y-30058809D01*
X161250476Y-30249285D01*
X161202857Y-30344523D01*
X161107619Y-30439761D01*
X160964761Y-30487380D01*
X160726666Y-30487380D01*
X161726666Y-30487380D02*
X161726666Y-29820714D01*
X161726666Y-29487380D02*
X161679047Y-29535000D01*
X161726666Y-29582619D01*
X161774285Y-29535000D01*
X161726666Y-29487380D01*
X161726666Y-29582619D01*
X162345714Y-30487380D02*
X162250476Y-30439761D01*
X162202857Y-30392142D01*
X162155238Y-30296904D01*
X162155238Y-30011190D01*
X162202857Y-29915952D01*
X162250476Y-29868333D01*
X162345714Y-29820714D01*
X162488571Y-29820714D01*
X162583809Y-29868333D01*
X162631428Y-29915952D01*
X162679047Y-30011190D01*
X162679047Y-30296904D01*
X162631428Y-30392142D01*
X162583809Y-30439761D01*
X162488571Y-30487380D01*
X162345714Y-30487380D01*
X163536190Y-30487380D02*
X163536190Y-29487380D01*
X163536190Y-30439761D02*
X163440952Y-30487380D01*
X163250476Y-30487380D01*
X163155238Y-30439761D01*
X163107619Y-30392142D01*
X163060000Y-30296904D01*
X163060000Y-30011190D01*
X163107619Y-29915952D01*
X163155238Y-29868333D01*
X163250476Y-29820714D01*
X163440952Y-29820714D01*
X163536190Y-29868333D01*
X164393333Y-30439761D02*
X164298095Y-30487380D01*
X164107619Y-30487380D01*
X164012380Y-30439761D01*
X163964761Y-30344523D01*
X163964761Y-29963571D01*
X164012380Y-29868333D01*
X164107619Y-29820714D01*
X164298095Y-29820714D01*
X164393333Y-29868333D01*
X164440952Y-29963571D01*
X164440952Y-30058809D01*
X163964761Y-30154047D01*
X211907619Y-58317380D02*
X212098095Y-58317380D01*
X212193333Y-58365000D01*
X212288571Y-58460238D01*
X212336190Y-58650714D01*
X212336190Y-58984047D01*
X212288571Y-59174523D01*
X212193333Y-59269761D01*
X212098095Y-59317380D01*
X211907619Y-59317380D01*
X211812380Y-59269761D01*
X211717142Y-59174523D01*
X211669523Y-58984047D01*
X211669523Y-58650714D01*
X211717142Y-58460238D01*
X211812380Y-58365000D01*
X211907619Y-58317380D01*
X213240952Y-59317380D02*
X212764761Y-59317380D01*
X212764761Y-58317380D01*
X213574285Y-58793571D02*
X213907619Y-58793571D01*
X214050476Y-59317380D02*
X213574285Y-59317380D01*
X213574285Y-58317380D01*
X214050476Y-58317380D01*
X214479047Y-59317380D02*
X214479047Y-58317380D01*
X214717142Y-58317380D01*
X214860000Y-58365000D01*
X214955238Y-58460238D01*
X215002857Y-58555476D01*
X215050476Y-58745952D01*
X215050476Y-58888809D01*
X215002857Y-59079285D01*
X214955238Y-59174523D01*
X214860000Y-59269761D01*
X214717142Y-59317380D01*
X214479047Y-59317380D01*
X212098095Y-59967380D02*
X212098095Y-60776904D01*
X212145714Y-60872142D01*
X212193333Y-60919761D01*
X212288571Y-60967380D01*
X212479047Y-60967380D01*
X212574285Y-60919761D01*
X212621904Y-60872142D01*
X212669523Y-60776904D01*
X212669523Y-59967380D01*
X213145714Y-60300714D02*
X213145714Y-60967380D01*
X213145714Y-60395952D02*
X213193333Y-60348333D01*
X213288571Y-60300714D01*
X213431428Y-60300714D01*
X213526666Y-60348333D01*
X213574285Y-60443571D01*
X213574285Y-60967380D01*
X214050476Y-60967380D02*
X214050476Y-60300714D01*
X214050476Y-59967380D02*
X214002857Y-60015000D01*
X214050476Y-60062619D01*
X214098095Y-60015000D01*
X214050476Y-59967380D01*
X214050476Y-60062619D01*
X214383809Y-60300714D02*
X214764761Y-60300714D01*
X214526666Y-59967380D02*
X214526666Y-60824523D01*
X214574285Y-60919761D01*
X214669523Y-60967380D01*
X214764761Y-60967380D01*
X194040476Y-70223571D02*
X194373809Y-70223571D01*
X194516666Y-70747380D02*
X194040476Y-70747380D01*
X194040476Y-69747380D01*
X194516666Y-69747380D01*
X194850000Y-70747380D02*
X195373809Y-70080714D01*
X194850000Y-70080714D02*
X195373809Y-70747380D01*
X195611904Y-70080714D02*
X195992857Y-70080714D01*
X195754761Y-69747380D02*
X195754761Y-70604523D01*
X195802380Y-70699761D01*
X195897619Y-70747380D01*
X195992857Y-70747380D01*
X196707142Y-70699761D02*
X196611904Y-70747380D01*
X196421428Y-70747380D01*
X196326190Y-70699761D01*
X196278571Y-70604523D01*
X196278571Y-70223571D01*
X196326190Y-70128333D01*
X196421428Y-70080714D01*
X196611904Y-70080714D01*
X196707142Y-70128333D01*
X196754761Y-70223571D01*
X196754761Y-70318809D01*
X196278571Y-70414047D01*
X197183333Y-70747380D02*
X197183333Y-70080714D01*
X197183333Y-70271190D02*
X197230952Y-70175952D01*
X197278571Y-70128333D01*
X197373809Y-70080714D01*
X197469047Y-70080714D01*
X197802380Y-70080714D02*
X197802380Y-70747380D01*
X197802380Y-70175952D02*
X197850000Y-70128333D01*
X197945238Y-70080714D01*
X198088095Y-70080714D01*
X198183333Y-70128333D01*
X198230952Y-70223571D01*
X198230952Y-70747380D01*
X199135714Y-70747380D02*
X199135714Y-70223571D01*
X199088095Y-70128333D01*
X198992857Y-70080714D01*
X198802380Y-70080714D01*
X198707142Y-70128333D01*
X199135714Y-70699761D02*
X199040476Y-70747380D01*
X198802380Y-70747380D01*
X198707142Y-70699761D01*
X198659523Y-70604523D01*
X198659523Y-70509285D01*
X198707142Y-70414047D01*
X198802380Y-70366428D01*
X199040476Y-70366428D01*
X199135714Y-70318809D01*
X199754761Y-70747380D02*
X199659523Y-70699761D01*
X199611904Y-70604523D01*
X199611904Y-69747380D01*
X193897619Y-72302142D02*
X193850000Y-72349761D01*
X193707142Y-72397380D01*
X193611904Y-72397380D01*
X193469047Y-72349761D01*
X193373809Y-72254523D01*
X193326190Y-72159285D01*
X193278571Y-71968809D01*
X193278571Y-71825952D01*
X193326190Y-71635476D01*
X193373809Y-71540238D01*
X193469047Y-71445000D01*
X193611904Y-71397380D01*
X193707142Y-71397380D01*
X193850000Y-71445000D01*
X193897619Y-71492619D01*
X194469047Y-72397380D02*
X194373809Y-72349761D01*
X194326190Y-72302142D01*
X194278571Y-72206904D01*
X194278571Y-71921190D01*
X194326190Y-71825952D01*
X194373809Y-71778333D01*
X194469047Y-71730714D01*
X194611904Y-71730714D01*
X194707142Y-71778333D01*
X194754761Y-71825952D01*
X194802380Y-71921190D01*
X194802380Y-72206904D01*
X194754761Y-72302142D01*
X194707142Y-72349761D01*
X194611904Y-72397380D01*
X194469047Y-72397380D01*
X195230952Y-71730714D02*
X195230952Y-72397380D01*
X195230952Y-71825952D02*
X195278571Y-71778333D01*
X195373809Y-71730714D01*
X195516666Y-71730714D01*
X195611904Y-71778333D01*
X195659523Y-71873571D01*
X195659523Y-72397380D01*
X196135714Y-71730714D02*
X196135714Y-72397380D01*
X196135714Y-71825952D02*
X196183333Y-71778333D01*
X196278571Y-71730714D01*
X196421428Y-71730714D01*
X196516666Y-71778333D01*
X196564285Y-71873571D01*
X196564285Y-72397380D01*
X197421428Y-72349761D02*
X197326190Y-72397380D01*
X197135714Y-72397380D01*
X197040476Y-72349761D01*
X196992857Y-72254523D01*
X196992857Y-71873571D01*
X197040476Y-71778333D01*
X197135714Y-71730714D01*
X197326190Y-71730714D01*
X197421428Y-71778333D01*
X197469047Y-71873571D01*
X197469047Y-71968809D01*
X196992857Y-72064047D01*
X198326190Y-72349761D02*
X198230952Y-72397380D01*
X198040476Y-72397380D01*
X197945238Y-72349761D01*
X197897619Y-72302142D01*
X197850000Y-72206904D01*
X197850000Y-71921190D01*
X197897619Y-71825952D01*
X197945238Y-71778333D01*
X198040476Y-71730714D01*
X198230952Y-71730714D01*
X198326190Y-71778333D01*
X198611904Y-71730714D02*
X198992857Y-71730714D01*
X198754761Y-71397380D02*
X198754761Y-72254523D01*
X198802380Y-72349761D01*
X198897619Y-72397380D01*
X198992857Y-72397380D01*
X199469047Y-72397380D02*
X199373809Y-72349761D01*
X199326190Y-72302142D01*
X199278571Y-72206904D01*
X199278571Y-71921190D01*
X199326190Y-71825952D01*
X199373809Y-71778333D01*
X199469047Y-71730714D01*
X199611904Y-71730714D01*
X199707142Y-71778333D01*
X199754761Y-71825952D01*
X199802380Y-71921190D01*
X199802380Y-72206904D01*
X199754761Y-72302142D01*
X199707142Y-72349761D01*
X199611904Y-72397380D01*
X199469047Y-72397380D01*
X200230952Y-72397380D02*
X200230952Y-71730714D01*
X200230952Y-71921190D02*
X200278571Y-71825952D01*
X200326190Y-71778333D01*
X200421428Y-71730714D01*
X200516666Y-71730714D01*
D12*
X198890000Y-66488571D02*
X199818571Y-66488571D01*
X199318571Y-67060000D01*
X199532857Y-67060000D01*
X199675714Y-67131428D01*
X199747142Y-67202857D01*
X199818571Y-67345714D01*
X199818571Y-67702857D01*
X199747142Y-67845714D01*
X199675714Y-67917142D01*
X199532857Y-67988571D01*
X199104285Y-67988571D01*
X198961428Y-67917142D01*
X198890000Y-67845714D01*
D11*
X211026666Y-64349761D02*
X211169523Y-64397380D01*
X211407619Y-64397380D01*
X211502857Y-64349761D01*
X211550476Y-64302142D01*
X211598095Y-64206904D01*
X211598095Y-64111666D01*
X211550476Y-64016428D01*
X211502857Y-63968809D01*
X211407619Y-63921190D01*
X211217142Y-63873571D01*
X211121904Y-63825952D01*
X211074285Y-63778333D01*
X211026666Y-63683095D01*
X211026666Y-63587857D01*
X211074285Y-63492619D01*
X211121904Y-63445000D01*
X211217142Y-63397380D01*
X211455238Y-63397380D01*
X211598095Y-63445000D01*
X212407619Y-64349761D02*
X212312380Y-64397380D01*
X212121904Y-64397380D01*
X212026666Y-64349761D01*
X211979047Y-64254523D01*
X211979047Y-63873571D01*
X212026666Y-63778333D01*
X212121904Y-63730714D01*
X212312380Y-63730714D01*
X212407619Y-63778333D01*
X212455238Y-63873571D01*
X212455238Y-63968809D01*
X211979047Y-64064047D01*
X212883809Y-63730714D02*
X212883809Y-64397380D01*
X212883809Y-63825952D02*
X212931428Y-63778333D01*
X213026666Y-63730714D01*
X213169523Y-63730714D01*
X213264761Y-63778333D01*
X213312380Y-63873571D01*
X213312380Y-64397380D01*
X213740952Y-64349761D02*
X213836190Y-64397380D01*
X214026666Y-64397380D01*
X214121904Y-64349761D01*
X214169523Y-64254523D01*
X214169523Y-64206904D01*
X214121904Y-64111666D01*
X214026666Y-64064047D01*
X213883809Y-64064047D01*
X213788571Y-64016428D01*
X213740952Y-63921190D01*
X213740952Y-63873571D01*
X213788571Y-63778333D01*
X213883809Y-63730714D01*
X214026666Y-63730714D01*
X214121904Y-63778333D01*
X214740952Y-64397380D02*
X214645714Y-64349761D01*
X214598095Y-64302142D01*
X214550476Y-64206904D01*
X214550476Y-63921190D01*
X214598095Y-63825952D01*
X214645714Y-63778333D01*
X214740952Y-63730714D01*
X214883809Y-63730714D01*
X214979047Y-63778333D01*
X215026666Y-63825952D01*
X215074285Y-63921190D01*
X215074285Y-64206904D01*
X215026666Y-64302142D01*
X214979047Y-64349761D01*
X214883809Y-64397380D01*
X214740952Y-64397380D01*
X215502857Y-64397380D02*
X215502857Y-63730714D01*
X215502857Y-63921190D02*
X215550476Y-63825952D01*
X215598095Y-63778333D01*
X215693333Y-63730714D01*
X215788571Y-63730714D01*
X211288571Y-65761666D02*
X211764761Y-65761666D01*
X211193333Y-66047380D02*
X211526666Y-65047380D01*
X211860000Y-66047380D01*
X212621904Y-66047380D02*
X212621904Y-65047380D01*
X212621904Y-65999761D02*
X212526666Y-66047380D01*
X212336190Y-66047380D01*
X212240952Y-65999761D01*
X212193333Y-65952142D01*
X212145714Y-65856904D01*
X212145714Y-65571190D01*
X212193333Y-65475952D01*
X212240952Y-65428333D01*
X212336190Y-65380714D01*
X212526666Y-65380714D01*
X212621904Y-65428333D01*
X213098095Y-65380714D02*
X213098095Y-66237857D01*
X213050476Y-66333095D01*
X212955238Y-66380714D01*
X212907619Y-66380714D01*
X213098095Y-65047380D02*
X213050476Y-65095000D01*
X213098095Y-65142619D01*
X213145714Y-65095000D01*
X213098095Y-65047380D01*
X213098095Y-65142619D01*
X214002857Y-65380714D02*
X214002857Y-66047380D01*
X213574285Y-65380714D02*
X213574285Y-65904523D01*
X213621904Y-65999761D01*
X213717142Y-66047380D01*
X213860000Y-66047380D01*
X213955238Y-65999761D01*
X214002857Y-65952142D01*
X214431428Y-65999761D02*
X214526666Y-66047380D01*
X214717142Y-66047380D01*
X214812380Y-65999761D01*
X214860000Y-65904523D01*
X214860000Y-65856904D01*
X214812380Y-65761666D01*
X214717142Y-65714047D01*
X214574285Y-65714047D01*
X214479047Y-65666428D01*
X214431428Y-65571190D01*
X214431428Y-65523571D01*
X214479047Y-65428333D01*
X214574285Y-65380714D01*
X214717142Y-65380714D01*
X214812380Y-65428333D01*
X215145714Y-65380714D02*
X215526666Y-65380714D01*
X215288571Y-65047380D02*
X215288571Y-65904523D01*
X215336190Y-65999761D01*
X215431428Y-66047380D01*
X215526666Y-66047380D01*
X195953333Y-16914761D02*
X196096190Y-16962380D01*
X196334285Y-16962380D01*
X196429523Y-16914761D01*
X196477142Y-16867142D01*
X196524761Y-16771904D01*
X196524761Y-16676666D01*
X196477142Y-16581428D01*
X196429523Y-16533809D01*
X196334285Y-16486190D01*
X196143809Y-16438571D01*
X196048571Y-16390952D01*
X196000952Y-16343333D01*
X195953333Y-16248095D01*
X195953333Y-16152857D01*
X196000952Y-16057619D01*
X196048571Y-16010000D01*
X196143809Y-15962380D01*
X196381904Y-15962380D01*
X196524761Y-16010000D01*
X196810476Y-16295714D02*
X197191428Y-16295714D01*
X196953333Y-15962380D02*
X196953333Y-16819523D01*
X197000952Y-16914761D01*
X197096190Y-16962380D01*
X197191428Y-16962380D01*
X197953333Y-16962380D02*
X197953333Y-16438571D01*
X197905714Y-16343333D01*
X197810476Y-16295714D01*
X197620000Y-16295714D01*
X197524761Y-16343333D01*
X197953333Y-16914761D02*
X197858095Y-16962380D01*
X197620000Y-16962380D01*
X197524761Y-16914761D01*
X197477142Y-16819523D01*
X197477142Y-16724285D01*
X197524761Y-16629047D01*
X197620000Y-16581428D01*
X197858095Y-16581428D01*
X197953333Y-16533809D01*
X198286666Y-16295714D02*
X198667619Y-16295714D01*
X198429523Y-15962380D02*
X198429523Y-16819523D01*
X198477142Y-16914761D01*
X198572380Y-16962380D01*
X198667619Y-16962380D01*
X199429523Y-16295714D02*
X199429523Y-16962380D01*
X199000952Y-16295714D02*
X199000952Y-16819523D01*
X199048571Y-16914761D01*
X199143809Y-16962380D01*
X199286666Y-16962380D01*
X199381904Y-16914761D01*
X199429523Y-16867142D01*
X199858095Y-16914761D02*
X199953333Y-16962380D01*
X200143809Y-16962380D01*
X200239047Y-16914761D01*
X200286666Y-16819523D01*
X200286666Y-16771904D01*
X200239047Y-16676666D01*
X200143809Y-16629047D01*
X200000952Y-16629047D01*
X199905714Y-16581428D01*
X199858095Y-16486190D01*
X199858095Y-16438571D01*
X199905714Y-16343333D01*
X200000952Y-16295714D01*
X200143809Y-16295714D01*
X200239047Y-16343333D01*
X205033809Y-16962380D02*
X205033809Y-15962380D01*
X205414761Y-15962380D01*
X205510000Y-16010000D01*
X205557619Y-16057619D01*
X205605238Y-16152857D01*
X205605238Y-16295714D01*
X205557619Y-16390952D01*
X205510000Y-16438571D01*
X205414761Y-16486190D01*
X205033809Y-16486190D01*
X206176666Y-16962380D02*
X206081428Y-16914761D01*
X206033809Y-16867142D01*
X205986190Y-16771904D01*
X205986190Y-16486190D01*
X206033809Y-16390952D01*
X206081428Y-16343333D01*
X206176666Y-16295714D01*
X206319523Y-16295714D01*
X206414761Y-16343333D01*
X206462380Y-16390952D01*
X206510000Y-16486190D01*
X206510000Y-16771904D01*
X206462380Y-16867142D01*
X206414761Y-16914761D01*
X206319523Y-16962380D01*
X206176666Y-16962380D01*
X206843333Y-16295714D02*
X207033809Y-16962380D01*
X207224285Y-16486190D01*
X207414761Y-16962380D01*
X207605238Y-16295714D01*
X208367142Y-16914761D02*
X208271904Y-16962380D01*
X208081428Y-16962380D01*
X207986190Y-16914761D01*
X207938571Y-16819523D01*
X207938571Y-16438571D01*
X207986190Y-16343333D01*
X208081428Y-16295714D01*
X208271904Y-16295714D01*
X208367142Y-16343333D01*
X208414761Y-16438571D01*
X208414761Y-16533809D01*
X207938571Y-16629047D01*
X208843333Y-16962380D02*
X208843333Y-16295714D01*
X208843333Y-16486190D02*
X208890952Y-16390952D01*
X208938571Y-16343333D01*
X209033809Y-16295714D01*
X209129047Y-16295714D01*
D12*
X194738571Y-67988571D02*
X193881428Y-67988571D01*
X194310000Y-67988571D02*
X194310000Y-66488571D01*
X194167142Y-66702857D01*
X194024285Y-66845714D01*
X193881428Y-66917142D01*
X196421428Y-66631428D02*
X196492857Y-66560000D01*
X196635714Y-66488571D01*
X196992857Y-66488571D01*
X197135714Y-66560000D01*
X197207142Y-66631428D01*
X197278571Y-66774285D01*
X197278571Y-66917142D01*
X197207142Y-67131428D01*
X196350000Y-67988571D01*
X197278571Y-67988571D01*
D11*
X202009523Y-56284761D02*
X202152380Y-56332380D01*
X202390476Y-56332380D01*
X202485714Y-56284761D01*
X202533333Y-56237142D01*
X202580952Y-56141904D01*
X202580952Y-56046666D01*
X202533333Y-55951428D01*
X202485714Y-55903809D01*
X202390476Y-55856190D01*
X202200000Y-55808571D01*
X202104761Y-55760952D01*
X202057142Y-55713333D01*
X202009523Y-55618095D01*
X202009523Y-55522857D01*
X202057142Y-55427619D01*
X202104761Y-55380000D01*
X202200000Y-55332380D01*
X202438095Y-55332380D01*
X202580952Y-55380000D01*
X203580952Y-56237142D02*
X203533333Y-56284761D01*
X203390476Y-56332380D01*
X203295238Y-56332380D01*
X203152380Y-56284761D01*
X203057142Y-56189523D01*
X203009523Y-56094285D01*
X202961904Y-55903809D01*
X202961904Y-55760952D01*
X203009523Y-55570476D01*
X203057142Y-55475238D01*
X203152380Y-55380000D01*
X203295238Y-55332380D01*
X203390476Y-55332380D01*
X203533333Y-55380000D01*
X203580952Y-55427619D01*
X204485714Y-56332380D02*
X204009523Y-56332380D01*
X204009523Y-55332380D01*
X199445714Y-57554761D02*
X199588571Y-57602380D01*
X199826666Y-57602380D01*
X199921904Y-57554761D01*
X199969523Y-57507142D01*
X200017142Y-57411904D01*
X200017142Y-57316666D01*
X199969523Y-57221428D01*
X199921904Y-57173809D01*
X199826666Y-57126190D01*
X199636190Y-57078571D01*
X199540952Y-57030952D01*
X199493333Y-56983333D01*
X199445714Y-56888095D01*
X199445714Y-56792857D01*
X199493333Y-56697619D01*
X199540952Y-56650000D01*
X199636190Y-56602380D01*
X199874285Y-56602380D01*
X200017142Y-56650000D01*
X200445714Y-57602380D02*
X200445714Y-56602380D01*
X200683809Y-56602380D01*
X200826666Y-56650000D01*
X200921904Y-56745238D01*
X200969523Y-56840476D01*
X201017142Y-57030952D01*
X201017142Y-57173809D01*
X200969523Y-57364285D01*
X200921904Y-57459523D01*
X200826666Y-57554761D01*
X200683809Y-57602380D01*
X200445714Y-57602380D01*
X201398095Y-57316666D02*
X201874285Y-57316666D01*
X201302857Y-57602380D02*
X201636190Y-56602380D01*
X201969523Y-57602380D01*
X204263809Y-56602380D02*
X204882857Y-56602380D01*
X204549523Y-56983333D01*
X204692380Y-56983333D01*
X204787619Y-57030952D01*
X204835238Y-57078571D01*
X204882857Y-57173809D01*
X204882857Y-57411904D01*
X204835238Y-57507142D01*
X204787619Y-57554761D01*
X204692380Y-57602380D01*
X204406666Y-57602380D01*
X204311428Y-57554761D01*
X204263809Y-57507142D01*
X205311428Y-57507142D02*
X205359047Y-57554761D01*
X205311428Y-57602380D01*
X205263809Y-57554761D01*
X205311428Y-57507142D01*
X205311428Y-57602380D01*
X205692380Y-56602380D02*
X206311428Y-56602380D01*
X205978095Y-56983333D01*
X206120952Y-56983333D01*
X206216190Y-57030952D01*
X206263809Y-57078571D01*
X206311428Y-57173809D01*
X206311428Y-57411904D01*
X206263809Y-57507142D01*
X206216190Y-57554761D01*
X206120952Y-57602380D01*
X205835238Y-57602380D01*
X205740000Y-57554761D01*
X205692380Y-57507142D01*
X206597142Y-56602380D02*
X206930476Y-57602380D01*
X207263809Y-56602380D01*
X207518095Y-55380000D02*
X207422857Y-55332380D01*
X207280000Y-55332380D01*
X207137142Y-55380000D01*
X207041904Y-55475238D01*
X206994285Y-55570476D01*
X206946666Y-55760952D01*
X206946666Y-55903809D01*
X206994285Y-56094285D01*
X207041904Y-56189523D01*
X207137142Y-56284761D01*
X207280000Y-56332380D01*
X207375238Y-56332380D01*
X207518095Y-56284761D01*
X207565714Y-56237142D01*
X207565714Y-55903809D01*
X207375238Y-55903809D01*
X207994285Y-56332380D02*
X207994285Y-55332380D01*
X208565714Y-56332380D01*
X208565714Y-55332380D01*
X209041904Y-56332380D02*
X209041904Y-55332380D01*
X209280000Y-55332380D01*
X209422857Y-55380000D01*
X209518095Y-55475238D01*
X209565714Y-55570476D01*
X209613333Y-55760952D01*
X209613333Y-55903809D01*
X209565714Y-56094285D01*
X209518095Y-56189523D01*
X209422857Y-56284761D01*
X209280000Y-56332380D01*
X209041904Y-56332380D01*
D12*
X179840000Y-30928571D02*
X180768571Y-30928571D01*
X180268571Y-31500000D01*
X180482857Y-31500000D01*
X180625714Y-31571428D01*
X180697142Y-31642857D01*
X180768571Y-31785714D01*
X180768571Y-32142857D01*
X180697142Y-32285714D01*
X180625714Y-32357142D01*
X180482857Y-32428571D01*
X180054285Y-32428571D01*
X179911428Y-32357142D01*
X179840000Y-32285714D01*
X177371428Y-31071428D02*
X177442857Y-31000000D01*
X177585714Y-30928571D01*
X177942857Y-30928571D01*
X178085714Y-31000000D01*
X178157142Y-31071428D01*
X178228571Y-31214285D01*
X178228571Y-31357142D01*
X178157142Y-31571428D01*
X177300000Y-32428571D01*
X178228571Y-32428571D01*
X175688571Y-32428571D02*
X174831428Y-32428571D01*
X175260000Y-32428571D02*
X175260000Y-30928571D01*
X175117142Y-31142857D01*
X174974285Y-31285714D01*
X174831428Y-31357142D01*
X204597142Y-69100000D02*
X204454285Y-69028571D01*
X204240000Y-69028571D01*
X204025714Y-69100000D01*
X203882857Y-69242857D01*
X203811428Y-69385714D01*
X203740000Y-69671428D01*
X203740000Y-69885714D01*
X203811428Y-70171428D01*
X203882857Y-70314285D01*
X204025714Y-70457142D01*
X204240000Y-70528571D01*
X204382857Y-70528571D01*
X204597142Y-70457142D01*
X204668571Y-70385714D01*
X204668571Y-69885714D01*
X204382857Y-69885714D01*
X205311428Y-70528571D02*
X205311428Y-69028571D01*
X206168571Y-70528571D01*
X206168571Y-69028571D01*
X206882857Y-70528571D02*
X206882857Y-69028571D01*
X207240000Y-69028571D01*
X207454285Y-69100000D01*
X207597142Y-69242857D01*
X207668571Y-69385714D01*
X207740000Y-69671428D01*
X207740000Y-69885714D01*
X207668571Y-70171428D01*
X207597142Y-70314285D01*
X207454285Y-70457142D01*
X207240000Y-70528571D01*
X206882857Y-70528571D01*
X202914285Y-66488571D02*
X202200000Y-66488571D01*
X202128571Y-67202857D01*
X202200000Y-67131428D01*
X202342857Y-67060000D01*
X202700000Y-67060000D01*
X202842857Y-67131428D01*
X202914285Y-67202857D01*
X202985714Y-67345714D01*
X202985714Y-67702857D01*
X202914285Y-67845714D01*
X202842857Y-67917142D01*
X202700000Y-67988571D01*
X202342857Y-67988571D01*
X202200000Y-67917142D01*
X202128571Y-67845714D01*
X203414285Y-66488571D02*
X203914285Y-67988571D01*
X204414285Y-66488571D01*
D13*
G36*
X174047921Y-52875894D02*
G01*
X174121175Y-52879123D01*
X174185119Y-52884333D01*
X174209359Y-52887297D01*
X174366563Y-52917603D01*
X174518580Y-52963478D01*
X174664408Y-53024087D01*
X174803046Y-53098590D01*
X174933492Y-53186150D01*
X175054746Y-53285930D01*
X175165804Y-53397092D01*
X175265667Y-53518797D01*
X175353332Y-53650209D01*
X175427797Y-53790490D01*
X175488062Y-53938802D01*
X175496557Y-53963942D01*
X175540422Y-54124102D01*
X175567627Y-54285882D01*
X175578246Y-54448302D01*
X175572353Y-54610385D01*
X175550021Y-54771152D01*
X175511323Y-54929625D01*
X175456333Y-55084824D01*
X175403805Y-55199756D01*
X175322734Y-55342289D01*
X175228594Y-55474293D01*
X175122041Y-55595149D01*
X175003737Y-55704240D01*
X174874340Y-55800947D01*
X174734508Y-55884654D01*
X174609553Y-55944431D01*
X174459681Y-55999594D01*
X174305331Y-56039297D01*
X174148041Y-56063619D01*
X173989348Y-56072639D01*
X173830787Y-56066437D01*
X173673898Y-56045093D01*
X173520216Y-56008685D01*
X173371279Y-55957293D01*
X173228624Y-55890996D01*
X173192672Y-55871282D01*
X173131628Y-55836691D01*
X172623157Y-56345161D01*
X172114687Y-56853632D01*
X172417344Y-57156376D01*
X172476360Y-57215572D01*
X172531574Y-57271271D01*
X172581856Y-57322307D01*
X172626072Y-57367517D01*
X172663089Y-57405737D01*
X172691777Y-57435801D01*
X172711002Y-57456546D01*
X172719631Y-57466808D01*
X172720000Y-57467597D01*
X172714200Y-57475358D01*
X172697812Y-57493439D01*
X172672356Y-57520321D01*
X172639352Y-57554483D01*
X172600318Y-57594408D01*
X172556774Y-57638575D01*
X172510241Y-57685467D01*
X172462237Y-57733562D01*
X172414281Y-57781343D01*
X172367894Y-57827290D01*
X172324595Y-57869883D01*
X172285903Y-57907605D01*
X172253338Y-57938935D01*
X172228420Y-57962354D01*
X172212667Y-57976343D01*
X172207759Y-57979734D01*
X172200309Y-57973918D01*
X172182085Y-57957226D01*
X172154250Y-57930790D01*
X172117968Y-57895741D01*
X172074404Y-57853213D01*
X172024721Y-57804338D01*
X171970083Y-57750247D01*
X171911654Y-57692073D01*
X171896650Y-57677084D01*
X171593913Y-57374435D01*
X171401340Y-57567007D01*
X171208768Y-57759580D01*
X171511418Y-58062317D01*
X171570433Y-58121512D01*
X171625647Y-58177210D01*
X171675928Y-58228245D01*
X171720143Y-58273455D01*
X171757159Y-58311674D01*
X171785846Y-58341737D01*
X171805070Y-58362481D01*
X171813698Y-58372742D01*
X171814067Y-58373530D01*
X171808266Y-58381298D01*
X171791877Y-58399385D01*
X171766418Y-58426271D01*
X171733410Y-58460437D01*
X171694373Y-58500364D01*
X171650825Y-58544533D01*
X171604287Y-58591424D01*
X171556278Y-58639520D01*
X171508317Y-58687299D01*
X171461925Y-58733245D01*
X171418621Y-58775836D01*
X171379924Y-58813554D01*
X171347355Y-58844881D01*
X171322433Y-58868296D01*
X171306677Y-58882280D01*
X171301767Y-58885667D01*
X171294306Y-58879851D01*
X171276073Y-58863156D01*
X171248233Y-58836717D01*
X171211951Y-58801667D01*
X171168391Y-58759138D01*
X171118717Y-58710263D01*
X171064096Y-58656176D01*
X171005690Y-58598010D01*
X170990962Y-58583292D01*
X170688586Y-58280916D01*
X170563410Y-58404062D01*
X170511676Y-58454057D01*
X170468684Y-58493062D01*
X170431882Y-58522702D01*
X170398718Y-58544604D01*
X170366639Y-58560394D01*
X170333092Y-58571698D01*
X170295527Y-58580143D01*
X170283733Y-58582252D01*
X170206416Y-58587258D01*
X170131623Y-58575950D01*
X170061247Y-58548932D01*
X169997182Y-58506811D01*
X169969498Y-58481676D01*
X169919627Y-58420435D01*
X169884971Y-58352764D01*
X169865790Y-58280179D01*
X169862348Y-58204197D01*
X169874906Y-58126334D01*
X169897139Y-58062578D01*
X169900154Y-58056213D01*
X169904149Y-58049124D01*
X169909591Y-58040834D01*
X169916947Y-58030865D01*
X169926685Y-58018736D01*
X169939272Y-58003972D01*
X169955177Y-57986091D01*
X169974867Y-57964618D01*
X169998808Y-57939072D01*
X170027470Y-57908976D01*
X170061319Y-57873851D01*
X170100823Y-57833219D01*
X170146449Y-57786601D01*
X170198666Y-57733519D01*
X170257940Y-57673494D01*
X170324740Y-57606049D01*
X170399532Y-57530704D01*
X170482784Y-57446981D01*
X170574965Y-57354402D01*
X170676541Y-57252489D01*
X170787980Y-57140762D01*
X170909749Y-57018744D01*
X171042317Y-56885957D01*
X171186150Y-56741921D01*
X171264803Y-56663167D01*
X172609314Y-55316967D01*
X172547518Y-55193828D01*
X172480859Y-55042574D01*
X172430382Y-54887423D01*
X172396091Y-54729448D01*
X172377991Y-54569727D01*
X172377318Y-54513116D01*
X173098614Y-54513116D01*
X173112130Y-54630053D01*
X173141679Y-54743684D01*
X173186823Y-54852781D01*
X173247121Y-54956120D01*
X173322135Y-55052471D01*
X173346855Y-55079218D01*
X173427192Y-55154623D01*
X173511399Y-55216655D01*
X173601763Y-55266414D01*
X173700568Y-55305001D01*
X173810100Y-55333516D01*
X173909567Y-55350161D01*
X173938576Y-55351762D01*
X173979200Y-55351097D01*
X174026327Y-55348521D01*
X174074843Y-55344385D01*
X174119634Y-55339042D01*
X174153285Y-55333339D01*
X174266877Y-55301064D01*
X174374755Y-55253637D01*
X174475469Y-55192292D01*
X174567570Y-55118266D01*
X174649605Y-55032793D01*
X174720126Y-54937108D01*
X174777682Y-54832447D01*
X174798602Y-54783677D01*
X174825364Y-54698853D01*
X174843644Y-54604782D01*
X174852971Y-54506874D01*
X174852874Y-54410541D01*
X174842881Y-54321193D01*
X174840138Y-54306960D01*
X174807844Y-54189985D01*
X174761436Y-54080613D01*
X174702079Y-53979808D01*
X174630935Y-53888537D01*
X174549170Y-53807764D01*
X174457946Y-53738454D01*
X174358429Y-53681572D01*
X174251781Y-53638083D01*
X174139167Y-53608952D01*
X174021752Y-53595145D01*
X173980352Y-53594112D01*
X173860576Y-53602070D01*
X173745470Y-53625566D01*
X173636156Y-53663580D01*
X173533751Y-53715094D01*
X173439375Y-53779090D01*
X173354148Y-53854546D01*
X173279189Y-53940446D01*
X173215617Y-54035770D01*
X173164551Y-54139498D01*
X173127112Y-54250613D01*
X173104417Y-54368095D01*
X173101570Y-54394101D01*
X173098614Y-54513116D01*
X172377318Y-54513116D01*
X172376084Y-54409335D01*
X172390377Y-54249346D01*
X172420872Y-54090838D01*
X172467575Y-53934884D01*
X172530489Y-53782561D01*
X172541813Y-53759100D01*
X172620765Y-53617669D01*
X172713376Y-53485556D01*
X172818599Y-53363733D01*
X172935387Y-53253171D01*
X173062694Y-53154843D01*
X173199472Y-53069719D01*
X173344675Y-52998773D01*
X173374149Y-52986565D01*
X173446827Y-52960065D01*
X173528257Y-52934958D01*
X173612482Y-52912811D01*
X173693540Y-52895189D01*
X173765473Y-52883661D01*
X173765634Y-52883641D01*
X173824215Y-52878519D01*
X173894250Y-52875549D01*
X173970549Y-52874688D01*
X174047921Y-52875894D01*
G37*
X174047921Y-52875894D02*
X174121175Y-52879123D01*
X174185119Y-52884333D01*
X174209359Y-52887297D01*
X174366563Y-52917603D01*
X174518580Y-52963478D01*
X174664408Y-53024087D01*
X174803046Y-53098590D01*
X174933492Y-53186150D01*
X175054746Y-53285930D01*
X175165804Y-53397092D01*
X175265667Y-53518797D01*
X175353332Y-53650209D01*
X175427797Y-53790490D01*
X175488062Y-53938802D01*
X175496557Y-53963942D01*
X175540422Y-54124102D01*
X175567627Y-54285882D01*
X175578246Y-54448302D01*
X175572353Y-54610385D01*
X175550021Y-54771152D01*
X175511323Y-54929625D01*
X175456333Y-55084824D01*
X175403805Y-55199756D01*
X175322734Y-55342289D01*
X175228594Y-55474293D01*
X175122041Y-55595149D01*
X175003737Y-55704240D01*
X174874340Y-55800947D01*
X174734508Y-55884654D01*
X174609553Y-55944431D01*
X174459681Y-55999594D01*
X174305331Y-56039297D01*
X174148041Y-56063619D01*
X173989348Y-56072639D01*
X173830787Y-56066437D01*
X173673898Y-56045093D01*
X173520216Y-56008685D01*
X173371279Y-55957293D01*
X173228624Y-55890996D01*
X173192672Y-55871282D01*
X173131628Y-55836691D01*
X172623157Y-56345161D01*
X172114687Y-56853632D01*
X172417344Y-57156376D01*
X172476360Y-57215572D01*
X172531574Y-57271271D01*
X172581856Y-57322307D01*
X172626072Y-57367517D01*
X172663089Y-57405737D01*
X172691777Y-57435801D01*
X172711002Y-57456546D01*
X172719631Y-57466808D01*
X172720000Y-57467597D01*
X172714200Y-57475358D01*
X172697812Y-57493439D01*
X172672356Y-57520321D01*
X172639352Y-57554483D01*
X172600318Y-57594408D01*
X172556774Y-57638575D01*
X172510241Y-57685467D01*
X172462237Y-57733562D01*
X172414281Y-57781343D01*
X172367894Y-57827290D01*
X172324595Y-57869883D01*
X172285903Y-57907605D01*
X172253338Y-57938935D01*
X172228420Y-57962354D01*
X172212667Y-57976343D01*
X172207759Y-57979734D01*
X172200309Y-57973918D01*
X172182085Y-57957226D01*
X172154250Y-57930790D01*
X172117968Y-57895741D01*
X172074404Y-57853213D01*
X172024721Y-57804338D01*
X171970083Y-57750247D01*
X171911654Y-57692073D01*
X171896650Y-57677084D01*
X171593913Y-57374435D01*
X171401340Y-57567007D01*
X171208768Y-57759580D01*
X171511418Y-58062317D01*
X171570433Y-58121512D01*
X171625647Y-58177210D01*
X171675928Y-58228245D01*
X171720143Y-58273455D01*
X171757159Y-58311674D01*
X171785846Y-58341737D01*
X171805070Y-58362481D01*
X171813698Y-58372742D01*
X171814067Y-58373530D01*
X171808266Y-58381298D01*
X171791877Y-58399385D01*
X171766418Y-58426271D01*
X171733410Y-58460437D01*
X171694373Y-58500364D01*
X171650825Y-58544533D01*
X171604287Y-58591424D01*
X171556278Y-58639520D01*
X171508317Y-58687299D01*
X171461925Y-58733245D01*
X171418621Y-58775836D01*
X171379924Y-58813554D01*
X171347355Y-58844881D01*
X171322433Y-58868296D01*
X171306677Y-58882280D01*
X171301767Y-58885667D01*
X171294306Y-58879851D01*
X171276073Y-58863156D01*
X171248233Y-58836717D01*
X171211951Y-58801667D01*
X171168391Y-58759138D01*
X171118717Y-58710263D01*
X171064096Y-58656176D01*
X171005690Y-58598010D01*
X170990962Y-58583292D01*
X170688586Y-58280916D01*
X170563410Y-58404062D01*
X170511676Y-58454057D01*
X170468684Y-58493062D01*
X170431882Y-58522702D01*
X170398718Y-58544604D01*
X170366639Y-58560394D01*
X170333092Y-58571698D01*
X170295527Y-58580143D01*
X170283733Y-58582252D01*
X170206416Y-58587258D01*
X170131623Y-58575950D01*
X170061247Y-58548932D01*
X169997182Y-58506811D01*
X169969498Y-58481676D01*
X169919627Y-58420435D01*
X169884971Y-58352764D01*
X169865790Y-58280179D01*
X169862348Y-58204197D01*
X169874906Y-58126334D01*
X169897139Y-58062578D01*
X169900154Y-58056213D01*
X169904149Y-58049124D01*
X169909591Y-58040834D01*
X169916947Y-58030865D01*
X169926685Y-58018736D01*
X169939272Y-58003972D01*
X169955177Y-57986091D01*
X169974867Y-57964618D01*
X169998808Y-57939072D01*
X170027470Y-57908976D01*
X170061319Y-57873851D01*
X170100823Y-57833219D01*
X170146449Y-57786601D01*
X170198666Y-57733519D01*
X170257940Y-57673494D01*
X170324740Y-57606049D01*
X170399532Y-57530704D01*
X170482784Y-57446981D01*
X170574965Y-57354402D01*
X170676541Y-57252489D01*
X170787980Y-57140762D01*
X170909749Y-57018744D01*
X171042317Y-56885957D01*
X171186150Y-56741921D01*
X171264803Y-56663167D01*
X172609314Y-55316967D01*
X172547518Y-55193828D01*
X172480859Y-55042574D01*
X172430382Y-54887423D01*
X172396091Y-54729448D01*
X172377991Y-54569727D01*
X172377318Y-54513116D01*
X173098614Y-54513116D01*
X173112130Y-54630053D01*
X173141679Y-54743684D01*
X173186823Y-54852781D01*
X173247121Y-54956120D01*
X173322135Y-55052471D01*
X173346855Y-55079218D01*
X173427192Y-55154623D01*
X173511399Y-55216655D01*
X173601763Y-55266414D01*
X173700568Y-55305001D01*
X173810100Y-55333516D01*
X173909567Y-55350161D01*
X173938576Y-55351762D01*
X173979200Y-55351097D01*
X174026327Y-55348521D01*
X174074843Y-55344385D01*
X174119634Y-55339042D01*
X174153285Y-55333339D01*
X174266877Y-55301064D01*
X174374755Y-55253637D01*
X174475469Y-55192292D01*
X174567570Y-55118266D01*
X174649605Y-55032793D01*
X174720126Y-54937108D01*
X174777682Y-54832447D01*
X174798602Y-54783677D01*
X174825364Y-54698853D01*
X174843644Y-54604782D01*
X174852971Y-54506874D01*
X174852874Y-54410541D01*
X174842881Y-54321193D01*
X174840138Y-54306960D01*
X174807844Y-54189985D01*
X174761436Y-54080613D01*
X174702079Y-53979808D01*
X174630935Y-53888537D01*
X174549170Y-53807764D01*
X174457946Y-53738454D01*
X174358429Y-53681572D01*
X174251781Y-53638083D01*
X174139167Y-53608952D01*
X174021752Y-53595145D01*
X173980352Y-53594112D01*
X173860576Y-53602070D01*
X173745470Y-53625566D01*
X173636156Y-53663580D01*
X173533751Y-53715094D01*
X173439375Y-53779090D01*
X173354148Y-53854546D01*
X173279189Y-53940446D01*
X173215617Y-54035770D01*
X173164551Y-54139498D01*
X173127112Y-54250613D01*
X173104417Y-54368095D01*
X173101570Y-54394101D01*
X173098614Y-54513116D01*
X172377318Y-54513116D01*
X172376084Y-54409335D01*
X172390377Y-54249346D01*
X172420872Y-54090838D01*
X172467575Y-53934884D01*
X172530489Y-53782561D01*
X172541813Y-53759100D01*
X172620765Y-53617669D01*
X172713376Y-53485556D01*
X172818599Y-53363733D01*
X172935387Y-53253171D01*
X173062694Y-53154843D01*
X173199472Y-53069719D01*
X173344675Y-52998773D01*
X173374149Y-52986565D01*
X173446827Y-52960065D01*
X173528257Y-52934958D01*
X173612482Y-52912811D01*
X173693540Y-52895189D01*
X173765473Y-52883661D01*
X173765634Y-52883641D01*
X173824215Y-52878519D01*
X173894250Y-52875549D01*
X173970549Y-52874688D01*
X174047921Y-52875894D01*
D14*
X199330000Y-61020000D02*
X199330000Y-59690000D01*
X200660000Y-61020000D02*
X199330000Y-61020000D01*
X201930000Y-61020000D02*
X201930000Y-58360000D01*
X201930000Y-58360000D02*
X209610000Y-58360000D01*
X201930000Y-61020000D02*
X209610000Y-61020000D01*
X209610000Y-61020000D02*
X209610000Y-58360000D01*
X210297500Y-26415276D02*
X210297500Y-26924724D01*
X211342500Y-26415276D02*
X211342500Y-26924724D01*
X212837500Y-26415276D02*
X212837500Y-26924724D01*
X213882500Y-26415276D02*
X213882500Y-26924724D01*
X214520000Y-72620000D02*
X212280000Y-72620000D01*
X214520000Y-68879000D02*
X212280000Y-68879000D01*
X212280000Y-68879000D02*
X212280000Y-72620000D01*
X214520000Y-68879000D02*
X214520000Y-72620000D01*
X214834000Y-68879000D02*
X211965000Y-68879000D01*
X216670000Y-72620000D02*
X210130000Y-72620000D01*
X210130000Y-69925000D02*
X210130000Y-72620000D01*
X216670000Y-69925000D02*
X216670000Y-72620000D01*
X169570000Y-67820000D02*
X169570000Y-48020000D01*
X169570000Y-67820000D02*
X163170000Y-67820000D01*
X163170000Y-67820000D02*
X163170000Y-48020000D01*
X163170000Y-48020000D02*
X169570000Y-48020000D01*
X202677500Y-21209724D02*
X202677500Y-20700276D01*
X203722500Y-21209724D02*
X203722500Y-20700276D01*
X195057500Y-43434724D02*
X195057500Y-42925276D01*
X196102500Y-43434724D02*
X196102500Y-42925276D01*
X173930000Y-31580000D02*
X181670000Y-31580000D01*
X181670000Y-31580000D02*
X181670000Y-28920000D01*
X181670000Y-28920000D02*
X173930000Y-28920000D01*
X173930000Y-28920000D02*
X173930000Y-31580000D01*
X174880000Y-28920000D02*
X174880000Y-22920000D01*
X174880000Y-22920000D02*
X175640000Y-22920000D01*
X175640000Y-22920000D02*
X175640000Y-28920000D01*
X174940000Y-28920000D02*
X174940000Y-22920000D01*
X175060000Y-28920000D02*
X175060000Y-22920000D01*
X175180000Y-28920000D02*
X175180000Y-22920000D01*
X175300000Y-28920000D02*
X175300000Y-22920000D01*
X175420000Y-28920000D02*
X175420000Y-22920000D01*
X175540000Y-28920000D02*
X175540000Y-22920000D01*
X174880000Y-31910000D02*
X174880000Y-31580000D01*
X175640000Y-31910000D02*
X175640000Y-31580000D01*
X176530000Y-31580000D02*
X176530000Y-28920000D01*
X177420000Y-28920000D02*
X177420000Y-22920000D01*
X177420000Y-22920000D02*
X178180000Y-22920000D01*
X178180000Y-22920000D02*
X178180000Y-28920000D01*
X177420000Y-31977071D02*
X177420000Y-31580000D01*
X178180000Y-31977071D02*
X178180000Y-31580000D01*
X179070000Y-31580000D02*
X179070000Y-28920000D01*
X179960000Y-28920000D02*
X179960000Y-22920000D01*
X179960000Y-22920000D02*
X180720000Y-22920000D01*
X180720000Y-22920000D02*
X180720000Y-28920000D01*
X179960000Y-31977071D02*
X179960000Y-31580000D01*
X180720000Y-31977071D02*
X180720000Y-31580000D01*
X175260000Y-34290000D02*
X173990000Y-34290000D01*
X173990000Y-34290000D02*
X173990000Y-33020000D01*
X198642500Y-43434724D02*
X198642500Y-42925276D01*
X197597500Y-43434724D02*
X197597500Y-42925276D01*
X205774000Y-22515000D02*
X205930000Y-22515000D01*
X208090000Y-22515000D02*
X208246000Y-22515000D01*
X205931392Y-19282665D02*
G75*
G03*
X205774484Y-22515000I1078608J-1672335D01*
G01*
X208088608Y-19282665D02*
G75*
G02*
X208245516Y-22515000I-1078608J-1672335D01*
G01*
X205930163Y-19913870D02*
G75*
G03*
X205930000Y-21995961I1079837J-1041130D01*
G01*
X208089837Y-19913870D02*
G75*
G02*
X208090000Y-21995961I-1079837J-1041130D01*
G01*
X200137500Y-43434724D02*
X200137500Y-42925276D01*
X201182500Y-43434724D02*
X201182500Y-42925276D01*
X210565276Y-53862500D02*
X211074724Y-53862500D01*
X210565276Y-52817500D02*
X211074724Y-52817500D01*
X170140000Y-26670000D02*
G75*
G03*
X170140000Y-26670000I-2500000J0D01*
G01*
X170200000Y-28215000D02*
X170200000Y-25125000D01*
X164650000Y-26669538D02*
G75*
G03*
X170200000Y-28214830I2990000J-462D01*
G01*
X164650000Y-26670462D02*
G75*
G02*
X170200000Y-25125170I2990000J462D01*
G01*
X199200000Y-23515000D02*
X199665000Y-23515000D01*
X196575000Y-23515000D02*
X197040000Y-23515000D01*
X199200429Y-18700521D02*
G75*
G02*
X199200000Y-23209684I-1080429J-2254479D01*
G01*
X197039571Y-18700521D02*
G75*
G03*
X197040000Y-23209684I1080429J-2254479D01*
G01*
X199200827Y-18167185D02*
G75*
G02*
X199664830Y-23515000I-1080827J-2787815D01*
G01*
X197039173Y-18167185D02*
G75*
G03*
X196575170Y-23515000I1080827J-2787815D01*
G01*
D13*
G36*
X207193003Y-23808240D02*
G01*
X207808445Y-23922134D01*
X208410860Y-24095069D01*
X208995714Y-24326324D01*
X209558476Y-24615178D01*
X210094610Y-24960911D01*
X210599584Y-25362801D01*
X210827383Y-25573321D01*
X211283517Y-26060719D01*
X211682745Y-26582724D01*
X212024105Y-27137361D01*
X212306635Y-27722652D01*
X212529371Y-28336622D01*
X212691351Y-28977295D01*
X212786490Y-29594143D01*
X212821138Y-30213797D01*
X212792350Y-30835514D01*
X212702533Y-31453277D01*
X212554092Y-32061072D01*
X212349433Y-32652882D01*
X212090963Y-33222692D01*
X211781087Y-33764486D01*
X211422211Y-34272248D01*
X211016741Y-34739962D01*
X210567084Y-35161612D01*
X210556157Y-35170791D01*
X210013606Y-35584743D01*
X209449588Y-35935592D01*
X208864677Y-36223128D01*
X208259450Y-36447142D01*
X207634481Y-36607422D01*
X206990346Y-36703758D01*
X206327619Y-36735940D01*
X206277959Y-36735767D01*
X206068833Y-36731225D01*
X205850850Y-36721294D01*
X205648250Y-36707383D01*
X205485275Y-36690900D01*
X205469210Y-36688772D01*
X204823185Y-36567578D01*
X204202530Y-36386497D01*
X203610270Y-36148640D01*
X203049428Y-35857117D01*
X202523030Y-35515038D01*
X202034099Y-35125512D01*
X201585660Y-34691651D01*
X201180737Y-34216565D01*
X200822355Y-33703362D01*
X200513538Y-33155154D01*
X200257311Y-32575050D01*
X200056697Y-31966160D01*
X199914721Y-31331595D01*
X199856404Y-30916909D01*
X199820033Y-30278705D01*
X199823883Y-30192970D01*
X201574859Y-30192970D01*
X201580865Y-30503129D01*
X201599807Y-30799432D01*
X201631496Y-31062057D01*
X201653414Y-31180902D01*
X201805918Y-31741537D01*
X202015285Y-32267087D01*
X202281470Y-32757467D01*
X202604429Y-33212591D01*
X202877165Y-33523727D01*
X203294494Y-33914587D01*
X203744257Y-34247015D01*
X204226030Y-34520789D01*
X204739392Y-34735687D01*
X205283922Y-34891487D01*
X205591802Y-34951136D01*
X205777253Y-34971959D01*
X206009708Y-34983880D01*
X206270551Y-34987257D01*
X206541164Y-34982448D01*
X206802929Y-34969809D01*
X207037228Y-34949698D01*
X207225444Y-34922473D01*
X207240526Y-34919474D01*
X207783794Y-34774923D01*
X208298510Y-34571996D01*
X208781123Y-34314305D01*
X209228082Y-34005464D01*
X209635837Y-33649087D01*
X210000837Y-33248787D01*
X210319531Y-32808177D01*
X210588368Y-32330871D01*
X210803798Y-31820482D01*
X210962270Y-31280624D01*
X211002534Y-31091053D01*
X211039819Y-30826528D01*
X211060820Y-30520529D01*
X211065706Y-30194663D01*
X211054643Y-29870538D01*
X211027800Y-29569761D01*
X210988867Y-29330151D01*
X210838673Y-28777919D01*
X210630663Y-28254782D01*
X210367722Y-27764553D01*
X210052732Y-27311046D01*
X209688575Y-26898074D01*
X209278135Y-26529451D01*
X208824293Y-26208990D01*
X208483609Y-26016025D01*
X207983398Y-25795368D01*
X207462143Y-25634327D01*
X206927128Y-25533426D01*
X206385632Y-25493190D01*
X205844937Y-25514145D01*
X205312325Y-25596815D01*
X204795078Y-25741726D01*
X204775294Y-25748654D01*
X204247350Y-25969192D01*
X203757572Y-26243201D01*
X203308784Y-26567414D01*
X202903810Y-26938566D01*
X202545476Y-27353391D01*
X202236605Y-27808625D01*
X201980023Y-28301001D01*
X201778553Y-28827254D01*
X201636331Y-29377558D01*
X201602404Y-29610364D01*
X201581976Y-29888775D01*
X201574859Y-30192970D01*
X199823883Y-30192970D01*
X199848599Y-29642679D01*
X199940261Y-29013888D01*
X200093173Y-28397388D01*
X200305496Y-27798233D01*
X200575384Y-27221480D01*
X200900996Y-26672185D01*
X201280489Y-26155403D01*
X201712020Y-25676190D01*
X201797172Y-25592287D01*
X202153758Y-25265961D01*
X202502567Y-24987475D01*
X202862602Y-24743428D01*
X203252868Y-24520419D01*
X203480658Y-24405102D01*
X204079059Y-24149612D01*
X204691634Y-23957489D01*
X205313850Y-23828011D01*
X205941172Y-23760457D01*
X206569067Y-23754107D01*
X207193003Y-23808240D01*
G37*
X207193003Y-23808240D02*
X207808445Y-23922134D01*
X208410860Y-24095069D01*
X208995714Y-24326324D01*
X209558476Y-24615178D01*
X210094610Y-24960911D01*
X210599584Y-25362801D01*
X210827383Y-25573321D01*
X211283517Y-26060719D01*
X211682745Y-26582724D01*
X212024105Y-27137361D01*
X212306635Y-27722652D01*
X212529371Y-28336622D01*
X212691351Y-28977295D01*
X212786490Y-29594143D01*
X212821138Y-30213797D01*
X212792350Y-30835514D01*
X212702533Y-31453277D01*
X212554092Y-32061072D01*
X212349433Y-32652882D01*
X212090963Y-33222692D01*
X211781087Y-33764486D01*
X211422211Y-34272248D01*
X211016741Y-34739962D01*
X210567084Y-35161612D01*
X210556157Y-35170791D01*
X210013606Y-35584743D01*
X209449588Y-35935592D01*
X208864677Y-36223128D01*
X208259450Y-36447142D01*
X207634481Y-36607422D01*
X206990346Y-36703758D01*
X206327619Y-36735940D01*
X206277959Y-36735767D01*
X206068833Y-36731225D01*
X205850850Y-36721294D01*
X205648250Y-36707383D01*
X205485275Y-36690900D01*
X205469210Y-36688772D01*
X204823185Y-36567578D01*
X204202530Y-36386497D01*
X203610270Y-36148640D01*
X203049428Y-35857117D01*
X202523030Y-35515038D01*
X202034099Y-35125512D01*
X201585660Y-34691651D01*
X201180737Y-34216565D01*
X200822355Y-33703362D01*
X200513538Y-33155154D01*
X200257311Y-32575050D01*
X200056697Y-31966160D01*
X199914721Y-31331595D01*
X199856404Y-30916909D01*
X199820033Y-30278705D01*
X199823883Y-30192970D01*
X201574859Y-30192970D01*
X201580865Y-30503129D01*
X201599807Y-30799432D01*
X201631496Y-31062057D01*
X201653414Y-31180902D01*
X201805918Y-31741537D01*
X202015285Y-32267087D01*
X202281470Y-32757467D01*
X202604429Y-33212591D01*
X202877165Y-33523727D01*
X203294494Y-33914587D01*
X203744257Y-34247015D01*
X204226030Y-34520789D01*
X204739392Y-34735687D01*
X205283922Y-34891487D01*
X205591802Y-34951136D01*
X205777253Y-34971959D01*
X206009708Y-34983880D01*
X206270551Y-34987257D01*
X206541164Y-34982448D01*
X206802929Y-34969809D01*
X207037228Y-34949698D01*
X207225444Y-34922473D01*
X207240526Y-34919474D01*
X207783794Y-34774923D01*
X208298510Y-34571996D01*
X208781123Y-34314305D01*
X209228082Y-34005464D01*
X209635837Y-33649087D01*
X210000837Y-33248787D01*
X210319531Y-32808177D01*
X210588368Y-32330871D01*
X210803798Y-31820482D01*
X210962270Y-31280624D01*
X211002534Y-31091053D01*
X211039819Y-30826528D01*
X211060820Y-30520529D01*
X211065706Y-30194663D01*
X211054643Y-29870538D01*
X211027800Y-29569761D01*
X210988867Y-29330151D01*
X210838673Y-28777919D01*
X210630663Y-28254782D01*
X210367722Y-27764553D01*
X210052732Y-27311046D01*
X209688575Y-26898074D01*
X209278135Y-26529451D01*
X208824293Y-26208990D01*
X208483609Y-26016025D01*
X207983398Y-25795368D01*
X207462143Y-25634327D01*
X206927128Y-25533426D01*
X206385632Y-25493190D01*
X205844937Y-25514145D01*
X205312325Y-25596815D01*
X204795078Y-25741726D01*
X204775294Y-25748654D01*
X204247350Y-25969192D01*
X203757572Y-26243201D01*
X203308784Y-26567414D01*
X202903810Y-26938566D01*
X202545476Y-27353391D01*
X202236605Y-27808625D01*
X201980023Y-28301001D01*
X201778553Y-28827254D01*
X201636331Y-29377558D01*
X201602404Y-29610364D01*
X201581976Y-29888775D01*
X201574859Y-30192970D01*
X199823883Y-30192970D01*
X199848599Y-29642679D01*
X199940261Y-29013888D01*
X200093173Y-28397388D01*
X200305496Y-27798233D01*
X200575384Y-27221480D01*
X200900996Y-26672185D01*
X201280489Y-26155403D01*
X201712020Y-25676190D01*
X201797172Y-25592287D01*
X202153758Y-25265961D01*
X202502567Y-24987475D01*
X202862602Y-24743428D01*
X203252868Y-24520419D01*
X203480658Y-24405102D01*
X204079059Y-24149612D01*
X204691634Y-23957489D01*
X205313850Y-23828011D01*
X205941172Y-23760457D01*
X206569067Y-23754107D01*
X207193003Y-23808240D01*
G36*
X210227808Y-36238147D02*
G01*
X210257807Y-36265322D01*
X210284009Y-36304142D01*
X210339421Y-36392530D01*
X210419932Y-36523606D01*
X210521435Y-36690491D01*
X210639822Y-36886302D01*
X210770985Y-37104162D01*
X210910815Y-37337189D01*
X211055204Y-37578504D01*
X211200044Y-37821227D01*
X211341226Y-38058477D01*
X211474643Y-38283374D01*
X211596187Y-38489038D01*
X211701749Y-38668590D01*
X211787220Y-38815149D01*
X211848493Y-38921835D01*
X211881460Y-38981767D01*
X211886053Y-38992177D01*
X211853996Y-38997113D01*
X211763284Y-39001595D01*
X211622102Y-39005462D01*
X211438636Y-39008553D01*
X211221071Y-39010707D01*
X210977594Y-39011762D01*
X210887513Y-39011842D01*
X210584015Y-39011150D01*
X210341772Y-39008923D01*
X210155211Y-39004935D01*
X210018758Y-38998961D01*
X209926840Y-38990774D01*
X209873883Y-38980150D01*
X209856070Y-38970066D01*
X209814777Y-38910316D01*
X209748537Y-38805666D01*
X209662006Y-38664158D01*
X209559842Y-38493834D01*
X209446702Y-38302739D01*
X209327244Y-38098915D01*
X209206125Y-37890405D01*
X209088003Y-37685253D01*
X208977536Y-37491500D01*
X208879380Y-37317192D01*
X208798193Y-37170370D01*
X208738634Y-37059077D01*
X208705358Y-36991358D01*
X208700275Y-36974107D01*
X208743974Y-36950263D01*
X208830575Y-36911896D01*
X208928289Y-36872453D01*
X209079012Y-36809176D01*
X209264929Y-36723865D01*
X209467940Y-36625552D01*
X209669944Y-36523271D01*
X209852839Y-36426055D01*
X209998526Y-36342937D01*
X210036497Y-36319411D01*
X210133041Y-36260045D01*
X210191215Y-36234325D01*
X210227808Y-36238147D01*
G37*
X210227808Y-36238147D02*
X210257807Y-36265322D01*
X210284009Y-36304142D01*
X210339421Y-36392530D01*
X210419932Y-36523606D01*
X210521435Y-36690491D01*
X210639822Y-36886302D01*
X210770985Y-37104162D01*
X210910815Y-37337189D01*
X211055204Y-37578504D01*
X211200044Y-37821227D01*
X211341226Y-38058477D01*
X211474643Y-38283374D01*
X211596187Y-38489038D01*
X211701749Y-38668590D01*
X211787220Y-38815149D01*
X211848493Y-38921835D01*
X211881460Y-38981767D01*
X211886053Y-38992177D01*
X211853996Y-38997113D01*
X211763284Y-39001595D01*
X211622102Y-39005462D01*
X211438636Y-39008553D01*
X211221071Y-39010707D01*
X210977594Y-39011762D01*
X210887513Y-39011842D01*
X210584015Y-39011150D01*
X210341772Y-39008923D01*
X210155211Y-39004935D01*
X210018758Y-38998961D01*
X209926840Y-38990774D01*
X209873883Y-38980150D01*
X209856070Y-38970066D01*
X209814777Y-38910316D01*
X209748537Y-38805666D01*
X209662006Y-38664158D01*
X209559842Y-38493834D01*
X209446702Y-38302739D01*
X209327244Y-38098915D01*
X209206125Y-37890405D01*
X209088003Y-37685253D01*
X208977536Y-37491500D01*
X208879380Y-37317192D01*
X208798193Y-37170370D01*
X208738634Y-37059077D01*
X208705358Y-36991358D01*
X208700275Y-36974107D01*
X208743974Y-36950263D01*
X208830575Y-36911896D01*
X208928289Y-36872453D01*
X209079012Y-36809176D01*
X209264929Y-36723865D01*
X209467940Y-36625552D01*
X209669944Y-36523271D01*
X209852839Y-36426055D01*
X209998526Y-36342937D01*
X210036497Y-36319411D01*
X210133041Y-36260045D01*
X210191215Y-36234325D01*
X210227808Y-36238147D01*
G36*
X218116031Y-39652184D02*
G01*
X218397877Y-39653738D01*
X218530652Y-39654740D01*
X219637793Y-39663553D01*
X217183479Y-42537763D01*
X214729164Y-45411974D01*
X214640179Y-45679342D01*
X214574127Y-45876253D01*
X214495984Y-46106629D01*
X214408169Y-46363545D01*
X214313102Y-46640078D01*
X214213203Y-46929305D01*
X214110891Y-47224303D01*
X214008585Y-47518148D01*
X213908706Y-47803916D01*
X213813673Y-48074684D01*
X213725906Y-48323530D01*
X213647824Y-48543528D01*
X213581847Y-48727757D01*
X213530395Y-48869292D01*
X213495887Y-48961210D01*
X213480919Y-48996382D01*
X213438415Y-49010345D01*
X213341392Y-49021769D01*
X213200271Y-49030679D01*
X213025474Y-49037096D01*
X212827423Y-49041045D01*
X212616539Y-49042550D01*
X212403245Y-49041634D01*
X212197962Y-49038321D01*
X212011113Y-49032633D01*
X211853118Y-49024596D01*
X211734401Y-49014232D01*
X211665382Y-49001565D01*
X211652105Y-48992241D01*
X211662826Y-48952864D01*
X211693652Y-48856304D01*
X211742584Y-48708461D01*
X211807617Y-48515232D01*
X211886751Y-48282515D01*
X211977983Y-48016210D01*
X212079311Y-47722213D01*
X212188734Y-47406423D01*
X212256176Y-47212570D01*
X212375763Y-46869338D01*
X212493791Y-46530577D01*
X212607477Y-46204271D01*
X212714040Y-45898406D01*
X212810698Y-45620967D01*
X212894669Y-45379939D01*
X212963170Y-45183307D01*
X213013421Y-45039056D01*
X213026016Y-45002896D01*
X213191786Y-44526976D01*
X212532735Y-43415396D01*
X212372570Y-43145893D01*
X212211267Y-42875644D01*
X212054775Y-42614533D01*
X211909043Y-42372447D01*
X211780021Y-42159270D01*
X211673658Y-41984888D01*
X211602258Y-41869342D01*
X211505624Y-41713529D01*
X211392145Y-41528692D01*
X211266194Y-41322125D01*
X211132143Y-41101124D01*
X210994362Y-40872983D01*
X210857225Y-40644996D01*
X210725103Y-40424457D01*
X210602367Y-40218662D01*
X210493391Y-40034905D01*
X210402544Y-39880481D01*
X210334200Y-39762683D01*
X210292731Y-39688807D01*
X210281842Y-39666200D01*
X210313903Y-39661402D01*
X210404658Y-39657582D01*
X210545965Y-39654832D01*
X210729681Y-39653247D01*
X210947664Y-39652917D01*
X211191772Y-39653937D01*
X211290840Y-39654707D01*
X212299837Y-39663553D01*
X212639552Y-40231710D01*
X212765590Y-40442912D01*
X212908773Y-40683543D01*
X213064388Y-40945623D01*
X213227722Y-41221172D01*
X213394061Y-41502210D01*
X213558692Y-41780757D01*
X213716901Y-42048834D01*
X213863975Y-42298458D01*
X213995199Y-42521652D01*
X214105862Y-42710434D01*
X214191248Y-42856825D01*
X214242029Y-42944755D01*
X214379198Y-43184642D01*
X215845338Y-41465979D01*
X216094881Y-41173673D01*
X216332674Y-40895550D01*
X216555009Y-40635921D01*
X216758178Y-40399095D01*
X216938473Y-40189384D01*
X217092187Y-40011096D01*
X217215610Y-39868543D01*
X217305037Y-39766034D01*
X217356757Y-39707879D01*
X217367494Y-39696622D01*
X217390709Y-39682638D01*
X217430529Y-39671607D01*
X217493734Y-39663283D01*
X217587106Y-39657423D01*
X217717426Y-39653783D01*
X217891474Y-39652118D01*
X218116031Y-39652184D01*
G37*
X218116031Y-39652184D02*
X218397877Y-39653738D01*
X218530652Y-39654740D01*
X219637793Y-39663553D01*
X217183479Y-42537763D01*
X214729164Y-45411974D01*
X214640179Y-45679342D01*
X214574127Y-45876253D01*
X214495984Y-46106629D01*
X214408169Y-46363545D01*
X214313102Y-46640078D01*
X214213203Y-46929305D01*
X214110891Y-47224303D01*
X214008585Y-47518148D01*
X213908706Y-47803916D01*
X213813673Y-48074684D01*
X213725906Y-48323530D01*
X213647824Y-48543528D01*
X213581847Y-48727757D01*
X213530395Y-48869292D01*
X213495887Y-48961210D01*
X213480919Y-48996382D01*
X213438415Y-49010345D01*
X213341392Y-49021769D01*
X213200271Y-49030679D01*
X213025474Y-49037096D01*
X212827423Y-49041045D01*
X212616539Y-49042550D01*
X212403245Y-49041634D01*
X212197962Y-49038321D01*
X212011113Y-49032633D01*
X211853118Y-49024596D01*
X211734401Y-49014232D01*
X211665382Y-49001565D01*
X211652105Y-48992241D01*
X211662826Y-48952864D01*
X211693652Y-48856304D01*
X211742584Y-48708461D01*
X211807617Y-48515232D01*
X211886751Y-48282515D01*
X211977983Y-48016210D01*
X212079311Y-47722213D01*
X212188734Y-47406423D01*
X212256176Y-47212570D01*
X212375763Y-46869338D01*
X212493791Y-46530577D01*
X212607477Y-46204271D01*
X212714040Y-45898406D01*
X212810698Y-45620967D01*
X212894669Y-45379939D01*
X212963170Y-45183307D01*
X213013421Y-45039056D01*
X213026016Y-45002896D01*
X213191786Y-44526976D01*
X212532735Y-43415396D01*
X212372570Y-43145893D01*
X212211267Y-42875644D01*
X212054775Y-42614533D01*
X211909043Y-42372447D01*
X211780021Y-42159270D01*
X211673658Y-41984888D01*
X211602258Y-41869342D01*
X211505624Y-41713529D01*
X211392145Y-41528692D01*
X211266194Y-41322125D01*
X211132143Y-41101124D01*
X210994362Y-40872983D01*
X210857225Y-40644996D01*
X210725103Y-40424457D01*
X210602367Y-40218662D01*
X210493391Y-40034905D01*
X210402544Y-39880481D01*
X210334200Y-39762683D01*
X210292731Y-39688807D01*
X210281842Y-39666200D01*
X210313903Y-39661402D01*
X210404658Y-39657582D01*
X210545965Y-39654832D01*
X210729681Y-39653247D01*
X210947664Y-39652917D01*
X211191772Y-39653937D01*
X211290840Y-39654707D01*
X212299837Y-39663553D01*
X212639552Y-40231710D01*
X212765590Y-40442912D01*
X212908773Y-40683543D01*
X213064388Y-40945623D01*
X213227722Y-41221172D01*
X213394061Y-41502210D01*
X213558692Y-41780757D01*
X213716901Y-42048834D01*
X213863975Y-42298458D01*
X213995199Y-42521652D01*
X214105862Y-42710434D01*
X214191248Y-42856825D01*
X214242029Y-42944755D01*
X214379198Y-43184642D01*
X215845338Y-41465979D01*
X216094881Y-41173673D01*
X216332674Y-40895550D01*
X216555009Y-40635921D01*
X216758178Y-40399095D01*
X216938473Y-40189384D01*
X217092187Y-40011096D01*
X217215610Y-39868543D01*
X217305037Y-39766034D01*
X217356757Y-39707879D01*
X217367494Y-39696622D01*
X217390709Y-39682638D01*
X217430529Y-39671607D01*
X217493734Y-39663283D01*
X217587106Y-39657423D01*
X217717426Y-39653783D01*
X217891474Y-39652118D01*
X218116031Y-39652184D01*
G36*
X202937809Y-36527166D02*
G01*
X203016828Y-36560369D01*
X203129142Y-36611809D01*
X203214986Y-36652905D01*
X203418072Y-36746315D01*
X203646735Y-36842764D01*
X203880637Y-36934348D01*
X204099441Y-37013161D01*
X204282809Y-37071296D01*
X204312278Y-37079436D01*
X204402505Y-37110650D01*
X204458069Y-37143516D01*
X204466579Y-37157968D01*
X204456010Y-37196928D01*
X204425887Y-37291922D01*
X204378591Y-37435844D01*
X204316498Y-37621585D01*
X204241989Y-37842040D01*
X204157440Y-38090100D01*
X204065232Y-38358658D01*
X204048816Y-38406274D01*
X203955737Y-38676339D01*
X203869872Y-38925937D01*
X203793583Y-39148167D01*
X203729233Y-39336126D01*
X203679183Y-39482912D01*
X203645796Y-39581624D01*
X203631435Y-39625358D01*
X203631053Y-39626878D01*
X203663674Y-39628518D01*
X203758341Y-39630497D01*
X203910260Y-39632767D01*
X204114635Y-39635282D01*
X204366672Y-39637995D01*
X204661575Y-39640860D01*
X204994550Y-39643828D01*
X205360802Y-39646853D01*
X205755537Y-39649889D01*
X206173958Y-39652888D01*
X206541254Y-39655351D01*
X206976308Y-39658340D01*
X207392000Y-39661513D01*
X207783503Y-39664814D01*
X208145991Y-39668188D01*
X208474635Y-39671579D01*
X208764610Y-39674932D01*
X209011088Y-39678192D01*
X209209243Y-39681304D01*
X209354247Y-39684212D01*
X209441273Y-39686861D01*
X209466031Y-39688838D01*
X209461978Y-39724712D01*
X209437866Y-39806047D01*
X209398684Y-39916336D01*
X209391898Y-39934141D01*
X209351163Y-40042725D01*
X209294002Y-40198697D01*
X209226099Y-40386366D01*
X209153139Y-40590039D01*
X209096441Y-40749737D01*
X208889692Y-41334605D01*
X205955363Y-41351316D01*
X203021035Y-41368026D01*
X202724411Y-42220263D01*
X202645007Y-42448553D01*
X202572218Y-42658107D01*
X202509125Y-42840032D01*
X202458811Y-42985437D01*
X202424354Y-43085431D01*
X202408879Y-43130987D01*
X202407701Y-43143896D01*
X202416701Y-43154758D01*
X202441108Y-43163748D01*
X202486153Y-43171043D01*
X202557065Y-43176818D01*
X202659073Y-43181249D01*
X202797407Y-43184512D01*
X202977297Y-43186783D01*
X203203972Y-43188239D01*
X203482662Y-43189055D01*
X203818597Y-43189407D01*
X204146827Y-43189474D01*
X204482479Y-43189897D01*
X204797106Y-43191113D01*
X205084537Y-43193041D01*
X205338600Y-43195600D01*
X205553125Y-43198711D01*
X205721939Y-43202291D01*
X205838871Y-43206261D01*
X205897750Y-43210540D01*
X205903684Y-43212429D01*
X205893089Y-43248913D01*
X205863238Y-43339922D01*
X205817032Y-43476919D01*
X205757372Y-43651363D01*
X205687160Y-43854718D01*
X205614109Y-44064665D01*
X205324534Y-44893947D01*
X201799433Y-44893947D01*
X201760376Y-45002566D01*
X201728841Y-45091358D01*
X201681544Y-45225971D01*
X201621433Y-45397898D01*
X201551456Y-45598631D01*
X201474563Y-45819662D01*
X201393701Y-46052486D01*
X201311820Y-46288593D01*
X201231868Y-46519478D01*
X201156794Y-46736631D01*
X201089546Y-46931547D01*
X201033073Y-47095717D01*
X200990323Y-47220634D01*
X200964245Y-47297791D01*
X200957368Y-47319426D01*
X200989985Y-47321404D01*
X201084617Y-47323497D01*
X201236439Y-47325668D01*
X201440623Y-47327880D01*
X201692345Y-47330097D01*
X201986777Y-47332283D01*
X202319093Y-47334400D01*
X202684467Y-47336413D01*
X203078073Y-47338285D01*
X203495084Y-47339979D01*
X203829920Y-47341142D01*
X204413629Y-47343407D01*
X204930932Y-47346232D01*
X205382260Y-47349622D01*
X205768048Y-47353584D01*
X206088728Y-47358126D01*
X206344734Y-47363253D01*
X206536498Y-47368972D01*
X206664453Y-47375290D01*
X206729034Y-47382214D01*
X206737269Y-47385204D01*
X206740937Y-47423736D01*
X206723833Y-47513469D01*
X206685232Y-47657054D01*
X206624403Y-47857144D01*
X206540621Y-48116389D01*
X206517149Y-48187309D01*
X206444582Y-48403437D01*
X206377306Y-48599480D01*
X206318629Y-48766144D01*
X206271858Y-48894136D01*
X206240300Y-48974160D01*
X206229261Y-48996382D01*
X206187739Y-49006022D01*
X206079997Y-49014137D01*
X205906640Y-49020726D01*
X205668272Y-49025788D01*
X205365497Y-49029322D01*
X204998921Y-49031327D01*
X204569147Y-49031802D01*
X204076781Y-49030746D01*
X203522426Y-49028157D01*
X202906689Y-49024035D01*
X202230172Y-49018379D01*
X201493481Y-49011187D01*
X200955856Y-49005390D01*
X200591399Y-49001182D01*
X200287783Y-48997221D01*
X200039011Y-48993216D01*
X199839083Y-48988874D01*
X199682002Y-48983904D01*
X199561768Y-48978013D01*
X199472385Y-48970909D01*
X199407853Y-48962299D01*
X199362173Y-48951892D01*
X199329348Y-48939395D01*
X199303988Y-48924915D01*
X199122529Y-48772224D01*
X198999535Y-48588854D01*
X198933167Y-48371327D01*
X198919418Y-48197355D01*
X198919083Y-48171554D01*
X198918829Y-48147611D01*
X198919513Y-48122978D01*
X198921989Y-48095107D01*
X198927115Y-48061449D01*
X198935745Y-48019457D01*
X198948735Y-47966582D01*
X198966940Y-47900277D01*
X198991218Y-47817993D01*
X199022422Y-47717183D01*
X199061410Y-47595298D01*
X199109036Y-47449791D01*
X199166157Y-47278113D01*
X199233627Y-47077716D01*
X199312304Y-46846052D01*
X199403041Y-46580574D01*
X199506696Y-46278733D01*
X199624124Y-45937981D01*
X199756180Y-45555769D01*
X199903720Y-45129551D01*
X200067601Y-44656778D01*
X200248676Y-44134902D01*
X200447804Y-43561375D01*
X200665838Y-42933649D01*
X200903635Y-42249175D01*
X201162050Y-41505407D01*
X201302673Y-41100658D01*
X201527867Y-40452551D01*
X201732088Y-39864966D01*
X201916258Y-39335269D01*
X202081298Y-38860825D01*
X202228127Y-38439002D01*
X202357669Y-38067166D01*
X202470843Y-37742682D01*
X202568571Y-37462918D01*
X202651773Y-37225240D01*
X202721372Y-37027014D01*
X202778287Y-36865607D01*
X202823440Y-36738384D01*
X202857752Y-36642713D01*
X202882144Y-36575960D01*
X202897537Y-36535490D01*
X202904852Y-36518671D01*
X202905351Y-36517982D01*
X202937809Y-36527166D01*
G37*
X202937809Y-36527166D02*
X203016828Y-36560369D01*
X203129142Y-36611809D01*
X203214986Y-36652905D01*
X203418072Y-36746315D01*
X203646735Y-36842764D01*
X203880637Y-36934348D01*
X204099441Y-37013161D01*
X204282809Y-37071296D01*
X204312278Y-37079436D01*
X204402505Y-37110650D01*
X204458069Y-37143516D01*
X204466579Y-37157968D01*
X204456010Y-37196928D01*
X204425887Y-37291922D01*
X204378591Y-37435844D01*
X204316498Y-37621585D01*
X204241989Y-37842040D01*
X204157440Y-38090100D01*
X204065232Y-38358658D01*
X204048816Y-38406274D01*
X203955737Y-38676339D01*
X203869872Y-38925937D01*
X203793583Y-39148167D01*
X203729233Y-39336126D01*
X203679183Y-39482912D01*
X203645796Y-39581624D01*
X203631435Y-39625358D01*
X203631053Y-39626878D01*
X203663674Y-39628518D01*
X203758341Y-39630497D01*
X203910260Y-39632767D01*
X204114635Y-39635282D01*
X204366672Y-39637995D01*
X204661575Y-39640860D01*
X204994550Y-39643828D01*
X205360802Y-39646853D01*
X205755537Y-39649889D01*
X206173958Y-39652888D01*
X206541254Y-39655351D01*
X206976308Y-39658340D01*
X207392000Y-39661513D01*
X207783503Y-39664814D01*
X208145991Y-39668188D01*
X208474635Y-39671579D01*
X208764610Y-39674932D01*
X209011088Y-39678192D01*
X209209243Y-39681304D01*
X209354247Y-39684212D01*
X209441273Y-39686861D01*
X209466031Y-39688838D01*
X209461978Y-39724712D01*
X209437866Y-39806047D01*
X209398684Y-39916336D01*
X209391898Y-39934141D01*
X209351163Y-40042725D01*
X209294002Y-40198697D01*
X209226099Y-40386366D01*
X209153139Y-40590039D01*
X209096441Y-40749737D01*
X208889692Y-41334605D01*
X205955363Y-41351316D01*
X203021035Y-41368026D01*
X202724411Y-42220263D01*
X202645007Y-42448553D01*
X202572218Y-42658107D01*
X202509125Y-42840032D01*
X202458811Y-42985437D01*
X202424354Y-43085431D01*
X202408879Y-43130987D01*
X202407701Y-43143896D01*
X202416701Y-43154758D01*
X202441108Y-43163748D01*
X202486153Y-43171043D01*
X202557065Y-43176818D01*
X202659073Y-43181249D01*
X202797407Y-43184512D01*
X202977297Y-43186783D01*
X203203972Y-43188239D01*
X203482662Y-43189055D01*
X203818597Y-43189407D01*
X204146827Y-43189474D01*
X204482479Y-43189897D01*
X204797106Y-43191113D01*
X205084537Y-43193041D01*
X205338600Y-43195600D01*
X205553125Y-43198711D01*
X205721939Y-43202291D01*
X205838871Y-43206261D01*
X205897750Y-43210540D01*
X205903684Y-43212429D01*
X205893089Y-43248913D01*
X205863238Y-43339922D01*
X205817032Y-43476919D01*
X205757372Y-43651363D01*
X205687160Y-43854718D01*
X205614109Y-44064665D01*
X205324534Y-44893947D01*
X201799433Y-44893947D01*
X201760376Y-45002566D01*
X201728841Y-45091358D01*
X201681544Y-45225971D01*
X201621433Y-45397898D01*
X201551456Y-45598631D01*
X201474563Y-45819662D01*
X201393701Y-46052486D01*
X201311820Y-46288593D01*
X201231868Y-46519478D01*
X201156794Y-46736631D01*
X201089546Y-46931547D01*
X201033073Y-47095717D01*
X200990323Y-47220634D01*
X200964245Y-47297791D01*
X200957368Y-47319426D01*
X200989985Y-47321404D01*
X201084617Y-47323497D01*
X201236439Y-47325668D01*
X201440623Y-47327880D01*
X201692345Y-47330097D01*
X201986777Y-47332283D01*
X202319093Y-47334400D01*
X202684467Y-47336413D01*
X203078073Y-47338285D01*
X203495084Y-47339979D01*
X203829920Y-47341142D01*
X204413629Y-47343407D01*
X204930932Y-47346232D01*
X205382260Y-47349622D01*
X205768048Y-47353584D01*
X206088728Y-47358126D01*
X206344734Y-47363253D01*
X206536498Y-47368972D01*
X206664453Y-47375290D01*
X206729034Y-47382214D01*
X206737269Y-47385204D01*
X206740937Y-47423736D01*
X206723833Y-47513469D01*
X206685232Y-47657054D01*
X206624403Y-47857144D01*
X206540621Y-48116389D01*
X206517149Y-48187309D01*
X206444582Y-48403437D01*
X206377306Y-48599480D01*
X206318629Y-48766144D01*
X206271858Y-48894136D01*
X206240300Y-48974160D01*
X206229261Y-48996382D01*
X206187739Y-49006022D01*
X206079997Y-49014137D01*
X205906640Y-49020726D01*
X205668272Y-49025788D01*
X205365497Y-49029322D01*
X204998921Y-49031327D01*
X204569147Y-49031802D01*
X204076781Y-49030746D01*
X203522426Y-49028157D01*
X202906689Y-49024035D01*
X202230172Y-49018379D01*
X201493481Y-49011187D01*
X200955856Y-49005390D01*
X200591399Y-49001182D01*
X200287783Y-48997221D01*
X200039011Y-48993216D01*
X199839083Y-48988874D01*
X199682002Y-48983904D01*
X199561768Y-48978013D01*
X199472385Y-48970909D01*
X199407853Y-48962299D01*
X199362173Y-48951892D01*
X199329348Y-48939395D01*
X199303988Y-48924915D01*
X199122529Y-48772224D01*
X198999535Y-48588854D01*
X198933167Y-48371327D01*
X198919418Y-48197355D01*
X198919083Y-48171554D01*
X198918829Y-48147611D01*
X198919513Y-48122978D01*
X198921989Y-48095107D01*
X198927115Y-48061449D01*
X198935745Y-48019457D01*
X198948735Y-47966582D01*
X198966940Y-47900277D01*
X198991218Y-47817993D01*
X199022422Y-47717183D01*
X199061410Y-47595298D01*
X199109036Y-47449791D01*
X199166157Y-47278113D01*
X199233627Y-47077716D01*
X199312304Y-46846052D01*
X199403041Y-46580574D01*
X199506696Y-46278733D01*
X199624124Y-45937981D01*
X199756180Y-45555769D01*
X199903720Y-45129551D01*
X200067601Y-44656778D01*
X200248676Y-44134902D01*
X200447804Y-43561375D01*
X200665838Y-42933649D01*
X200903635Y-42249175D01*
X201162050Y-41505407D01*
X201302673Y-41100658D01*
X201527867Y-40452551D01*
X201732088Y-39864966D01*
X201916258Y-39335269D01*
X202081298Y-38860825D01*
X202228127Y-38439002D01*
X202357669Y-38067166D01*
X202470843Y-37742682D01*
X202568571Y-37462918D01*
X202651773Y-37225240D01*
X202721372Y-37027014D01*
X202778287Y-36865607D01*
X202823440Y-36738384D01*
X202857752Y-36642713D01*
X202882144Y-36575960D01*
X202897537Y-36535490D01*
X202904852Y-36518671D01*
X202905351Y-36517982D01*
X202937809Y-36527166D01*
G36*
X198424564Y-39787201D02*
G01*
X198709380Y-39791415D01*
X199004185Y-39798192D01*
X199300864Y-39807552D01*
X199369722Y-39810118D01*
X199904312Y-39830658D01*
X195448774Y-43828788D01*
X195592223Y-44135775D01*
X195629967Y-44216147D01*
X195693701Y-44351379D01*
X195780804Y-44535924D01*
X195888651Y-44764234D01*
X196014621Y-45030761D01*
X196156091Y-45329958D01*
X196310439Y-45656276D01*
X196475041Y-46004168D01*
X196647276Y-46368086D01*
X196809152Y-46710026D01*
X196981769Y-47075001D01*
X197145796Y-47422584D01*
X197299015Y-47748026D01*
X197439208Y-48046579D01*
X197564156Y-48313497D01*
X197671641Y-48544030D01*
X197759445Y-48733431D01*
X197825350Y-48876953D01*
X197867138Y-48969847D01*
X197882590Y-49007365D01*
X197882632Y-49007723D01*
X197850940Y-49015687D01*
X197762763Y-49022455D01*
X197628446Y-49027999D01*
X197458337Y-49032293D01*
X197262781Y-49035309D01*
X197052125Y-49037021D01*
X196836715Y-49037401D01*
X196626897Y-49036422D01*
X196433017Y-49034057D01*
X196265423Y-49030280D01*
X196134460Y-49025062D01*
X196050474Y-49018378D01*
X196024808Y-49012580D01*
X196004583Y-48978852D01*
X195958402Y-48889743D01*
X195888745Y-48750361D01*
X195798092Y-48565817D01*
X195688923Y-48341221D01*
X195563718Y-48081684D01*
X195424958Y-47792313D01*
X195275123Y-47478221D01*
X195116692Y-47144516D01*
X195059910Y-47024539D01*
X194899381Y-46685998D01*
X194746768Y-46365929D01*
X194604523Y-46069360D01*
X194475097Y-45801317D01*
X194360941Y-45566827D01*
X194264508Y-45370919D01*
X194188248Y-45218618D01*
X194134614Y-45114952D01*
X194106057Y-45064949D01*
X194102384Y-45061053D01*
X194072064Y-45082725D01*
X193997632Y-45144594D01*
X193884475Y-45241937D01*
X193737980Y-45370033D01*
X193563535Y-45524160D01*
X193366527Y-45699596D01*
X193152343Y-45891619D01*
X193063332Y-45971776D01*
X192053283Y-46882500D01*
X191683276Y-47951974D01*
X191313268Y-49021447D01*
X190426423Y-49030337D01*
X190189605Y-49032019D01*
X189975210Y-49032217D01*
X189792173Y-49031032D01*
X189649426Y-49028561D01*
X189555903Y-49024903D01*
X189520659Y-49020308D01*
X189524828Y-48984059D01*
X189548364Y-48895724D01*
X189588005Y-48766112D01*
X189640485Y-48606029D01*
X189684838Y-48476682D01*
X189726406Y-48357382D01*
X189787627Y-48181423D01*
X189866246Y-47955299D01*
X189960008Y-47685500D01*
X190066659Y-47378518D01*
X190183942Y-47040845D01*
X190309603Y-46678973D01*
X190441387Y-46299392D01*
X190577038Y-45908596D01*
X190679800Y-45612500D01*
X190935757Y-44875042D01*
X191170647Y-44198521D01*
X191385253Y-43580704D01*
X191580357Y-43019356D01*
X191756739Y-42512244D01*
X191915183Y-42057135D01*
X192056469Y-41651795D01*
X192181380Y-41293990D01*
X192290698Y-40981487D01*
X192385204Y-40712052D01*
X192465681Y-40483451D01*
X192532909Y-40293451D01*
X192587672Y-40139818D01*
X192630750Y-40020319D01*
X192662926Y-39932720D01*
X192684982Y-39874787D01*
X192697699Y-39844287D01*
X192700942Y-39838456D01*
X192739102Y-39831960D01*
X192835124Y-39826734D01*
X192980039Y-39822941D01*
X193164875Y-39820745D01*
X193380663Y-39820312D01*
X193612475Y-39821745D01*
X194501413Y-39830658D01*
X193871191Y-41651252D01*
X193756181Y-41984083D01*
X193648247Y-42297578D01*
X193549291Y-42586135D01*
X193461215Y-42844153D01*
X193385921Y-43066029D01*
X193325311Y-43246162D01*
X193281288Y-43378951D01*
X193255754Y-43458792D01*
X193249945Y-43480822D01*
X193275589Y-43460434D01*
X193347231Y-43398645D01*
X193461165Y-43298747D01*
X193613688Y-43164033D01*
X193801096Y-42997796D01*
X194019684Y-42803330D01*
X194265749Y-42583928D01*
X194535585Y-42342883D01*
X194825490Y-42083488D01*
X195131759Y-41809036D01*
X195287482Y-41669338D01*
X195601983Y-41387380D01*
X195903103Y-41117957D01*
X196187006Y-40864470D01*
X196449856Y-40630320D01*
X196687816Y-40418908D01*
X196897050Y-40233634D01*
X197073721Y-40077898D01*
X197213992Y-39955101D01*
X197314028Y-39868643D01*
X197369990Y-39821926D01*
X197379904Y-39814703D01*
X197434360Y-39803929D01*
X197547499Y-39795606D01*
X197711204Y-39789753D01*
X197917360Y-39786389D01*
X198157852Y-39785532D01*
X198424564Y-39787201D01*
G37*
X198424564Y-39787201D02*
X198709380Y-39791415D01*
X199004185Y-39798192D01*
X199300864Y-39807552D01*
X199369722Y-39810118D01*
X199904312Y-39830658D01*
X195448774Y-43828788D01*
X195592223Y-44135775D01*
X195629967Y-44216147D01*
X195693701Y-44351379D01*
X195780804Y-44535924D01*
X195888651Y-44764234D01*
X196014621Y-45030761D01*
X196156091Y-45329958D01*
X196310439Y-45656276D01*
X196475041Y-46004168D01*
X196647276Y-46368086D01*
X196809152Y-46710026D01*
X196981769Y-47075001D01*
X197145796Y-47422584D01*
X197299015Y-47748026D01*
X197439208Y-48046579D01*
X197564156Y-48313497D01*
X197671641Y-48544030D01*
X197759445Y-48733431D01*
X197825350Y-48876953D01*
X197867138Y-48969847D01*
X197882590Y-49007365D01*
X197882632Y-49007723D01*
X197850940Y-49015687D01*
X197762763Y-49022455D01*
X197628446Y-49027999D01*
X197458337Y-49032293D01*
X197262781Y-49035309D01*
X197052125Y-49037021D01*
X196836715Y-49037401D01*
X196626897Y-49036422D01*
X196433017Y-49034057D01*
X196265423Y-49030280D01*
X196134460Y-49025062D01*
X196050474Y-49018378D01*
X196024808Y-49012580D01*
X196004583Y-48978852D01*
X195958402Y-48889743D01*
X195888745Y-48750361D01*
X195798092Y-48565817D01*
X195688923Y-48341221D01*
X195563718Y-48081684D01*
X195424958Y-47792313D01*
X195275123Y-47478221D01*
X195116692Y-47144516D01*
X195059910Y-47024539D01*
X194899381Y-46685998D01*
X194746768Y-46365929D01*
X194604523Y-46069360D01*
X194475097Y-45801317D01*
X194360941Y-45566827D01*
X194264508Y-45370919D01*
X194188248Y-45218618D01*
X194134614Y-45114952D01*
X194106057Y-45064949D01*
X194102384Y-45061053D01*
X194072064Y-45082725D01*
X193997632Y-45144594D01*
X193884475Y-45241937D01*
X193737980Y-45370033D01*
X193563535Y-45524160D01*
X193366527Y-45699596D01*
X193152343Y-45891619D01*
X193063332Y-45971776D01*
X192053283Y-46882500D01*
X191683276Y-47951974D01*
X191313268Y-49021447D01*
X190426423Y-49030337D01*
X190189605Y-49032019D01*
X189975210Y-49032217D01*
X189792173Y-49031032D01*
X189649426Y-49028561D01*
X189555903Y-49024903D01*
X189520659Y-49020308D01*
X189524828Y-48984059D01*
X189548364Y-48895724D01*
X189588005Y-48766112D01*
X189640485Y-48606029D01*
X189684838Y-48476682D01*
X189726406Y-48357382D01*
X189787627Y-48181423D01*
X189866246Y-47955299D01*
X189960008Y-47685500D01*
X190066659Y-47378518D01*
X190183942Y-47040845D01*
X190309603Y-46678973D01*
X190441387Y-46299392D01*
X190577038Y-45908596D01*
X190679800Y-45612500D01*
X190935757Y-44875042D01*
X191170647Y-44198521D01*
X191385253Y-43580704D01*
X191580357Y-43019356D01*
X191756739Y-42512244D01*
X191915183Y-42057135D01*
X192056469Y-41651795D01*
X192181380Y-41293990D01*
X192290698Y-40981487D01*
X192385204Y-40712052D01*
X192465681Y-40483451D01*
X192532909Y-40293451D01*
X192587672Y-40139818D01*
X192630750Y-40020319D01*
X192662926Y-39932720D01*
X192684982Y-39874787D01*
X192697699Y-39844287D01*
X192700942Y-39838456D01*
X192739102Y-39831960D01*
X192835124Y-39826734D01*
X192980039Y-39822941D01*
X193164875Y-39820745D01*
X193380663Y-39820312D01*
X193612475Y-39821745D01*
X194501413Y-39830658D01*
X193871191Y-41651252D01*
X193756181Y-41984083D01*
X193648247Y-42297578D01*
X193549291Y-42586135D01*
X193461215Y-42844153D01*
X193385921Y-43066029D01*
X193325311Y-43246162D01*
X193281288Y-43378951D01*
X193255754Y-43458792D01*
X193249945Y-43480822D01*
X193275589Y-43460434D01*
X193347231Y-43398645D01*
X193461165Y-43298747D01*
X193613688Y-43164033D01*
X193801096Y-42997796D01*
X194019684Y-42803330D01*
X194265749Y-42583928D01*
X194535585Y-42342883D01*
X194825490Y-42083488D01*
X195131759Y-41809036D01*
X195287482Y-41669338D01*
X195601983Y-41387380D01*
X195903103Y-41117957D01*
X196187006Y-40864470D01*
X196449856Y-40630320D01*
X196687816Y-40418908D01*
X196897050Y-40233634D01*
X197073721Y-40077898D01*
X197213992Y-39955101D01*
X197314028Y-39868643D01*
X197369990Y-39821926D01*
X197379904Y-39814703D01*
X197434360Y-39803929D01*
X197547499Y-39795606D01*
X197711204Y-39789753D01*
X197917360Y-39786389D01*
X198157852Y-39785532D01*
X198424564Y-39787201D01*
D11*
X197782380Y-60451904D02*
X198591904Y-60451904D01*
X198687142Y-60404285D01*
X198734761Y-60356666D01*
X198782380Y-60261428D01*
X198782380Y-60070952D01*
X198734761Y-59975714D01*
X198687142Y-59928095D01*
X198591904Y-59880476D01*
X197782380Y-59880476D01*
X197877619Y-59451904D02*
X197830000Y-59404285D01*
X197782380Y-59309047D01*
X197782380Y-59070952D01*
X197830000Y-58975714D01*
X197877619Y-58928095D01*
X197972857Y-58880476D01*
X198068095Y-58880476D01*
X198210952Y-58928095D01*
X198782380Y-59499523D01*
X198782380Y-58880476D01*
X212702380Y-27741428D02*
X212702380Y-28312857D01*
X212702380Y-28027142D02*
X211702380Y-28027142D01*
X211845238Y-28122380D01*
X211940476Y-28217619D01*
X211988095Y-28312857D01*
X211702380Y-27122380D02*
X211702380Y-27027142D01*
X211750000Y-26931904D01*
X211797619Y-26884285D01*
X211892857Y-26836666D01*
X212083333Y-26789047D01*
X212321428Y-26789047D01*
X212511904Y-26836666D01*
X212607142Y-26884285D01*
X212654761Y-26931904D01*
X212702380Y-27027142D01*
X212702380Y-27122380D01*
X212654761Y-27217619D01*
X212607142Y-27265238D01*
X212511904Y-27312857D01*
X212321428Y-27360476D01*
X212083333Y-27360476D01*
X211892857Y-27312857D01*
X211797619Y-27265238D01*
X211750000Y-27217619D01*
X211702380Y-27122380D01*
X212702380Y-26360476D02*
X211702380Y-26360476D01*
X212321428Y-26265238D02*
X212702380Y-25979523D01*
X212035714Y-25979523D02*
X212416666Y-26360476D01*
X211797619Y-25598571D02*
X211750000Y-25550952D01*
X211702380Y-25455714D01*
X211702380Y-25217619D01*
X211750000Y-25122380D01*
X211797619Y-25074761D01*
X211892857Y-25027142D01*
X211988095Y-25027142D01*
X212130952Y-25074761D01*
X212702380Y-25646190D01*
X212702380Y-25027142D01*
X215242380Y-27741428D02*
X215242380Y-28312857D01*
X215242380Y-28027142D02*
X214242380Y-28027142D01*
X214385238Y-28122380D01*
X214480476Y-28217619D01*
X214528095Y-28312857D01*
X214242380Y-27122380D02*
X214242380Y-27027142D01*
X214290000Y-26931904D01*
X214337619Y-26884285D01*
X214432857Y-26836666D01*
X214623333Y-26789047D01*
X214861428Y-26789047D01*
X215051904Y-26836666D01*
X215147142Y-26884285D01*
X215194761Y-26931904D01*
X215242380Y-27027142D01*
X215242380Y-27122380D01*
X215194761Y-27217619D01*
X215147142Y-27265238D01*
X215051904Y-27312857D01*
X214861428Y-27360476D01*
X214623333Y-27360476D01*
X214432857Y-27312857D01*
X214337619Y-27265238D01*
X214290000Y-27217619D01*
X214242380Y-27122380D01*
X215242380Y-26360476D02*
X214242380Y-26360476D01*
X214861428Y-26265238D02*
X215242380Y-25979523D01*
X214575714Y-25979523D02*
X214956666Y-26360476D01*
X214242380Y-25646190D02*
X214242380Y-25027142D01*
X214623333Y-25360476D01*
X214623333Y-25217619D01*
X214670952Y-25122380D01*
X214718571Y-25074761D01*
X214813809Y-25027142D01*
X215051904Y-25027142D01*
X215147142Y-25074761D01*
X215194761Y-25122380D01*
X215242380Y-25217619D01*
X215242380Y-25503333D01*
X215194761Y-25598571D01*
X215147142Y-25646190D01*
X218412380Y-69595238D02*
X217936190Y-69928571D01*
X218412380Y-70166666D02*
X217412380Y-70166666D01*
X217412380Y-69785714D01*
X217460000Y-69690476D01*
X217507619Y-69642857D01*
X217602857Y-69595238D01*
X217745714Y-69595238D01*
X217840952Y-69642857D01*
X217888571Y-69690476D01*
X217936190Y-69785714D01*
X217936190Y-70166666D01*
X217412380Y-69309523D02*
X218412380Y-68976190D01*
X217412380Y-68642857D01*
X218412380Y-67785714D02*
X218412380Y-68357142D01*
X218412380Y-68071428D02*
X217412380Y-68071428D01*
X217555238Y-68166666D01*
X217650476Y-68261904D01*
X217698095Y-68357142D01*
X170774761Y-59753333D02*
X170822380Y-59610476D01*
X170822380Y-59372380D01*
X170774761Y-59277142D01*
X170727142Y-59229523D01*
X170631904Y-59181904D01*
X170536666Y-59181904D01*
X170441428Y-59229523D01*
X170393809Y-59277142D01*
X170346190Y-59372380D01*
X170298571Y-59562857D01*
X170250952Y-59658095D01*
X170203333Y-59705714D01*
X170108095Y-59753333D01*
X170012857Y-59753333D01*
X169917619Y-59705714D01*
X169870000Y-59658095D01*
X169822380Y-59562857D01*
X169822380Y-59324761D01*
X169870000Y-59181904D01*
X169822380Y-58848571D02*
X170822380Y-58610476D01*
X170108095Y-58420000D01*
X170822380Y-58229523D01*
X169822380Y-57991428D01*
X170822380Y-57086666D02*
X170822380Y-57658095D01*
X170822380Y-57372380D02*
X169822380Y-57372380D01*
X169965238Y-57467619D01*
X170060476Y-57562857D01*
X170108095Y-57658095D01*
X202222380Y-21121666D02*
X201746190Y-21455000D01*
X202222380Y-21693095D02*
X201222380Y-21693095D01*
X201222380Y-21312142D01*
X201270000Y-21216904D01*
X201317619Y-21169285D01*
X201412857Y-21121666D01*
X201555714Y-21121666D01*
X201650952Y-21169285D01*
X201698571Y-21216904D01*
X201746190Y-21312142D01*
X201746190Y-21693095D01*
X202222380Y-20169285D02*
X202222380Y-20740714D01*
X202222380Y-20455000D02*
X201222380Y-20455000D01*
X201365238Y-20550238D01*
X201460476Y-20645476D01*
X201508095Y-20740714D01*
X194602380Y-43346666D02*
X194126190Y-43680000D01*
X194602380Y-43918095D02*
X193602380Y-43918095D01*
X193602380Y-43537142D01*
X193650000Y-43441904D01*
X193697619Y-43394285D01*
X193792857Y-43346666D01*
X193935714Y-43346666D01*
X194030952Y-43394285D01*
X194078571Y-43441904D01*
X194126190Y-43537142D01*
X194126190Y-43918095D01*
X193697619Y-42965714D02*
X193650000Y-42918095D01*
X193602380Y-42822857D01*
X193602380Y-42584761D01*
X193650000Y-42489523D01*
X193697619Y-42441904D01*
X193792857Y-42394285D01*
X193888095Y-42394285D01*
X194030952Y-42441904D01*
X194602380Y-43013333D01*
X194602380Y-42394285D01*
X172442380Y-28968333D02*
X173156666Y-28968333D01*
X173299523Y-29015952D01*
X173394761Y-29111190D01*
X173442380Y-29254047D01*
X173442380Y-29349285D01*
X172537619Y-28539761D02*
X172490000Y-28492142D01*
X172442380Y-28396904D01*
X172442380Y-28158809D01*
X172490000Y-28063571D01*
X172537619Y-28015952D01*
X172632857Y-27968333D01*
X172728095Y-27968333D01*
X172870952Y-28015952D01*
X173442380Y-28587380D01*
X173442380Y-27968333D01*
X197142380Y-43346666D02*
X196666190Y-43680000D01*
X197142380Y-43918095D02*
X196142380Y-43918095D01*
X196142380Y-43537142D01*
X196190000Y-43441904D01*
X196237619Y-43394285D01*
X196332857Y-43346666D01*
X196475714Y-43346666D01*
X196570952Y-43394285D01*
X196618571Y-43441904D01*
X196666190Y-43537142D01*
X196666190Y-43918095D01*
X196475714Y-42489523D02*
X197142380Y-42489523D01*
X196094761Y-42727619D02*
X196809047Y-42965714D01*
X196809047Y-42346666D01*
X204502380Y-21693095D02*
X203502380Y-21693095D01*
X203502380Y-21455000D01*
X203550000Y-21312142D01*
X203645238Y-21216904D01*
X203740476Y-21169285D01*
X203930952Y-21121666D01*
X204073809Y-21121666D01*
X204264285Y-21169285D01*
X204359523Y-21216904D01*
X204454761Y-21312142D01*
X204502380Y-21455000D01*
X204502380Y-21693095D01*
X204502380Y-20169285D02*
X204502380Y-20740714D01*
X204502380Y-20455000D02*
X203502380Y-20455000D01*
X203645238Y-20550238D01*
X203740476Y-20645476D01*
X203788095Y-20740714D01*
X199682380Y-43346666D02*
X199206190Y-43680000D01*
X199682380Y-43918095D02*
X198682380Y-43918095D01*
X198682380Y-43537142D01*
X198730000Y-43441904D01*
X198777619Y-43394285D01*
X198872857Y-43346666D01*
X199015714Y-43346666D01*
X199110952Y-43394285D01*
X199158571Y-43441904D01*
X199206190Y-43537142D01*
X199206190Y-43918095D01*
X198682380Y-43013333D02*
X198682380Y-42394285D01*
X199063333Y-42727619D01*
X199063333Y-42584761D01*
X199110952Y-42489523D01*
X199158571Y-42441904D01*
X199253809Y-42394285D01*
X199491904Y-42394285D01*
X199587142Y-42441904D01*
X199634761Y-42489523D01*
X199682380Y-42584761D01*
X199682380Y-42870476D01*
X199634761Y-42965714D01*
X199587142Y-43013333D01*
X209748571Y-52362380D02*
X209177142Y-52362380D01*
X209462857Y-52362380D02*
X209462857Y-51362380D01*
X209367619Y-51505238D01*
X209272380Y-51600476D01*
X209177142Y-51648095D01*
X210367619Y-51362380D02*
X210462857Y-51362380D01*
X210558095Y-51410000D01*
X210605714Y-51457619D01*
X210653333Y-51552857D01*
X210700952Y-51743333D01*
X210700952Y-51981428D01*
X210653333Y-52171904D01*
X210605714Y-52267142D01*
X210558095Y-52314761D01*
X210462857Y-52362380D01*
X210367619Y-52362380D01*
X210272380Y-52314761D01*
X210224761Y-52267142D01*
X210177142Y-52171904D01*
X210129523Y-51981428D01*
X210129523Y-51743333D01*
X210177142Y-51552857D01*
X210224761Y-51457619D01*
X210272380Y-51410000D01*
X210367619Y-51362380D01*
X211129523Y-52362380D02*
X211129523Y-51362380D01*
X211224761Y-51981428D02*
X211510476Y-52362380D01*
X211510476Y-51695714D02*
X211129523Y-52076666D01*
X212462857Y-52362380D02*
X211891428Y-52362380D01*
X212177142Y-52362380D02*
X212177142Y-51362380D01*
X212081904Y-51505238D01*
X211986666Y-51600476D01*
X211891428Y-51648095D01*
X167544761Y-31177619D02*
X167449523Y-31130000D01*
X167354285Y-31034761D01*
X167211428Y-30891904D01*
X167116190Y-30844285D01*
X167020952Y-30844285D01*
X167068571Y-31082380D02*
X166973333Y-31034761D01*
X166878095Y-30939523D01*
X166830476Y-30749047D01*
X166830476Y-30415714D01*
X166878095Y-30225238D01*
X166973333Y-30130000D01*
X167068571Y-30082380D01*
X167259047Y-30082380D01*
X167354285Y-30130000D01*
X167449523Y-30225238D01*
X167497142Y-30415714D01*
X167497142Y-30749047D01*
X167449523Y-30939523D01*
X167354285Y-31034761D01*
X167259047Y-31082380D01*
X167068571Y-31082380D01*
X168449523Y-31082380D02*
X167878095Y-31082380D01*
X168163809Y-31082380D02*
X168163809Y-30082380D01*
X168068571Y-30225238D01*
X167973333Y-30320476D01*
X167878095Y-30368095D01*
X194612380Y-21693095D02*
X193612380Y-21693095D01*
X193612380Y-21455000D01*
X193660000Y-21312142D01*
X193755238Y-21216904D01*
X193850476Y-21169285D01*
X194040952Y-21121666D01*
X194183809Y-21121666D01*
X194374285Y-21169285D01*
X194469523Y-21216904D01*
X194564761Y-21312142D01*
X194612380Y-21455000D01*
X194612380Y-21693095D01*
X193707619Y-20740714D02*
X193660000Y-20693095D01*
X193612380Y-20597857D01*
X193612380Y-20359761D01*
X193660000Y-20264523D01*
X193707619Y-20216904D01*
X193802857Y-20169285D01*
X193898095Y-20169285D01*
X194040952Y-20216904D01*
X194612380Y-20788333D01*
X194612380Y-20169285D01*
M02*
