G04 #@! TF.GenerationSoftware,KiCad,Pcbnew,5.1.12-84ad8e8a86~92~ubuntu20.04.1*
G04 #@! TF.CreationDate,2021-12-17T13:54:35+09:00*
G04 #@! TF.ProjectId,Key_checker,4b65795f-6368-4656-936b-65722e6b6963,rev?*
G04 #@! TF.SameCoordinates,Original*
G04 #@! TF.FileFunction,Paste,Top*
G04 #@! TF.FilePolarity,Positive*
%FSLAX46Y46*%
G04 Gerber Fmt 4.6, Leading zero omitted, Abs format (unit mm)*
G04 Created by KiCad (PCBNEW 5.1.12-84ad8e8a86~92~ubuntu20.04.1) date 2021-12-17 13:54:35*
%MOMM*%
%LPD*%
G01*
G04 APERTURE LIST*
G04 APERTURE END LIST*
G36*
G01*
X210582500Y-27095000D02*
X211057500Y-27095000D01*
G75*
G02*
X211295000Y-27332500I0J-237500D01*
G01*
X211295000Y-27832500D01*
G75*
G02*
X211057500Y-28070000I-237500J0D01*
G01*
X210582500Y-28070000D01*
G75*
G02*
X210345000Y-27832500I0J237500D01*
G01*
X210345000Y-27332500D01*
G75*
G02*
X210582500Y-27095000I237500J0D01*
G01*
G37*
G36*
G01*
X210582500Y-25270000D02*
X211057500Y-25270000D01*
G75*
G02*
X211295000Y-25507500I0J-237500D01*
G01*
X211295000Y-26007500D01*
G75*
G02*
X211057500Y-26245000I-237500J0D01*
G01*
X210582500Y-26245000D01*
G75*
G02*
X210345000Y-26007500I0J237500D01*
G01*
X210345000Y-25507500D01*
G75*
G02*
X210582500Y-25270000I237500J0D01*
G01*
G37*
G36*
G01*
X213122500Y-27095000D02*
X213597500Y-27095000D01*
G75*
G02*
X213835000Y-27332500I0J-237500D01*
G01*
X213835000Y-27832500D01*
G75*
G02*
X213597500Y-28070000I-237500J0D01*
G01*
X213122500Y-28070000D01*
G75*
G02*
X212885000Y-27832500I0J237500D01*
G01*
X212885000Y-27332500D01*
G75*
G02*
X213122500Y-27095000I237500J0D01*
G01*
G37*
G36*
G01*
X213122500Y-25270000D02*
X213597500Y-25270000D01*
G75*
G02*
X213835000Y-25507500I0J-237500D01*
G01*
X213835000Y-26007500D01*
G75*
G02*
X213597500Y-26245000I-237500J0D01*
G01*
X213122500Y-26245000D01*
G75*
G02*
X212885000Y-26007500I0J237500D01*
G01*
X212885000Y-25507500D01*
G75*
G02*
X213122500Y-25270000I237500J0D01*
G01*
G37*
G36*
G01*
X203437500Y-22355000D02*
X202962500Y-22355000D01*
G75*
G02*
X202725000Y-22117500I0J237500D01*
G01*
X202725000Y-21617500D01*
G75*
G02*
X202962500Y-21380000I237500J0D01*
G01*
X203437500Y-21380000D01*
G75*
G02*
X203675000Y-21617500I0J-237500D01*
G01*
X203675000Y-22117500D01*
G75*
G02*
X203437500Y-22355000I-237500J0D01*
G01*
G37*
G36*
G01*
X203437500Y-20530000D02*
X202962500Y-20530000D01*
G75*
G02*
X202725000Y-20292500I0J237500D01*
G01*
X202725000Y-19792500D01*
G75*
G02*
X202962500Y-19555000I237500J0D01*
G01*
X203437500Y-19555000D01*
G75*
G02*
X203675000Y-19792500I0J-237500D01*
G01*
X203675000Y-20292500D01*
G75*
G02*
X203437500Y-20530000I-237500J0D01*
G01*
G37*
G36*
G01*
X195817500Y-44580000D02*
X195342500Y-44580000D01*
G75*
G02*
X195105000Y-44342500I0J237500D01*
G01*
X195105000Y-43842500D01*
G75*
G02*
X195342500Y-43605000I237500J0D01*
G01*
X195817500Y-43605000D01*
G75*
G02*
X196055000Y-43842500I0J-237500D01*
G01*
X196055000Y-44342500D01*
G75*
G02*
X195817500Y-44580000I-237500J0D01*
G01*
G37*
G36*
G01*
X195817500Y-42755000D02*
X195342500Y-42755000D01*
G75*
G02*
X195105000Y-42517500I0J237500D01*
G01*
X195105000Y-42017500D01*
G75*
G02*
X195342500Y-41780000I237500J0D01*
G01*
X195817500Y-41780000D01*
G75*
G02*
X196055000Y-42017500I0J-237500D01*
G01*
X196055000Y-42517500D01*
G75*
G02*
X195817500Y-42755000I-237500J0D01*
G01*
G37*
G36*
G01*
X198357500Y-42755000D02*
X197882500Y-42755000D01*
G75*
G02*
X197645000Y-42517500I0J237500D01*
G01*
X197645000Y-42017500D01*
G75*
G02*
X197882500Y-41780000I237500J0D01*
G01*
X198357500Y-41780000D01*
G75*
G02*
X198595000Y-42017500I0J-237500D01*
G01*
X198595000Y-42517500D01*
G75*
G02*
X198357500Y-42755000I-237500J0D01*
G01*
G37*
G36*
G01*
X198357500Y-44580000D02*
X197882500Y-44580000D01*
G75*
G02*
X197645000Y-44342500I0J237500D01*
G01*
X197645000Y-43842500D01*
G75*
G02*
X197882500Y-43605000I237500J0D01*
G01*
X198357500Y-43605000D01*
G75*
G02*
X198595000Y-43842500I0J-237500D01*
G01*
X198595000Y-44342500D01*
G75*
G02*
X198357500Y-44580000I-237500J0D01*
G01*
G37*
G36*
G01*
X200897500Y-44580000D02*
X200422500Y-44580000D01*
G75*
G02*
X200185000Y-44342500I0J237500D01*
G01*
X200185000Y-43842500D01*
G75*
G02*
X200422500Y-43605000I237500J0D01*
G01*
X200897500Y-43605000D01*
G75*
G02*
X201135000Y-43842500I0J-237500D01*
G01*
X201135000Y-44342500D01*
G75*
G02*
X200897500Y-44580000I-237500J0D01*
G01*
G37*
G36*
G01*
X200897500Y-42755000D02*
X200422500Y-42755000D01*
G75*
G02*
X200185000Y-42517500I0J237500D01*
G01*
X200185000Y-42017500D01*
G75*
G02*
X200422500Y-41780000I237500J0D01*
G01*
X200897500Y-41780000D01*
G75*
G02*
X201135000Y-42017500I0J-237500D01*
G01*
X201135000Y-42517500D01*
G75*
G02*
X200897500Y-42755000I-237500J0D01*
G01*
G37*
G36*
G01*
X211245000Y-53577500D02*
X211245000Y-53102500D01*
G75*
G02*
X211482500Y-52865000I237500J0D01*
G01*
X211982500Y-52865000D01*
G75*
G02*
X212220000Y-53102500I0J-237500D01*
G01*
X212220000Y-53577500D01*
G75*
G02*
X211982500Y-53815000I-237500J0D01*
G01*
X211482500Y-53815000D01*
G75*
G02*
X211245000Y-53577500I0J237500D01*
G01*
G37*
G36*
G01*
X209420000Y-53577500D02*
X209420000Y-53102500D01*
G75*
G02*
X209657500Y-52865000I237500J0D01*
G01*
X210157500Y-52865000D01*
G75*
G02*
X210395000Y-53102500I0J-237500D01*
G01*
X210395000Y-53577500D01*
G75*
G02*
X210157500Y-53815000I-237500J0D01*
G01*
X209657500Y-53815000D01*
G75*
G02*
X209420000Y-53577500I0J237500D01*
G01*
G37*
M02*
