G04 #@! TF.GenerationSoftware,KiCad,Pcbnew,5.1.12-84ad8e8a86~92~ubuntu20.04.1*
G04 #@! TF.CreationDate,2021-12-17T13:54:35+09:00*
G04 #@! TF.ProjectId,Key_checker,4b65795f-6368-4656-936b-65722e6b6963,rev?*
G04 #@! TF.SameCoordinates,Original*
G04 #@! TF.FileFunction,Legend,Bot*
G04 #@! TF.FilePolarity,Positive*
%FSLAX46Y46*%
G04 Gerber Fmt 4.6, Leading zero omitted, Abs format (unit mm)*
G04 Created by KiCad (PCBNEW 5.1.12-84ad8e8a86~92~ubuntu20.04.1) date 2021-12-17 13:54:35*
%MOMM*%
%LPD*%
G01*
G04 APERTURE LIST*
%ADD10C,0.300000*%
%ADD11C,0.120000*%
%ADD12C,0.150000*%
G04 APERTURE END LIST*
D10*
X159251428Y-38778571D02*
X159251428Y-37278571D01*
X160108571Y-38778571D02*
X159465714Y-37921428D01*
X160108571Y-37278571D02*
X159251428Y-38135714D01*
X161322857Y-38707142D02*
X161180000Y-38778571D01*
X160894285Y-38778571D01*
X160751428Y-38707142D01*
X160680000Y-38564285D01*
X160680000Y-37992857D01*
X160751428Y-37850000D01*
X160894285Y-37778571D01*
X161180000Y-37778571D01*
X161322857Y-37850000D01*
X161394285Y-37992857D01*
X161394285Y-38135714D01*
X160680000Y-38278571D01*
X161894285Y-37778571D02*
X162251428Y-38778571D01*
X162608571Y-37778571D02*
X162251428Y-38778571D01*
X162108571Y-39135714D01*
X162037142Y-39207142D01*
X161894285Y-39278571D01*
X165180000Y-38635714D02*
X165108571Y-38707142D01*
X164894285Y-38778571D01*
X164751428Y-38778571D01*
X164537142Y-38707142D01*
X164394285Y-38564285D01*
X164322857Y-38421428D01*
X164251428Y-38135714D01*
X164251428Y-37921428D01*
X164322857Y-37635714D01*
X164394285Y-37492857D01*
X164537142Y-37350000D01*
X164751428Y-37278571D01*
X164894285Y-37278571D01*
X165108571Y-37350000D01*
X165180000Y-37421428D01*
X165822857Y-38778571D02*
X165822857Y-37278571D01*
X166465714Y-38778571D02*
X166465714Y-37992857D01*
X166394285Y-37850000D01*
X166251428Y-37778571D01*
X166037142Y-37778571D01*
X165894285Y-37850000D01*
X165822857Y-37921428D01*
X167751428Y-38707142D02*
X167608571Y-38778571D01*
X167322857Y-38778571D01*
X167180000Y-38707142D01*
X167108571Y-38564285D01*
X167108571Y-37992857D01*
X167180000Y-37850000D01*
X167322857Y-37778571D01*
X167608571Y-37778571D01*
X167751428Y-37850000D01*
X167822857Y-37992857D01*
X167822857Y-38135714D01*
X167108571Y-38278571D01*
X169108571Y-38707142D02*
X168965714Y-38778571D01*
X168680000Y-38778571D01*
X168537142Y-38707142D01*
X168465714Y-38635714D01*
X168394285Y-38492857D01*
X168394285Y-38064285D01*
X168465714Y-37921428D01*
X168537142Y-37850000D01*
X168680000Y-37778571D01*
X168965714Y-37778571D01*
X169108571Y-37850000D01*
X169751428Y-38778571D02*
X169751428Y-37278571D01*
X169894285Y-38207142D02*
X170322857Y-38778571D01*
X170322857Y-37778571D02*
X169751428Y-38350000D01*
X171537142Y-38707142D02*
X171394285Y-38778571D01*
X171108571Y-38778571D01*
X170965714Y-38707142D01*
X170894285Y-38564285D01*
X170894285Y-37992857D01*
X170965714Y-37850000D01*
X171108571Y-37778571D01*
X171394285Y-37778571D01*
X171537142Y-37850000D01*
X171608571Y-37992857D01*
X171608571Y-38135714D01*
X170894285Y-38278571D01*
X172251428Y-38778571D02*
X172251428Y-37778571D01*
X172251428Y-38064285D02*
X172322857Y-37921428D01*
X172394285Y-37850000D01*
X172537142Y-37778571D01*
X172680000Y-37778571D01*
X175180000Y-38778571D02*
X174680000Y-38064285D01*
X174322857Y-38778571D02*
X174322857Y-37278571D01*
X174894285Y-37278571D01*
X175037142Y-37350000D01*
X175108571Y-37421428D01*
X175180000Y-37564285D01*
X175180000Y-37778571D01*
X175108571Y-37921428D01*
X175037142Y-37992857D01*
X174894285Y-38064285D01*
X174322857Y-38064285D01*
X176394285Y-38707142D02*
X176251428Y-38778571D01*
X175965714Y-38778571D01*
X175822857Y-38707142D01*
X175751428Y-38564285D01*
X175751428Y-37992857D01*
X175822857Y-37850000D01*
X175965714Y-37778571D01*
X176251428Y-37778571D01*
X176394285Y-37850000D01*
X176465714Y-37992857D01*
X176465714Y-38135714D01*
X175751428Y-38278571D01*
X176965714Y-37778571D02*
X177322857Y-38778571D01*
X177680000Y-37778571D01*
X179037142Y-38778571D02*
X178180000Y-38778571D01*
X178608571Y-38778571D02*
X178608571Y-37278571D01*
X178465714Y-37492857D01*
X178322857Y-37635714D01*
X178180000Y-37707142D01*
X179680000Y-38635714D02*
X179751428Y-38707142D01*
X179680000Y-38778571D01*
X179608571Y-38707142D01*
X179680000Y-38635714D01*
X179680000Y-38778571D01*
X181180000Y-38778571D02*
X180322857Y-38778571D01*
X180751428Y-38778571D02*
X180751428Y-37278571D01*
X180608571Y-37492857D01*
X180465714Y-37635714D01*
X180322857Y-37707142D01*
D11*
X201870000Y-66210000D02*
X207070000Y-66210000D01*
X207070000Y-66210000D02*
X207070000Y-68870000D01*
X207070000Y-68870000D02*
X201870000Y-68870000D01*
X201870000Y-68870000D02*
X201870000Y-66210000D01*
X202820000Y-68870000D02*
X202820000Y-74870000D01*
X202820000Y-74870000D02*
X203580000Y-74870000D01*
X203580000Y-74870000D02*
X203580000Y-68870000D01*
X202880000Y-68870000D02*
X202880000Y-74870000D01*
X203000000Y-68870000D02*
X203000000Y-74870000D01*
X203120000Y-68870000D02*
X203120000Y-74870000D01*
X203240000Y-68870000D02*
X203240000Y-74870000D01*
X203360000Y-68870000D02*
X203360000Y-74870000D01*
X203480000Y-68870000D02*
X203480000Y-74870000D01*
X202820000Y-65880000D02*
X202820000Y-66210000D01*
X203580000Y-65880000D02*
X203580000Y-66210000D01*
X204470000Y-66210000D02*
X204470000Y-68870000D01*
X205360000Y-68870000D02*
X205360000Y-74870000D01*
X205360000Y-74870000D02*
X206120000Y-74870000D01*
X206120000Y-74870000D02*
X206120000Y-68870000D01*
X205360000Y-65812929D02*
X205360000Y-66210000D01*
X206120000Y-65812929D02*
X206120000Y-66210000D01*
X203200000Y-63500000D02*
X201930000Y-63500000D01*
X201930000Y-63500000D02*
X201930000Y-64770000D01*
X193040000Y-63500000D02*
X193040000Y-64770000D01*
X194310000Y-63500000D02*
X193040000Y-63500000D01*
X199770000Y-65812929D02*
X199770000Y-66210000D01*
X199010000Y-65812929D02*
X199010000Y-66210000D01*
X199770000Y-74870000D02*
X199770000Y-68870000D01*
X199010000Y-74870000D02*
X199770000Y-74870000D01*
X199010000Y-68870000D02*
X199010000Y-74870000D01*
X198120000Y-66210000D02*
X198120000Y-68870000D01*
X197230000Y-65812929D02*
X197230000Y-66210000D01*
X196470000Y-65812929D02*
X196470000Y-66210000D01*
X197230000Y-74870000D02*
X197230000Y-68870000D01*
X196470000Y-74870000D02*
X197230000Y-74870000D01*
X196470000Y-68870000D02*
X196470000Y-74870000D01*
X195580000Y-66210000D02*
X195580000Y-68870000D01*
X194690000Y-65880000D02*
X194690000Y-66210000D01*
X193930000Y-65880000D02*
X193930000Y-66210000D01*
X194590000Y-68870000D02*
X194590000Y-74870000D01*
X194470000Y-68870000D02*
X194470000Y-74870000D01*
X194350000Y-68870000D02*
X194350000Y-74870000D01*
X194230000Y-68870000D02*
X194230000Y-74870000D01*
X194110000Y-68870000D02*
X194110000Y-74870000D01*
X193990000Y-68870000D02*
X193990000Y-74870000D01*
X194690000Y-74870000D02*
X194690000Y-68870000D01*
X193930000Y-74870000D02*
X194690000Y-74870000D01*
X193930000Y-68870000D02*
X193930000Y-74870000D01*
X192980000Y-68870000D02*
X192980000Y-66210000D01*
X200720000Y-68870000D02*
X192980000Y-68870000D01*
X200720000Y-66210000D02*
X200720000Y-68870000D01*
X192980000Y-66210000D02*
X200720000Y-66210000D01*
X218669999Y-12720000D02*
X218670000Y-60940000D01*
X218670000Y-60940000D02*
X190270001Y-60940000D01*
X190270001Y-60940000D02*
X190270000Y-12720000D01*
X190270000Y-12720000D02*
X199736667Y-12720000D01*
X199736667Y-12720000D02*
X199736667Y-13080000D01*
X199736667Y-13080000D02*
X209203333Y-13080000D01*
X209203333Y-13080000D02*
X209203333Y-12720000D01*
X209203333Y-12720000D02*
X218669999Y-12720000D01*
D12*
X200382380Y-68821666D02*
X201096666Y-68821666D01*
X201239523Y-68774047D01*
X201334761Y-68678809D01*
X201382380Y-68535952D01*
X201382380Y-68440714D01*
X200382380Y-69202619D02*
X200382380Y-69821666D01*
X200763333Y-69488333D01*
X200763333Y-69631190D01*
X200810952Y-69726428D01*
X200858571Y-69774047D01*
X200953809Y-69821666D01*
X201191904Y-69821666D01*
X201287142Y-69774047D01*
X201334761Y-69726428D01*
X201382380Y-69631190D01*
X201382380Y-69345476D01*
X201334761Y-69250238D01*
X201287142Y-69202619D01*
X191492380Y-68821666D02*
X192206666Y-68821666D01*
X192349523Y-68774047D01*
X192444761Y-68678809D01*
X192492380Y-68535952D01*
X192492380Y-68440714D01*
X192492380Y-69821666D02*
X192492380Y-69250238D01*
X192492380Y-69535952D02*
X191492380Y-69535952D01*
X191635238Y-69440714D01*
X191730476Y-69345476D01*
X191778095Y-69250238D01*
X205231904Y-11172380D02*
X205231904Y-11981904D01*
X205184285Y-12077142D01*
X205136666Y-12124761D01*
X205041428Y-12172380D01*
X204850952Y-12172380D01*
X204755714Y-12124761D01*
X204708095Y-12077142D01*
X204660476Y-11981904D01*
X204660476Y-11172380D01*
X203660476Y-12172380D02*
X204231904Y-12172380D01*
X203946190Y-12172380D02*
X203946190Y-11172380D01*
X204041428Y-11315238D01*
X204136666Y-11410476D01*
X204231904Y-11458095D01*
M02*
