G04 #@! TF.GenerationSoftware,KiCad,Pcbnew,5.1.12-84ad8e8a86~92~ubuntu20.04.1*
G04 #@! TF.CreationDate,2021-12-10T15:37:16+09:00*
G04 #@! TF.ProjectId,Key_checker,4b65795f-6368-4656-936b-65722e6b6963,rev?*
G04 #@! TF.SameCoordinates,Original*
G04 #@! TF.FileFunction,Legend,Top*
G04 #@! TF.FilePolarity,Positive*
%FSLAX46Y46*%
G04 Gerber Fmt 4.6, Leading zero omitted, Abs format (unit mm)*
G04 Created by KiCad (PCBNEW 5.1.12-84ad8e8a86~92~ubuntu20.04.1) date 2021-12-10 15:37:16*
%MOMM*%
%LPD*%
G01*
G04 APERTURE LIST*
%ADD10C,0.300000*%
%ADD11C,0.120000*%
%ADD12C,0.150000*%
G04 APERTURE END LIST*
D10*
X176665000Y-46803571D02*
X177593571Y-46803571D01*
X177093571Y-47375000D01*
X177307857Y-47375000D01*
X177450714Y-47446428D01*
X177522142Y-47517857D01*
X177593571Y-47660714D01*
X177593571Y-48017857D01*
X177522142Y-48160714D01*
X177450714Y-48232142D01*
X177307857Y-48303571D01*
X176879285Y-48303571D01*
X176736428Y-48232142D01*
X176665000Y-48160714D01*
X174196428Y-46946428D02*
X174267857Y-46875000D01*
X174410714Y-46803571D01*
X174767857Y-46803571D01*
X174910714Y-46875000D01*
X174982142Y-46946428D01*
X175053571Y-47089285D01*
X175053571Y-47232142D01*
X174982142Y-47446428D01*
X174125000Y-48303571D01*
X175053571Y-48303571D01*
X172513571Y-48303571D02*
X171656428Y-48303571D01*
X172085000Y-48303571D02*
X172085000Y-46803571D01*
X171942142Y-47017857D01*
X171799285Y-47160714D01*
X171656428Y-47232142D01*
D11*
X168030000Y-54420000D02*
X168030000Y-34620000D01*
X168030000Y-54420000D02*
X161630000Y-54420000D01*
X161630000Y-54420000D02*
X161630000Y-34620000D01*
X161630000Y-34620000D02*
X168030000Y-34620000D01*
X170580000Y-43215000D02*
X178320000Y-43215000D01*
X178320000Y-43215000D02*
X178320000Y-40555000D01*
X178320000Y-40555000D02*
X170580000Y-40555000D01*
X170580000Y-40555000D02*
X170580000Y-43215000D01*
X171530000Y-40555000D02*
X171530000Y-34555000D01*
X171530000Y-34555000D02*
X172290000Y-34555000D01*
X172290000Y-34555000D02*
X172290000Y-40555000D01*
X171590000Y-40555000D02*
X171590000Y-34555000D01*
X171710000Y-40555000D02*
X171710000Y-34555000D01*
X171830000Y-40555000D02*
X171830000Y-34555000D01*
X171950000Y-40555000D02*
X171950000Y-34555000D01*
X172070000Y-40555000D02*
X172070000Y-34555000D01*
X172190000Y-40555000D02*
X172190000Y-34555000D01*
X171530000Y-43545000D02*
X171530000Y-43215000D01*
X172290000Y-43545000D02*
X172290000Y-43215000D01*
X173180000Y-43215000D02*
X173180000Y-40555000D01*
X174070000Y-40555000D02*
X174070000Y-34555000D01*
X174070000Y-34555000D02*
X174830000Y-34555000D01*
X174830000Y-34555000D02*
X174830000Y-40555000D01*
X174070000Y-43612071D02*
X174070000Y-43215000D01*
X174830000Y-43612071D02*
X174830000Y-43215000D01*
X175720000Y-43215000D02*
X175720000Y-40555000D01*
X176610000Y-40555000D02*
X176610000Y-34555000D01*
X176610000Y-34555000D02*
X177370000Y-34555000D01*
X177370000Y-34555000D02*
X177370000Y-40555000D01*
X176610000Y-43612071D02*
X176610000Y-43215000D01*
X177370000Y-43612071D02*
X177370000Y-43215000D01*
X171910000Y-45925000D02*
X170640000Y-45925000D01*
X170640000Y-45925000D02*
X170640000Y-44655000D01*
X175180000Y-64870000D02*
G75*
G03*
X175180000Y-64870000I-2500000J0D01*
G01*
X175240000Y-66415000D02*
X175240000Y-63325000D01*
X169690000Y-64869538D02*
G75*
G03*
X175240000Y-66414830I2990000J-462D01*
G01*
X169690000Y-64870462D02*
G75*
G02*
X175240000Y-63325170I2990000J462D01*
G01*
D12*
X169234761Y-46353333D02*
X169282380Y-46210476D01*
X169282380Y-45972380D01*
X169234761Y-45877142D01*
X169187142Y-45829523D01*
X169091904Y-45781904D01*
X168996666Y-45781904D01*
X168901428Y-45829523D01*
X168853809Y-45877142D01*
X168806190Y-45972380D01*
X168758571Y-46162857D01*
X168710952Y-46258095D01*
X168663333Y-46305714D01*
X168568095Y-46353333D01*
X168472857Y-46353333D01*
X168377619Y-46305714D01*
X168330000Y-46258095D01*
X168282380Y-46162857D01*
X168282380Y-45924761D01*
X168330000Y-45781904D01*
X168282380Y-45448571D02*
X169282380Y-45210476D01*
X168568095Y-45020000D01*
X169282380Y-44829523D01*
X168282380Y-44591428D01*
X169282380Y-43686666D02*
X169282380Y-44258095D01*
X169282380Y-43972380D02*
X168282380Y-43972380D01*
X168425238Y-44067619D01*
X168520476Y-44162857D01*
X168568095Y-44258095D01*
X169092380Y-40603333D02*
X169806666Y-40603333D01*
X169949523Y-40650952D01*
X170044761Y-40746190D01*
X170092380Y-40889047D01*
X170092380Y-40984285D01*
X169187619Y-40174761D02*
X169140000Y-40127142D01*
X169092380Y-40031904D01*
X169092380Y-39793809D01*
X169140000Y-39698571D01*
X169187619Y-39650952D01*
X169282857Y-39603333D01*
X169378095Y-39603333D01*
X169520952Y-39650952D01*
X170092380Y-40222380D01*
X170092380Y-39603333D01*
X172584761Y-69377619D02*
X172489523Y-69330000D01*
X172394285Y-69234761D01*
X172251428Y-69091904D01*
X172156190Y-69044285D01*
X172060952Y-69044285D01*
X172108571Y-69282380D02*
X172013333Y-69234761D01*
X171918095Y-69139523D01*
X171870476Y-68949047D01*
X171870476Y-68615714D01*
X171918095Y-68425238D01*
X172013333Y-68330000D01*
X172108571Y-68282380D01*
X172299047Y-68282380D01*
X172394285Y-68330000D01*
X172489523Y-68425238D01*
X172537142Y-68615714D01*
X172537142Y-68949047D01*
X172489523Y-69139523D01*
X172394285Y-69234761D01*
X172299047Y-69282380D01*
X172108571Y-69282380D01*
X173489523Y-69282380D02*
X172918095Y-69282380D01*
X173203809Y-69282380D02*
X173203809Y-68282380D01*
X173108571Y-68425238D01*
X173013333Y-68520476D01*
X172918095Y-68568095D01*
M02*
