M48
; DRILL file {KiCad 5.1.12-84ad8e8a86~92~ubuntu20.04.1} date Fri 03 Dec 2021 11:46:20 AM JST
; FORMAT={2:4/ absolute / inch / suppress leading zeros}
; #@! TF.CreationDate,2021-12-03T11:46:20+09:00
; #@! TF.GenerationSoftware,Kicad,Pcbnew,5.1.12-84ad8e8a86~92~ubuntu20.04.1
FMAT,2
INCH,TZ
T1C0.0236
T2C0.0276
T3C0.0354
T4C0.0394
%
G90
G05
T1
X84250Y-28250
T3
X67484Y-25539
X68484Y-25539
X78000Y-7500
X78000Y-8000
X78000Y-8500
X78000Y-9000
X81031Y-27165
X81500Y-7750
X81500Y-8750
X82016Y-28150
X83000Y-27165
T4
X67681Y-17581
X68681Y-17581
X69681Y-17581
X75500Y-5500
X75500Y-6500
X75500Y-7500
X75500Y-8500
X75500Y-9500
X75500Y-10500
X75500Y-11500
X75500Y-12500
X75500Y-13500
X75500Y-14500
X75500Y-15500
X75500Y-16500
X75500Y-17500
X75500Y-18500
X75500Y-19500
X75500Y-20500
X75500Y-21500
X75500Y-22500
X75500Y-23500
X76500Y-25500
X77500Y-25500
X78500Y-25500
X80500Y-25500
X81500Y-25500
X82500Y-25500
X83500Y-25500
X85500Y-5500
X85500Y-6500
X85500Y-7500
X85500Y-8500
X85500Y-9500
X85500Y-10500
X85500Y-11500
X85500Y-12500
X85500Y-13500
X85500Y-14500
X85500Y-15500
X85500Y-16500
X85500Y-17500
X85500Y-18500
X85500Y-19500
X85500Y-20500
X85500Y-21500
X85500Y-22500
X85500Y-23500
X87250Y-23250
X87250Y-24250
T2
G00X65406Y-14260
M15
G01X64382Y-14260
M16
G05
G00X65406Y-17724
M15
G01X64382Y-17724
M16
G05
G00X65406Y-20598
M15
G01X64382Y-20598
M16
G05
T0
M30
