M48
; DRILL file {KiCad 5.1.12-84ad8e8a86~92~ubuntu20.04.1} date Fri 17 Dec 2021 01:54:37 PM JST
; FORMAT={2:4/ absolute / inch / suppress leading zeros}
; #@! TF.CreationDate,2021-12-17T13:54:37+09:00
; #@! TF.GenerationSoftware,Kicad,Pcbnew,5.1.12-84ad8e8a86~92~ubuntu20.04.1
FMAT,2
INCH,TZ
T1C0.0276
T2C0.0354
T3C0.0394
%
G90
G05
T2
X65500Y-10500
X66500Y-10500
X78000Y-7500
X78000Y-8000
X78000Y-8500
X78000Y-9000
X81500Y-7750
X81500Y-8750
X83031Y-27165
X84016Y-28150
X85000Y-27165
T3
X69000Y-13000
X70000Y-13000
X71000Y-13000
X75500Y-5500
X75500Y-6500
X75500Y-7500
X75500Y-8500
X75500Y-9500
X75500Y-10500
X75500Y-11500
X75500Y-12500
X75500Y-13500
X75500Y-14500
X75500Y-15500
X75500Y-16500
X75500Y-17500
X75500Y-18500
X75500Y-19500
X75500Y-20500
X75500Y-21500
X75500Y-22500
X75500Y-23500
X76500Y-25500
X77500Y-25500
X78500Y-25500
X79000Y-23500
X80000Y-23500
X80000Y-25500
X81000Y-23500
X81000Y-25500
X82000Y-23500
X85500Y-5500
X85500Y-6500
X85500Y-7500
X85500Y-8500
X85500Y-9500
X85500Y-10500
X85500Y-11500
X85500Y-12500
X85500Y-13500
X85500Y-14500
X85500Y-15500
X85500Y-16500
X85500Y-17500
X85500Y-18500
X85500Y-19500
X85500Y-20500
X85500Y-21500
X85500Y-22500
X85500Y-23500
T1
G00X66012Y-19535
M15
G01X64988Y-19535
M16
G05
G00X66012Y-23000
M15
G01X64988Y-23000
M16
G05
G00X66012Y-25874
M15
G01X64988Y-25874
M16
G05
T0
M30
