G04 #@! TF.GenerationSoftware,KiCad,Pcbnew,5.1.12-84ad8e8a86~92~ubuntu20.04.1*
G04 #@! TF.CreationDate,2021-12-03T11:46:18+09:00*
G04 #@! TF.ProjectId,Key_checker,4b65795f-6368-4656-936b-65722e6b6963,rev?*
G04 #@! TF.SameCoordinates,Original*
G04 #@! TF.FileFunction,Legend,Bot*
G04 #@! TF.FilePolarity,Positive*
%FSLAX46Y46*%
G04 Gerber Fmt 4.6, Leading zero omitted, Abs format (unit mm)*
G04 Created by KiCad (PCBNEW 5.1.12-84ad8e8a86~92~ubuntu20.04.1) date 2021-12-03 11:46:18*
%MOMM*%
%LPD*%
G01*
G04 APERTURE LIST*
%ADD10C,0.120000*%
%ADD11C,0.150000*%
G04 APERTURE END LIST*
D10*
X193040000Y-63500000D02*
X193040000Y-64770000D01*
X194310000Y-63500000D02*
X193040000Y-63500000D01*
X199770000Y-65812929D02*
X199770000Y-66210000D01*
X199010000Y-65812929D02*
X199010000Y-66210000D01*
X199770000Y-74870000D02*
X199770000Y-68870000D01*
X199010000Y-74870000D02*
X199770000Y-74870000D01*
X199010000Y-68870000D02*
X199010000Y-74870000D01*
X198120000Y-66210000D02*
X198120000Y-68870000D01*
X197230000Y-65812929D02*
X197230000Y-66210000D01*
X196470000Y-65812929D02*
X196470000Y-66210000D01*
X197230000Y-74870000D02*
X197230000Y-68870000D01*
X196470000Y-74870000D02*
X197230000Y-74870000D01*
X196470000Y-68870000D02*
X196470000Y-74870000D01*
X195580000Y-66210000D02*
X195580000Y-68870000D01*
X194690000Y-65880000D02*
X194690000Y-66210000D01*
X193930000Y-65880000D02*
X193930000Y-66210000D01*
X194590000Y-68870000D02*
X194590000Y-74870000D01*
X194470000Y-68870000D02*
X194470000Y-74870000D01*
X194350000Y-68870000D02*
X194350000Y-74870000D01*
X194230000Y-68870000D02*
X194230000Y-74870000D01*
X194110000Y-68870000D02*
X194110000Y-74870000D01*
X193990000Y-68870000D02*
X193990000Y-74870000D01*
X194690000Y-74870000D02*
X194690000Y-68870000D01*
X193930000Y-74870000D02*
X194690000Y-74870000D01*
X193930000Y-68870000D02*
X193930000Y-74870000D01*
X192980000Y-68870000D02*
X192980000Y-66210000D01*
X200720000Y-68870000D02*
X192980000Y-68870000D01*
X200720000Y-66210000D02*
X200720000Y-68870000D01*
X192980000Y-66210000D02*
X200720000Y-66210000D01*
X218669999Y-12720000D02*
X218670000Y-60940000D01*
X218670000Y-60940000D02*
X190270001Y-60940000D01*
X190270001Y-60940000D02*
X190270000Y-12720000D01*
X190270000Y-12720000D02*
X199736667Y-12720000D01*
X199736667Y-12720000D02*
X199736667Y-13080000D01*
X199736667Y-13080000D02*
X209203333Y-13080000D01*
X209203333Y-13080000D02*
X209203333Y-12720000D01*
X209203333Y-12720000D02*
X218669999Y-12720000D01*
D11*
X191492380Y-68821666D02*
X192206666Y-68821666D01*
X192349523Y-68774047D01*
X192444761Y-68678809D01*
X192492380Y-68535952D01*
X192492380Y-68440714D01*
X192492380Y-69821666D02*
X192492380Y-69250238D01*
X192492380Y-69535952D02*
X191492380Y-69535952D01*
X191635238Y-69440714D01*
X191730476Y-69345476D01*
X191778095Y-69250238D01*
X205231904Y-11172380D02*
X205231904Y-11981904D01*
X205184285Y-12077142D01*
X205136666Y-12124761D01*
X205041428Y-12172380D01*
X204850952Y-12172380D01*
X204755714Y-12124761D01*
X204708095Y-12077142D01*
X204660476Y-11981904D01*
X204660476Y-11172380D01*
X203660476Y-12172380D02*
X204231904Y-12172380D01*
X203946190Y-12172380D02*
X203946190Y-11172380D01*
X204041428Y-11315238D01*
X204136666Y-11410476D01*
X204231904Y-11458095D01*
M02*
