G04 #@! TF.GenerationSoftware,KiCad,Pcbnew,(5.1.10)-1*
G04 #@! TF.CreationDate,2021-07-16T09:38:32+09:00*
G04 #@! TF.ProjectId,Key_checker,4b65795f-6368-4656-936b-65722e6b6963,rev?*
G04 #@! TF.SameCoordinates,Original*
G04 #@! TF.FileFunction,Legend,Bot*
G04 #@! TF.FilePolarity,Positive*
%FSLAX46Y46*%
G04 Gerber Fmt 4.6, Leading zero omitted, Abs format (unit mm)*
G04 Created by KiCad (PCBNEW (5.1.10)-1) date 2021-07-16 09:38:32*
%MOMM*%
%LPD*%
G01*
G04 APERTURE LIST*
%ADD10C,0.120000*%
%ADD11C,0.150000*%
G04 APERTURE END LIST*
D10*
X148610000Y-42950001D02*
X196830000Y-42950000D01*
X196830000Y-42950000D02*
X196830000Y-71349999D01*
X196830000Y-71349999D02*
X148610000Y-71350000D01*
X148610000Y-71350000D02*
X148610000Y-61883333D01*
X148610000Y-61883333D02*
X148970000Y-61883333D01*
X148970000Y-61883333D02*
X148970000Y-52416667D01*
X148970000Y-52416667D02*
X148610000Y-52416667D01*
X148610000Y-52416667D02*
X148610000Y-42950001D01*
X197730000Y-62230000D02*
X197730000Y-63500000D01*
X199000000Y-62230000D02*
X197730000Y-62230000D01*
X204460000Y-64542929D02*
X204460000Y-64940000D01*
X203700000Y-64542929D02*
X203700000Y-64940000D01*
X204460000Y-73600000D02*
X204460000Y-67600000D01*
X203700000Y-73600000D02*
X204460000Y-73600000D01*
X203700000Y-67600000D02*
X203700000Y-73600000D01*
X202810000Y-64940000D02*
X202810000Y-67600000D01*
X201920000Y-64542929D02*
X201920000Y-64940000D01*
X201160000Y-64542929D02*
X201160000Y-64940000D01*
X201920000Y-73600000D02*
X201920000Y-67600000D01*
X201160000Y-73600000D02*
X201920000Y-73600000D01*
X201160000Y-67600000D02*
X201160000Y-73600000D01*
X200270000Y-64940000D02*
X200270000Y-67600000D01*
X199380000Y-64610000D02*
X199380000Y-64940000D01*
X198620000Y-64610000D02*
X198620000Y-64940000D01*
X199280000Y-67600000D02*
X199280000Y-73600000D01*
X199160000Y-67600000D02*
X199160000Y-73600000D01*
X199040000Y-67600000D02*
X199040000Y-73600000D01*
X198920000Y-67600000D02*
X198920000Y-73600000D01*
X198800000Y-67600000D02*
X198800000Y-73600000D01*
X198680000Y-67600000D02*
X198680000Y-73600000D01*
X199380000Y-73600000D02*
X199380000Y-67600000D01*
X198620000Y-73600000D02*
X199380000Y-73600000D01*
X198620000Y-67600000D02*
X198620000Y-73600000D01*
X197670000Y-67600000D02*
X197670000Y-64940000D01*
X205410000Y-67600000D02*
X197670000Y-67600000D01*
X205410000Y-64940000D02*
X205410000Y-67600000D01*
X197670000Y-64940000D02*
X205410000Y-64940000D01*
D11*
X148157619Y-57911904D02*
X147348095Y-57911904D01*
X147252857Y-57864285D01*
X147205238Y-57816666D01*
X147157619Y-57721428D01*
X147157619Y-57530952D01*
X147205238Y-57435714D01*
X147252857Y-57388095D01*
X147348095Y-57340476D01*
X148157619Y-57340476D01*
X147157619Y-56340476D02*
X147157619Y-56911904D01*
X147157619Y-56626190D02*
X148157619Y-56626190D01*
X148014761Y-56721428D01*
X147919523Y-56816666D01*
X147871904Y-56911904D01*
X196182380Y-67551666D02*
X196896666Y-67551666D01*
X197039523Y-67504047D01*
X197134761Y-67408809D01*
X197182380Y-67265952D01*
X197182380Y-67170714D01*
X197182380Y-68551666D02*
X197182380Y-67980238D01*
X197182380Y-68265952D02*
X196182380Y-68265952D01*
X196325238Y-68170714D01*
X196420476Y-68075476D01*
X196468095Y-67980238D01*
M02*
