M48
; DRILL file {KiCad (5.1.10)-1} date 07/16/21 09:38:55
; FORMAT={2:4/ absolute / inch / suppress leading zeros}
; #@! TF.CreationDate,2021-07-16T09:38:55+09:00
; #@! TF.GenerationSoftware,Kicad,Pcbnew,(5.1.10)-1
FMAT,2
INCH,TZ
T1C0.0276
T2C0.0354
T3C0.0394
%
G90
G05
T2
X61000Y-25000
X61250Y-21500
X61500Y-25000
X62000Y-25000
X62250Y-21500
X62500Y-25000
X65106Y-31713
X65106Y-32713
X76000Y-19500
X76000Y-21469
X76984Y-20484
T3
X59000Y-17500
X59000Y-27500
X60000Y-17500
X60000Y-27500
X61000Y-17500
X61000Y-27500
X62000Y-17500
X62000Y-27500
X62856Y-30713
X62856Y-31713
X62856Y-32713
X63000Y-17500
X63000Y-27500
X64000Y-17500
X64000Y-27500
X65000Y-17500
X65000Y-27500
X66000Y-17500
X66000Y-27500
X67000Y-17500
X67000Y-27500
X68000Y-17500
X68000Y-27500
X69000Y-17500
X69000Y-27500
X70000Y-17500
X70000Y-27500
X71000Y-17500
X71000Y-27500
X72000Y-17500
X72000Y-27500
X73000Y-17500
X73000Y-27500
X74000Y-17500
X74000Y-27500
X75000Y-17500
X75000Y-27500
X76000Y-17500
X76000Y-27500
X77000Y-17500
X77000Y-27500
X78346Y-25000
X78750Y-17750
X79346Y-25000
X79750Y-17750
X80346Y-25000
X80750Y-17750
X81750Y-17750
T1
G00X71642Y-31201
M15
G01X71642Y-32224
M16
G05
G00X75106Y-31201
M15
G01X75106Y-32224
M16
G05
G00X77980Y-31201
M15
G01X77980Y-32224
M16
G05
T0
M30
