G04 #@! TF.GenerationSoftware,KiCad,Pcbnew,5.1.12-84ad8e8a86~92~ubuntu20.04.1*
G04 #@! TF.CreationDate,2021-12-17T13:54:35+09:00*
G04 #@! TF.ProjectId,Key_checker,4b65795f-6368-4656-936b-65722e6b6963,rev?*
G04 #@! TF.SameCoordinates,Original*
G04 #@! TF.FileFunction,Profile,NP*
%FSLAX46Y46*%
G04 Gerber Fmt 4.6, Leading zero omitted, Abs format (unit mm)*
G04 Created by KiCad (PCBNEW 5.1.12-84ad8e8a86~92~ubuntu20.04.1) date 2021-12-17 13:54:35*
%MOMM*%
%LPD*%
G01*
G04 APERTURE LIST*
G04 #@! TA.AperFunction,Profile*
%ADD10C,0.050000*%
G04 #@! TD*
G04 APERTURE END LIST*
D10*
X154066666Y-76200000D02*
G75*
G03*
X154066666Y-76200000I-1666666J0D01*
G01*
X149900000Y-76200000D02*
X154900000Y-76200000D01*
X152400000Y-73700000D02*
X152400000Y-78700000D01*
X179720000Y-46030000D02*
X180015000Y-46045000D01*
X183515000Y-42545000D02*
G75*
G02*
X180015000Y-46045000I-3500000J0D01*
G01*
X176220000Y-65000000D02*
X176220000Y-49530000D01*
X176220000Y-49530000D02*
G75*
G02*
X179720000Y-46030000I3500000J0D01*
G01*
X174720000Y-65000000D02*
G75*
G03*
X174720000Y-65000000I-2000000J0D01*
G01*
X156500000Y-25000000D02*
X156500000Y-65000000D01*
X185000000Y-26000000D02*
X185000000Y-9000000D01*
X183500000Y-26000000D02*
X183500000Y-25000000D01*
X183515000Y-42545000D02*
X183500000Y-31000000D01*
X185000000Y-31000000D02*
X185000000Y-70000000D01*
X183500000Y-31000000D02*
G75*
G02*
X185000000Y-31000000I750000J0D01*
G01*
X185000000Y-26000000D02*
G75*
G02*
X183500000Y-26000000I-750000J0D01*
G01*
X172720000Y-68500000D02*
X160000000Y-68500000D01*
X176220000Y-65000000D02*
G75*
G02*
X172720000Y-68500000I-3500000J0D01*
G01*
X160000000Y-21500000D02*
X180000000Y-21500000D01*
X180000000Y-21500000D02*
G75*
G02*
X183500000Y-25000000I0J-3500000D01*
G01*
X160000000Y-68500000D02*
G75*
G02*
X156500000Y-65000000I0J3500000D01*
G01*
X156500000Y-25000000D02*
G75*
G02*
X160000000Y-21500000I3500000J0D01*
G01*
X188500000Y-73500000D02*
X220000000Y-73500000D01*
X220000000Y-5500000D02*
X188500000Y-5500000D01*
X223500000Y-70000000D02*
X223500000Y-9000000D01*
X223500000Y-70000000D02*
G75*
G02*
X220000000Y-73500000I-3500000J0D01*
G01*
X188500000Y-73500000D02*
G75*
G02*
X185000000Y-70000000I0J3500000D01*
G01*
X185000000Y-9000000D02*
G75*
G02*
X188500000Y-5500000I3500000J0D01*
G01*
X220000000Y-5500000D02*
G75*
G02*
X223500000Y-9000000I0J-3500000D01*
G01*
X162000000Y-65000000D02*
G75*
G03*
X162000000Y-65000000I-2000000J0D01*
G01*
X162000000Y-25000000D02*
G75*
G03*
X162000000Y-25000000I-2000000J0D01*
G01*
X222000000Y-9000000D02*
G75*
G03*
X222000000Y-9000000I-2000000J0D01*
G01*
X190500000Y-9000000D02*
G75*
G03*
X190500000Y-9000000I-2000000J0D01*
G01*
X190500000Y-70000000D02*
G75*
G03*
X190500000Y-70000000I-2000000J0D01*
G01*
X222000000Y-70000000D02*
G75*
G03*
X222000000Y-70000000I-2000000J0D01*
G01*
M02*
