G04 #@! TF.GenerationSoftware,KiCad,Pcbnew,(5.1.10)-1*
G04 #@! TF.CreationDate,2021-07-16T09:38:32+09:00*
G04 #@! TF.ProjectId,Key_checker,4b65795f-6368-4656-936b-65722e6b6963,rev?*
G04 #@! TF.SameCoordinates,Original*
G04 #@! TF.FileFunction,Profile,NP*
%FSLAX46Y46*%
G04 Gerber Fmt 4.6, Leading zero omitted, Abs format (unit mm)*
G04 Created by KiCad (PCBNEW (5.1.10)-1) date 2021-07-16 09:38:32*
%MOMM*%
%LPD*%
G01*
G04 APERTURE LIST*
G04 #@! TA.AperFunction,Profile*
%ADD10C,0.050000*%
G04 #@! TD*
G04 APERTURE END LIST*
D10*
X208915000Y-73660000D02*
X200660000Y-73660000D01*
X200660000Y-74930000D02*
X211090000Y-74930000D01*
X195580000Y-74930000D02*
X168275000Y-74930000D01*
X168275000Y-73660000D02*
X195580000Y-73660000D01*
X163195000Y-74930000D02*
X147590000Y-74930000D01*
X163195000Y-73660000D02*
X149225000Y-73660000D01*
X200660000Y-74930000D02*
G75*
G02*
X200660000Y-73660000I0J635000D01*
G01*
X195580000Y-73660000D02*
G75*
G02*
X195580000Y-74930000I0J-635000D01*
G01*
X168275000Y-74930000D02*
G75*
G02*
X168275000Y-73660000I0J635000D01*
G01*
X163195000Y-73660000D02*
G75*
G02*
X163195000Y-74930000I0J-635000D01*
G01*
X200025000Y-74295000D02*
G75*
G03*
X200025000Y-74295000I-635000J0D01*
G01*
X198755000Y-74295000D02*
G75*
G03*
X198755000Y-74295000I-635000J0D01*
G01*
X197485000Y-74295000D02*
G75*
G03*
X197485000Y-74295000I-635000J0D01*
G01*
X167640000Y-74295000D02*
G75*
G03*
X167640000Y-74295000I-635000J0D01*
G01*
X165100000Y-74295000D02*
G75*
G03*
X165100000Y-74295000I-635000J0D01*
G01*
X166370000Y-74295000D02*
G75*
G03*
X166370000Y-74295000I-635000J0D01*
G01*
X209000000Y-81000000D02*
G75*
G03*
X209000000Y-81000000I-3000000J0D01*
G01*
X177000000Y-81000000D02*
G75*
G03*
X177000000Y-81000000I-3000000J0D01*
G01*
X147590000Y-85630000D02*
X147590000Y-74930000D01*
X211090000Y-85630000D02*
X147590000Y-85630000D01*
X211090000Y-74930000D02*
X211090000Y-85630000D01*
X209000000Y-51500000D02*
G75*
G03*
X209000000Y-51500000I-3000000J0D01*
G01*
X149225000Y-40640000D02*
X208915000Y-40640000D01*
X211455000Y-71120000D02*
G75*
G02*
X208915000Y-73660000I-2540000J0D01*
G01*
X208915000Y-40640000D02*
G75*
G02*
X211455000Y-43180000I0J-2540000D01*
G01*
X211455000Y-71120000D02*
X211455000Y-43180000D01*
X149225000Y-73660000D02*
G75*
G02*
X146685000Y-71120000I0J2540000D01*
G01*
X146685000Y-43180000D02*
X146685000Y-71120000D01*
X146685000Y-43180000D02*
G75*
G02*
X149225000Y-40640000I2540000J0D01*
G01*
M02*
